<?xml version="1.0" encoding="utf-8"?>
<!-- Generator: Adobe Illustrator 15.1.0, SVG Export Plug-In . SVG Version: 6.00 Build 0)  -->
<!DOCTYPE svg PUBLIC "-//W3C//DTD SVG 1.1//EN" "http://www.w3.org/Graphics/SVG/1.1/DTD/svg11.dtd">
<svg version="1.1" id="Layer_1" xmlns="http://www.w3.org/2000/svg" xmlns:xlink="http://www.w3.org/1999/xlink" x="0px" y="0px"
	 width="99.441px" height="99.44px" viewBox="0 0 99.441 99.44" enable-background="new 0 0 99.441 99.44" xml:space="preserve">
<g>
	<path fill="#F26722" d="M39.68,42.906h9.852c1.881,0,3.402-1.542,3.402-3.403s-1.521-3.385-3.402-3.385H39.68
		c-1.879,0-3.402,1.523-3.402,3.385S37.801,42.906,39.68,42.906z"/>
	<path fill="#F26722" d="M59.703,56.461H39.68c-1.879,0-3.402,1.521-3.402,3.383c0,1.842,1.523,3.385,3.402,3.385h20.023
		c1.861,0,3.383-1.543,3.383-3.385C63.086,57.983,61.564,56.461,59.703,56.461z"/>
	<path fill="#F26722" d="M88.701,0H10.74C4.809,0,0,4.81,0,10.74v77.961c0,5.93,4.809,10.738,10.74,10.738h77.961
		c5.932,0,10.74-4.809,10.74-10.738V10.74C99.441,4.81,94.633,0,88.701,0z M77.639,60.108c-0.059,9.758-7.99,17.748-17.768,17.748
		H39.455c-9.777,0-17.766-7.99-17.766-17.748V39.371c0-9.776,7.988-17.784,17.766-17.784h12.428
		c4.586,0.544,11.262,4.474,13.725,9.701c0.676,1.466,1.033,1.69,1.598,6.035c0.301,2.236,0.449,3.891,1.447,4.812
		c1.41,1.278,6.637,0.414,7.67,1.223l0.791,0.62l0.467,0.978l0.172,0.789L77.639,60.108z"/>
</g>
</svg>
