<?xml version="1.0" encoding="utf-8"?>
<!DOCTYPE svg PUBLIC "-//W3C//DTD SVG 1.1//EN" "http://www.w3.org/Graphics/SVG/1.1/DTD/svg11.dtd">
<svg version="1.1" id="Layer_1" xmlns="http://www.w3.org/2000/svg" xmlns:xlink="http://www.w3.org/1999/xlink" x="0px" y="0px"
	 width="99.441px" height="99.44px" viewBox="0 0 99.441 99.44" enable-background="new 0 0 99.441 99.44" xml:space="preserve">
<g id="bebo">
	<path fill-rule="evenodd" clip-rule="evenodd" fill="#BCBCBC" d="M98.683,41.33l-0.828-1.724l-1.391-1.092
		c-1.822-1.425-11.033,0.099-13.52-2.156c-1.756-1.622-2.02-4.537-2.551-8.479c-0.994-7.658-1.621-8.052-2.814-10.637
		C73.239,8.031,61.474,1.105,53.392,0.146H31.488c-17.229,0-31.311,14.113-31.311,31.343v36.547
		c0,17.195,14.082,31.277,31.311,31.277H67.47c17.23,0,31.213-14.082,31.314-31.277l0.199-25.314L98.683,41.33z M31.885,25.756
		h17.362c3.314,0,5.998,2.685,5.998,5.966c0,3.279-2.684,5.998-5.998,5.998H31.885c-3.312,0-5.995-2.719-5.995-5.998
		C25.89,28.44,28.574,25.756,31.885,25.756z M67.171,73.536H31.885c-3.312,0-5.995-2.717-5.995-5.965
		c0-3.279,2.684-5.963,5.995-5.963h35.286c3.283,0,5.967,2.684,5.967,5.963C73.138,70.819,70.454,73.536,67.171,73.536z"/>
</g>
</svg>
