<?xml version="1.0" encoding="utf-8"?>
<!DOCTYPE svg PUBLIC "-//W3C//DTD SVG 1.1//EN" "http://www.w3.org/Graphics/SVG/1.1/DTD/svg11.dtd">
<svg version="1.1" id="Layer_1" xmlns="http://www.w3.org/2000/svg" xmlns:xlink="http://www.w3.org/1999/xlink" x="0px" y="0px"
	 width="99.441px" height="99.44px" viewBox="0 0 99.441 99.44" enable-background="new 0 0 99.441 99.44" xml:space="preserve">
  <g id="behance">
    <path fill="#BCBCBC" d="M39.905,45.657c0,0,9.359-0.694,9.359-11.668c0-10.975-7.655-16.329-17.353-16.329H14.06h-0.527H0v61.325
      h13.533h0.527h17.851c0,0,19.479,0.614,19.479-18.099C51.39,60.886,52.24,45.657,39.905,45.657z M29.614,28.56h2.297
      c0,0,4.336,0,4.336,6.381c0,6.378-2.552,7.303-5.442,7.303H14.06V28.56H29.614z M31.008,68.086H14.06V51.699h17.851
      c0,0,6.464-0.086,6.464,8.42C38.375,67.292,33.548,68.032,31.008,68.086z"/>
    <path fill="#BCBCBC" d="M77.37,33.263c-23.581,0-23.56,23.562-23.56,23.562s-1.618,23.443,23.56,23.443
      c0,0,20.987,1.197,20.987-16.309H87.563c0,0,0.362,6.594-9.833,6.594c0,0-10.791,0.722-10.791-10.671h31.777
      C98.717,59.882,102.19,33.263,77.37,33.263z M66.822,51.699c0,0,1.317-9.455,10.791-9.455c9.472,0,9.353,9.455,9.353,9.455H66.822z
      "/>
    <rect x="64.18" y="21.272" fill="#BCBCBC" width="25.3" height="7.554"/>
  </g>
</svg>
