<?xml version="1.0" encoding="utf-8"?>
<!DOCTYPE svg PUBLIC "-//W3C//DTD SVG 1.1//EN" "http://www.w3.org/Graphics/SVG/1.1/DTD/svg11.dtd">
<svg version="1.1" id="Layer_1" xmlns="http://www.w3.org/2000/svg" xmlns:xlink="http://www.w3.org/1999/xlink" x="0px" y="0px"
	 width="99.441px" height="99.44px" viewBox="0 0 99.441 99.44" enable-background="new 0 0 99.441 99.44" xml:space="preserve">
<g id="behance-sign">
	<path fill="#4064AF" d="M40.622,39.143c0-4.619-3.141-4.619-3.141-4.619h-1.664h-11.26v9.907h12.123
		C38.774,44.431,40.622,43.761,40.622,39.143z"/>
	<path fill="#4064AF" d="M70.569,44.431c-6.859,0-7.812,6.844-7.812,6.844h14.584C77.341,51.275,77.427,44.431,70.569,44.431z"/>
	<path fill="#4064AF" d="M37.481,51.275H24.558v11.866h12.271c1.838-0.04,5.332-0.575,5.332-5.769
		C42.161,51.214,37.481,51.275,37.481,51.275z"/>
	<path fill="#4064AF" d="M88.722,0.023H10.761c-5.932,0-10.74,4.809-10.74,10.738v77.963c0,5.93,4.809,10.738,10.74,10.738h77.961
		c5.932,0,10.738-4.809,10.738-10.738V10.761C99.46,4.832,94.653,0.023,88.722,0.023z M60.843,29.248h18.318v5.469H60.843V29.248z
		 M51.585,57.927c0,13.549-14.104,13.104-14.104,13.104H24.558h-0.381h-9.799V26.632h9.799h0.381h12.924
		c7.021,0,12.564,3.877,12.564,11.822s-6.777,8.447-6.777,8.447C52.2,46.902,51.585,57.927,51.585,57.927z M85.849,57.202H62.841
		c0,8.247,7.814,7.726,7.814,7.726c7.379,0,7.119-4.774,7.119-4.774h7.814c0,12.675-15.195,11.808-15.195,11.808
		c-18.229,0-17.057-16.973-17.057-16.973s-0.016-17.059,17.057-17.059C88.364,37.929,85.849,57.202,85.849,57.202z"/>
</g>
</svg>
