<?xml version="1.0" encoding="utf-8"?>
<!-- Generator: Adobe Illustrator 15.1.0, SVG Export Plug-In . SVG Version: 6.00 Build 0)  -->
<!DOCTYPE svg PUBLIC "-//W3C//DTD SVG 1.1//EN" "http://www.w3.org/Graphics/SVG/1.1/DTD/svg11.dtd">
<svg version="1.1" id="Layer_1" xmlns="http://www.w3.org/2000/svg" xmlns:xlink="http://www.w3.org/1999/xlink" x="0px" y="0px"
	 width="99.441px" height="99.44px" viewBox="0 0 99.441 99.44" enable-background="new 0 0 99.441 99.44" xml:space="preserve">
<g id="twitter" display="none">
	<path display="inline" fill="#BCBCBC" d="M98.986,18.657c-3.61,1.602-7.495,2.684-11.57,3.171c4.16-2.492,7.354-6.443,8.858-11.148
		c-3.894,2.31-8.204,3.986-12.795,4.89c-3.675-3.915-8.913-6.363-14.704-6.363c-11.131,0-20.153,9.022-20.153,20.15
		c0,1.576,0.179,3.115,0.522,4.591c-16.746-0.84-31.591-8.861-41.53-21.052c-1.733,2.976-2.728,6.437-2.728,10.129
		c0,6.991,3.555,13.157,8.962,16.772c-3.299-0.105-6.406-1.014-9.125-2.523c-0.002,0.086-0.002,0.17-0.002,0.254
		c0,9.762,6.946,17.908,16.164,19.759c-1.692,0.456-3.472,0.705-5.31,0.705c-1.297,0-2.56-0.127-3.792-0.361
		c2.566,8.003,10.008,13.83,18.823,13.992c-6.897,5.404-15.582,8.625-25.024,8.625c-1.625,0-3.228-0.097-4.805-0.28
		c8.917,5.716,19.508,9.051,30.886,9.051c37.059,0,57.33-30.701,57.33-57.327c0-0.874-0.023-1.744-0.062-2.608
		C92.872,26.245,96.286,22.695,98.986,18.657z"/>
</g>
<g id="linkedin" display="none">
	<path display="inline" fill-rule="evenodd" clip-rule="evenodd" fill="#BCBCBC" d="M22.61,94.878V31.644H1.595v63.234H22.61
		L22.61,94.878z M12.104,23.016c7.328,0,11.89-4.86,11.89-10.928c-0.136-6.204-4.562-10.926-11.75-10.926
		c-7.192,0-11.89,4.722-11.89,10.926c0,6.068,4.559,10.928,11.614,10.928H12.104L12.104,23.016z"/>
	<path display="inline" fill-rule="evenodd" clip-rule="evenodd" fill="#BCBCBC" d="M34.244,94.878H55.26V59.565
		c0-1.89,0.135-3.78,0.692-5.128c1.518-3.775,4.977-7.69,10.781-7.69c7.606,0,10.649,5.804,10.649,14.304v33.828h21.016V58.618
		c0-19.419-10.37-28.456-24.196-28.456c-11.34,0-16.315,6.339-19.082,10.654h0.14v-9.171H34.244
		C34.519,37.575,34.244,94.878,34.244,94.878L34.244,94.878z"/>
</g>
<g id="facebook" display="none">
	<path display="inline" fill="#BCBCBC" d="M38.731,99.853V53.049H26.355V36.196h12.376c0,0,0-6.904,0-14.392
		c0-11.312,7.309-21.697,24.153-21.697c6.822,0,11.864,0.655,11.864,0.655l-0.396,15.735c0,0-5.145-0.05-10.756-0.05
		c-6.075,0-7.046,2.8-7.046,7.445c0,3.673,0-7.83,0,12.303h18.283l-0.795,16.854H56.551v46.804H38.731z"/>
</g>
<g id="yelp" display="none">
	<g display="inline">
		<path fill="#BCBCBC" d="M59.079,63.383c-1.67,1.684-0.26,4.746-0.26,4.746l12.564,20.98c0,0,2.064,2.764,3.854,2.764
			c1.793,0,3.566-1.471,3.566-1.471l9.936-14.199c0,0,1-1.795,1.021-3.363c0.037-2.23-3.328-2.846-3.328-2.846l-23.516-7.549
			C62.917,62.446,60.61,61.833,59.079,63.383z"/>
		<path fill="#BCBCBC" d="M57.888,52.807c1.199,2.041,4.521,1.447,4.521,1.447l23.463-6.859c0,0,3.197-1.299,3.654-3.034
			c0.449-1.733-0.529-3.827-0.529-3.827L77.786,27.327c0,0-0.973-1.671-2.988-1.838c-2.223-0.19-3.594,2.501-3.594,2.501
			L57.95,48.855C57.95,48.855,56.774,50.934,57.888,52.807z"/>
		<path fill="#BCBCBC" d="M46.798,44.673c2.764-0.681,3.203-4.69,3.203-4.69l-0.185-33.41c0,0-0.418-4.122-2.27-5.236
			c-2.906-1.763-3.766-0.844-4.598-0.72L23.466,7.855c0,0-1.907,0.628-2.9,2.222c-1.418,2.257,1.443,5.56,1.443,5.56l20.248,27.598
			C42.256,43.235,44.254,45.303,46.798,44.673z"/>
		<path fill="#BCBCBC" d="M41.988,58.194c0.069-2.576-3.093-4.125-3.093-4.125l-20.94-10.578c0,0-3.101-1.279-4.608-0.388
			c-1.153,0.682-2.175,1.916-2.275,3.008L9.706,62.899c0,0-0.204,2.906,0.547,4.23c1.069,1.879,4.584,0.57,4.584,0.57l24.443-5.402
			C40.232,61.659,41.899,61.602,41.988,58.194z"/>
		<path fill="#BCBCBC" d="M48.069,67.256c-2.1-1.08-4.609,1.15-4.609,1.15l-16.37,18.02c0,0-2.041,2.758-1.524,4.449
			c0.488,1.584,1.3,2.375,2.445,2.93l16.439,5.189c0,0,1.994,0.416,3.503-0.023c2.142-0.621,1.745-3.977,1.745-3.977L50.071,70.6
			C50.071,70.6,49.989,68.249,48.069,67.256z"/>
	</g>
</g>
<g id="lastfm" display="none">
	<path display="inline" fill="#BCBCBC" d="M43.663,69.831l-3.637-9.887c0,0-5.911,6.596-14.774,6.596
		c-7.839,0-13.407-6.82-13.407-17.731c0-13.977,7.044-18.979,13.978-18.979c9.996,0,13.18,6.479,15.91,14.773l3.639,11.363
		c3.632,11.024,10.451,19.888,30.11,19.888c14.092,0,23.638-4.316,23.638-15.682c0-9.205-5.229-13.976-14.999-16.249l-7.273-1.592
		c-5.002-1.137-6.478-3.181-6.478-6.591c0-3.864,3.068-6.135,8.067-6.135c5.456,0,8.41,2.045,8.865,6.931l11.365-1.366
		c-0.913-10.226-7.956-14.43-19.549-14.43c-10.228,0-20.229,3.862-20.229,16.251c0,7.727,3.753,12.611,13.181,14.888l7.728,1.814
		c5.8,1.366,7.729,3.753,7.729,7.046c0,4.206-4.092,5.908-11.821,5.908c-11.474,0-16.246-6.021-18.977-14.316l-3.748-11.362
		C48.209,26.195,40.595,20.74,25.479,20.74c-16.706,0-25.568,10.567-25.568,28.521c0,17.279,8.863,26.592,24.772,26.592
		C37.524,75.853,43.663,69.831,43.663,69.831L43.663,69.831z"/>
</g>
<g id="tumblr" display="none">
	<path display="inline" fill="#BCBCBC" d="M54.139,0.441v24.773h23.256v15.385H54.139V65.73c0,5.679,0.299,9.325,0.904,10.942
		c0.598,1.611,1.721,2.9,3.355,3.863c2.171,1.299,4.647,1.952,7.439,1.952c4.959,0,9.896-1.615,14.806-4.844v15.457
		c-4.188,1.972-7.979,3.36-11.375,4.153c-3.393,0.793-7.065,1.19-11.012,1.19c-4.477,0-8.439-0.564-11.881-1.695
		c-3.442-1.133-6.376-2.746-8.81-4.838c-2.433-2.095-4.117-4.323-5.056-6.684c-0.939-2.357-1.41-5.777-1.41-10.253V40.599h-10.83
		v-13.87c3.848-1.251,7.148-3.042,9.89-5.378c2.75-2.332,4.949-5.139,6.61-8.416c1.66-3.27,2.801-7.435,3.43-12.493H54.139z"/>
</g>
<g id="pinterest" display="none">
	<path display="inline" fill="#BCBCBC" d="M50.991-0.056c-27.168,0-40.869,19.478-40.869,35.721c0,9.834,3.724,18.585,11.713,21.843
		c1.309,0.535,2.479,0.018,2.858-1.432c0.268-1,0.889-3.535,1.168-4.588c0.385-1.434,0.236-1.937-0.823-3.188
		c-2.3-2.715-3.771-6.231-3.771-11.211c0-14.451,10.808-27.388,28.149-27.388c15.36,0,23.795,9.382,23.795,21.912
		c0,16.488-7.297,30.404-18.127,30.404c-5.984,0-10.465-4.947-9.027-11.014c1.719-7.245,5.05-15.062,5.05-20.292
		c0-4.68-2.514-8.583-7.716-8.583c-6.114,0-11.026,6.326-11.026,14.8c0,5.396,1.823,9.049,1.823,9.049s-6.258,26.515-7.354,31.156
		c-2.185,9.25-0.331,20.59-0.172,21.732c0.092,0.68,0.964,0.838,1.36,0.33c0.563-0.74,7.848-9.73,10.325-18.715
		c0.699-2.545,4.023-15.719,4.023-15.719c1.987,3.791,7.791,7.127,13.965,7.127c18.383,0,30.855-16.758,30.855-39.187
		C87.192,15.738,72.825-0.056,50.991-0.056z"/>
</g>
<g id="flickr" display="none">
	<circle display="inline" fill="#BCBCBC" cx="22.285" cy="48.984" r="22.19"/>
	<circle display="inline" fill="#BCBCBC" cx="76.97" cy="48.984" r="22.191"/>
</g>
<g id="vevo" display="none">
	<polygon display="inline" fill="#BCBCBC" points="0.437,15.079 24.732,15.079 50.283,65.543 75.717,15.079 99.004,15.079 
		63.502,81.957 37.971,81.957 	"/>
</g>
<g id="wordpress" display="none">
	<g display="inline">
		<path fill="#BCBCBC" d="M9.755,49.754c0,15.827,9.2,29.504,22.538,35.984L13.217,33.481C11.001,38.454,9.755,43.956,9.755,49.754z
			"/>
		<path fill="#BCBCBC" d="M76.736,47.737c0-4.944-1.777-8.366-3.3-11.028c-2.023-3.295-3.926-6.083-3.926-9.376
			c0-3.677,2.786-7.099,6.715-7.099c0.179,0,0.345,0.021,0.516,0.032C69.63,13.748,60.148,9.769,49.742,9.769
			c-13.971,0-26.26,7.167-33.408,18.021c0.938,0.032,1.82,0.05,2.571,0.05c4.185,0,10.657-0.507,10.657-0.507
			c2.155-0.128,2.408,3.037,0.257,3.293c0,0-2.166,0.254-4.577,0.379l14.561,43.314l8.753-26.244l-6.229-17.07
			c-2.155-0.125-4.196-0.379-4.196-0.379c-2.155-0.126-1.9-3.421,0.254-3.293c0,0,6.601,0.507,10.533,0.507
			c4.18,0,10.654-0.507,10.654-0.507c2.154-0.128,2.411,3.037,0.257,3.293c0,0-2.169,0.254-4.574,0.379L69.705,73.99l3.987-13.327
			C75.418,55.131,76.736,51.158,76.736,47.737z"/>
		<path fill="#BCBCBC" d="M50.443,53.25L38.445,88.113c3.583,1.053,7.371,1.629,11.297,1.629c4.656,0,9.119-0.804,13.277-2.267
			c-0.107-0.172-0.204-0.354-0.286-0.552L50.443,53.25z"/>
		<path fill="#BCBCBC" d="M49.742,0.004c-27.433,0-49.75,22.317-49.75,49.75c0,27.434,22.318,49.751,49.75,49.751
			c27.432,0,49.75-22.317,49.75-49.751C99.492,22.321,77.174,0.004,49.742,0.004z M49.742,94.227
			c-24.525,0-44.473-19.951-44.473-44.473C5.269,25.23,25.217,5.28,49.742,5.28c24.521,0,44.47,19.95,44.47,44.474
			C94.212,74.276,74.264,94.227,49.742,94.227z"/>
		<path fill="#BCBCBC" d="M84.83,30.57c0.171,1.273,0.267,2.638,0.267,4.11c0,4.057-0.757,8.62-3.039,14.325L69.844,84.314
			c11.889-6.931,19.883-19.81,19.883-34.56C89.727,42.802,87.95,36.265,84.83,30.57z"/>
	</g>
</g>
<g id="bebo" display="none">
	<path display="inline" fill-rule="evenodd" clip-rule="evenodd" fill="#BCBCBC" d="M98.683,41.33l-0.828-1.724l-1.391-1.092
		c-1.822-1.425-11.033,0.099-13.52-2.156c-1.756-1.622-2.02-4.537-2.551-8.479c-0.994-7.658-1.621-8.052-2.814-10.637
		C73.239,8.031,61.474,1.105,53.392,0.146H31.488c-17.229,0-31.311,14.113-31.311,31.343v36.547
		c0,17.195,14.082,31.277,31.311,31.277H67.47c17.23,0,31.213-14.082,31.314-31.277l0.199-25.314L98.683,41.33z M31.885,25.756
		h17.362c3.314,0,5.998,2.685,5.998,5.966c0,3.279-2.684,5.998-5.998,5.998H31.885c-3.312,0-5.995-2.719-5.995-5.998
		C25.89,28.44,28.574,25.756,31.885,25.756z M67.171,73.536H31.885c-3.312,0-5.995-2.717-5.995-5.965
		c0-3.279,2.684-5.963,5.995-5.963h35.286c3.283,0,5.967,2.684,5.967,5.963C73.138,70.819,70.454,73.536,67.171,73.536z"/>
</g>
<g id="instagram" display="none">
	<path display="inline" fill-rule="evenodd" clip-rule="evenodd" fill="#BCBCBC" d="M87.688,42.122h-8.593
		c0.627,2.431,0.996,4.97,0.996,7.597c0,16.776-13.598,30.371-30.371,30.371c-16.775,0-30.374-13.595-30.374-30.371
		c0-2.627,0.372-5.166,0.999-7.597h-8.594v41.768c0,2.091,1.696,3.793,3.8,3.793h68.336c2.1,0,3.8-1.702,3.8-3.793V42.122z
		 M87.688,15.546c0-2.095-1.7-3.797-3.8-3.797H72.502c-2.097,0-3.797,1.702-3.797,3.797v11.393c0,2.093,1.7,3.796,3.797,3.796
		h11.387c2.1,0,3.8-1.704,3.8-3.796V15.546z M49.721,30.735c-10.487,0-18.985,8.498-18.985,18.983
		c0,10.48,8.499,18.982,18.985,18.982c10.483,0,18.984-8.502,18.984-18.982C68.705,39.233,60.204,30.735,49.721,30.735
		 M87.688,99.077H11.753c-6.291,0-11.39-5.101-11.39-11.395V11.75c0-6.29,5.099-11.387,11.39-11.387h75.936
		c6.292,0,11.39,5.097,11.39,11.387v75.933C99.078,93.976,93.98,99.077,87.688,99.077"/>
</g>
<g id="foursquare" display="none">
	<g display="inline">
		<path fill="#BCBCBC" d="M35.23,68.803l-4.395-13.561h37.77l-4.77,13.91c0,0-0.265,1.197-1.848,1.197H37.34
			C35.435,70.35,35.23,68.803,35.23,68.803 M74.353,45.906c-0.647,0-1.301-0.11-1.951-0.433l-3.255,8.352H30.294l-3.258-8.352
			c-0.647,0.322-1.302,0.433-1.944,0.433c-2.501,0-4.563-2.065-4.563-4.557c0-2.496,2.062-4.556,4.563-4.556
			c2.49,0,4.555,2.06,4.555,4.556c0,1.195-0.543,2.389-1.303,3.145c6.077,3.69,16.601,1.846,20.832-6.402
			c-2.282-0.212-4.013-2.167-4.013-4.45c0-2.495,2.06-4.552,4.558-4.552c2.49,0,4.559,2.057,4.559,4.552
			c0,2.282-1.736,4.238-4.016,4.45c4.229,8.248,14.752,10.092,20.838,6.402c-0.769-0.756-1.303-1.949-1.303-3.145
			c0-2.496,2.057-4.556,4.553-4.556c2.495,0,4.56,2.06,4.56,4.556C78.912,43.841,76.848,45.906,74.353,45.906"/>
		<path fill="#BCBCBC" d="M49.719,9.507c-22.174,0-40.211,18.043-40.211,40.216s18.038,40.211,40.211,40.211
			c22.174,0,40.211-18.038,40.211-40.211S71.894,9.507,49.719,9.507 M49.719,98.794c-27.061,0-49.071-22.017-49.071-49.071
			c0-27.063,22.011-49.078,49.071-49.078c27.059,0,49.074,22.015,49.074,49.078C98.793,76.778,76.778,98.794,49.719,98.794"/>
	</g>
</g>
<path id="dribbble" display="none" fill="#BCBCBC" d="M96.965,39.965c-0.635-3.113-1.58-6.176-2.812-9.106
	c-1.209-2.872-2.701-5.645-4.445-8.239c-1.723-2.562-3.703-4.972-5.879-7.164c-2.178-2.191-4.576-4.183-7.129-5.915
	c-2.578-1.752-5.336-3.258-8.195-4.475c-2.918-1.239-5.969-2.194-9.072-2.831c-6.355-1.308-13.067-1.308-19.423,0
	c-3.102,0.637-6.153,1.591-9.069,2.831c-2.861,1.216-5.619,2.723-8.194,4.473c-2.552,1.731-4.951,3.722-7.13,5.914
	c-2.179,2.194-4.158,4.604-5.88,7.167c-1.741,2.591-3.236,5.362-4.444,8.236c-1.233,2.932-2.18,5.996-2.813,9.108
	c-0.648,3.191-0.979,6.472-0.979,9.751s0.331,6.561,0.979,9.752c0.633,3.109,1.58,6.176,2.813,9.113
	c1.211,2.871,2.706,5.646,4.444,8.232c1.721,2.561,3.698,4.973,5.88,7.166c2.181,2.193,4.58,4.184,7.129,5.916
	c2.582,1.752,5.338,3.256,8.195,4.473c2.912,1.24,5.964,2.191,9.068,2.828c3.178,0.656,6.446,0.988,9.713,0.988
	c3.269,0,6.537-0.332,9.71-0.988c3.105-0.637,6.156-1.588,9.072-2.828c2.855-1.217,5.613-2.721,8.195-4.473
	c2.553-1.734,4.951-3.727,7.129-5.916c2.182-2.193,4.158-4.605,5.879-7.164c1.74-2.594,3.236-5.365,4.445-8.234
	c1.232-2.938,2.178-5.998,2.812-9.113c0.648-3.189,0.979-6.469,0.979-9.752C97.943,46.437,97.613,43.157,96.965,39.965z
	 M41.68,10.357c2.63-0.54,5.335-0.816,8.041-0.816c2.706,0,5.41,0.276,8.039,0.816c2.564,0.527,5.086,1.315,7.496,2.341
	c2.367,1.006,4.648,2.251,6.783,3.701c1.418,0.964,2.773,2.031,4.061,3.171c-1.416,1.906-7.545,9.267-20.947,14.292
	c-6.221-11.428-12.989-20.755-14.801-23.196C40.793,10.558,41.235,10.45,41.68,10.357z M12.934,34.07
	c1.003-2.381,2.241-4.677,3.686-6.827c1.427-2.124,3.066-4.125,4.875-5.941c1.807-1.818,3.797-3.465,5.911-4.902
	c1.643-1.118,3.377-2.11,5.169-2.971c1.791,2.456,8.432,11.755,14.693,22.884c-17.267,4.584-32.509,4.964-36.588,4.977
	C11.201,38.826,11.957,36.397,12.934,34.07z M19.658,76.138c-1.093-1.258-2.116-2.572-3.039-3.947
	c-1.443-2.145-2.682-4.445-3.685-6.828c-1.024-2.43-1.807-4.969-2.332-7.547c-0.537-2.648-0.811-5.373-0.811-8.1
	c0-0.438,0.018-0.875,0.033-1.312c4.396,0.019,22.274-0.269,40.816-5.816c1.168,2.285,2.283,4.606,3.308,6.923
	c-0.539,0.153-1.074,0.314-1.606,0.486C32.888,56.283,21.924,72.492,19.658,76.138z M65.256,86.736
	c-2.408,1.025-4.93,1.816-7.496,2.344c-5.253,1.082-10.824,1.082-16.08,0c-2.565-0.527-5.086-1.318-7.495-2.344
	c-2.363-1.002-4.646-2.25-6.78-3.701c-0.884-0.598-1.741-1.244-2.576-1.916c1.731-3.23,10.317-17.348,31.623-24.771
	c0.092-0.033,0.182-0.057,0.271-0.09c5.488,14.27,7.891,26.316,8.615,30.443C65.314,86.712,65.283,86.726,65.256,86.736z
	 M88.838,57.816c-0.523,2.578-1.309,5.117-2.33,7.547c-1.002,2.383-2.24,4.68-3.686,6.828c-1.426,2.121-3.066,4.123-4.875,5.943
	c-1.764,1.771-3.697,3.381-5.754,4.791c-0.592-3.348-2.811-14.744-7.836-28.555c11.818-1.891,22.213,0.828,24.807,1.598
	C89.068,56.587,88.963,57.203,88.838,57.816z M61.873,47.942c-0.285-0.699-0.576-1.4-0.877-2.105c-0.85-1.99-1.758-3.966-2.709-5.91
	c14.021-5.724,20.783-13.631,22.34-15.643c0.777,0.956,1.512,1.941,2.195,2.959c1.447,2.151,2.688,4.448,3.686,6.827
	c1.021,2.429,1.807,4.97,2.33,7.549c0.502,2.463,0.764,4.993,0.799,7.529C86.744,48.574,74.391,46.367,61.873,47.942z"/>
<path id="klout" display="none" fill="#BCBCBC" d="M0,10.786v60.042h66.405l31.892,16.027V70.828V10.786H0z M40.19,45.185h-4.863
	L23.45,61.889H9.364l16.25-21.701L10.613,19.283h13.749l10.965,16.023h4.863V45.185z M74.851,61.889L62.978,45.185h-8.097v16.704
	H43.609V19.283h11.272v16.023h8.097l10.962-16.023h13.741L72.688,40.188l16.246,21.701H74.851z"/>
<path id="spotify" display="none" fill="#BCBCBC" d="M97.929,49.764c0-27.043-21.922-48.965-48.963-48.965
	C21.922,0.799,0,22.721,0,49.764c0,27.042,21.922,48.963,48.965,48.963C76.007,98.727,97.929,76.806,97.929,49.764z M24.639,53.347
	c-1.983,0.607-4.07-0.516-4.672-2.493c-0.603-1.975,0.516-4.065,2.488-4.656c17.431-5.297,39.096-2.723,53.901,6.371
	c1.756,1.091,2.314,3.385,1.24,5.142c-1.092,1.762-3.396,2.312-5.15,1.238C59.556,51.009,39.886,48.723,24.639,53.347z
	 M71.729,70.781c-0.871,1.401-2.719,1.845-4.123,0.991c-11.268-6.888-25.443-8.438-42.146-4.622
	c-1.607,0.359-3.223-0.641-3.583-2.256c-0.37-1.608,0.637-3.206,2.252-3.575c18.266-4.184,33.949-2.378,46.6,5.355
	C72.144,67.526,72.579,69.361,71.729,70.781z M19.75,29.771c16.95-5.15,45.132-4.148,62.923,6.413
	c2.131,1.271,2.834,4.017,1.564,6.158c-1.252,2.135-4.008,2.83-6.141,1.567c-15.467-9.184-40.982-10.029-55.735-5.543
	c-2.382,0.714-4.883-0.625-5.601-2.993C16.041,33.001,17.375,30.494,19.75,29.771z"/>
<path id="github" display="none" fill="#BCBCBC" d="M64.507,95.749c-2.439,0.474-3.303-1.026-3.303-2.307
	c0-1.584,0.053-6.763,0.053-13.197c0-4.486-1.535-7.412-3.259-8.905c10.707-1.189,21.958-5.257,21.958-23.727
	c0-5.25-1.867-9.541-4.949-12.908c0.499-1.211,2.145-6.101-0.473-12.726c0,0-4.034-1.292-13.211,4.931
	c-3.844-1.065-7.96-1.601-12.047-1.619c-4.088,0.018-8.201,0.554-12.036,1.619c-9.189-6.222-13.228-4.931-13.228-4.931
	c-2.611,6.625-0.966,11.515-0.465,12.726c-3.079,3.368-4.957,7.658-4.957,12.908c0,18.428,11.228,22.55,21.91,23.767
	c-1.374,1.199-2.62,3.32-3.054,6.428c-2.745,1.23-9.705,3.356-13.993-3.996c0,0-2.543-4.615-7.373-4.956c0,0-4.69-0.061-0.329,2.923
	c0,0,3.152,1.479,5.339,7.036c0,0,2.824,8.585,16.202,5.675c0.02,4.019,0.065,7.808,0.065,8.953c0,1.27-0.881,2.758-3.286,2.312
	C14.968,89.396,1.188,71.37,1.188,50.125c0-26.56,21.533-48.089,48.089-48.089c26.558,0,48.088,21.529,48.088,48.089
	C97.364,71.366,83.604,89.382,64.507,95.749z"/>
<path id="vimeo" display="none" fill="#BCBCBC" d="M97.671,27.013c-0.436,9.516-7.08,22.546-19.929,39.081
	C64.457,83.369,53.214,92.008,44.021,92.008c-5.694,0-10.518-5.259-14.454-15.782c-2.63-9.643-5.259-19.288-7.888-28.93
	c-2.923-10.519-6.06-15.783-9.413-15.783c-0.731,0-3.289,1.54-7.669,4.604L0,30.192c4.822-4.238,9.579-8.477,14.261-12.721
	c6.431-5.56,11.26-8.484,14.478-8.78c7.605-0.729,12.287,4.469,14.043,15.603c1.897,12.009,3.212,19.479,3.949,22.405
	c2.194,9.963,4.605,14.94,7.24,14.94c2.045,0,5.117-3.232,9.215-9.693c4.092-6.467,6.283-11.385,6.578-14.763
	c0.584-5.58-1.609-8.375-6.578-8.375c-2.341,0-4.752,0.538-7.234,1.603c4.804-15.737,13.98-23.38,27.522-22.945
	C93.517,7.763,98.248,14.277,97.671,27.013z"/>
<g id="youtube" display="none">
	<path display="inline" fill-rule="evenodd" clip-rule="evenodd" fill="#BCBCBC" d="M29.109,22.859v14.962h5.534V22.859
		l6.654-21.983h-5.594l-3.771,14.507L28.002,0.876h-5.82c1.165,3.423,2.38,6.867,3.548,10.294
		C27.503,16.323,28.61,20.206,29.109,22.859z"/>
	<path display="inline" fill-rule="evenodd" clip-rule="evenodd" fill="#BCBCBC" d="M48.714,38.203c2.501,0,4.438-0.942,5.822-2.817
		c1.044-1.382,1.548-3.551,1.548-6.476v-9.645c0-2.942-0.504-5.095-1.548-6.486c-1.384-1.88-3.321-2.822-5.822-2.822
		c-2.484,0-4.428,0.942-5.807,2.822c-1.061,1.392-1.563,3.544-1.563,6.486v9.645c0,2.924,0.502,5.093,1.563,6.476
		C44.286,37.26,46.229,38.203,48.714,38.203z M46.333,18.265c0-2.547,0.771-3.815,2.38-3.815s2.378,1.268,2.378,3.815v11.583
		c0,2.547-0.769,3.822-2.378,3.822s-2.38-1.275-2.38-3.822V18.265z"/>
	<path display="inline" fill-rule="evenodd" clip-rule="evenodd" fill="#BCBCBC" d="M63.844,38.203c1.819,0,3.714-1.106,5.698-3.386
		v3.005h4.992V10.29h-4.992v21.043c-1.104,1.563-2.152,2.337-3.15,2.337c-0.668,0-1.059-0.396-1.169-1.169
		c-0.06-0.162-0.06-0.77-0.06-1.942V10.29h-4.975v21.771c0,1.942,0.168,3.262,0.441,4.093C61.129,37.55,62.237,38.203,63.844,38.203
		z"/>
	<path display="inline" fill-rule="evenodd" clip-rule="evenodd" fill="#BCBCBC" d="M77.211,65.775c-1.649,0-2.474,1.261-2.474,3.78
		v2.52h4.935v-2.52C79.672,67.036,78.846,65.775,77.211,65.775z"/>
	<path display="inline" fill-rule="evenodd" clip-rule="evenodd" fill="#BCBCBC" d="M58.892,65.775c-0.81,0-1.635,0.387-2.459,1.2
		v16.606c0.824,0.826,1.649,1.214,2.459,1.214c1.426,0,2.147-1.214,2.147-3.675V69.495C61.039,67.036,60.317,65.775,58.892,65.775z"
		/>
	<path display="inline" fill-rule="evenodd" clip-rule="evenodd" fill="#BCBCBC" d="M89.28,51.924
		c-0.998-4.342-4.552-7.545-8.827-8.022c-10.133-1.134-20.384-1.139-30.589-1.134c-10.208-0.005-20.462,0-30.59,1.134
		c-4.277,0.477-7.832,3.68-8.829,8.022c-1.423,6.189-1.438,12.94-1.438,19.312c0,6.368,0,13.123,1.422,19.311
		c0.999,4.344,4.549,7.549,8.827,8.026c10.129,1.13,20.382,1.137,30.59,1.13c10.206,0.007,20.458,0,30.59-1.13
		c4.275-0.478,7.832-3.683,8.829-8.026c1.424-6.188,1.432-12.942,1.432-19.311C90.697,64.865,90.703,58.114,89.28,51.924z
		 M32.306,57.492h-5.913V88.91h-5.491V57.492h-5.808v-5.149h17.211V57.492z M47.223,88.91h-4.941v-2.973
		c-1.961,2.251-3.825,3.348-5.64,3.348c-1.59,0-2.688-0.646-3.182-2.028c-0.27-0.824-0.433-2.124-0.433-4.049V61.664h4.933v20.058
		c0,1.156,0,1.762,0.045,1.919c0.12,0.768,0.496,1.155,1.155,1.155c0.991,0,2.026-0.764,3.121-2.31V61.664h4.941V88.91z
		 M65.978,80.734c0,2.519-0.169,4.334-0.497,5.488c-0.662,2.028-1.981,3.062-3.949,3.062c-1.754,0-3.449-0.977-5.099-3.018v2.643
		h-4.938V52.342h4.938v11.944c1.594-1.963,3.284-2.957,5.099-2.957c1.968,0,3.287,1.035,3.949,3.079
		c0.328,1.094,0.497,2.896,0.497,5.474V80.734z M84.607,76.186h-9.87v4.829c0,2.523,0.824,3.78,2.519,3.78
		c1.217,0,1.925-0.66,2.208-1.979c0.044-0.268,0.105-1.363,0.105-3.345h5.038v0.723c0,1.588-0.06,2.684-0.104,3.18
		c-0.168,1.093-0.555,2.082-1.151,2.96c-1.369,1.975-3.395,2.951-5.972,2.951c-2.584,0-4.548-0.932-5.975-2.791
		c-1.049-1.361-1.587-3.513-1.587-6.406v-9.546c0-2.91,0.476-5.039,1.525-6.417c1.426-1.866,3.394-2.795,5.912-2.795
		c2.478,0,4.442,0.929,5.825,2.795c1.031,1.378,1.526,3.507,1.526,6.417V76.186z"/>
</g>
<g id="bread_1_" display="none">
	<path display="inline" fill="#BCBCBC" d="M88.513,43.425c4.529-5.455,8.015-12.668,7.089-20.031
		C93.753,8.728,79.642-1.575,64.082,0.391c-6.84,0.862-12.821,3.952-17.22,8.39c-5.377-3.239-11.96-4.767-18.84-3.899
		C12.466,6.844,1.353,20.321,3.201,34.985c0.931,7.379,6.109,13.502,11.865,17.67l1.501,30.309
		c1.196,9.494,8.606,16.384,16.551,15.381c0,0,8.601-1.625,13.549-2.866c4.97-1.32,18.858-2.912,24.261-3.062
		c4.022-0.108,11.429-0.276,11.429-0.276c7.945-1.003,13.417-9.516,12.221-19.01L88.513,43.425z M84.349,81.786
		c-1.084,1.351-2.471,2.136-4.159,2.346c-1.688,0.213-3.228-0.198-4.61-1.241c-1.383-1.047-2.189-2.448-2.411-4.208
		c-0.221-1.759,0.209-3.319,1.293-4.665c1.08-1.352,2.468-2.136,4.156-2.349c1.69-0.213,3.228,0.201,4.612,1.243
		c1.387,1.033,2.183,2.439,2.401,4.198C85.854,78.875,85.432,80.43,84.349,81.786z"/>
</g>
<g id="googleplus" display="none">
	<polygon display="inline" fill="#BCBCBC" points="97.931,44.315 85.126,44.315 85.126,31.513 78.582,31.513 78.582,44.315 
		65.777,44.315 65.777,50.575 78.582,50.575 78.582,63.379 85.126,63.379 85.126,50.575 97.931,50.575 	"/>
	<path display="inline" fill="#BCBCBC" d="M57.407,6.19h-7.665c2.973,2.421,8.866,7.098,8.866,16.786
		c0,9.426-5.432,13.893-10.863,18.091c-1.683,1.656-3.62,3.444-3.62,6.249c0,2.799,1.937,4.329,3.358,5.479l4.661,3.561
		c5.689,4.718,10.859,9.053,10.859,17.848c0,11.976-12.139,24.173-34.381,24.173c-18.755,0-27.436-8.882-27.436-18.316
		c0-4.591,2.321-11.081,9.96-15.547c8.012-4.841,18.882-5.475,24.701-5.863c-1.814-2.294-3.882-4.713-3.882-8.661
		c0-2.164,0.65-3.442,1.293-4.969c-1.427,0.125-2.844,0.253-4.139,0.253c-13.708,0-21.468-10.071-21.468-20.001
		c0-5.862,1.824-12.786,7.379-17.497c7.375-5.99,16.797-6.711,23.785-6.711l26.965,0.004L57.407,6.19z M23.673,64.264
		c-2.845,1.019-11.12,4.074-11.12,13.122s8.926,15.551,22.763,15.551c12.413,0,19.013-5.874,19.013-13.762
		c0-6.51-4.267-9.94-14.104-16.823c-1.031-0.131-1.678-0.131-2.965-0.131C36.093,62.221,29.106,62.478,23.673,64.264 M30.936,5.711
		c-3.367,0-6.985,1.337-9.059,3.887c-2.197,2.678-2.842,6.433-2.842,9.749c0,8.535,5.046,22.68,16.169,22.68
		c3.231,0,6.717-1.846,8.791-3.888c2.975-2.937,3.231-6.689,3.231-8.982C47.226,19.981,41.666,5.711,30.936,5.711"/>
</g>
<g id="yahoo_1_" display="none">
	<polygon display="inline" fill-rule="evenodd" clip-rule="evenodd" fill="#BCBCBC" points="89.213,76.574 79.079,75.333 
		80.207,66.435 90.34,67.673 89.213,76.574 	"/>
	<polygon display="inline" fill-rule="evenodd" clip-rule="evenodd" fill="#BCBCBC" points="99.353,22.622 82.008,20.483 
		82.118,60.692 89.665,61.705 99.353,22.622 	"/>
	<path display="inline" fill-rule="evenodd" clip-rule="evenodd" fill="#BCBCBC" d="M64.438,29.605
		c-6.984-5.292-15.995-7.881-26.921-7.881c-11.039,0-20.046,2.59-26.918,7.881C3.618,34.785,0.125,41.432,0.125,49.654
		c0,8.336,3.493,15.094,10.474,20.275c5.7,4.295,12.872,6.812,21.45,7.544h10.895c8.518-0.731,15.703-3.249,21.496-7.544
		c6.868-5.181,10.36-11.938,10.36-20.275C74.799,41.432,71.307,34.785,64.438,29.605z M59.255,42.784l-5.293,1.127
		c-0.788,0.222-2.928,1.8-6.644,4.842c-3.941,3.154-5.971,5.179-6.309,6.195l-0.225,2.817l-0.112,1.688l0.451,4.279l6.982,0.111
		l-0.113,2.142H36.618l-10.14,0.111l0.339-2.026l3.268-0.114c1.688-0.112,2.704-0.337,3.041-0.676
		c0.225-0.223,0.338-1.577,0.338-3.942v-1.462l-0.113-2.929c-0.225-0.674-2.027-3.152-5.519-7.433
		c-3.604-4.395-5.97-6.984-7.096-7.888l-6.533-0.901v-1.915c0.339-0.223,3.944-0.223,10.589-0.111
		c4.617-0.112,8.443-0.112,11.488,0.111l-0.227,1.578l-6.87,0.678c2.141,3.154,5.406,7.544,9.801,13.065
		c5.744-4.394,8.783-7.211,8.895-8.448l-5.856-0.901l-0.45-2.03h9.799l9.233,0.115L59.255,42.784z"/>
</g>
<path id="quora_1_" display="none" fill="#BCBCBC" d="M72.318,82.451c12.515-7.852,20.856-21.888,20.856-37.902
	C93.175,19.946,73.497,0,49.226,0C24.955,0,5.28,19.946,5.28,44.549c0,24.604,19.675,44.549,43.946,44.549
	c3.57,0,7.038-0.443,10.359-1.259c4.174,7.591,10.527,12.961,24.017,10.394V90.68C83.602,90.68,74.952,88.506,72.318,82.451z
	 M72.012,50.438c0,7.438-2.369,14.19-6.212,19.176c-4.832-5.141-12.402-9.368-22.008-8.829v0.902v7.854
	c0,0,6.515,0.258,10.978,7.925c-1.672,0.49-3.415,0.76-5.208,0.76c-12.398,0-22.445-12.438-22.445-27.787c0-1.968,0-9.507,0-11.477
	c0-15.345,10.047-27.786,22.445-27.786s22.45,12.44,22.45,27.786C72.012,40.931,72.012,48.47,72.012,50.438z"/>
<g id="reddit_1_" display="none">
	<path display="inline" fill="#BCBCBC" d="M99.242,48.792c0-6.302-5.128-11.432-11.433-11.432c-2.804,0-5.447,1.015-7.533,2.852
		c-7.435-4.757-17.299-7.816-28.204-8.228l6.501-18.477l16.242,3.883c0.011,5.14,4.192,9.315,9.334,9.315
		c5.146,0,9.338-4.187,9.338-9.336c0-5.149-4.191-9.337-9.338-9.337c-3.907,0-7.256,2.416-8.646,5.829L56.262,9.262l-7.987,22.692
		c-11.361,0.213-21.668,3.289-29.378,8.194c-2.077-1.798-4.692-2.789-7.465-2.789C5.129,37.36,0,42.489,0,48.792
		c0,3.899,2.007,7.494,5.257,9.594c-0.197,1.14-0.31,2.297-0.31,3.473c0,16.501,20.002,29.926,44.589,29.926
		s44.59-13.425,44.59-29.926c0-1.141-0.105-2.268-0.292-3.377C97.174,56.4,99.242,52.752,99.242,48.792z M84.149,11.625
		c3.17,0,5.747,2.577,5.747,5.745s-2.577,5.746-5.747,5.746c-3.168,0-5.744-2.578-5.744-5.746S80.981,11.625,84.149,11.625z
		 M3.592,48.792c0-4.323,3.517-7.841,7.839-7.841c1.591,0,3.109,0.474,4.396,1.351c-4.522,3.506-7.855,7.72-9.569,12.361
		C4.592,53.191,3.592,51.068,3.592,48.792z M49.536,88.193c-22.607,0-40.999-11.813-40.999-26.335
		c0-14.522,18.392-26.335,40.999-26.335c22.606,0,40.999,11.813,40.999,26.335C90.535,76.379,72.143,88.193,49.536,88.193z
		 M92.853,54.774c-1.69-4.655-5.01-8.885-9.525-12.408c1.308-0.916,2.854-1.416,4.482-1.416c4.325,0,7.842,3.518,7.842,7.841
		C95.651,51.125,94.6,53.3,92.853,54.774z"/>
	<path display="inline" fill="#BCBCBC" d="M42.395,56.574c0-3.879-3.144-7.024-7.022-7.024c-3.884,0-7.026,3.145-7.026,7.024
		c0,3.88,3.142,7.023,7.026,7.023C39.251,63.597,42.395,60.454,42.395,56.574z"/>
	<path display="inline" fill="#BCBCBC" d="M64.699,49.55c-3.884,0-7.027,3.145-7.027,7.024c0,3.88,3.144,7.023,7.027,7.023
		c3.878,0,7.021-3.144,7.021-7.023C71.721,52.695,68.577,49.55,64.699,49.55z"/>
	<path display="inline" fill="#BCBCBC" d="M63.511,73.081c-0.042,0.041-4.314,4.249-14.059,4.249c-9.576,0-13.397-4.063-13.5-4.177
		c-0.646-0.741-1.771-0.824-2.522-0.186c-0.753,0.644-0.842,1.778-0.196,2.533c0.188,0.221,4.77,5.421,16.218,5.421
		c11.395,0,16.434-5.13,16.644-5.348c0.681-0.713,0.654-1.835-0.051-2.523C65.337,72.36,64.202,72.377,63.511,73.081z"/>
</g>
<path id="soundcloud_1_" display="none" fill="#BCBCBC" d="M1.337,52.747c-0.207,0-0.371,0.161-0.398,0.389l-0.725,5.512
	l0.725,5.417c0.028,0.228,0.192,0.387,0.398,0.387c0.2,0,0.362-0.158,0.395-0.385l0,0v-0.001c0,0,0,0,0,0.001l0.861-5.419
	l-0.861-5.513C1.703,52.906,1.537,52.747,1.337,52.747z M5.417,49.736c-0.033-0.238-0.203-0.399-0.412-0.399
	c-0.208,0-0.385,0.168-0.412,0.399c0,0.002-0.977,8.911-0.977,8.911l0.977,8.713c0.027,0.233,0.203,0.404,0.412,0.404
	c0.209,0,0.379-0.166,0.412-0.401l1.109-8.716L5.417,49.736z M20.79,41.515c-0.4,0-0.73,0.328-0.751,0.743l-0.775,16.396
	l0.775,10.596c0.021,0.413,0.351,0.74,0.751,0.74c0.398,0,0.728-0.327,0.751-0.742v0.003l0.878-10.597l-0.878-16.396
	C21.517,41.843,21.188,41.515,20.79,41.515z M12.835,47.213c-0.309,0-0.56,0.246-0.586,0.574L11.376,58.65l0.873,10.511
	c0.026,0.324,0.277,0.57,0.586,0.57c0.302,0,0.552-0.246,0.581-0.57L14.41,58.65l-0.994-10.865
	C13.387,47.459,13.137,47.213,12.835,47.213z M28.875,69.989c0.496,0,0.899-0.399,0.92-0.912l0.76-10.418l-0.76-21.826
	c-0.021-0.513-0.424-0.914-0.92-0.914c-0.501,0-0.905,0.402-0.923,0.914c0,0.002-0.673,21.826-0.673,21.826l0.673,10.421
	C27.97,69.588,28.373,69.989,28.875,69.989z M45.425,70.04c0.684,0,1.247-0.563,1.259-1.254v0.007v-0.007l0.533-10.119l-0.533-25.21
	c-0.012-0.691-0.576-1.252-1.259-1.252s-1.25,0.561-1.261,1.254l-0.474,25.2c0,0.018,0.474,10.135,0.474,10.135
	C44.175,69.476,44.741,70.04,45.425,70.04z M37.086,70c0.594,0,1.074-0.479,1.089-1.086v0.008l0.646-10.26l-0.646-21.987
	c-0.015-0.608-0.495-1.083-1.089-1.083c-0.597,0-1.077,0.477-1.091,1.083l-0.576,21.987l0.578,10.258
	C36.009,69.522,36.489,70,37.086,70z M16.795,69.904c0.354,0,0.64-0.282,0.667-0.655l0.936-10.599l-0.936-10.081
	c-0.026-0.371-0.311-0.652-0.667-0.652c-0.358,0-0.644,0.281-0.666,0.657L15.303,58.65l0.826,10.599
	C16.151,69.621,16.437,69.904,16.795,69.904z M8.902,69.322c0.258,0,0.467-0.204,0.498-0.484l1.052-10.189L9.4,48.075
	c-0.031-0.283-0.24-0.487-0.499-0.487c-0.261,0-0.471,0.204-0.498,0.487L7.479,58.648l0.925,10.188
	C8.431,69.118,8.641,69.322,8.902,69.322z M41.239,36.311c-0.646,0-1.163,0.513-1.174,1.169L39.54,58.664l0.525,10.192
	c0.011,0.65,0.529,1.162,1.174,1.162c0.644,0,1.158-0.512,1.174-1.17v0.01l0.588-10.194l-0.588-21.186
	C42.397,36.824,41.883,36.311,41.239,36.311z M24.817,70.011c0.446,0,0.814-0.363,0.834-0.828l0.82-10.526l-0.82-20.145
	c-0.02-0.465-0.388-0.829-0.834-0.829c-0.452,0-0.817,0.364-0.836,0.829c0,0.001-0.725,20.145-0.725,20.145l0.725,10.529
	C24,69.648,24.365,70.011,24.817,70.011z M33.967,69.018v-0.006l0.706-10.351l-0.706-22.563c-0.016-0.56-0.457-1-1.004-1
	c-0.546,0-0.99,0.44-1.004,1l-0.626,22.562l0.626,10.356c0.015,0.555,0.458,0.993,1.004,0.993c0.548,0,0.988-0.438,1.004-0.996
	V69.018z M87.236,45.655c-1.673,0-3.267,0.339-4.719,0.947c-0.974-11-10.196-19.628-21.447-19.628c-2.755,0-5.438,0.542-7.809,1.458
	c-0.922,0.357-1.166,0.723-1.173,1.435v38.737c0.009,0.747,0.588,1.369,1.317,1.442c0.03,0.003,33.612,0.02,33.83,0.02
	c6.741,0,12.205-5.465,12.205-12.206S93.978,45.655,87.236,45.655z M49.592,29.833c-0.732,0-1.333,0.603-1.346,1.342l-0.55,27.495
	l0.551,9.978c0.011,0.728,0.613,1.331,1.345,1.331s1.333-0.604,1.343-1.341v0.011l0.599-9.979l-0.599-27.498
	C50.925,30.436,50.324,29.833,49.592,29.833z"/>
<path id="goodreads_1_" display="none" fill="#BCBCBC" d="M73.046,2.02v11.977h-0.265c-0.809-1.885-1.943-3.68-3.436-5.381
	c-1.482-1.705-3.159-3.216-5.043-4.511c-1.889-1.297-3.976-2.305-6.267-3.031C55.748,0.357,53.312,0,50.705,0
	c-5.029,0-9.489,0.925-13.394,2.755c-3.907,1.846-7.177,4.354-9.827,7.541c-2.65,3.192-4.673,6.911-6.054,11.172
	c-1.4,4.263-2.086,8.777-2.086,13.527c0,4.938,0.583,9.585,1.75,13.937c1.164,4.35,3.025,8.14,5.581,11.363
	c2.556,3.236,5.816,5.778,9.764,7.607c3.947,1.836,8.7,2.761,14.264,2.761c5.123,0,9.579-1.293,13.393-3.899
	c3.817-2.608,6.711-6.059,8.684-10.363h0.265v9.422c0,8.431-1.748,14.899-5.245,19.376c-3.498,4.494-9.201,6.739-17.096,6.739
	c-2.331,0-4.616-0.25-6.861-0.745c-2.249-0.493-4.292-1.281-6.133-2.354c-1.841-1.079-3.401-2.491-4.705-4.237
	c-1.309-1.76-2.18-3.928-2.621-6.535h-8.484c0.268,3.683,1.283,6.848,3.017,9.489c1.759,2.648,3.958,4.831,6.605,6.524
	c2.649,1.711,5.635,2.969,8.948,3.771c3.324,0.808,6.736,1.218,10.234,1.218c5.654,0,10.437-0.771,14.335-2.29
	c3.907-1.523,7.055-3.723,9.488-6.595c2.423-2.874,4.192-6.375,5.316-10.496c1.127-4.127,1.688-8.753,1.688-13.866V2.02H73.046z
	 M71.638,46.17c-0.942,3.318-2.366,6.259-4.249,8.809c-1.879,2.561-4.21,4.621-6.99,6.195c-2.792,1.569-6.022,2.353-9.693,2.353
	c-3.947,0-7.363-0.783-10.234-2.353c-2.875-1.574-5.245-3.635-7.138-6.195c-1.881-2.55-3.272-5.49-4.16-8.809
	c-0.9-3.318-1.353-6.739-1.353-10.231c0-3.583,0.422-7.109,1.278-10.571c0.851-3.451,2.22-6.524,4.102-9.224
	c1.892-2.684,4.263-4.851,7.137-6.524c2.875-1.659,6.324-2.487,10.368-2.487c4.032,0,7.465,0.858,10.296,2.56
	c2.833,1.703,5.135,3.947,6.934,6.723c1.79,2.787,3.1,5.884,3.896,9.289c0.816,3.41,1.215,6.825,1.215,10.234
	C73.046,39.431,72.577,42.852,71.638,46.17z"/>
<g id="disqus_1_" display="none">
	<path display="inline" fill="#BCBCBC" d="M51.182,38.011h-5.209v23.462h5.209c7.645,0,12.719-4.219,12.719-11.664v-0.132
		C63.9,42.295,58.826,38.011,51.182,38.011z"/>
	<path display="inline" fill="#BCBCBC" d="M51.371,1.603c-26.386,0-47.772,21.389-47.772,47.771c0,7.304,1.643,14.218,4.571,20.404
		L0.337,88.508l19.844-2.964c8.372,7.224,19.263,11.603,31.19,11.603c26.382,0,47.771-21.387,47.771-47.772
		C99.143,22.992,77.753,1.603,51.371,1.603z M77.013,49.61c0,13.315-9.684,23.199-26.294,23.199H33.188V26.677h17.794
		c16.477,0,26.033,9.489,26.031,22.802V49.61z"/>
</g>
<path id="twitter_1_" display="none" fill="#2CAAE1" d="M88.701,0H10.74C4.809,0,0,4.809,0,10.74V88.7
	c0,5.932,4.809,10.74,10.74,10.74h77.961c5.932,0,10.74-4.809,10.74-10.74V10.74C99.441,4.809,94.633,0,88.701,0z M80.047,36.081
	c0.027,0.625,0.043,1.256,0.043,1.887c0,19.264-14.664,41.477-41.477,41.477c-8.232,0-15.896-2.414-22.348-6.549
	c1.143,0.135,2.301,0.203,3.479,0.203c6.83,0,13.115-2.33,18.104-6.24c-6.377-0.117-11.762-4.332-13.617-10.123
	c0.891,0.17,1.805,0.262,2.744,0.262c1.328,0,2.617-0.18,3.84-0.512c-6.67-1.34-11.693-7.232-11.693-14.295c0-0.061,0-0.121,0-0.184
	c1.967,1.092,4.215,1.748,6.604,1.824c-3.912-2.615-6.484-7.076-6.484-12.134c0-2.671,0.719-5.176,1.973-7.328
	c7.189,8.82,17.932,14.623,30.047,15.23c-0.248-1.066-0.377-2.18-0.377-3.32c0-8.051,6.527-14.579,14.578-14.579
	c4.191,0,7.98,1.771,10.641,4.604c3.32-0.653,6.439-1.866,9.256-3.537c-1.088,3.403-3.4,6.262-6.408,8.065
	c2.947-0.353,5.758-1.136,8.371-2.295C85.365,31.458,82.896,34.026,80.047,36.081z"/>
<g id="linkedin_1_" display="none">
	<linearGradient id="SVGID_1_" gradientUnits="userSpaceOnUse" x1="54.3994" y1="45.2524" x2="54.4854" y2="45.2524">
		<stop  offset="0" style="stop-color:#016699"/>
		<stop  offset="1" style="stop-color:#016699"/>
	</linearGradient>
	<path display="inline" fill="url(#SVGID_1_)" d="M54.485,45.319v-0.133c-0.027,0.045-0.059,0.09-0.086,0.133H54.485z"/>
	<linearGradient id="SVGID_2_" gradientUnits="userSpaceOnUse" x1="9.765625e-04" y1="49.7202" x2="99.4404" y2="49.7202">
		<stop  offset="0" style="stop-color:#016699"/>
		<stop  offset="1" style="stop-color:#016699"/>
	</linearGradient>
	<path display="inline" fill="url(#SVGID_2_)" d="M88.702,0H10.741C4.81,0,0.001,4.809,0.001,10.74V88.7
		c0,5.932,4.809,10.74,10.74,10.74h77.961c5.932,0,10.738-4.809,10.738-10.74V10.74C99.44,4.809,94.634,0,88.702,0z M33.966,79.297
		H20.759V39.555h13.207V79.297z M27.362,34.131h-0.086c-4.434,0-7.299-3.054-7.299-6.868c0-3.899,2.953-6.867,7.473-6.867
		c4.518,0,7.299,2.968,7.387,6.867C34.837,31.077,31.968,34.131,27.362,34.131z M81.599,79.297H68.39v-21.26
		c0-5.342-1.91-8.99-6.691-8.99c-3.648,0-5.824,2.459-6.777,4.834c-0.35,0.848-0.436,2.035-0.436,3.223v22.193H41.276
		c0,0,0.174-36.014,0-39.742h13.209v5.631c1.756-2.707,4.893-6.562,11.906-6.562c8.689,0,15.207,5.68,15.207,17.885V79.297z"/>
</g>
<path id="facebook_1_" display="none" fill="#3D5B99" d="M88.7,0H10.739C4.808,0,0.001,4.809,0.001,10.74V88.7
	c0,5.932,4.807,10.74,10.738,10.74H88.7c5.934,0,10.74-4.809,10.74-10.74V10.74C99.44,4.809,94.634,0,88.7,0z M65.394,53.129h-11.25
	v30.105H42.683V53.129h-7.961V42.29h7.961c0,0,0-4.441,0-9.258c0-7.276,4.701-13.956,15.537-13.956c4.387,0,7.631,0.421,7.631,0.421
	l-0.256,10.122c0,0-3.309-0.032-6.918-0.032c-3.908,0-4.533,1.801-4.533,4.79c0,0.369,0,0.5,0,0.506c0,0.838,0,2.873,0,7.408h11.762
	L65.394,53.129z"/>
<path id="yelp_1_" display="none" fill="#CA3C27" d="M88.703,0H10.74C4.809,0,0,4.809,0,10.74V88.7c0,5.932,4.809,10.74,10.74,10.74
	h77.963c5.93,0,10.738-4.809,10.738-10.74V10.74C99.441,4.809,94.633,0,88.703,0z M30.605,25.937
	c0.637-1.022,1.859-1.426,1.859-1.426l12.496-4.643c0.533-0.079,1.086-0.669,2.949,0.462c1.186,0.715,1.455,3.358,1.455,3.358
	l0.119,21.427c0,0-0.281,2.572-2.055,3.01c-1.631,0.402-2.914-0.924-2.914-0.924l-12.984-17.7
	C31.531,29.502,29.695,27.384,30.605,25.937z M23.992,62.528c-0.482-0.85-0.352-2.715-0.352-2.715l0.875-10.768
	c0.064-0.699,0.721-1.49,1.459-1.928c0.967-0.572,2.957,0.248,2.957,0.248l13.43,6.785c0,0,2.029,0.992,1.984,2.645
	c-0.059,2.186-1.127,2.221-1.736,2.633l-15.68,3.465C26.93,62.893,24.678,63.731,23.992,62.528z M48.17,82.948
	c-0.969,0.283-2.246,0.016-2.246,0.016l-10.543-3.328c-0.734-0.355-1.256-0.863-1.568-1.879c-0.332-1.084,0.977-2.854,0.977-2.854
	l10.5-11.557c0,0,1.609-1.43,2.955-0.738c1.232,0.637,1.285,2.145,1.285,2.145l-0.238,15.646
	C49.291,80.399,49.545,82.549,48.17,82.948z M54.582,50.805l8.502-13.381c0,0,0.879-1.727,2.303-1.604
	c1.293,0.107,1.918,1.178,1.918,1.178l7.189,8.471c0,0,0.627,1.344,0.34,2.455c-0.293,1.113-2.344,1.945-2.344,1.945l-15.049,4.398
	c0,0-2.129,0.383-2.9-0.928C53.828,52.139,54.582,50.805,54.582,50.805z M74.328,68.346l-6.371,9.105c0,0-1.137,0.945-2.289,0.945
	c-1.146,0-2.469-1.773-2.469-1.773l-8.059-13.455c0,0-0.906-1.965,0.164-3.045c0.984-0.994,2.463-0.602,2.463-0.602l15.082,4.844
	c0,0,2.158,0.393,2.135,1.824C74.971,67.196,74.328,68.346,74.328,68.346z"/>
<path id="lastfm_1_" display="none" fill="#A52F23" d="M88.701,0H10.738C4.809,0,0.002,4.809,0.002,10.74V88.7
	c0,5.932,4.807,10.74,10.736,10.74h77.963c5.932,0,10.738-4.809,10.738-10.74V10.74C99.439,4.809,94.633,0,88.701,0z M67.193,69.719
	c-13.078,0-17.615-5.896-20.031-13.23l-2.42-7.559c-1.814-5.52-3.934-9.828-10.584-9.828c-4.613,0-9.299,3.326-9.299,12.625
	c0,7.258,3.703,11.795,8.92,11.795c5.896,0,9.828-4.387,9.828-4.387l2.42,6.576c0,0-4.084,4.008-12.627,4.008
	c-10.582,0-16.48-6.197-16.48-17.691c0-11.943,5.898-18.973,17.01-18.973c10.055,0,15.121,3.629,18.297,13.457l2.492,7.559
	c1.816,5.518,4.992,9.525,12.625,9.525c5.141,0,7.863-1.135,7.863-3.932c0-2.191-1.285-3.779-5.141-4.688l-5.143-1.209
	c-6.271-1.512-8.768-4.762-8.768-9.902c0-8.242,6.652-10.811,13.457-10.811c7.711,0,12.396,2.797,13.004,9.6l-7.561,0.908
	c-0.303-3.25-2.27-4.611-5.898-4.611c-3.324,0-5.367,1.512-5.367,4.082c0,2.268,0.984,3.627,4.311,4.385l4.838,1.059
	c6.5,1.512,9.979,4.686,9.979,10.809C82.918,66.846,76.568,69.719,67.193,69.719z"/>
<path id="tumblr_1_" display="none" fill="#45556B" d="M88.701,0H10.74C4.809,0,0,4.809,0,10.74V88.7
	c0,5.932,4.809,10.74,10.74,10.74h77.961c5.932,0,10.74-4.809,10.74-10.74V10.74C99.441,4.809,94.633,0,88.701,0z M66.295,76.163
	c-2.469,1.16-4.703,1.98-6.703,2.447s-4.164,0.701-6.488,0.701c-2.639,0-4.973-0.332-7.002-1c-2.027-0.666-3.756-1.617-5.189-2.85
	c-1.434-1.234-2.426-2.547-2.979-3.938c-0.555-1.389-0.832-3.404-0.832-6.043V45.227h-6.381v-8.172
	c2.268-0.736,4.213-1.793,5.828-3.17c1.619-1.374,2.916-3.027,3.895-4.958c0.979-1.927,1.652-4.381,2.021-7.361h8.211v14.596h13.703
	v9.064H50.676v14.809c0,3.346,0.178,5.494,0.533,6.447c0.354,0.949,1.016,1.707,1.979,2.275c1.277,0.766,2.736,1.15,4.383,1.15
	c2.922,0,5.83-0.951,8.725-2.854V76.163z"/>
<path id="pinterest_1_" display="none" fill="#CB2027" d="M88.7,0H10.741C4.81,0,0.001,4.809,0.001,10.74V88.7
	c0,5.932,4.809,10.74,10.74,10.74H88.7c5.932,0,10.74-4.809,10.74-10.74V10.74C99.44,4.809,94.632,0,88.7,0z M55.515,66.866
	c-4.193,0-8.135-2.266-9.484-4.84c0,0-2.258,8.947-2.732,10.676c-1.682,6.102-6.629,12.207-7.012,12.709
	c-0.27,0.346-0.861,0.238-0.924-0.223c-0.107-0.777-1.367-8.479,0.117-14.76c0.744-3.152,4.994-21.16,4.994-21.16
	s-1.238-2.48-1.238-6.145c0-5.756,3.336-10.053,7.488-10.053c3.533,0,5.24,2.652,5.24,5.83c0,3.553-2.262,8.861-3.43,13.781
	c-0.977,4.121,2.066,7.48,6.131,7.48c7.355,0,12.311-9.451,12.311-20.648c0-8.51-5.729-14.882-16.16-14.882
	c-11.777,0-19.117,8.787-19.117,18.601c0,3.381,0.998,5.77,2.561,7.613c0.719,0.85,0.82,1.191,0.559,2.166
	c-0.189,0.715-0.611,2.436-0.793,3.115c-0.258,0.984-1.053,1.336-1.941,0.973c-5.426-2.213-7.955-8.156-7.955-14.836
	c0-11.031,9.305-24.259,27.756-24.259c14.828,0,24.586,10.727,24.586,22.248C76.47,55.485,67.999,66.866,55.515,66.866z"/>
<path id="flickr_1_" display="none" fill="#ED1E83" d="M88.701,0H10.739C4.808,0-0.001,4.809-0.001,10.74V88.7
	c0,5.932,4.809,10.74,10.74,10.74h77.962c5.932,0,10.74-4.809,10.74-10.74V10.74C99.441,4.809,94.633,0,88.701,0z M32.958,63.323
	c-7.513,0-13.604-6.09-13.604-13.604c0-7.512,6.091-13.602,13.604-13.602c7.514,0,13.604,6.09,13.604,13.602
	C46.562,57.233,40.472,63.323,32.958,63.323z M66.48,63.323c-7.513,0-13.603-6.09-13.603-13.604c0-7.512,6.09-13.602,13.603-13.602
	c7.514,0,13.605,6.09,13.605,13.602C80.086,57.233,73.994,63.323,66.48,63.323z"/>
<path id="vevo_1_" display="none" fill="#DC2726" d="M88.701,0H10.74C4.809,0,0,4.809,0,10.74V88.7c0,5.932,4.809,10.74,10.74,10.74
	h77.961c5.934,0,10.74-4.809,10.74-10.74V10.74C99.441,4.809,94.635,0,88.701,0z M59.861,75.215H41.076L13.457,26.007h17.879
	l18.799,37.132L68.85,26.007h17.133L59.861,75.215z"/>
<g id="wordpress_1_" display="none">
	<path display="inline" fill="#464342" d="M49.721,17.64c-17.689,0-32.08,14.391-32.08,32.08c0,17.689,14.391,32.08,32.08,32.08
		s32.078-14.391,32.078-32.08C81.799,32.03,67.41,17.64,49.721,17.64z M20.879,49.719c0-4.182,0.898-8.15,2.496-11.738l13.76,37.695
		C27.514,71.002,20.879,61.135,20.879,49.719z M49.721,78.563c-2.832,0-5.564-0.414-8.148-1.174l8.654-25.148l8.865,24.289
		c0.059,0.145,0.131,0.273,0.207,0.398C56.301,77.985,53.08,78.563,49.721,78.563z M53.697,36.196
		c1.734-0.09,3.299-0.273,3.299-0.273c1.555-0.186,1.369-2.469-0.184-2.377c0,0-4.67,0.367-7.686,0.367
		c-2.836,0-7.598-0.367-7.598-0.367c-1.555-0.092-1.738,2.285-0.184,2.377c0,0,1.473,0.184,3.025,0.273l4.494,12.312l-6.312,18.93
		L32.049,36.196c1.738-0.09,3.301-0.273,3.301-0.273c1.553-0.186,1.371-2.469-0.184-2.377c0,0-4.67,0.367-7.688,0.367
		c-0.541,0-1.178-0.014-1.855-0.037c5.156-7.829,14.021-12.999,24.098-12.999c7.508,0,14.346,2.871,19.477,7.572
		c-0.123-0.008-0.244-0.023-0.373-0.023c-2.834,0-4.844,2.469-4.844,5.12c0,2.377,1.371,4.387,2.832,6.764
		c1.098,1.922,2.379,4.389,2.379,7.955c0,2.469-0.949,5.334-2.193,9.324L64.119,67.2L53.697,36.196z M75.031,35.881
		c2.25,4.107,3.533,8.824,3.533,13.838c0,10.641-5.768,19.93-14.344,24.93l8.811-25.471c1.645-4.113,2.193-7.404,2.193-10.33
		C75.225,37.786,75.154,36.801,75.031,35.881z"/>
	<path display="inline" fill="#464342" d="M88.701,0H10.74C4.809,0,0,4.808,0,10.739V88.7c0,5.934,4.809,10.74,10.74,10.74h77.961
		c5.932,0,10.74-4.807,10.74-10.74v-77.96C99.441,4.808,94.633,0,88.701,0z M49.721,85.606c-19.787,0-35.887-16.098-35.887-35.887
		c0-19.788,16.1-35.885,35.887-35.885s35.887,16.098,35.887,35.885C85.607,69.508,69.508,85.606,49.721,85.606z"/>
</g>
<g id="bebo_1_" display="none">
	<path display="inline" fill="#F26722" d="M39.68,42.907h9.852c1.881,0,3.402-1.543,3.402-3.404s-1.521-3.385-3.402-3.385H39.68
		c-1.879,0-3.402,1.523-3.402,3.385S37.801,42.907,39.68,42.907z"/>
	<path display="inline" fill="#F26722" d="M59.703,56.461H39.68c-1.879,0-3.402,1.521-3.402,3.383c0,1.842,1.523,3.385,3.402,3.385
		h20.023c1.861,0,3.383-1.543,3.383-3.385C63.086,57.983,61.564,56.461,59.703,56.461z"/>
	<path display="inline" fill="#F26722" d="M88.701,0H10.74C4.809,0,0,4.81,0,10.74v77.961c0,5.93,4.809,10.738,10.74,10.738h77.961
		c5.932,0,10.74-4.809,10.74-10.738V10.74C99.441,4.81,94.633,0,88.701,0z M77.639,60.108c-0.059,9.758-7.99,17.748-17.768,17.748
		H39.455c-9.777,0-17.766-7.99-17.766-17.748V39.372c0-9.777,7.988-17.785,17.766-17.785h12.428
		c4.586,0.544,11.262,4.474,13.725,9.701c0.676,1.466,1.033,1.691,1.598,6.035c0.301,2.236,0.449,3.891,1.447,4.812
		c1.41,1.277,6.637,0.414,7.67,1.223l0.791,0.619l0.467,0.979l0.172,0.789L77.639,60.108z"/>
</g>
<g id="instagram_1_" display="none">
	<path display="inline" fill="#3F729B" d="M69.708,27.51h-6.661c-1.228,0-2.221,0.995-2.221,2.221v6.665
		c0,1.225,0.993,2.221,2.221,2.221h6.661c1.229,0,2.223-0.996,2.223-2.221V29.73C71.931,28.505,70.937,27.51,69.708,27.51z"/>
	<path display="inline" fill="#3F729B" d="M67.486,49.719c0,9.814-7.953,17.766-17.766,17.766s-17.767-7.951-17.767-17.766
		c0-1.535,0.217-3.021,0.584-4.443h-5.027v24.432c0,1.225,0.993,2.219,2.223,2.219h39.975c1.229,0,2.223-0.994,2.223-2.219V45.276
		h-5.026C67.271,46.698,67.486,48.184,67.486,49.719z"/>
	<path display="inline" fill="#3F729B" d="M88.7,0H10.74C4.809,0,0,4.81,0,10.74v77.961c0,5.93,4.809,10.738,10.74,10.738H88.7
		c5.932,0,10.74-4.809,10.74-10.738V10.74C99.44,4.81,94.632,0,88.7,0z M78.593,71.926c0,3.682-2.982,6.666-6.662,6.666h-44.42
		c-3.68,0-6.662-2.984-6.662-6.666V27.51c0-3.68,2.982-6.661,6.662-6.661h44.42c3.68,0,6.662,2.981,6.662,6.661V71.926z"/>
	<circle display="inline" fill="#3F729B" cx="49.721" cy="49.72" r="11.104"/>
</g>
<g id="google_plus" display="none">
	<path display="inline" fill="#303030" d="M36.633,29.672c-4.273-0.127-7.139,4.167-6.4,9.778c0.738,5.609,4.797,10.262,9.07,10.389
		c4.27,0.129,7.135-4.316,6.398-9.926C44.963,34.303,40.902,29.801,36.633,29.672z"/>
	<path display="inline" fill="#303030" d="M38.734,60.731c-6.365-0.068-12.066,3.881-12.066,8.625c0,4.838,4.596,8.869,10.961,8.869
		c8.947,0,12.068-3.783,12.068-8.623c0-0.584-0.072-1.154-0.203-1.709c-0.699-2.74-3.178-4.098-6.633-6.5
		C41.604,60.987,40.221,60.747,38.734,60.731z"/>
	<path display="inline" fill="#303030" d="M88.701,0H10.738C4.809,0,0,4.809,0,10.739V88.7c0,5.932,4.809,10.74,10.738,10.74h77.963
		c5.932,0,10.74-4.809,10.74-10.74v-77.96C99.441,4.809,94.633,0,88.701,0z M51.662,39.674c0,3.504-1.939,6.428-4.684,8.572
		c-2.674,2.09-3.184,2.967-3.184,4.742c0,1.518,2.867,4.098,4.365,5.158c4.383,3.1,5.801,5.975,5.801,10.777
		c0,5.992-5.801,11.947-16.297,11.947c-9.209,0-16.979-3.746-16.979-9.734c0-6.082,7.088-11.945,16.295-11.945
		c1.004,0,1.922-0.025,2.875-0.025c-1.26-1.225-2.258-2.723-2.258-4.576c0-1.1,0.35-2.146,0.842-3.088
		c-0.5,0.035-1.01,0.064-1.535,0.064c-7.564,0-12.633-5.342-12.633-12.008c0-6.525,6.996-12.081,14.432-12.081
		c4.146,0,16.584,0,16.584,0l-3.711,2.706h-5.26C49.805,31.537,51.662,35.502,51.662,39.674z M84.104,40.67H73.279v10.822h-2.367
		V40.67H59.75v-2.707h11.162V27.479h2.367v10.485h10.824V40.67z"/>
</g>
<g id="foursquare_1_" display="none">
	<path display="inline" fill="#0BBADF" d="M49.72,23.171c-14.639,0-26.549,11.912-26.549,26.55S35.081,76.27,49.72,76.27
		s26.549-11.91,26.549-26.549S64.358,23.171,49.72,23.171z M59.038,62.549c0,0-0.174,0.791-1.219,0.791H41.546
		c-1.256,0-1.393-1.021-1.393-1.021l-2.9-8.953h24.936L59.038,62.549z M65.983,47.202c-0.428,0-0.857-0.072-1.289-0.285
		l-2.148,5.514h-25.65l-2.15-5.514c-0.428,0.213-0.861,0.285-1.287,0.285c-1.65,0-3.012-1.363-3.012-3.008
		c0-1.648,1.361-3.008,3.012-3.008c1.646,0,3.01,1.359,3.01,3.008c0,0.789-0.359,1.576-0.859,2.076
		c4.012,2.436,10.959,1.219,13.752-4.227c-1.506-0.141-2.648-1.432-2.648-2.938c0-1.648,1.361-3.006,3.01-3.006
		c1.645,0,3.01,1.357,3.01,3.006c0,1.506-1.146,2.797-2.652,2.938c2.793,5.445,9.74,6.662,13.758,4.227
		c-0.506-0.5-0.859-1.287-0.859-2.076c0-1.648,1.357-3.008,3.006-3.008s3.01,1.359,3.01,3.008
		C68.993,45.838,67.632,47.202,65.983,47.202z"/>
	<path display="inline" fill="#0BBADF" d="M88.7,0H10.739C4.808,0,0.001,4.809,0.001,10.738v77.963
		c0,5.93,4.807,10.738,10.738,10.738H88.7c5.934,0,10.74-4.809,10.74-10.738V10.738C99.44,4.809,94.634,0,88.7,0z M49.72,82.12
		c-17.865,0-32.398-14.535-32.398-32.398c0-17.867,14.533-32.401,32.398-32.401s32.4,14.534,32.4,32.401
		C82.12,67.584,67.585,82.12,49.72,82.12z"/>
</g>
<g id="dribbble_1_" display="none">
	<path display="inline" fill="#EA4C89" d="M51.486,49.905c0.357-0.115,0.719-0.224,1.082-0.326c-0.691-1.561-1.441-3.121-2.229-4.66
		c-12.482,3.735-24.52,3.929-27.479,3.915c-0.01,0.294-0.021,0.589-0.021,0.884c0,1.836,0.184,3.67,0.545,5.453
		c0.354,1.734,0.881,3.444,1.57,5.082c0.674,1.604,1.51,3.15,2.48,4.595c0.621,0.927,1.311,1.812,2.045,2.659
		C31.008,65.051,38.389,54.139,51.486,49.905z"/>
	<path display="inline" fill="#EA4C89" d="M54.254,54.181C39.91,59.18,34.129,68.684,32.963,70.859
		c0.562,0.452,1.139,0.887,1.734,1.29c1.438,0.977,2.973,1.815,4.564,2.492c1.621,0.689,3.318,1.221,5.047,1.576
		c3.537,0.729,7.287,0.729,10.824,0c1.729-0.355,3.426-0.887,5.047-1.576c0.02-0.008,0.039-0.018,0.057-0.025
		c-0.486-2.777-2.105-10.889-5.801-20.494C54.375,54.142,54.314,54.161,54.254,54.181z"/>
	<path display="inline" fill="#EA4C89" d="M38.178,25.287c-1.207,0.579-2.373,1.247-3.48,2c-1.424,0.967-2.762,2.077-3.979,3.301
		c-1.219,1.224-2.322,2.57-3.283,4c-0.973,1.446-1.807,2.993-2.48,4.597c-0.658,1.566-1.166,3.2-1.518,4.859
		c2.746-0.01,13.008-0.265,24.633-3.352C43.855,33.2,39.383,26.94,38.178,25.287z"/>
	<path display="inline" fill="#EA4C89" d="M67.48,29.422c-0.867-0.768-1.779-1.487-2.734-2.136
		c-1.438-0.976-2.973-1.814-4.566-2.492c-1.623-0.69-3.32-1.22-5.047-1.575c-1.77-0.364-3.59-0.549-5.412-0.549
		c-1.82,0-3.643,0.185-5.412,0.549c-0.301,0.062-0.598,0.135-0.896,0.208c1.221,1.644,5.777,7.923,9.965,15.615
		C62.4,35.66,66.527,30.705,67.48,29.422z"/>
	<path display="inline" fill="#EA4C89" d="M74.488,39.184c-0.674-1.602-1.508-3.148-2.482-4.597
		c-0.459-0.685-0.955-1.35-1.479-1.992c-1.047,1.354-5.6,6.678-15.039,10.531c0.639,1.31,1.252,2.638,1.824,3.979
		c0.201,0.474,0.398,0.946,0.59,1.417c8.428-1.061,16.744,0.424,18.691,0.812c-0.023-1.708-0.201-3.411-0.537-5.07
		C75.703,42.528,75.176,40.819,74.488,39.184z"/>
	<path display="inline" fill="#EA4C89" d="M88.701,0H10.74C4.809,0,0,4.809,0,10.738v77.963c0,5.93,4.809,10.738,10.74,10.738
		h77.961c5.934,0,10.74-4.809,10.74-10.738V10.738C99.441,4.809,94.635,0,88.701,0z M81.527,56.284
		c-0.428,2.094-1.064,4.157-1.893,6.133c-0.814,1.934-1.822,3.8-2.994,5.545c-1.158,1.723-2.488,3.346-3.957,4.823
		c-1.467,1.476-3.082,2.815-4.801,3.982c-1.738,1.18-3.594,2.193-5.518,3.011c-1.961,0.836-4.016,1.477-6.105,1.906
		c-2.139,0.44-4.338,0.664-6.539,0.664c-2.199,0-4.4-0.224-6.539-0.664c-2.09-0.43-4.145-1.07-6.105-1.906
		c-1.924-0.817-3.779-1.831-5.518-3.011c-1.715-1.166-3.33-2.506-4.799-3.981c-1.469-1.479-2.801-3.102-3.959-4.826
		c-1.17-1.741-2.178-3.607-2.992-5.543c-0.83-1.977-1.467-4.04-1.895-6.134c-0.436-2.147-0.658-4.356-0.658-6.565
		c0-2.207,0.223-4.416,0.658-6.564c0.428-2.096,1.064-4.159,1.895-6.133c0.814-1.935,1.82-3.8,2.992-5.545
		c1.16-1.726,2.492-3.349,3.959-4.825c1.467-1.476,3.082-2.816,4.801-3.982c1.732-1.178,3.59-2.192,5.516-3.012
		c1.965-0.835,4.018-1.477,6.107-1.906c4.277-0.88,8.797-0.88,13.076,0c2.088,0.429,4.143,1.071,6.105,1.906
		c1.926,0.82,3.783,1.833,5.518,3.012c1.719,1.167,3.334,2.507,4.801,3.982c1.465,1.475,2.797,3.098,3.957,4.824
		c1.174,1.747,2.18,3.612,2.994,5.545c0.828,1.973,1.465,4.035,1.893,6.132c0.436,2.148,0.658,4.356,0.658,6.565
		S81.963,54.135,81.527,56.284z"/>
	<path display="inline" fill="#EA4C89" d="M59.574,52.852c3.385,9.297,4.877,16.969,5.275,19.224
		c1.385-0.95,2.688-2.034,3.875-3.227c1.217-1.226,2.322-2.572,3.281-4.001c0.973-1.447,1.807-2.992,2.482-4.596
		c0.688-1.637,1.215-3.347,1.568-5.082c0.084-0.412,0.154-0.828,0.219-1.244C74.529,53.408,67.531,51.578,59.574,52.852z"/>
</g>
<g id="klout_1_" display="none">
	<g display="inline">
		<polygon fill="#E14C26" points="31.007,60.729 39.194,49.215 42.546,49.215 42.546,42.405 39.194,42.405 31.636,31.358 
			22.157,31.358 32.499,45.77 21.296,60.729 		"/>
		<polygon fill="#E14C26" points="52.673,49.215 58.253,49.215 66.438,60.729 76.147,60.729 64.95,45.77 75.286,31.358 
			65.812,31.358 58.253,42.405 52.673,42.405 52.673,31.358 44.903,31.358 44.903,60.729 52.673,60.729 		"/>
		<path fill="#E14C26" d="M88.702,0H10.741C4.81,0,0.001,4.809,0.001,10.738v77.963c0,5.93,4.809,10.738,10.74,10.738h77.961
			c5.932,0,10.738-4.809,10.738-10.738V10.738C99.44,4.809,94.634,0,88.702,0z M82.603,66.891v11.047L60.618,66.891H14.841v-41.39
			h67.762V66.891z"/>
	</g>
</g>
<g id="spotify_1_" display="none">
	<path display="inline" fill="#75C044" d="M88.701,0H10.74C4.809,0,0,4.809,0,10.739v77.962c0,5.93,4.809,10.738,10.74,10.738
		h77.961c5.932,0,10.739-4.809,10.739-10.738V10.739C99.44,4.809,94.633,0,88.701,0z M49.653,82.944
		c-17.305,0-31.332-14.027-31.332-31.332S32.349,20.28,49.653,20.28c17.304,0,31.331,14.027,31.331,31.332
		S66.957,82.944,49.653,82.944z"/>
	<path display="inline" fill="#75C044" d="M67.181,53.407c-9.474-5.82-23.337-7.467-34.49-4.078
		c-1.262,0.379-1.978,1.715-1.592,2.98s1.72,1.984,2.988,1.596c9.757-2.961,22.343-1.496,30.591,3.586
		c1.123,0.686,2.597,0.334,3.295-0.795C68.66,55.575,68.304,54.104,67.181,53.407z"/>
	<path display="inline" fill="#75C044" d="M71.221,42.922c-11.383-6.758-29.416-7.398-40.262-4.102
		c-1.52,0.461-2.373,2.064-1.913,3.582s2.06,2.373,3.585,1.916c9.439-2.871,25.767-2.33,35.662,3.547
		c1.365,0.809,3.129,0.363,3.931-1.002C73.037,45.493,72.586,43.737,71.221,42.922z"/>
	<path display="inline" fill="#75C044" d="M63.579,62.432c-8.095-4.947-18.13-6.102-29.818-3.426
		c-1.032,0.234-1.677,1.258-1.44,2.287c0.231,1.033,1.266,1.674,2.293,1.443c10.688-2.441,19.758-1.449,26.969,2.957
		c0.896,0.547,2.08,0.264,2.637-0.633C64.762,64.153,64.484,62.979,63.579,62.432z"/>
</g>
<path id="github_1_" display="none" d="M88.701,0H10.74C4.809,0,0,4.809,0,10.738v77.963c0,5.93,4.809,10.738,10.74,10.738h77.961
	c5.934,0,10.74-4.809,10.74-10.738V10.738C99.441,4.809,94.635,0,88.701,0z M60.223,81.997c-1.682,0.326-2.277-0.707-2.277-1.59
	c0-1.094,0.037-4.664,0.037-9.1c0-3.094-1.059-5.111-2.248-6.141c7.383-0.82,15.141-3.625,15.141-16.361
	c0-3.619-1.287-6.578-3.412-8.9c0.344-0.834,1.479-4.207-0.326-8.774c0,0-2.781-0.891-9.109,3.399
	c-2.65-0.734-5.488-1.103-8.307-1.115c-2.818,0.013-5.654,0.381-8.299,1.115c-6.336-4.29-9.121-3.399-9.121-3.399
	c-1.801,4.567-0.666,7.94-0.32,8.774c-2.123,2.322-3.418,5.281-3.418,8.9c0,12.707,7.742,15.549,15.107,16.389
	c-0.947,0.826-1.807,2.289-2.105,4.432c-1.893,0.848-6.691,2.314-9.648-2.756c0,0-1.754-3.182-5.084-3.416
	c0,0-3.234-0.043-0.227,2.016c0,0,2.174,1.02,3.682,4.852c0,0,1.947,5.918,11.172,3.912c0.014,2.771,0.045,5.383,0.045,6.174
	c0,0.875-0.607,1.9-2.266,1.594c-13.174-4.383-22.676-16.812-22.676-31.463c0-18.313,14.848-33.158,33.158-33.158
	c18.312,0,33.158,14.845,33.158,33.158C82.879,65.184,73.391,77.608,60.223,81.997z M41.273,71.081
	c0.047,0.266-0.227,0.541-0.619,0.613c-0.385,0.07-0.74-0.094-0.789-0.359c-0.049-0.273,0.23-0.547,0.615-0.617
	C40.873,70.649,41.223,70.809,41.273,71.081z M38.748,71.51c0.01,0.273-0.309,0.5-0.703,0.504c-0.396,0.01-0.719-0.211-0.723-0.48
	c0-0.275,0.312-0.5,0.707-0.508S38.748,71.239,38.748,71.51z M36.033,71.311c-0.08,0.26-0.451,0.377-0.828,0.268
	c-0.375-0.113-0.619-0.418-0.545-0.68c0.078-0.262,0.453-0.385,0.832-0.266C35.865,70.745,36.111,71.047,36.033,71.311z
	 M33.562,70.241c-0.182,0.199-0.568,0.146-0.852-0.127c-0.289-0.268-0.371-0.646-0.189-0.848c0.186-0.201,0.574-0.145,0.859,0.127
	C33.67,69.661,33.758,70.042,33.562,70.241z M31.771,68.395c-0.201,0.143-0.535,0.01-0.74-0.285
	c-0.203-0.295-0.203-0.65,0.004-0.791c0.205-0.143,0.535-0.014,0.742,0.279C31.98,67.897,31.98,68.25,31.771,68.395z M30.465,66.485
	c-0.158,0.146-0.467,0.078-0.678-0.152c-0.217-0.23-0.256-0.541-0.096-0.689c0.162-0.146,0.463-0.078,0.68,0.154
	S30.631,66.336,30.465,66.485z M29.121,64.987c-0.072,0.166-0.332,0.215-0.568,0.102c-0.24-0.107-0.375-0.332-0.297-0.498
	c0.072-0.17,0.33-0.217,0.57-0.104C29.066,64.596,29.205,64.823,29.121,64.987z"/>
<path id="vimeo_1_" display="none" fill="#1FB7EA" d="M88.7,0H10.739C4.808,0,0,4.81,0,10.739V88.7
	c0,5.932,4.808,10.74,10.739,10.74H88.7c5.932,0,10.74-4.809,10.74-10.74v-77.96C99.44,4.81,94.632,0,88.7,0z M82.64,34.936
	c-0.303,6.613-4.92,15.666-13.849,27.158C59.56,74.098,51.747,80.1,45.358,80.1c-3.957,0-7.309-3.654-10.044-10.965
	c-1.827-6.703-3.654-13.404-5.481-20.105c-2.031-7.309-4.211-10.967-6.541-10.967c-0.508,0-2.285,1.07-5.329,3.199l-3.194-4.117
	c3.351-2.945,6.656-5.89,9.91-8.839c4.469-3.863,7.824-5.896,10.061-6.101c5.285-0.507,8.538,3.105,9.759,10.842
	c1.318,8.344,2.232,13.536,2.744,15.569c1.524,6.924,3.2,10.381,5.031,10.381c1.421,0,3.556-2.244,6.403-6.736
	c2.843-4.492,4.366-7.91,4.571-10.258c0.405-3.877-1.118-5.818-4.571-5.818c-1.627,0-3.303,0.373-5.027,1.113
	c3.338-10.935,9.715-16.247,19.125-15.944C79.753,21.56,83.041,26.086,82.64,34.936z"/>
<g id="youtube_1_" display="none">
	<path display="inline" fill="#EB2629" d="M44.633,71.362c-0.736,1.039-1.432,1.551-2.098,1.551c-0.443,0-0.696-0.26-0.776-0.775
		c-0.03-0.105-0.03-0.514-0.03-1.289V57.366h-3.316v14.48c0,1.293,0.109,2.166,0.291,2.721c0.332,0.93,1.069,1.363,2.139,1.363
		c1.22,0,2.473-0.736,3.791-2.25v1.998h3.32V57.366h-3.32V71.362z"/>
	<polygon display="inline" fill="#EB2629" points="26.359,54.561 30.263,54.561 30.263,75.678 33.953,75.678 33.953,54.561 
		37.928,54.561 37.928,51.1 26.359,51.1 	"/>
	<path display="inline" fill="#EB2629" d="M57.57,57.141c-1.219,0-2.355,0.668-3.427,1.988V51.1h-3.318v24.578h3.318v-1.775
		c1.108,1.371,2.248,2.027,3.427,2.027c1.323,0,2.21-0.695,2.654-2.059c0.221-0.775,0.334-1.996,0.334-3.689v-7.293
		c0-1.732-0.113-2.943-0.334-3.68C59.78,57.836,58.894,57.141,57.57,57.141z M57.24,70.444c0,1.654-0.486,2.469-1.443,2.469
		c-0.545,0-1.099-0.26-1.653-0.814V60.936c0.555-0.547,1.108-0.807,1.653-0.807c0.957,0,1.443,0.848,1.443,2.5V70.444z"/>
	<path display="inline" fill="#EB2629" d="M88.701,0H10.74C4.809,0,0,4.809,0,10.739v77.963c0,5.93,4.809,10.738,10.74,10.738
		h77.961c5.932,0,10.739-4.809,10.739-10.738V10.739C99.44,4.809,94.633,0,88.701,0z M56.658,23.238h0.01v-0.402h3.344v13.624
		c0,0.787,0,1.197,0.04,1.305c0.074,0.52,0.337,0.785,0.786,0.785c0.667,0,1.369-0.516,2.107-1.558V23.238h0.01v-0.402h3.355V41.34
		h-0.012v0.404h-3.354v-2.02c-1.336,1.533-2.607,2.273-3.83,2.273c-1.079,0-1.825-0.438-2.158-1.375
		c-0.186-0.561-0.299-1.445-0.299-2.75V23.238z M43.992,29.272c0-0.076,0.009-0.137,0.01-0.211v-0.193
		c0-1.978,0.338-3.424,1.051-4.359c0.927-1.264,2.233-1.896,3.903-1.896c1.681,0,2.983,0.633,3.913,1.896
		c0.701,0.936,1.04,2.382,1.04,4.359v6.482c0,0.083-0.01,0.151-0.011,0.232v0.17c0,1.969-0.337,3.426-1.041,4.352
		c-0.926,1.262-2.232,1.895-3.912,1.895c-1.671,0-2.975-0.633-3.902-1.895c-0.713-0.926-1.051-2.383-1.051-4.352V29.272z
		 M31.123,16.508h3.912l2.641,9.751l2.535-9.751h3.76L43.85,16.91h0.113l-4.465,14.748v9.683h-0.009v0.404h-3.72V31.686
		c-0.337-1.781-1.08-4.392-2.273-7.856c-0.783-2.304-1.6-4.616-2.383-6.92h0.148C31.216,16.776,31.169,16.642,31.123,16.508z
		 M76.211,76.778c-0.67,2.92-3.061,5.074-5.934,5.395c-6.811,0.76-13.701,0.766-20.561,0.76c-6.861,0.006-13.753,0-20.561-0.76
		c-2.875-0.32-5.262-2.475-5.933-5.395c-0.956-4.158-0.956-8.697-0.956-12.979c0-4.283,0.01-8.82,0.967-12.98
		c0.67-2.918,3.059-5.07,5.934-5.391c6.808-0.764,13.699-0.766,20.561-0.764c6.859-0.002,13.75,0,20.56,0.764
		c2.874,0.32,5.263,2.473,5.934,5.391c0.956,4.16,0.952,8.697,0.952,12.98C77.174,68.081,77.168,72.62,76.211,76.778z"/>
	<path display="inline" fill="#EB2629" d="M68.14,57.141c-1.693,0-3.016,0.625-3.974,1.879c-0.705,0.926-1.025,2.357-1.025,4.312
		v6.416c0,1.945,0.361,3.391,1.066,4.307c0.959,1.25,2.279,1.875,4.016,1.875c1.732,0,3.094-0.656,4.014-1.984
		c0.401-0.588,0.662-1.254,0.774-1.988c0.03-0.334,0.07-1.07,0.07-2.137v-0.486h-3.387c0,1.332-0.042,2.068-0.071,2.248
		c-0.189,0.887-0.666,1.33-1.483,1.33c-1.139,0-1.693-0.844-1.693-2.541v-3.244h6.635v-3.795c0-1.955-0.333-3.387-1.026-4.312
		C71.125,57.766,69.805,57.141,68.14,57.141z M69.764,64.364h-3.317V62.67c0-1.693,0.555-2.541,1.663-2.541
		c1.099,0,1.654,0.848,1.654,2.541V64.364z"/>
	<path display="inline" fill="#EB2629" d="M48.956,38.549c1.026,0,1.539-0.782,1.589-2.326V28.6c0-1.712-0.52-2.567-1.6-2.567
		c-1.026,0-1.54,0.782-1.59,2.327v7.622C47.355,37.694,47.874,38.549,48.956,38.549z"/>
</g>
<g id="bread" display="none">
	<path display="inline" fill="#00A4E4" d="M70.039,66.724c-0.912-0.688-1.926-0.961-3.041-0.82
		c-1.112,0.141-2.027,0.658-2.739,1.549c-0.714,0.887-0.998,1.916-0.853,3.076c0.146,1.16,0.678,2.084,1.59,2.773
		c0.911,0.688,1.926,0.959,3.039,0.818c1.113-0.139,2.028-0.656,2.742-1.547c0.714-0.893,0.992-1.918,0.846-3.082
		C71.479,68.333,70.953,67.406,70.039,66.724z"/>
	<path display="inline" fill="#00A4E4" d="M88.701,0H10.74C4.809,0,0,4.809,0,10.74v77.961c0,5.932,4.809,10.74,10.74,10.74h77.961
		c5.932,0,10.74-4.809,10.74-10.74V10.74C99.441,4.809,94.633,0,88.701,0z M77.521,66.869c0.789,6.26-2.817,11.871-8.056,12.531
		c0,0-4.884,0.111-7.535,0.184c-3.562,0.098-12.718,1.146-15.995,2.018c-3.262,0.818-8.933,1.891-8.933,1.891
		c-5.237,0.66-10.123-3.881-10.911-10.141l-0.99-19.982c-3.795-2.746-7.209-6.783-7.822-11.648
		c-1.219-9.668,6.107-18.553,16.363-19.846c4.535-0.572,8.876,0.436,12.421,2.57c2.9-2.926,6.843-4.963,11.353-5.531
		c10.258-1.295,19.561,5.496,20.779,15.166c0.611,4.854-1.686,9.607-4.672,13.205L77.521,66.869z"/>
</g>
<g id="googleplus_1_" display="none">
	<path display="inline" fill="#303030" d="M43.858,57.655c-0.647-0.082-1.054-0.082-1.862-0.082c-0.732,0-5.121,0.16-8.533,1.283
		c-1.787,0.639-6.984,2.559-6.984,8.24c0,5.684,5.606,9.768,14.297,9.768c7.796,0,11.941-3.689,11.941-8.643
		C52.717,64.131,50.037,61.977,43.858,57.655z"/>
	<path display="inline" fill="#303030" d="M88.701,0H10.738C4.809,0,0,4.809,0,10.739V88.7c0,5.932,4.809,10.74,10.738,10.74h77.963
		c5.932,0,10.74-4.809,10.74-10.74v-77.96C99.441,4.809,94.633,0,88.701,0z M36.572,80.28c-11.779,0-17.231-5.578-17.231-11.504
		c0-2.883,1.458-6.959,6.256-9.764c5.032-3.041,11.859-3.439,15.514-3.684c-1.14-1.439-2.438-2.959-2.438-5.439
		c0-1.359,0.408-2.162,0.812-3.121c-0.896,0.079-1.786,0.159-2.6,0.159c-8.609,0-13.483-6.325-13.483-12.562
		c0-3.682,1.146-8.03,4.635-10.989c4.632-3.762,10.55-4.215,14.938-4.215l16.936,0.003l-5.26,3.217h-4.814
		c1.867,1.521,5.568,4.458,5.568,10.543c0,5.92-3.411,8.726-6.822,11.362c-1.057,1.04-2.273,2.163-2.273,3.925
		c0,1.758,1.217,2.719,2.109,3.442l2.928,2.236c3.573,2.963,6.82,5.686,6.82,11.209C58.166,72.62,50.542,80.28,36.572,80.28z
		 M80.102,50.258H72.06v8.041h-4.11v-8.041h-8.042v-3.932h8.042v-8.041h4.11v8.041h8.042V50.258z"/>
	<path display="inline" fill="#303030" d="M48.256,36.806c0-5.763-3.492-14.726-10.231-14.726c-2.114,0-4.387,0.84-5.689,2.441
		c-1.38,1.682-1.785,4.04-1.785,6.123c0,5.36,3.169,14.244,10.155,14.244c2.029,0,4.219-1.159,5.521-2.441
		C48.095,40.603,48.256,38.246,48.256,36.806z"/>
</g>
<g id="yahoo" display="none">
	<path display="inline" fill="#8B2C8E" d="M88.702,0H10.741C4.81,0,0.001,4.809,0.001,10.738v77.963
		c0,5.93,4.809,10.738,10.74,10.738h77.961c5.932,0,10.738-4.809,10.738-10.738V10.738C99.44,4.809,94.634,0,88.702,0z
		 M61.584,63.843c-4.229,3.136-9.474,4.972-15.691,5.508h-7.953c-6.262-0.536-11.497-2.372-15.658-5.508
		c-5.097-3.781-7.646-8.715-7.646-14.801c0-6.002,2.55-10.854,7.646-14.636c5.017-3.863,11.592-5.753,19.65-5.753
		c7.977,0,14.554,1.891,19.652,5.753c5.015,3.782,7.564,8.634,7.564,14.636C69.148,55.128,66.599,60.062,61.584,63.843z
		 M79.67,68.694l-7.397-0.906l0.823-6.494l7.397,0.903L79.67,68.694z M80.001,57.839l-5.51-0.739L74.41,27.747l12.662,1.561
		L80.001,57.839z"/>
	<path display="inline" fill="#8B2C8E" d="M44.893,42.545l0.328,1.482l4.275,0.658c-0.082,0.903-2.301,2.959-6.494,6.167
		c-3.207-4.03-5.592-7.235-7.154-9.538l5.016-0.495l0.165-1.152c-2.222-0.163-5.016-0.163-8.386-0.082
		c-4.852-0.082-7.483-0.082-7.729,0.082v1.398l4.769,0.658c0.822,0.66,2.549,2.55,5.18,5.758c2.549,3.125,3.865,4.934,4.029,5.426
		l0.082,2.138v1.067c0,1.727-0.082,2.716-0.246,2.878c-0.246,0.246-0.987,0.412-2.22,0.493l-2.386,0.083l-0.248,1.48l7.402-0.082
		h8.304l0.082-1.562l-5.097-0.082l-0.33-3.124l0.082-1.233l0.164-2.056c0.247-0.741,1.729-2.221,4.606-4.522
		c2.713-2.221,4.274-3.373,4.85-3.535l3.864-0.823l0.986-1.398l-6.741-0.084H44.893z"/>
</g>
<g id="quora" display="none">
	<path display="inline" fill="#A72822" d="M49.902,28.81c-6.719,0-12.164,6.742-12.164,15.058c0,1.067,0,5.153,0,6.219
		c0,8.317,5.445,15.058,12.164,15.058c0.972,0,1.916-0.146,2.822-0.411c-2.418-4.154-5.949-4.295-5.949-4.295v-4.256v-0.488
		c5.206-0.293,9.308,1.998,11.927,4.785c2.082-2.703,3.366-6.361,3.366-10.393c0-1.066,0-5.152,0-6.219
		C62.068,35.551,56.621,28.81,49.902,28.81z"/>
	<path display="inline" fill="#A72822" d="M88.702,0H10.741C4.81,0,0.001,4.809,0.001,10.739v77.963
		c0,5.93,4.809,10.738,10.74,10.738h77.961c5.932,0,10.738-4.809,10.738-10.738V10.739C99.44,4.809,94.634,0,88.702,0z
		 M68.35,71.895v4.092c-7.311,1.393-10.754-1.52-13.016-5.632c-1.8,0.442-3.679,0.681-5.614,0.681
		c-13.152,0-23.814-10.807-23.814-24.141c0-13.333,10.662-24.142,23.814-24.142c13.153,0,23.817,10.809,23.817,24.142
		c0,8.679-4.521,16.285-11.303,20.539C63.662,70.717,68.35,71.895,68.35,71.895z"/>
</g>
<g id="reddit" display="none">
	<path display="inline" fill="#638CB1" d="M49.656,37.427c-17.203,0-31.198,8.989-31.198,20.041
		c0,11.049,13.995,20.039,31.198,20.039c17.202,0,31.198-8.99,31.198-20.039C80.854,46.416,66.858,37.427,49.656,37.427z
		 M33.531,53.446c0-2.951,2.392-5.346,5.347-5.346c2.952,0,5.344,2.395,5.344,5.346c0,2.953-2.392,5.344-5.344,5.344
		C35.923,58.79,33.531,56.399,33.531,53.446z M62.258,67.903c-0.16,0.168-3.995,4.07-12.665,4.07
		c-8.713,0-12.199-3.957-12.342-4.125c-0.491-0.574-0.425-1.438,0.149-1.928c0.57-0.486,1.427-0.424,1.919,0.141
		c0.078,0.086,2.986,3.18,10.273,3.18c7.414,0,10.666-3.203,10.698-3.234c0.524-0.535,1.389-0.549,1.928-0.023
		C62.755,66.508,62.774,67.362,62.258,67.903z M61.194,58.79c-2.955,0-5.348-2.391-5.348-5.344c0-2.951,2.393-5.346,5.348-5.346
		c2.951,0,5.344,2.395,5.344,5.346C66.538,56.399,64.146,58.79,61.194,58.79z"/>
	<path display="inline" fill="#638CB1" d="M78.781,41.558c-1.239,0-2.417,0.38-3.411,1.076c3.437,2.681,5.961,5.899,7.248,9.443
		c1.329-1.123,2.13-2.777,2.13-4.553C84.748,44.232,82.071,41.558,78.781,41.558z"/>
	<path display="inline" fill="#638CB1" d="M24.006,42.585c-0.979-0.667-2.135-1.027-3.346-1.027c-3.29,0-5.966,2.675-5.966,5.966
		c0,1.732,0.761,3.348,2.029,4.467C18.028,48.459,20.563,45.254,24.006,42.585z"/>
	<path display="inline" fill="#638CB1" d="M88.702,0H10.741C4.81,0,0.001,4.808,0.001,10.738v77.964
		c0,5.93,4.809,10.738,10.74,10.738h77.961c5.932,0,10.738-4.809,10.738-10.738V10.738C99.44,4.808,94.634,0,88.702,0z
		 M83.365,54.897c0.142,0.844,0.222,1.701,0.222,2.57c0,12.557-15.221,22.771-33.931,22.771S15.726,70.024,15.726,57.467
		c0-0.895,0.086-1.775,0.236-2.645c-2.474-1.596-4.001-4.332-4.001-7.299c0-4.796,3.903-8.699,8.699-8.699
		c2.109,0,4.101,0.754,5.68,2.122c5.868-3.732,13.711-6.073,22.356-6.235l6.077-17.268l14.643,3.5
		c1.058-2.598,3.605-4.436,6.58-4.436c3.916,0,7.104,3.187,7.104,7.105c0,3.918-3.188,7.105-7.104,7.105
		c-3.913,0-7.095-3.178-7.104-7.089l-12.359-2.955l-4.947,14.06c8.299,0.313,15.805,2.642,21.462,6.261
		c1.588-1.397,3.6-2.17,5.733-2.17c4.797,0,8.699,3.903,8.699,8.699C87.48,50.538,85.906,53.313,83.365,54.897z"/>
	<path display="inline" fill="#638CB1" d="M75.996,27.985c2.411,0,4.372-1.961,4.372-4.373s-1.961-4.372-4.372-4.372
		s-4.372,1.961-4.372,4.372S73.585,27.985,75.996,27.985z"/>
</g>
<linearGradient id="soundcloud_2_" gradientUnits="userSpaceOnUse" x1="9.765625e-04" y1="49.7197" x2="99.4404" y2="49.7197">
	<stop  offset="0" style="stop-color:#EF3F23"/>
	<stop  offset="1" style="stop-color:#EF3B24"/>
</linearGradient>
<path id="soundcloud" display="none" fill="url(#soundcloud_2_)" d="M88.702,0H10.741C4.81,0,0.001,4.808,0.001,10.738v77.964
	c0,5.93,4.809,10.738,10.74,10.738h77.961c5.932,0,10.738-4.809,10.738-10.738V10.738C99.44,4.808,94.634,0,88.702,0z M12.678,63.37
	c-0.025,0.176-0.15,0.297-0.305,0.297c-0.159,0-0.285-0.123-0.307-0.299l-0.559-4.172l0.559-4.244
	c0.021-0.176,0.147-0.299,0.307-0.299c0.154,0,0.281,0.121,0.305,0.297l0.663,4.246L12.678,63.37z M15.516,65.909
	c-0.025,0.182-0.156,0.309-0.316,0.309c-0.162,0-0.298-0.129-0.318-0.311l-0.752-6.711c0,0,0.752-6.861,0.752-6.863
	c0.021-0.178,0.156-0.309,0.318-0.309c0.16,0,0.291,0.127,0.316,0.309l0.854,6.863L15.516,65.909z M18.583,67.043
	c-0.023,0.217-0.184,0.375-0.383,0.375c-0.202,0-0.363-0.158-0.384-0.375l-0.713-7.848l0.713-8.143
	c0.021-0.217,0.182-0.375,0.384-0.375c0.199,0,0.359,0.158,0.384,0.375l0.81,8.143L18.583,67.043z M21.676,67.293
	c-0.021,0.25-0.214,0.439-0.447,0.439c-0.237,0-0.431-0.189-0.45-0.439l-0.673-8.096l0.673-8.365c0.02-0.252,0.213-0.441,0.45-0.441
	c0.233,0,0.426,0.189,0.447,0.439l0.766,8.367L21.676,67.293z M24.792,67.362c-0.021,0.287-0.24,0.504-0.513,0.504
	c-0.276,0-0.496-0.219-0.514-0.506L23.13,59.2l0.636-7.762c0.018-0.289,0.237-0.506,0.514-0.506c0.273,0,0.493,0.217,0.513,0.502
	l0.722,7.766L24.792,67.362z M27.934,67.364v-0.002c-0.018,0.32-0.271,0.572-0.578,0.572c-0.309,0-0.562-0.252-0.578-0.57
	l-0.598-8.162l0.598-12.627c0.016-0.32,0.27-0.573,0.578-0.573c0.307,0,0.561,0.253,0.578,0.573l0.677,12.627L27.934,67.364z
	 M31.1,67.311c-0.016,0.357-0.3,0.637-0.643,0.637c-0.348,0-0.629-0.279-0.645-0.635l-0.559-8.109c0,0,0.559-15.515,0.559-15.516
	c0.016-0.357,0.297-0.638,0.645-0.638c0.343,0,0.627,0.28,0.643,0.638l0.632,15.516L31.1,67.311z M34.291,67.229
	c-0.016,0.395-0.326,0.703-0.709,0.703c-0.386,0-0.696-0.309-0.71-0.701l-0.52-8.025c0,0,0.52-16.809,0.52-16.811
	c0.014-0.395,0.324-0.703,0.71-0.703c0.383,0,0.693,0.309,0.709,0.703l0.586,16.811L34.291,67.229z M37.505,67.18L37.505,67.18
	c-0.014,0.43-0.353,0.768-0.773,0.768c-0.422,0-0.763-0.338-0.774-0.766l-0.482-7.977l0.482-17.376
	c0.012-0.432,0.353-0.771,0.774-0.771c0.421,0,0.761,0.339,0.773,0.771l0.543,17.378L37.505,67.18z M40.745,67.11v-0.006
	c-0.011,0.469-0.381,0.836-0.838,0.836c-0.461,0-0.83-0.367-0.839-0.832l-0.445-7.9l0.443-16.934
	c0.011-0.467,0.38-0.834,0.841-0.834c0.457,0,0.827,0.365,0.838,0.834l0.499,16.934L40.745,67.11z M44.01,67.059v-0.006
	c-0.012,0.506-0.408,0.9-0.904,0.9c-0.497,0-0.895-0.395-0.904-0.895l-0.405-7.85l0.405-16.317c0.01-0.505,0.407-0.9,0.904-0.9
	c0.496,0,0.893,0.396,0.904,0.899l0.453,16.318L44.01,67.059z M47.299,67.004c-0.01,0.533-0.443,0.967-0.97,0.967
	c-0.525,0-0.962-0.434-0.97-0.961c0,0-0.365-7.793-0.365-7.805l0.365-19.411c0.008-0.533,0.444-0.967,0.97-0.967
	c0.526,0,0.961,0.434,0.97,0.967l0.41,19.417L47.299,67.004z M50.574,66.899v-0.008c-0.009,0.568-0.472,1.031-1.035,1.031
	s-1.027-0.463-1.035-1.025l-0.425-7.684l0.424-21.176c0.009-0.569,0.473-1.033,1.036-1.033s1.026,0.464,1.035,1.031l0.46,21.178
	L50.574,66.899z M78.532,67.991c-0.167,0-26.032-0.012-26.056-0.016c-0.562-0.055-1.008-0.535-1.016-1.109V37.03
	c0.006-0.549,0.194-0.831,0.904-1.105c1.826-0.706,3.893-1.124,6.014-1.124c8.666,0,15.77,6.646,16.519,15.117
	c1.119-0.469,2.347-0.729,3.635-0.729c5.192,0,9.4,4.208,9.4,9.401C87.933,63.782,83.725,67.991,78.532,67.991z"/>
<g id="goodreads" display="none">
	<path display="inline" fill="#5A481C" d="M61.312,27.601c-1.191-1.839-2.717-3.325-4.594-4.454
		c-1.877-1.127-4.148-1.697-6.82-1.697c-2.68,0-4.967,0.549-6.871,1.65c-1.902,1.107-3.473,2.543-4.727,4.321
		c-1.248,1.788-2.154,3.824-2.717,6.11c-0.568,2.293-0.848,4.631-0.848,7.004c0,2.314,0.299,4.58,0.895,6.777
		c0.59,2.199,1.51,4.146,2.758,5.836c1.252,1.697,2.824,3.062,4.729,4.105c1.902,1.039,4.166,1.559,6.781,1.559
		c2.432,0,4.572-0.52,6.422-1.559c1.842-1.043,3.385-2.408,4.629-4.105c1.248-1.689,2.191-3.637,2.814-5.836
		c0.623-2.197,0.934-4.463,0.934-6.777c0-2.258-0.264-4.521-0.805-6.78C63.364,31.5,62.497,29.447,61.312,27.601z"/>
	<path display="inline" fill="#5A481C" d="M88.702,0H10.741C4.81,0,0.001,4.809,0.001,10.739v77.963
		c0,5.93,4.809,10.738,10.74,10.738h77.961c5.932,0,10.738-4.809,10.738-10.738V10.739C99.44,4.809,94.634,0,88.702,0z
		 M70.319,60.333c0,3.388-0.371,6.453-1.117,9.186c-0.746,2.73-1.918,5.051-3.521,6.955c-1.613,1.902-3.699,3.359-6.287,4.369
		c-2.584,1.006-5.75,1.517-9.496,1.517c-2.318,0-4.58-0.271-6.781-0.806c-2.193-0.532-4.174-1.365-5.928-2.5
		c-1.754-1.121-3.211-2.567-4.375-4.322c-1.148-1.75-1.824-3.848-2-6.286h5.621c0.291,1.728,0.869,3.163,1.736,4.329
		c0.863,1.158,1.896,2.094,3.115,2.808c1.221,0.711,2.574,1.232,4.064,1.558c1.488,0.328,3.002,0.494,4.547,0.494
		c5.229,0,9.008-1.486,11.326-4.464c2.316-2.966,3.473-7.251,3.473-12.837v-6.241h-0.174c-1.309,2.851-3.225,5.138-5.752,6.865
		s-5.48,2.584-8.873,2.584c-3.688,0-6.836-0.612-9.451-1.829c-2.615-1.212-4.775-2.896-6.469-5.04
		c-1.693-2.136-2.926-4.646-3.699-7.528c-0.771-2.883-1.158-5.961-1.158-9.234c0-3.146,0.455-6.137,1.381-8.961
		c0.916-2.822,2.258-5.287,4.012-7.4c1.754-2.111,3.922-3.773,6.51-4.996c2.588-1.213,5.541-1.826,8.875-1.826
		c1.727,0,3.34,0.237,4.855,0.712c1.518,0.481,2.9,1.147,4.152,2.008c1.246,0.857,2.357,1.859,3.342,2.988
		c0.988,1.127,1.738,2.316,2.275,3.565h0.174v-7.935h5.623V60.333z"/>
</g>
<g id="disqus" display="none">
	<path display="inline" fill="#5597D1" d="M50.747,33.547H38.501v31.821h12.066c11.428,0,18.096-6.82,18.096-16.002v-0.09
		C68.663,40.093,62.085,33.547,50.747,33.547z M59.638,49.502c0,5.137-3.494,8.047-8.754,8.047H47.3V41.365h3.584
		c5.26,0,8.754,2.955,8.754,8.046V49.502z"/>
	<path display="inline" fill="#5597D1" d="M88.702,0H10.741C4.81,0,0.001,4.809,0.001,10.738v77.963
		c0,5.93,4.809,10.738,10.74,10.738h77.961c5.932,0,10.738-4.809,10.738-10.738V10.738C99.44,4.809,94.634,0,88.702,0z
		 M50.933,80.829c-7.91,0-15.145-2.875-20.736-7.633l-13.764,1.873l5.318-13.051c-1.854-4.062-2.893-8.578-2.893-13.337
		c0-17.754,14.361-32.147,32.074-32.147c17.717,0,32.078,14.394,32.078,32.147C83.011,66.436,68.649,80.829,50.933,80.829z"/>
</g>
<g id="behance" display="none">
	<path display="inline" fill="#4064AF" d="M40.622,39.143c0-4.619-3.141-4.619-3.141-4.619h-1.664h-11.26v9.907h12.123
		C38.774,44.431,40.622,43.761,40.622,39.143z"/>
	<path display="inline" fill="#4064AF" d="M70.569,44.431c-6.859,0-7.812,6.844-7.812,6.844h14.584
		C77.341,51.275,77.427,44.431,70.569,44.431z"/>
	<path display="inline" fill="#4064AF" d="M37.481,51.275H24.558v11.866h12.271c1.838-0.04,5.332-0.575,5.332-5.769
		C42.161,51.214,37.481,51.275,37.481,51.275z"/>
	<path display="inline" fill="#4064AF" d="M88.722,0.023H10.761c-5.932,0-10.74,4.809-10.74,10.738v77.963
		c0,5.93,4.809,10.738,10.74,10.738h77.961c5.932,0,10.738-4.809,10.738-10.738V10.761C99.46,4.832,94.653,0.023,88.722,0.023z
		 M60.843,29.248h18.318v5.469H60.843V29.248z M51.585,57.927c0,13.549-14.104,13.104-14.104,13.104H24.558h-0.381h-9.799V26.632
		h9.799h0.381h12.924c7.021,0,12.564,3.877,12.564,11.822s-6.777,8.447-6.777,8.447C52.2,46.902,51.585,57.927,51.585,57.927z
		 M85.849,57.202H62.841c0,8.247,7.814,7.726,7.814,7.726c7.379,0,7.119-4.774,7.119-4.774h7.814
		c0,12.675-15.195,11.808-15.195,11.808c-18.229,0-17.057-16.973-17.057-16.973s-0.016-17.059,17.057-17.059
		C88.364,37.929,85.849,57.202,85.849,57.202z"/>
</g>
<g>
	<path fill="#BCBCBC" d="M39.905,45.657c0,0,9.359-0.694,9.359-11.668c0-10.975-7.655-16.329-17.353-16.329H14.06h-0.527H0v61.325
		h13.533h0.527h17.851c0,0,19.479,0.614,19.479-18.099C51.39,60.886,52.24,45.657,39.905,45.657z M29.614,28.56h2.297
		c0,0,4.336,0,4.336,6.381c0,6.378-2.552,7.303-5.442,7.303H14.06V28.56H29.614z M31.008,68.086H14.06V51.699h17.851
		c0,0,6.464-0.086,6.464,8.42C38.375,67.292,33.548,68.032,31.008,68.086z"/>
	<path fill="#BCBCBC" d="M77.37,33.263c-23.581,0-23.56,23.562-23.56,23.562s-1.618,23.443,23.56,23.443
		c0,0,20.987,1.197,20.987-16.309H87.563c0,0,0.362,6.594-9.833,6.594c0,0-10.791,0.722-10.791-10.671h31.777
		C98.717,59.882,102.19,33.263,77.37,33.263z M66.822,51.699c0,0,1.317-9.455,10.791-9.455c9.472,0,9.353,9.455,9.353,9.455H66.822z
		"/>
	<rect x="64.18" y="21.272" fill="#BCBCBC" width="25.3" height="7.554"/>
</g>
</svg>
