<?xml version="1.0" encoding="utf-8"?>
<!DOCTYPE svg PUBLIC "-//W3C//DTD SVG 1.1//EN" "http://www.w3.org/Graphics/SVG/1.1/DTD/svg11.dtd">
<svg version="1.1" id="Layer_1" xmlns="http://www.w3.org/2000/svg" xmlns:xlink="http://www.w3.org/1999/xlink" x="0px" y="0px"
	 width="99.441px" height="99.44px" viewBox="0 0 99.441 99.44" enable-background="new 0 0 99.441 99.44" xml:space="preserve">
<g id="bread-sign">
	<path fill="#00A4E4" d="M70.039,66.724c-0.912-0.688-1.926-0.961-3.041-0.82c-1.112,0.141-2.027,0.658-2.739,1.549
		c-0.714,0.887-0.998,1.916-0.853,3.076c0.146,1.16,0.678,2.084,1.59,2.773c0.911,0.688,1.926,0.959,3.039,0.818
		c1.113-0.139,2.028-0.656,2.742-1.547c0.714-0.893,0.992-1.918,0.846-3.082C71.479,68.333,70.953,67.406,70.039,66.724z"/>
	<path fill="#00A4E4" d="M88.701,0H10.74C4.809,0,0,4.809,0,10.74v77.961c0,5.932,4.809,10.74,10.74,10.74h77.961
		c5.932,0,10.74-4.809,10.74-10.74V10.74C99.441,4.809,94.633,0,88.701,0z M77.521,66.869c0.789,6.26-2.817,11.871-8.056,12.531
		c0,0-4.884,0.111-7.535,0.184c-3.562,0.098-12.718,1.146-15.995,2.018c-3.262,0.818-8.933,1.891-8.933,1.891
		c-5.237,0.66-10.123-3.881-10.911-10.141l-0.99-19.982c-3.795-2.746-7.209-6.783-7.822-11.648
		c-1.219-9.668,6.107-18.553,16.363-19.846c4.535-0.572,8.876,0.436,12.421,2.57c2.9-2.926,6.843-4.963,11.353-5.531
		c10.258-1.295,19.561,5.496,20.779,15.166c0.611,4.854-1.686,9.607-4.672,13.205L77.521,66.869z"/>
</g>
</svg>
