<?xml version="1.0" encoding="utf-8"?>
<!DOCTYPE svg PUBLIC "-//W3C//DTD SVG 1.1//EN" "http://www.w3.org/Graphics/SVG/1.1/DTD/svg11.dtd">
<svg version="1.1" id="Layer_1" xmlns="http://www.w3.org/2000/svg" xmlns:xlink="http://www.w3.org/1999/xlink" x="0px" y="0px"
	 width="99.441px" height="99.44px" viewBox="0 0 99.441 99.44" enable-background="new 0 0 99.441 99.44" xml:space="preserve">
  <g id="bread">
    <path fill="#BCBCBC" d="M88.513,43.425c4.529-5.455,8.015-12.668,7.089-20.031C93.753,8.728,79.642-1.575,64.082,0.391
      c-6.84,0.862-12.821,3.952-17.22,8.39c-5.377-3.239-11.96-4.767-18.84-3.899C12.466,6.844,1.353,20.321,3.201,34.985
      c0.931,7.379,6.109,13.502,11.865,17.67l1.501,30.309c1.196,9.494,8.606,16.384,16.551,15.381c0,0,8.601-1.625,13.549-2.866
      c4.97-1.32,18.858-2.912,24.261-3.062c4.022-0.108,11.429-0.276,11.429-0.276c7.945-1.003,13.417-9.516,12.221-19.01L88.513,43.425
      z M84.349,81.786c-1.084,1.351-2.471,2.136-4.159,2.346c-1.688,0.213-3.228-0.198-4.61-1.241c-1.383-1.047-2.189-2.448-2.411-4.208
      c-0.221-1.759,0.209-3.319,1.293-4.665c1.08-1.352,2.468-2.136,4.156-2.349c1.69-0.213,3.228,0.201,4.612,1.243
      c1.387,1.033,2.183,2.439,2.401,4.198C85.854,78.875,85.432,80.43,84.349,81.786z"/>
  </g>
</svg>
