<?xml version="1.0" encoding="utf-8"?>
<!-- Generator: Adobe Illustrator 17.0.0, SVG Export Plug-In . SVG Version: 6.00 Build 0)  -->
<!DOCTYPE svg PUBLIC "-//W3C//DTD SVG 1.1//EN" "http://www.w3.org/Graphics/SVG/1.1/DTD/svg11.dtd">
<svg version="1.1" id="pocket" xmlns="http://www.w3.org/2000/svg" xmlns:xlink="http://www.w3.org/1999/xlink" x="0px" y="0px"
	 width="99.441px" height="99.44px" viewBox="0 0 99.441 99.44" enable-background="new 0 0 99.441 99.44" xml:space="preserve">
<g>
	<g>
		<path fill="#BCBCBC" d="M29.606,21.728c0,1.155,0,6.084,0,6.084h8.74c0,0,1.117,0.029,1.117-1.232
			c0-1.155,0.005-6.084,0.005-6.084h-8.745C30.723,20.496,29.606,20.467,29.606,21.728z M29.61,34.353c0,1.152,0,32.886,0,32.886
			h8.734c0,0,1.116,0.028,1.116-1.229c0-0.256,0.005-32.885,0.005-32.885h-8.738C30.726,33.125,29.61,33.096,29.61,34.353z
			 M16.772,21.728v11.397H1.153c0,0-1.117-0.029-1.117,1.232v32.882h25.476c0,0,1.117,0.029,1.117-1.232
			c0-1.155,0.005-45.511,0.005-45.511h-8.745C17.889,20.496,16.772,20.467,16.772,21.728z M16.778,58.682
			c0,1.263-1.119,1.234-1.119,1.234H9.695V41.668c0-1.263,1.119-1.234,1.119-1.234h5.965V58.682z M42.851,34.357v32.882h16.736
			v4.389H43.968c0,0-1.117-0.029-1.117,1.232c0,1.155,0,6.084,0,6.084h25.476c0,0,1.117,0.029,1.117-1.232
			c0-1.155,0.005-44.567,0.005-44.567l-25.481-0.019C43.968,33.125,42.851,33.096,42.851,34.357z M52.51,41.668
			c0-1.263,1.118-1.234,1.118-1.234h5.965v18.248c0,1.263-1.119,1.234-1.119,1.234H52.51V41.668z M73.949,33.125
			c0,0-1.117-0.029-1.117,1.232v32.882h16.736v4.389H73.949c0,0-1.117-0.029-1.117,1.232c0,1.155,0,6.084,0,6.084h25.476
			c0,0,1.117,0.029,1.117-1.232c0-1.155,0.005-44.567,0.005-44.567L73.949,33.125z M89.575,58.682c0,1.263-1.119,1.234-1.119,1.234
			h-5.965V41.668c0-1.263,1.119-1.234,1.119-1.234h5.965V58.682z"/>
	</g>
</g>
</svg>
