<?xml version="1.0" encoding="utf-8"?>
<!-- Generator: Adobe Illustrator 17.0.0, SVG Export Plug-In . SVG Version: 6.00 Build 0)  -->
<!DOCTYPE svg PUBLIC "-//W3C//DTD SVG 1.1//EN" "http://www.w3.org/Graphics/SVG/1.1/DTD/svg11.dtd">
<svg version="1.1" xmlns="http://www.w3.org/2000/svg" xmlns:xlink="http://www.w3.org/1999/xlink" x="0px" y="0px"
	 width="99.441px" height="99.44px" viewBox="0 0 99.441 99.44" enable-background="new 0 0 99.441 99.44" xml:space="preserve">
<g id="pocket">
</g>
<g id="Ebene_2">
	<g>
		<path fill="#065796" d="M57.487,56.779V42.406h-4.698c0,0-0.881-0.023-0.881,0.972v14.373h4.698
			C56.606,57.751,57.487,57.774,57.487,56.779z"/>
		<path fill="#065796" d="M18.185,43.378v14.373h4.698c0,0,0.881,0.023,0.881-0.972V42.406h-4.698
			C19.066,42.406,18.185,42.383,18.185,43.378z"/>
		<path fill="#065796" d="M88.701,0.026H10.74C4.808,0.026,0,4.834,0,10.766v77.959c0,5.932,4.809,10.74,10.74,10.74h77.961
			c5.934,0,10.74-4.809,10.74-10.74V10.766C99.441,4.834,94.635,0.026,88.701,0.026z M31.523,62.548
			c0,0.993-0.879,0.971-0.879,0.971H10.578V37.62c0-0.993,0.879-0.97,0.879-0.97h12.302v-8.977c0-0.993,0.879-0.971,0.879-0.971
			h6.888C31.527,26.702,31.523,61.638,31.523,62.548z M41.629,62.551c0,0.99-0.879,0.968-0.879,0.968h-6.879c0,0,0-24.995,0-25.902
			c0-0.99,0.879-0.967,0.879-0.967h6.883C41.632,36.649,41.629,62.349,41.629,62.551z M41.632,31.494
			c0,0.993-0.879,0.971-0.879,0.971h-6.884c0,0,0-3.882,0-4.792c0-0.993,0.88-0.971,0.88-0.971h6.888
			C41.635,26.702,41.632,30.584,41.632,31.494z M65.246,71.767c0,0.993-0.88,0.971-0.88,0.971H44.3c0,0,0-3.882,0-4.792
			c0-0.993,0.879-0.97,0.879-0.97h12.302v-3.457H44.3V37.62c0-0.993,0.879-0.97,0.879-0.97l20.07,0.015
			C65.249,36.664,65.246,70.857,65.246,71.767z M88.86,71.767c0,0.993-0.879,0.971-0.879,0.971H67.914c0,0,0-3.882,0-4.792
			c0-0.993,0.879-0.97,0.879-0.97h12.302v-3.457H67.914V37.62c0-0.993,0.879-0.97,0.879-0.97l20.07,0.015
			C88.863,36.664,88.86,70.857,88.86,71.767z"/>
		<path fill="#065796" d="M81.101,56.779V42.406h-4.698c0,0-0.881-0.023-0.881,0.972v14.373h4.698
			C80.22,57.751,81.101,57.774,81.101,56.779z"/>
	</g>
</g>
</svg>
