<?xml version="1.0" encoding="utf-8"?>
<!DOCTYPE svg PUBLIC "-//W3C//DTD SVG 1.1//EN" "http://www.w3.org/Graphics/SVG/1.1/DTD/svg11.dtd">
<svg version="1.1" id="Layer_1" xmlns="http://www.w3.org/2000/svg" xmlns:xlink="http://www.w3.org/1999/xlink" x="0px" y="0px"
	 width="99.441px" height="99.44px" viewBox="0 0 99.441 99.44" enable-background="new 0 0 99.441 99.44" xml:space="preserve">
  <g id="disqus">
    <path fill="#BCBCBC" d="M51.182,38.011h-5.209v23.462h5.209c7.645,0,12.719-4.219,12.719-11.664v-0.132
      C63.9,42.295,58.826,38.011,51.182,38.011z"/>
    <path fill="#BCBCBC" d="M51.371,1.603c-26.386,0-47.772,21.389-47.772,47.771c0,7.304,1.643,14.218,4.571,20.404L0.337,88.508
      l19.844-2.964c8.372,7.224,19.263,11.603,31.19,11.603c26.382,0,47.771-21.387,47.771-47.772
      C99.143,22.992,77.753,1.603,51.371,1.603z M77.013,49.61c0,13.315-9.684,23.199-26.294,23.199H33.188V26.677h17.794
      c16.477,0,26.033,9.489,26.031,22.802V49.61z"/>
  </g>
</svg>
