<?xml version="1.0" encoding="utf-8"?>
<!DOCTYPE svg PUBLIC "-//W3C//DTD SVG 1.1//EN" "http://www.w3.org/Graphics/SVG/1.1/DTD/svg11.dtd">
<svg version="1.1" id="Layer_1" xmlns="http://www.w3.org/2000/svg" xmlns:xlink="http://www.w3.org/1999/xlink" x="0px" y="0px"
	 width="99.441px" height="99.44px" viewBox="0 0 99.441 99.44" enable-background="new 0 0 99.441 99.44" xml:space="preserve">
  <g id="dribbble">
  <path fill="#BCBCBC" d="M96.965,39.965c-0.635-3.113-1.58-6.176-2.812-9.106c-1.209-2.872-2.701-5.645-4.445-8.239
    c-1.723-2.562-3.703-4.972-5.879-7.164c-2.178-2.191-4.576-4.183-7.129-5.915c-2.578-1.752-5.336-3.258-8.195-4.475
    c-2.918-1.239-5.969-2.194-9.072-2.831c-6.355-1.308-13.067-1.308-19.423,0c-3.102,0.637-6.153,1.591-9.069,2.831
    c-2.861,1.216-5.619,2.723-8.194,4.473c-2.552,1.731-4.951,3.722-7.13,5.914c-2.179,2.194-4.158,4.604-5.88,7.167
    c-1.741,2.591-3.236,5.362-4.444,8.236c-1.233,2.932-2.18,5.996-2.813,9.108c-0.648,3.191-0.979,6.472-0.979,9.751
    s0.331,6.561,0.979,9.752c0.633,3.109,1.58,6.176,2.813,9.113c1.211,2.871,2.706,5.646,4.444,8.232
    c1.721,2.561,3.698,4.973,5.88,7.166c2.181,2.193,4.58,4.184,7.129,5.916c2.582,1.752,5.338,3.256,8.195,4.473
    c2.912,1.24,5.964,2.191,9.068,2.828c3.178,0.656,6.446,0.988,9.713,0.988c3.269,0,6.537-0.332,9.71-0.988
    c3.105-0.637,6.156-1.588,9.072-2.828c2.855-1.217,5.613-2.721,8.195-4.473c2.553-1.734,4.951-3.727,7.129-5.916
    c2.182-2.193,4.158-4.605,5.879-7.164c1.74-2.594,3.236-5.365,4.445-8.234c1.232-2.938,2.178-5.998,2.812-9.113
    c0.648-3.189,0.979-6.469,0.979-9.752C97.943,46.437,97.613,43.157,96.965,39.965z M41.68,10.357c2.63-0.54,5.335-0.816,8.041-0.816
    c2.706,0,5.41,0.276,8.039,0.816c2.564,0.527,5.086,1.315,7.496,2.341c2.367,1.006,4.648,2.251,6.783,3.701
    c1.418,0.964,2.773,2.031,4.061,3.171c-1.416,1.906-7.545,9.267-20.947,14.292c-6.221-11.428-12.989-20.755-14.801-23.196
    C40.793,10.558,41.235,10.45,41.68,10.357z M12.934,34.07c1.003-2.381,2.241-4.677,3.686-6.827c1.427-2.124,3.066-4.125,4.875-5.941
    c1.807-1.818,3.797-3.465,5.911-4.902c1.643-1.118,3.377-2.11,5.169-2.971c1.791,2.456,8.432,11.755,14.693,22.884
    c-17.267,4.584-32.509,4.964-36.588,4.977C11.201,38.826,11.957,36.397,12.934,34.07z M19.658,76.138
    c-1.093-1.258-2.116-2.572-3.039-3.947c-1.443-2.145-2.682-4.445-3.685-6.828c-1.024-2.43-1.807-4.969-2.332-7.547
    c-0.537-2.648-0.811-5.373-0.811-8.1c0-0.438,0.018-0.875,0.033-1.312c4.396,0.019,22.274-0.269,40.816-5.816
    c1.168,2.285,2.283,4.606,3.308,6.923c-0.539,0.153-1.074,0.314-1.606,0.486C32.888,56.283,21.924,72.492,19.658,76.138z
     M65.256,86.736c-2.408,1.025-4.93,1.816-7.496,2.344c-5.253,1.082-10.824,1.082-16.08,0c-2.565-0.527-5.086-1.318-7.495-2.344
    c-2.363-1.002-4.646-2.25-6.78-3.701c-0.884-0.598-1.741-1.244-2.576-1.916c1.731-3.23,10.317-17.348,31.623-24.771
    c0.092-0.033,0.182-0.057,0.271-0.09c5.488,14.27,7.891,26.316,8.615,30.443C65.314,86.712,65.283,86.726,65.256,86.736z
     M88.838,57.816c-0.523,2.578-1.309,5.117-2.33,7.547c-1.002,2.383-2.24,4.68-3.686,6.828c-1.426,2.121-3.066,4.123-4.875,5.943
    c-1.764,1.771-3.697,3.381-5.754,4.791c-0.592-3.348-2.811-14.744-7.836-28.555c11.818-1.891,22.213,0.828,24.807,1.598
    C89.068,56.587,88.963,57.203,88.838,57.816z M61.873,47.942c-0.285-0.699-0.576-1.4-0.877-2.105c-0.85-1.99-1.758-3.966-2.709-5.91
    c14.021-5.724,20.783-13.631,22.34-15.643c0.777,0.956,1.512,1.941,2.195,2.959c1.447,2.151,2.688,4.448,3.686,6.827
    c1.021,2.429,1.807,4.97,2.33,7.549c0.502,2.463,0.764,4.993,0.799,7.529C86.744,48.574,74.391,46.367,61.873,47.942z"/>
  </g>
</svg>
