<?xml version="1.0" encoding="utf-8"?>
<!-- Generator: Adobe Illustrator 15.1.0, SVG Export Plug-In . SVG Version: 6.00 Build 0)  -->
<!DOCTYPE svg PUBLIC "-//W3C//DTD SVG 1.1//EN" "http://www.w3.org/Graphics/SVG/1.1/DTD/svg11.dtd">
<svg version="1.1" id="Layer_1" xmlns="http://www.w3.org/2000/svg" xmlns:xlink="http://www.w3.org/1999/xlink" x="0px" y="0px"
	 width="99.441px" height="99.44px" viewBox="0 0 99.441 99.44" enable-background="new 0 0 99.441 99.44" xml:space="preserve">
<g>
	<path fill="#EA4C89" d="M51.486,49.905c0.357-0.115,0.719-0.224,1.082-0.326c-0.691-1.56-1.441-3.122-2.229-4.661
		c-12.482,3.736-24.52,3.929-27.479,3.916c-0.01,0.294-0.021,0.589-0.021,0.884c0,1.836,0.184,3.67,0.545,5.453
		c0.354,1.734,0.881,3.444,1.57,5.082c0.674,1.604,1.51,3.15,2.48,4.595c0.621,0.927,1.311,1.812,2.045,2.659
		C31.008,65.051,38.389,54.139,51.486,49.905z"/>
	<path fill="#EA4C89" d="M54.254,54.181C39.91,59.18,34.129,68.684,32.963,70.859c0.562,0.452,1.139,0.887,1.734,1.29
		c1.438,0.977,2.973,1.815,4.564,2.492c1.621,0.689,3.318,1.221,5.047,1.576c3.537,0.729,7.287,0.729,10.824,0
		c1.729-0.355,3.426-0.887,5.047-1.576c0.02-0.008,0.039-0.018,0.057-0.025c-0.486-2.777-2.105-10.889-5.801-20.494
		C54.375,54.142,54.314,54.161,54.254,54.181z"/>
	<path fill="#EA4C89" d="M38.178,25.287c-1.207,0.579-2.373,1.247-3.48,2c-1.424,0.967-2.762,2.077-3.979,3.301
		c-1.219,1.224-2.322,2.57-3.283,4c-0.973,1.447-1.807,2.993-2.48,4.596c-0.658,1.566-1.166,3.201-1.518,4.859
		c2.746-0.009,13.008-0.264,24.633-3.351C43.855,33.2,39.383,26.94,38.178,25.287z"/>
	<path fill="#EA4C89" d="M67.48,29.422c-0.867-0.768-1.779-1.487-2.734-2.136c-1.438-0.976-2.973-1.814-4.566-2.492
		c-1.623-0.69-3.32-1.22-5.047-1.575c-1.77-0.364-3.59-0.549-5.412-0.549c-1.82,0-3.643,0.185-5.412,0.549
		c-0.301,0.062-0.598,0.135-0.896,0.208c1.221,1.644,5.777,7.923,9.965,15.616C62.4,35.66,66.527,30.705,67.48,29.422z"/>
	<path fill="#EA4C89" d="M74.488,39.184c-0.674-1.602-1.508-3.148-2.482-4.596c-0.459-0.685-0.955-1.35-1.479-1.992
		c-1.047,1.354-5.6,6.678-15.039,10.531c0.639,1.309,1.252,2.638,1.824,3.979c0.201,0.474,0.398,0.947,0.59,1.417
		c8.428-1.06,16.744,0.424,18.691,0.812c-0.023-1.708-0.201-3.411-0.537-5.069C75.703,42.528,75.176,40.819,74.488,39.184z"/>
	<path fill="#EA4C89" d="M88.701,0H10.74C4.809,0,0,4.809,0,10.738v77.963c0,5.93,4.809,10.738,10.74,10.738h77.961
		c5.934,0,10.74-4.809,10.74-10.738V10.738C99.441,4.809,94.635,0,88.701,0z M81.527,56.284c-0.428,2.094-1.064,4.157-1.893,6.133
		c-0.814,1.934-1.822,3.8-2.994,5.545c-1.158,1.723-2.488,3.346-3.957,4.823c-1.467,1.476-3.082,2.815-4.801,3.982
		c-1.738,1.18-3.594,2.193-5.518,3.011c-1.961,0.836-4.016,1.477-6.105,1.906c-2.139,0.44-4.338,0.664-6.539,0.664
		c-2.199,0-4.4-0.224-6.539-0.664c-2.09-0.43-4.145-1.07-6.105-1.906c-1.924-0.817-3.779-1.831-5.518-3.011
		c-1.715-1.166-3.33-2.506-4.799-3.981c-1.469-1.479-2.801-3.102-3.959-4.826c-1.17-1.741-2.178-3.607-2.992-5.543
		c-0.83-1.977-1.467-4.04-1.895-6.134c-0.436-2.147-0.658-4.356-0.658-6.565c0-2.208,0.223-4.417,0.658-6.565
		c0.428-2.095,1.064-4.159,1.895-6.132c0.814-1.935,1.82-3.8,2.992-5.545c1.16-1.726,2.492-3.349,3.959-4.825
		c1.467-1.476,3.082-2.816,4.801-3.982c1.732-1.178,3.59-2.192,5.516-3.012c1.965-0.835,4.018-1.477,6.107-1.906
		c4.277-0.88,8.797-0.88,13.076,0c2.088,0.429,4.143,1.071,6.105,1.906c1.926,0.82,3.783,1.833,5.518,3.012
		c1.719,1.167,3.334,2.507,4.801,3.982c1.465,1.475,2.797,3.098,3.957,4.824c1.174,1.747,2.18,3.612,2.994,5.546
		c0.828,1.973,1.465,4.035,1.893,6.131c0.436,2.148,0.658,4.357,0.658,6.565C82.186,51.926,81.963,54.135,81.527,56.284z"/>
	<path fill="#EA4C89" d="M59.574,52.852c3.385,9.297,4.877,16.969,5.275,19.224c1.385-0.95,2.688-2.034,3.875-3.227
		c1.217-1.226,2.322-2.572,3.281-4.001c0.973-1.447,1.807-2.992,2.482-4.596c0.688-1.637,1.215-3.347,1.568-5.082
		c0.084-0.412,0.154-0.828,0.219-1.244C74.529,53.408,67.531,51.578,59.574,52.852z"/>
</g>
</svg>
