<?xml version="1.0" encoding="utf-8"?>
<!-- Generator: Adobe Illustrator 15.1.0, SVG Export Plug-In . SVG Version: 6.00 Build 0)  -->
<!DOCTYPE svg PUBLIC "-//W3C//DTD SVG 1.1//EN" "http://www.w3.org/Graphics/SVG/1.1/DTD/svg11.dtd">
<svg version="1.1" id="Layer_1" xmlns="http://www.w3.org/2000/svg" xmlns:xlink="http://www.w3.org/1999/xlink" x="0px" y="0px"
	 width="99.441px" height="99.44px" viewBox="0 0 99.441 99.44" enable-background="new 0 0 99.441 99.44" xml:space="preserve">
<path fill="#3D5B99" d="M88.7,0H10.739C4.808,0,0.001,4.809,0.001,10.74V88.7c0,5.932,4.807,10.74,10.738,10.74H88.7
	c5.934,0,10.74-4.809,10.74-10.74V10.74C99.44,4.809,94.634,0,88.7,0z M65.394,53.129h-11.25v30.105H42.683V53.129h-7.961v-10.84
	h7.961c0,0,0-4.441,0-9.258c0-7.276,4.701-13.956,15.537-13.956c4.387,0,7.631,0.421,7.631,0.421l-0.256,10.122
	c0,0-3.309-0.032-6.918-0.032c-3.908,0-4.533,1.801-4.533,4.789c0,0.369,0,0.5,0,0.507c0,0.838,0,2.873,0,7.407h11.762
	L65.394,53.129z"/>
</svg>
