<?xml version="1.0" encoding="utf-8"?>
<!-- Generator: Adobe Illustrator 15.1.0, SVG Export Plug-In . SVG Version: 6.00 Build 0)  -->
<!DOCTYPE svg PUBLIC "-//W3C//DTD SVG 1.1//EN" "http://www.w3.org/Graphics/SVG/1.1/DTD/svg11.dtd">
<svg version="1.1" id="Layer_1" xmlns="http://www.w3.org/2000/svg" xmlns:xlink="http://www.w3.org/1999/xlink" x="0px" y="0px"
	 width="99.441px" height="99.44px" viewBox="0 0 99.441 99.44" enable-background="new 0 0 99.441 99.44" xml:space="preserve">
<path fill="#ED1E83" d="M88.701,0H10.739C4.808,0-0.001,4.809-0.001,10.74V88.7c0,5.932,4.809,10.74,10.74,10.74h77.962
	c5.932,0,10.74-4.809,10.74-10.74V10.74C99.441,4.809,94.633,0,88.701,0z M32.958,63.323c-7.513,0-13.604-6.09-13.604-13.604
	c0-7.512,6.091-13.602,13.604-13.602c7.514,0,13.604,6.09,13.604,13.602C46.562,57.233,40.472,63.323,32.958,63.323z M66.48,63.323
	c-7.513,0-13.603-6.09-13.603-13.604c0-7.512,6.09-13.602,13.603-13.602c7.514,0,13.605,6.09,13.605,13.602
	C80.086,57.233,73.994,63.323,66.48,63.323z"/>
</svg>
