<?xml version="1.0" encoding="utf-8"?>
<!DOCTYPE svg PUBLIC "-//W3C//DTD SVG 1.1//EN" "http://www.w3.org/Graphics/SVG/1.1/DTD/svg11.dtd">
<svg version="1.1" id="Layer_1" xmlns="http://www.w3.org/2000/svg" xmlns:xlink="http://www.w3.org/1999/xlink" x="0px" y="0px"
	 width="99.441px" height="99.44px" viewBox="0 0 99.441 99.44" enable-background="new 0 0 99.441 99.44" xml:space="preserve">
<g id="foursquare">
  <path fill="#BCBCBC" d="M35.23,68.803l-4.395-13.561h37.77l-4.77,13.91c0,0-0.265,1.197-1.848,1.197H37.34
    C35.435,70.35,35.23,68.803,35.23,68.803 M74.353,45.906c-0.647,0-1.301-0.11-1.951-0.433l-3.255,8.352H30.294l-3.258-8.352
    c-0.647,0.322-1.302,0.433-1.944,0.433c-2.501,0-4.563-2.065-4.563-4.557c0-2.496,2.062-4.556,4.563-4.556
    c2.49,0,4.555,2.06,4.555,4.556c0,1.195-0.543,2.389-1.303,3.145c6.077,3.69,16.601,1.846,20.832-6.402
    c-2.282-0.212-4.013-2.167-4.013-4.45c0-2.495,2.06-4.552,4.558-4.552c2.49,0,4.559,2.057,4.559,4.552
    c0,2.282-1.736,4.238-4.016,4.45c4.229,8.248,14.752,10.092,20.838,6.402c-0.769-0.756-1.303-1.949-1.303-3.145
    c0-2.496,2.057-4.556,4.553-4.556c2.495,0,4.56,2.06,4.56,4.556C78.912,43.841,76.848,45.906,74.353,45.906"/>
  <path fill="#BCBCBC" d="M49.719,9.507c-22.174,0-40.211,18.043-40.211,40.216s18.038,40.211,40.211,40.211
    c22.174,0,40.211-18.038,40.211-40.211S71.894,9.507,49.719,9.507 M49.719,98.794c-27.061,0-49.071-22.017-49.071-49.071
    c0-27.063,22.011-49.078,49.071-49.078c27.059,0,49.074,22.015,49.074,49.078C98.793,76.778,76.778,98.794,49.719,98.794"/>
</g>
</svg>
