<?xml version="1.0" encoding="utf-8"?>
<!-- Generator: Adobe Illustrator 15.1.0, SVG Export Plug-In . SVG Version: 6.00 Build 0)  -->
<!DOCTYPE svg PUBLIC "-//W3C//DTD SVG 1.1//EN" "http://www.w3.org/Graphics/SVG/1.1/DTD/svg11.dtd">
<svg version="1.1" id="Layer_1" xmlns="http://www.w3.org/2000/svg" xmlns:xlink="http://www.w3.org/1999/xlink" x="0px" y="0px"
	 width="99.441px" height="99.44px" viewBox="0 0 99.441 99.44" enable-background="new 0 0 99.441 99.44" xml:space="preserve">
<g>
	<path fill="#0BBADF" d="M49.72,23.171c-14.639,0-26.549,11.912-26.549,26.55c0,14.639,11.91,26.549,26.549,26.549
		s26.549-11.91,26.549-26.549C76.269,35.083,64.358,23.171,49.72,23.171z M59.038,62.549c0,0-0.174,0.791-1.219,0.791H41.546
		c-1.256,0-1.393-1.021-1.393-1.021l-2.9-8.953h24.936L59.038,62.549z M65.983,47.202c-0.428,0-0.857-0.072-1.289-0.285
		l-2.148,5.513h-25.65l-2.15-5.513c-0.428,0.213-0.861,0.285-1.287,0.285c-1.65,0-3.012-1.363-3.012-3.008
		c0-1.648,1.361-3.008,3.012-3.008c1.646,0,3.01,1.359,3.01,3.008c0,0.789-0.359,1.576-0.859,2.076
		c4.012,2.435,10.959,1.219,13.752-4.227c-1.506-0.141-2.648-1.432-2.648-2.938c0-1.648,1.361-3.006,3.01-3.006
		c1.645,0,3.01,1.357,3.01,3.006c0,1.506-1.146,2.797-2.652,2.938c2.793,5.445,9.74,6.662,13.758,4.227
		c-0.506-0.5-0.859-1.287-0.859-2.076c0-1.648,1.357-3.008,3.006-3.008s3.01,1.359,3.01,3.008
		C68.993,45.839,67.632,47.202,65.983,47.202z"/>
	<path fill="#0BBADF" d="M88.7,0H10.739C4.808,0,0.001,4.809,0.001,10.738v77.963c0,5.93,4.807,10.738,10.738,10.738H88.7
		c5.934,0,10.74-4.809,10.74-10.738V10.738C99.44,4.809,94.634,0,88.7,0z M49.72,82.12c-17.865,0-32.398-14.535-32.398-32.398
		c0-17.867,14.533-32.401,32.398-32.401s32.4,14.534,32.4,32.401C82.12,67.584,67.585,82.12,49.72,82.12z"/>
</g>
</svg>
