<?xml version="1.0" encoding="utf-8"?>
<!-- Generator: Adobe Illustrator 15.1.0, SVG Export Plug-In . SVG Version: 6.00 Build 0)  -->
<!DOCTYPE svg PUBLIC "-//W3C//DTD SVG 1.1//EN" "http://www.w3.org/Graphics/SVG/1.1/DTD/svg11.dtd">
<svg version="1.1" id="Layer_1" xmlns="http://www.w3.org/2000/svg" xmlns:xlink="http://www.w3.org/1999/xlink" x="0px" y="0px"
	 width="99.441px" height="99.44px" viewBox="0 0 99.441 99.44" enable-background="new 0 0 99.441 99.44" xml:space="preserve">
<path d="M88.701,0H10.74C4.809,0,0,4.809,0,10.738v77.963c0,5.93,4.809,10.738,10.74,10.738h77.961
	c5.934,0,10.74-4.809,10.74-10.738V10.738C99.441,4.809,94.635,0,88.701,0z M60.223,81.997c-1.682,0.326-2.277-0.707-2.277-1.59
	c0-1.094,0.037-4.664,0.037-9.1c0-3.094-1.059-5.111-2.248-6.141c7.383-0.82,15.141-3.625,15.141-16.361
	c0-3.62-1.287-6.578-3.412-8.9c0.344-0.835,1.479-4.207-0.326-8.774c0,0-2.781-0.891-9.109,3.399
	c-2.65-0.734-5.488-1.104-8.307-1.116c-2.818,0.013-5.654,0.382-8.299,1.116c-6.336-4.29-9.121-3.399-9.121-3.399
	c-1.801,4.567-0.666,7.939-0.32,8.774c-2.123,2.322-3.418,5.28-3.418,8.9c0,12.707,7.742,15.548,15.107,16.388
	c-0.947,0.826-1.807,2.289-2.105,4.432c-1.893,0.848-6.691,2.314-9.648-2.756c0,0-1.754-3.182-5.084-3.416
	c0,0-3.234-0.043-0.227,2.016c0,0,2.174,1.02,3.682,4.852c0,0,1.947,5.918,11.172,3.912c0.014,2.771,0.045,5.383,0.045,6.174
	c0,0.875-0.607,1.9-2.266,1.594c-13.174-4.383-22.676-16.812-22.676-31.463c0-18.313,14.848-33.158,33.158-33.158
	c18.312,0,33.158,14.845,33.158,33.158C82.879,65.184,73.391,77.608,60.223,81.997z M41.273,71.081
	c0.047,0.266-0.227,0.541-0.619,0.613c-0.385,0.07-0.74-0.094-0.789-0.359c-0.049-0.273,0.23-0.547,0.615-0.617
	C40.873,70.649,41.223,70.809,41.273,71.081z M38.748,71.51c0.01,0.273-0.309,0.5-0.703,0.504c-0.396,0.01-0.719-0.211-0.723-0.48
	c0-0.275,0.312-0.5,0.707-0.508S38.748,71.239,38.748,71.51z M36.033,71.311c-0.08,0.26-0.451,0.377-0.828,0.268
	c-0.375-0.113-0.619-0.418-0.545-0.68c0.078-0.262,0.453-0.385,0.832-0.266C35.865,70.745,36.111,71.047,36.033,71.311z
	 M33.562,70.241c-0.182,0.199-0.568,0.146-0.852-0.127c-0.289-0.268-0.371-0.646-0.189-0.848c0.186-0.201,0.574-0.145,0.859,0.127
	C33.67,69.661,33.758,70.042,33.562,70.241z M31.771,68.395c-0.201,0.143-0.535,0.01-0.74-0.285
	c-0.203-0.295-0.203-0.65,0.004-0.791c0.205-0.143,0.535-0.014,0.742,0.279C31.98,67.897,31.98,68.25,31.771,68.395z M30.465,66.485
	c-0.158,0.146-0.467,0.078-0.678-0.152c-0.217-0.23-0.256-0.541-0.096-0.689c0.162-0.146,0.463-0.078,0.68,0.154
	S30.631,66.336,30.465,66.485z M29.121,64.987c-0.072,0.166-0.332,0.215-0.568,0.102c-0.24-0.107-0.375-0.332-0.297-0.498
	c0.072-0.17,0.33-0.217,0.57-0.104C29.066,64.596,29.205,64.823,29.121,64.987z"/>
</svg>
