<?xml version="1.0" encoding="utf-8"?>
<!DOCTYPE svg PUBLIC "-//W3C//DTD SVG 1.1//EN" "http://www.w3.org/Graphics/SVG/1.1/DTD/svg11.dtd">
<svg version="1.1" id="Layer_1" xmlns="http://www.w3.org/2000/svg" xmlns:xlink="http://www.w3.org/1999/xlink" x="0px" y="0px"
	 width="99.441px" height="99.44px" viewBox="0 0 99.441 99.44" enable-background="new 0 0 99.441 99.44" xml:space="preserve">
	 <g id="goodreads">
    <path fill="#BCBCBC" d="M73.046,2.02v11.977h-0.265c-0.809-1.885-1.943-3.68-3.436-5.381
      c-1.482-1.705-3.159-3.216-5.043-4.511c-1.889-1.297-3.976-2.305-6.267-3.031C55.748,0.357,53.312,0,50.705,0
      c-5.029,0-9.489,0.925-13.394,2.755c-3.907,1.846-7.177,4.354-9.827,7.541c-2.65,3.192-4.673,6.911-6.054,11.172
      c-1.4,4.263-2.086,8.777-2.086,13.527c0,4.938,0.583,9.585,1.75,13.937c1.164,4.35,3.025,8.14,5.581,11.363
      c2.556,3.236,5.816,5.778,9.764,7.607c3.947,1.836,8.7,2.761,14.264,2.761c5.123,0,9.579-1.293,13.393-3.899
      c3.817-2.608,6.711-6.059,8.684-10.363h0.265v9.422c0,8.431-1.748,14.899-5.245,19.376c-3.498,4.494-9.201,6.739-17.096,6.739
      c-2.331,0-4.616-0.25-6.861-0.745c-2.249-0.493-4.292-1.281-6.133-2.354c-1.841-1.079-3.401-2.491-4.705-4.237
      c-1.309-1.76-2.18-3.928-2.621-6.535h-8.484c0.268,3.683,1.283,6.848,3.017,9.489c1.759,2.648,3.958,4.831,6.605,6.524
      c2.649,1.711,5.635,2.969,8.948,3.771c3.324,0.808,6.736,1.218,10.234,1.218c5.654,0,10.437-0.771,14.335-2.29
      c3.907-1.523,7.055-3.723,9.488-6.595c2.423-2.874,4.192-6.375,5.316-10.496c1.127-4.127,1.688-8.753,1.688-13.866V2.02H73.046z
       M71.638,46.17c-0.942,3.318-2.366,6.259-4.249,8.809c-1.879,2.561-4.21,4.621-6.99,6.195c-2.792,1.569-6.022,2.353-9.693,2.353
      c-3.947,0-7.363-0.783-10.234-2.353c-2.875-1.574-5.245-3.635-7.138-6.195c-1.881-2.55-3.272-5.49-4.16-8.809
      c-0.9-3.318-1.353-6.739-1.353-10.231c0-3.583,0.422-7.109,1.278-10.571c0.851-3.451,2.22-6.524,4.102-9.224
      c1.892-2.684,4.263-4.851,7.137-6.524c2.875-1.659,6.324-2.487,10.368-2.487c4.032,0,7.465,0.858,10.296,2.56
      c2.833,1.703,5.135,3.947,6.934,6.723c1.79,2.787,3.1,5.884,3.896,9.289c0.816,3.41,1.215,6.825,1.215,10.234
      C73.046,39.431,72.577,42.852,71.638,46.17z"/>
</g>
</svg>
