<?xml version="1.0" encoding="utf-8"?>
<!DOCTYPE svg PUBLIC "-//W3C//DTD SVG 1.1//EN" "http://www.w3.org/Graphics/SVG/1.1/DTD/svg11.dtd">
<svg version="1.1" id="Layer_1" xmlns="http://www.w3.org/2000/svg" xmlns:xlink="http://www.w3.org/1999/xlink" x="0px" y="0px"
	 width="99.441px" height="99.44px" viewBox="0 0 99.441 99.44" enable-background="new 0 0 99.441 99.44" xml:space="preserve">
<g id="goodreads-sign">
	<path fill="#5A481C" d="M61.312,27.601c-1.191-1.839-2.717-3.325-4.594-4.454c-1.877-1.127-4.148-1.697-6.82-1.697
		c-2.68,0-4.967,0.549-6.871,1.65c-1.902,1.107-3.473,2.543-4.727,4.321c-1.248,1.788-2.154,3.824-2.717,6.11
		c-0.568,2.293-0.848,4.631-0.848,7.004c0,2.314,0.299,4.58,0.895,6.777c0.59,2.199,1.51,4.146,2.758,5.836
		c1.252,1.697,2.824,3.062,4.729,4.105c1.902,1.039,4.166,1.559,6.781,1.559c2.432,0,4.572-0.52,6.422-1.559
		c1.842-1.043,3.385-2.408,4.629-4.105c1.248-1.689,2.191-3.637,2.814-5.836c0.623-2.197,0.934-4.463,0.934-6.777
		c0-2.258-0.264-4.521-0.805-6.78C63.364,31.5,62.497,29.447,61.312,27.601z"/>
	<path fill="#5A481C" d="M88.702,0H10.741C4.81,0,0.001,4.809,0.001,10.739v77.963c0,5.93,4.809,10.738,10.74,10.738h77.961
		c5.932,0,10.738-4.809,10.738-10.738V10.739C99.44,4.809,94.634,0,88.702,0z M70.319,60.333c0,3.388-0.371,6.453-1.117,9.186
		c-0.746,2.73-1.918,5.051-3.521,6.955c-1.613,1.902-3.699,3.359-6.287,4.369c-2.584,1.006-5.75,1.517-9.496,1.517
		c-2.318,0-4.58-0.271-6.781-0.806c-2.193-0.532-4.174-1.365-5.928-2.5c-1.754-1.121-3.211-2.567-4.375-4.322
		c-1.148-1.75-1.824-3.848-2-6.286h5.621c0.291,1.728,0.869,3.163,1.736,4.329c0.863,1.158,1.896,2.094,3.115,2.808
		c1.221,0.711,2.574,1.232,4.064,1.558c1.488,0.328,3.002,0.494,4.547,0.494c5.229,0,9.008-1.486,11.326-4.464
		c2.316-2.966,3.473-7.251,3.473-12.837v-6.241h-0.174c-1.309,2.851-3.225,5.138-5.752,6.865s-5.48,2.584-8.873,2.584
		c-3.688,0-6.836-0.612-9.451-1.829c-2.615-1.212-4.775-2.896-6.469-5.04c-1.693-2.136-2.926-4.646-3.699-7.528
		c-0.771-2.883-1.158-5.961-1.158-9.234c0-3.146,0.455-6.137,1.381-8.961c0.916-2.822,2.258-5.287,4.012-7.4
		c1.754-2.111,3.922-3.773,6.51-4.996c2.588-1.213,5.541-1.826,8.875-1.826c1.727,0,3.34,0.237,4.855,0.712
		c1.518,0.481,2.9,1.147,4.152,2.008c1.246,0.857,2.357,1.859,3.342,2.988c0.988,1.127,1.738,2.316,2.275,3.565h0.174v-7.935h5.623
		V60.333z"/>
</g>
</svg>
