<?xml version="1.0" encoding="utf-8"?>
<!DOCTYPE svg PUBLIC "-//W3C//DTD SVG 1.1//EN" "http://www.w3.org/Graphics/SVG/1.1/DTD/svg11.dtd">
<svg version="1.1" id="Layer_1" xmlns="http://www.w3.org/2000/svg" xmlns:xlink="http://www.w3.org/1999/xlink" x="0px" y="0px"
	 width="99.441px" height="99.44px" viewBox="0 0 99.441 99.44" enable-background="new 0 0 99.441 99.44" xml:space="preserve">
  <g id="googleplus">
    <polygon fill="#BCBCBC" points="97.931,44.315 85.126,44.315 85.126,31.513 78.582,31.513 78.582,44.315 65.777,44.315
      65.777,50.575 78.582,50.575 78.582,63.379 85.126,63.379 85.126,50.575 97.931,50.575 	"/>
    <path fill="#BCBCBC" d="M57.407,6.19h-7.665c2.973,2.421,8.866,7.098,8.866,16.786c0,9.426-5.432,13.893-10.863,18.091
      c-1.683,1.656-3.62,3.444-3.62,6.249c0,2.799,1.937,4.329,3.358,5.479l4.661,3.561c5.689,4.718,10.859,9.053,10.859,17.848
      c0,11.976-12.139,24.173-34.381,24.173c-18.755,0-27.436-8.882-27.436-18.316c0-4.591,2.321-11.081,9.96-15.547
      c8.012-4.841,18.882-5.475,24.701-5.863c-1.814-2.294-3.882-4.713-3.882-8.661c0-2.164,0.65-3.442,1.293-4.969
      c-1.427,0.125-2.844,0.253-4.139,0.253c-13.708,0-21.468-10.071-21.468-20.001c0-5.862,1.824-12.786,7.379-17.497
      c7.375-5.99,16.797-6.711,23.785-6.711l26.965,0.004L57.407,6.19z M23.673,64.264c-2.845,1.019-11.12,4.074-11.12,13.122
      s8.926,15.551,22.763,15.551c12.413,0,19.013-5.874,19.013-13.762c0-6.51-4.267-9.94-14.104-16.823
      c-1.031-0.131-1.678-0.131-2.965-0.131C36.093,62.221,29.106,62.478,23.673,64.264 M30.936,5.711c-3.367,0-6.985,1.337-9.059,3.887
      c-2.197,2.678-2.842,6.433-2.842,9.749c0,8.535,5.046,22.68,16.169,22.68c3.231,0,6.717-1.846,8.791-3.888
      c2.975-2.937,3.231-6.689,3.231-8.982C47.226,19.981,41.666,5.711,30.936,5.711"/>
  </g>
</svg>
