<?xml version="1.0" encoding="utf-8"?>
<!-- Generator: Adobe Illustrator 15.1.0, SVG Export Plug-In . SVG Version: 6.00 Build 0)  -->
<!DOCTYPE svg PUBLIC "-//W3C//DTD SVG 1.1//EN" "http://www.w3.org/Graphics/SVG/1.1/DTD/svg11.dtd">
<svg version="1.1" id="Layer_1" xmlns="http://www.w3.org/2000/svg" xmlns:xlink="http://www.w3.org/1999/xlink" x="0px" y="0px"
	 width="99.441px" height="99.44px" viewBox="0 0 99.441 99.44" enable-background="new 0 0 99.441 99.44" xml:space="preserve">
<g>
	<path fill="#303030" d="M36.633,29.672c-4.273-0.127-7.139,4.167-6.4,9.778c0.738,5.608,4.797,10.261,9.07,10.388
		c4.27,0.129,7.135-4.316,6.398-9.926C44.963,34.303,40.902,29.801,36.633,29.672z"/>
	<path fill="#303030" d="M38.734,60.731c-6.365-0.068-12.066,3.881-12.066,8.625c0,4.838,4.596,8.869,10.961,8.869
		c8.947,0,12.068-3.783,12.068-8.623c0-0.584-0.072-1.154-0.203-1.709c-0.699-2.74-3.178-4.098-6.633-6.5
		C41.604,60.987,40.221,60.747,38.734,60.731z"/>
	<path fill="#303030" d="M88.701,0H10.738C4.809,0,0,4.809,0,10.739V88.7c0,5.932,4.809,10.74,10.738,10.74h77.963
		c5.932,0,10.74-4.809,10.74-10.74v-77.96C99.441,4.809,94.633,0,88.701,0z M51.662,39.675c0,3.504-1.939,6.428-4.684,8.572
		c-2.674,2.09-3.184,2.967-3.184,4.742c0,1.518,2.867,4.098,4.365,5.158c4.383,3.1,5.801,5.975,5.801,10.777
		c0,5.992-5.801,11.947-16.297,11.947c-9.209,0-16.979-3.746-16.979-9.734c0-6.082,7.088-11.945,16.295-11.945
		c1.004,0,1.922-0.025,2.875-0.025c-1.26-1.225-2.258-2.723-2.258-4.576c0-1.1,0.35-2.146,0.842-3.088
		c-0.5,0.035-1.01,0.064-1.535,0.064c-7.564,0-12.633-5.342-12.633-12.008c0-6.525,6.996-12.08,14.432-12.08
		c4.146,0,16.584,0,16.584,0l-3.711,2.706h-5.26C49.805,31.537,51.662,35.503,51.662,39.675z M84.104,40.67H73.279v10.823h-2.367
		V40.67H59.75v-2.706h11.162V27.479h2.367v10.485h10.824V40.67z"/>
</g>
</svg>
