<?xml version="1.0" encoding="utf-8"?>
<!DOCTYPE svg PUBLIC "-//W3C//DTD SVG 1.1//EN" "http://www.w3.org/Graphics/SVG/1.1/DTD/svg11.dtd">
<svg version="1.1" id="Layer_1" xmlns="http://www.w3.org/2000/svg" xmlns:xlink="http://www.w3.org/1999/xlink" x="0px" y="0px"
	 width="99.441px" height="99.44px" viewBox="0 0 99.441 99.44" enable-background="new 0 0 99.441 99.44" xml:space="preserve">
  <g id="googleplus-sign">
    <path fill="#303030" d="M43.858,57.655c-0.647-0.082-1.054-0.082-1.862-0.082c-0.732,0-5.121,0.16-8.533,1.283
      c-1.787,0.639-6.984,2.559-6.984,8.24c0,5.684,5.606,9.768,14.297,9.768c7.796,0,11.941-3.689,11.941-8.643
      C52.717,64.131,50.037,61.977,43.858,57.655z"/>
    <path fill="#303030" d="M88.701,0H10.738C4.809,0,0,4.809,0,10.739V88.7c0,5.932,4.809,10.74,10.738,10.74h77.963
      c5.932,0,10.74-4.809,10.74-10.74v-77.96C99.441,4.809,94.633,0,88.701,0z M36.572,80.28c-11.779,0-17.231-5.578-17.231-11.504
      c0-2.883,1.458-6.959,6.256-9.764c5.032-3.041,11.859-3.439,15.514-3.684c-1.14-1.439-2.438-2.959-2.438-5.439
      c0-1.359,0.408-2.162,0.812-3.121c-0.896,0.079-1.786,0.159-2.6,0.159c-8.609,0-13.483-6.325-13.483-12.562
      c0-3.682,1.146-8.03,4.635-10.989c4.632-3.762,10.55-4.215,14.938-4.215l16.936,0.003l-5.26,3.217h-4.814
      c1.867,1.521,5.568,4.458,5.568,10.543c0,5.92-3.411,8.726-6.822,11.362c-1.057,1.04-2.273,2.163-2.273,3.925
      c0,1.758,1.217,2.719,2.109,3.442l2.928,2.236c3.573,2.963,6.82,5.686,6.82,11.209C58.166,72.62,50.542,80.28,36.572,80.28z
       M80.102,50.258H72.06v8.041h-4.11v-8.041h-8.042v-3.932h8.042v-8.041h4.11v8.041h8.042V50.258z"/>
    <path fill="#303030" d="M48.256,36.806c0-5.763-3.492-14.726-10.231-14.726c-2.114,0-4.387,0.84-5.689,2.441
      c-1.38,1.682-1.785,4.04-1.785,6.123c0,5.36,3.169,14.244,10.155,14.244c2.029,0,4.219-1.159,5.521-2.441
      C48.095,40.603,48.256,38.246,48.256,36.806z"/>
  </g>
</svg>
