<?xml version="1.0" encoding="utf-8"?>
<!-- Generator: Adobe Illustrator 16.0.0, SVG Export Plug-In . SVG Version: 6.00 Build 0)  -->
<!DOCTYPE svg PUBLIC "-//W3C//DTD SVG 1.1//EN" "http://www.w3.org/Graphics/SVG/1.1/DTD/svg11.dtd">
<svg version="1.1" id="socialicious" xmlns="http://www.w3.org/2000/svg" xmlns:xlink="http://www.w3.org/1999/xlink" x="0px"
	 y="0px" width="100px" height="100px" viewBox="0 0 100 100" style="enable-background:new 0 0 100 100;" xml:space="preserve">
<style type="text/css">
<![CDATA[
	.st0{fill:#464342;}
	.st1{fill:#E04B26;}
	.st2{fill:#E74B24;}
	.st3{fill:#E94C88;}
	.st4{fill:#1AB6EA;}
	.st5{fill:#EA2429;}
	.st6{fill:#EC1E82;}
	.st7{fill:#B9B9BA;}
	.st8{fill:#EE3E53;}
	.st9{fill:#EE4977;}
	.st10{fill:#5496D0;}
	.st11{fill:#BBBBBB;}
	.st12{fill:#BCBCBC;}
	.st13{fill:#F16722;}
	.st14{fill:#5A471C;}
	.st15{fill:url(#SVGID_1_);}
	.st16{fill:url(#SVGID_2_);}
	.st17{fill:#2AA9E0;}
	.st18{fill-rule:evenodd;clip-rule:evenodd;fill:#BBBBBB;}
	.st19{fill-rule:evenodd;clip-rule:evenodd;fill:#BCBCBC;}
	.st20{fill:#C93C27;}
	.st21{fill:#638BB0;}
	.st22{fill:#CA2027;}
	.st23{fill:#30302F;}
	.st24{fill:#34373D;}
	.st25{fill:#00405D;}
	.st26{fill:#007EE5;}
	.st27{fill:#00A8E1;}
	.st28{fill-rule:evenodd;clip-rule:evenodd;fill:#FFFFFF;}
	.st29{fill:#035795;}
	.st30{fill:#3C5A97;}
	.st31{fill:#3F64AE;}
	.st32{fill:#3F729B;}
	.st33{fill:#A42F23;}
	.st34{fill:#75C044;}
	.st35{fill:#A72723;}
	.st36{fill:#DB2726;}
	.st37{fill:#DD3333;}
	.st38{fill:url(#soundcloud_2_);}
	.st39{fill:#442D86;}
	.st40{fill:#44556B;}
]]>
</style>
<g id="reddit_1_">
	<path class="st12" d="M100,48.9c0-6.3-5.2-11.5-11.5-11.5c-2.8,0-5.5,1-7.6,2.9c-7.5-4.8-17.4-7.9-28.4-8.3L59,13.3l16.4,3.9
		c0,5.2,4.2,9.4,9.4,9.4c5.2,0,9.4-4.2,9.4-9.4S90,7.8,84.8,7.8c-3.9,0-7.3,2.4-8.7,5.9L56.7,9l-8,22.9c-11.4,0.2-21.8,3.3-29.6,8.3
		c-2.1-1.8-4.7-2.8-7.5-2.8C5.2,37.4,0,42.5,0,48.9c0,3.9,2,7.6,5.3,9.7C5.1,59.7,5,60.9,5,62c0,16.6,20.2,30.2,44.9,30.2
		c24.8,0,44.9-13.5,44.9-30.2c0-1.1-0.1-2.3-0.3-3.4C97.9,56.5,100,52.9,100,48.9z M84.8,11.4c3.2,0,5.8,2.6,5.8,5.8
		c0,3.2-2.6,5.8-5.8,5.8c-3.2,0-5.8-2.6-5.8-5.8C79,14,81.6,11.4,84.8,11.4z M3.6,48.9c0-4.4,3.5-7.9,7.9-7.9c1.6,0,3.1,0.5,4.4,1.4
		c-4.6,3.5-7.9,7.8-9.6,12.5C4.6,53.3,3.6,51.2,3.6,48.9z M49.9,88.6C27.1,88.6,8.6,76.7,8.6,62s18.5-26.5,41.3-26.5
		S91.2,47.4,91.2,62S72.7,88.6,49.9,88.6z M93.6,54.9c-1.7-4.7-5-9-9.6-12.5c1.3-0.9,2.9-1.4,4.5-1.4c4.4,0,7.9,3.5,7.9,7.9
		C96.4,51.2,95.3,53.4,93.6,54.9z"/>
	<path class="st12" d="M42.7,56.7c0-3.9-3.2-7.1-7.1-7.1c-3.9,0-7.1,3.2-7.1,7.1c0,3.9,3.2,7.1,7.1,7.1
		C39.6,63.8,42.7,60.6,42.7,56.7z"/>
	<path class="st12" d="M65.2,49.6c-3.9,0-7.1,3.2-7.1,7.1c0,3.9,3.2,7.1,7.1,7.1c3.9,0,7.1-3.2,7.1-7.1
		C72.3,52.8,69.1,49.6,65.2,49.6z"/>
	<path class="st12" d="M64,73.3c0,0-4.3,4.3-14.2,4.3c-9.6,0-13.5-4.1-13.6-4.2c-0.7-0.7-1.8-0.8-2.5-0.2c-0.8,0.6-0.8,1.8-0.2,2.6
		c0.2,0.2,4.8,5.5,16.3,5.5c11.5,0,16.6-5.2,16.8-5.4c0.7-0.7,0.7-1.8-0.1-2.5C65.8,72.6,64.7,72.6,64,73.3z"/>
</g>
</svg>
