<?xml version="1.0" encoding="utf-8"?>
<!-- Generator: Adobe Illustrator 16.0.0, SVG Export Plug-In . SVG Version: 6.00 Build 0)  -->
<!DOCTYPE svg PUBLIC "-//W3C//DTD SVG 1.1//EN" "http://www.w3.org/Graphics/SVG/1.1/DTD/svg11.dtd">
<svg version="1.1" id="socialicious" xmlns="http://www.w3.org/2000/svg" xmlns:xlink="http://www.w3.org/1999/xlink" x="0px"
	 y="0px" width="100px" height="100px" viewBox="0 0 100 100" style="enable-background:new 0 0 100 100;" xml:space="preserve">
<style type="text/css">
<![CDATA[
	.st0{fill:#464342;}
	.st1{fill:#E14C26;}
	.st2{fill:#E84C24;}
	.st3{fill:#EA4C89;}
	.st4{fill:#EB2629;}
	.st5{fill:#ED1E83;}
	.st6{fill:#1FB7EA;}
	.st7{fill:#EF3F53;}
	.st8{fill:#5597D1;}
	.st9{fill:#8B2C8E;}
	.st10{fill:#BBBBBB;}
	.st11{fill:#BCBCBC;}
	.st12{fill:#F26722;}
	.st13{fill:#5A481C;}
	.st14{fill:url(#SVGID_1_);}
	.st15{fill:url(#SVGID_2_);}
	.st16{fill:#2CAAE1;}
	.st17{fill-rule:evenodd;clip-rule:evenodd;fill:#BCBCBC;}
	.st18{fill:#638CB1;}
	.st19{fill:#CA3C27;}
	.st20{fill:#CB2027;}
	.st21{fill:#303030;}
	.st22{fill:#33373D;}
	.st23{fill:#00A8E1;}
	.st24{fill:#065897;}
	.st25{fill:#3D5B99;}
	.st26{fill:#3F729B;}
	.st27{fill:#75C044;}
	.st28{fill:#A52F23;}
	.st29{fill:#0BBADF;}
	.st30{fill:#A72822;}
	.st31{fill:#DC2726;}
	.st32{fill:#4064AF;}
	.st33{fill:url(#soundcloud_2_);}
	.st34{fill:#45556B;}
]]>
</style>
<g id="bread">
	<path class="st23" d="M70.4,67.1c-0.9-0.7-1.9-1-3.1-0.8c-1.1,0.1-2,0.7-2.8,1.6c-0.7,0.9-1,1.9-0.9,3.1c0.1,1.2,0.7,2.1,1.6,2.8
		c0.9,0.7,1.9,1,3.1,0.8c1.1-0.1,2-0.7,2.8-1.6c0.7-0.9,1-1.9,0.9-3.1C71.9,68.7,71.4,67.8,70.4,67.1z"/>
	<path class="st23" d="M89.2,0H10.8C4.8,0,0,4.8,0,10.8v78.4c0,6,4.8,10.8,10.8,10.8h78.4c6,0,10.8-4.8,10.8-10.8V10.8
		C100,4.8,95.2,0,89.2,0z M78,67.2c0.8,6.3-2.8,11.9-8.1,12.6c0,0-4.9,0.1-7.6,0.2c-3.6,0.1-12.8,1.2-16.1,2c-3.3,0.8-9,1.9-9,1.9
		c-5.3,0.7-10.2-3.9-11-10.2l-1-20.1c-3.8-2.8-7.2-6.8-7.9-11.7c-1.2-9.7,6.1-18.7,16.5-20c4.6-0.6,8.9,0.4,12.5,2.6
		c2.9-2.9,6.9-5,11.4-5.6c10.3-1.3,19.7,5.5,20.9,15.3c0.6,4.9-1.7,9.7-4.7,13.3L78,67.2z"/>
</g>
</svg>
