<?xml version="1.0" encoding="utf-8"?>
<!-- Generator: Adobe Illustrator 16.0.0, SVG Export Plug-In . SVG Version: 6.00 Build 0)  -->
<!DOCTYPE svg PUBLIC "-//W3C//DTD SVG 1.1//EN" "http://www.w3.org/Graphics/SVG/1.1/DTD/svg11.dtd">
<svg version="1.1" id="socialicious" xmlns="http://www.w3.org/2000/svg" xmlns:xlink="http://www.w3.org/1999/xlink" x="0px"
	 y="0px" width="100px" height="100px" viewBox="0 0 100 100" style="enable-background:new 0 0 100 100;" xml:space="preserve">
<style type="text/css">
<![CDATA[
	.st0{fill:#464342;}
	.st1{fill:#E04B26;}
	.st2{fill:#E74B24;}
	.st3{fill:#E94C88;}
	.st4{fill:#1AB6EA;}
	.st5{fill:#EA2429;}
	.st6{fill:#EC1E82;}
	.st7{fill:#B9B9BA;}
	.st8{fill:#EE3E53;}
	.st9{fill:#EE4977;}
	.st10{fill:#5496D0;}
	.st11{fill:#BBBBBB;}
	.st12{fill:#BCBCBC;}
	.st13{fill:#F16722;}
	.st14{fill:#5A471C;}
	.st15{fill:url(#SVGID_1_);}
	.st16{fill:url(#SVGID_2_);}
	.st17{fill:#2AA9E0;}
	.st18{fill-rule:evenodd;clip-rule:evenodd;fill:#BBBBBB;}
	.st19{fill-rule:evenodd;clip-rule:evenodd;fill:#BCBCBC;}
	.st20{fill:#C93C27;}
	.st21{fill:#638BB0;}
	.st22{fill:#CA2027;}
	.st23{fill:#30302F;}
	.st24{fill:#34373D;}
	.st25{fill:#00405D;}
	.st26{fill:#007EE5;}
	.st27{fill:#00A8E1;}
	.st28{fill-rule:evenodd;clip-rule:evenodd;fill:#FFFFFF;}
	.st29{fill:#035795;}
	.st30{fill:#3C5A97;}
	.st31{fill:#3F64AE;}
	.st32{fill:#3F729B;}
	.st33{fill:#A42F23;}
	.st34{fill:#75C044;}
	.st35{fill:#A72723;}
	.st36{fill:#DB2726;}
	.st37{fill:#DD3333;}
	.st38{fill:url(#soundcloud_2_);}
	.st39{fill:#442D86;}
	.st40{fill:#44556B;}
]]>
</style>
<g id="bread_1_">
	<path class="st12" d="M89.8,44c4.6-5.5,8.2-12.9,7.2-20.4C95.1,8.7,80.8-1.8,65,0.2c-7,0.9-13,4-17.5,8.5c-5.5-3.3-12.2-4.8-19.2-4
		C12.4,6.8,1.1,20.5,3,35.4c0.9,7.5,6.2,13.7,12.1,18l1.5,30.8c1.2,9.7,8.8,16.7,16.8,15.6c0,0,8.8-1.7,13.8-2.9
		c5.1-1.3,19.2-3,24.7-3.1c4.1-0.1,11.6-0.3,11.6-0.3c8.1-1,13.7-9.7,12.4-19.3L89.8,44z M85.6,83.1c-1.1,1.4-2.5,2.2-4.2,2.4
		c-1.7,0.2-3.3-0.2-4.7-1.3c-1.4-1.1-2.2-2.5-2.5-4.3c-0.2-1.8,0.2-3.4,1.3-4.7c1.1-1.4,2.5-2.2,4.2-2.4c1.7-0.2,3.3,0.2,4.7,1.3
		c1.4,1.1,2.2,2.5,2.4,4.3C87.1,80.1,86.7,81.7,85.6,83.1z"/>
</g>
</svg>
