<?xml version="1.0" encoding="utf-8"?>
<!-- Generator: Adobe Illustrator 16.0.0, SVG Export Plug-In . SVG Version: 6.00 Build 0)  -->
<!DOCTYPE svg PUBLIC "-//W3C//DTD SVG 1.1//EN" "http://www.w3.org/Graphics/SVG/1.1/DTD/svg11.dtd">
<svg version="1.1" id="socialicious" xmlns="http://www.w3.org/2000/svg" xmlns:xlink="http://www.w3.org/1999/xlink" x="0px"
	 y="0px" width="100px" height="100px" viewBox="0 0 100 100" style="enable-background:new 0 0 100 100;" xml:space="preserve">
<style type="text/css">
<![CDATA[
	.st0{fill:#464342;}
	.st1{fill:#E04B26;}
	.st2{fill:#E74B24;}
	.st3{fill:#E94C88;}
	.st4{fill:#1AB6EA;}
	.st5{fill:#EA2429;}
	.st6{fill:#EC1E82;}
	.st7{fill:#B9B9BA;}
	.st8{fill:#EE3E53;}
	.st9{fill:#EE4977;}
	.st10{fill:#5496D0;}
	.st11{fill:#BBBBBB;}
	.st12{fill:#BCBCBC;}
	.st13{fill:#F16722;}
	.st14{fill:#5A471C;}
	.st15{fill:url(#SVGID_1_);}
	.st16{fill:url(#SVGID_2_);}
	.st17{fill:#2AA9E0;}
	.st18{fill-rule:evenodd;clip-rule:evenodd;fill:#BBBBBB;}
	.st19{fill-rule:evenodd;clip-rule:evenodd;fill:#BCBCBC;}
	.st20{fill:#C93C27;}
	.st21{fill:#638BB0;}
	.st22{fill:#CA2027;}
	.st23{fill:#30302F;}
	.st24{fill:#34373D;}
	.st25{fill:#00405D;}
	.st26{fill:#007EE5;}
	.st27{fill:#00A8E1;}
	.st28{fill-rule:evenodd;clip-rule:evenodd;fill:#FFFFFF;}
	.st29{fill:#035795;}
	.st30{fill:#3C5A97;}
	.st31{fill:#3F64AE;}
	.st32{fill:#3F729B;}
	.st33{fill:#A42F23;}
	.st34{fill:#75C044;}
	.st35{fill:#A72723;}
	.st36{fill:#DB2726;}
	.st37{fill:#DD3333;}
	.st38{fill:url(#soundcloud_2_);}
	.st39{fill:#442D86;}
	.st40{fill:#44556B;}
]]>
</style>
<g id="yelp">
	<g>
		<path class="st12" d="M59.5,63.8c-1.7,1.7-0.3,4.8-0.3,4.8l12.7,21.2c0,0,2.1,2.8,3.9,2.8c1.8,0,3.6-1.5,3.6-1.5l10-14.4
			c0,0,1-1.8,1-3.4c0-2.3-3.4-2.9-3.4-2.9l-23.8-7.6C63.3,62.9,61,62.2,59.5,63.8z"/>
		<path class="st12" d="M58.3,53.1c1.2,2.1,4.6,1.5,4.6,1.5l23.7-6.9c0,0,3.2-1.3,3.7-3.1c0.5-1.8-0.5-3.9-0.5-3.9L78.4,27.4
			c0,0-1-1.7-3-1.9c-2.2-0.2-3.6,2.5-3.6,2.5L58.3,49.1C58.3,49.1,57.1,51.2,58.3,53.1z"/>
		<path class="st12" d="M47,44.9c2.8-0.7,3.2-4.7,3.2-4.7L50.1,6.4c0,0-0.4-4.2-2.3-5.3c-2.9-1.8-3.8-0.9-4.6-0.7L23.5,7.7
			c0,0-1.9,0.6-2.9,2.2c-1.4,2.3,1.5,5.6,1.5,5.6l20.5,27.9C42.5,43.4,44.5,45.5,47,44.9z"/>
		<path class="st12" d="M42.2,58.6c0.1-2.6-3.1-4.2-3.1-4.2L17.9,43.7c0,0-3.1-1.3-4.7-0.4c-1.2,0.7-2.2,1.9-2.3,3l-1.4,17
			c0,0-0.2,2.9,0.6,4.3c1.1,1.9,4.6,0.6,4.6,0.6l24.7-5.5C40.4,62.1,42.1,62,42.2,58.6z"/>
		<path class="st12" d="M48.3,67.7c-2.1-1.1-4.7,1.2-4.7,1.2L27.1,87.1c0,0-2.1,2.8-1.5,4.5c0.5,1.6,1.3,2.4,2.5,3l16.6,5.2
			c0,0,2,0.4,3.5,0c2.2-0.6,1.8-4,1.8-4l0.4-24.7C50.4,71.1,50.3,68.7,48.3,67.7z"/>
	</g>
</g>
</svg>
