<?xml version="1.0" encoding="utf-8"?>
<!-- Generator: Adobe Illustrator 16.0.0, SVG Export Plug-In . SVG Version: 6.00 Build 0)  -->
<!DOCTYPE svg PUBLIC "-//W3C//DTD SVG 1.1//EN" "http://www.w3.org/Graphics/SVG/1.1/DTD/svg11.dtd">
<svg version="1.1" id="socialicious" xmlns="http://www.w3.org/2000/svg" xmlns:xlink="http://www.w3.org/1999/xlink" x="0px"
	 y="0px" width="100px" height="100px" viewBox="0 0 100 100" style="enable-background:new 0 0 100 100;" xml:space="preserve">
<style type="text/css">
<![CDATA[
	.st0{fill:#464342;}
	.st1{fill:#E14C26;}
	.st2{fill:#E84C24;}
	.st3{fill:#EA4C89;}
	.st4{fill:#EB2629;}
	.st5{fill:#ED1E83;}
	.st6{fill:#1FB7EA;}
	.st7{fill:#EF3F53;}
	.st8{fill:#5597D1;}
	.st9{fill:#8B2C8E;}
	.st10{fill:#BBBBBB;}
	.st11{fill:#BCBCBC;}
	.st12{fill:#F26722;}
	.st13{fill:#5A481C;}
	.st14{fill:url(#SVGID_1_);}
	.st15{fill:url(#SVGID_2_);}
	.st16{fill:#2CAAE1;}
	.st17{fill-rule:evenodd;clip-rule:evenodd;fill:#BCBCBC;}
	.st18{fill:#638CB1;}
	.st19{fill:#CA3C27;}
	.st20{fill:#CB2027;}
	.st21{fill:#303030;}
	.st22{fill:#33373D;}
	.st23{fill:#00A8E1;}
	.st24{fill:#065897;}
	.st25{fill:#3D5B99;}
	.st26{fill:#3F729B;}
	.st27{fill:#75C044;}
	.st28{fill:#A52F23;}
	.st29{fill:#0BBADF;}
	.st30{fill:#A72822;}
	.st31{fill:#DC2726;}
	.st32{fill:#4064AF;}
	.st33{fill:url(#soundcloud_2_);}
	.st34{fill:#45556B;}
]]>
</style>
<g id="reddit">
	<path class="st18" d="M49.9,37.6c-17.3,0-31.4,9-31.4,20.2c0,11.1,14.1,20.2,31.4,20.2c17.3,0,31.4-9,31.4-20.2
		C81.3,46.7,67.2,37.6,49.9,37.6z M33.7,53.7c0-3,2.4-5.4,5.4-5.4c3,0,5.4,2.4,5.4,5.4c0,3-2.4,5.4-5.4,5.4
		C36.1,59.1,33.7,56.7,33.7,53.7z M62.6,68.3c-0.2,0.2-4,4.1-12.7,4.1c-8.8,0-12.3-4-12.4-4.1c-0.5-0.6-0.4-1.4,0.2-1.9
		c0.6-0.5,1.4-0.4,1.9,0.1c0.1,0.1,3,3.2,10.3,3.2c7.5,0,10.7-3.2,10.8-3.3c0.5-0.5,1.4-0.6,1.9,0C63.1,66.9,63.1,67.7,62.6,68.3z
		 M61.5,59.1c-3,0-5.4-2.4-5.4-5.4c0-3,2.4-5.4,5.4-5.4c3,0,5.4,2.4,5.4,5.4C66.9,56.7,64.5,59.1,61.5,59.1z"/>
	<path class="st18" d="M79.2,41.8c-1.2,0-2.4,0.4-3.4,1.1c3.5,2.7,6,5.9,7.3,9.5c1.3-1.1,2.1-2.8,2.1-4.6
		C85.2,44.5,82.5,41.8,79.2,41.8z"/>
	<path class="st18" d="M24.1,42.8c-1-0.7-2.1-1-3.4-1c-3.3,0-6,2.7-6,6c0,1.7,0.8,3.4,2,4.5C18.1,48.7,20.7,45.5,24.1,42.8z"/>
	<path class="st18" d="M89.2,0H10.8C4.8,0,0,4.8,0,10.8v78.4c0,6,4.8,10.8,10.8,10.8h78.4c6,0,10.8-4.8,10.8-10.8V10.8
		C100,4.8,95.2,0,89.2,0z M83.8,55.2c0.1,0.8,0.2,1.7,0.2,2.6c0,12.6-15.3,22.9-34.1,22.9S15.8,70.4,15.8,57.8
		c0-0.9,0.1-1.8,0.2-2.7c-2.5-1.6-4-4.4-4-7.3C12,43,16,39,20.8,39c2.1,0,4.1,0.8,5.7,2.1c5.9-3.8,13.8-6.1,22.5-6.3l6.1-17.4
		l14.7,3.5c1.1-2.6,3.6-4.5,6.6-4.5c3.9,0,7.1,3.2,7.1,7.1c0,3.9-3.2,7.1-7.1,7.1c-3.9,0-7.1-3.2-7.1-7.1l-12.4-3l-5,14.1
		c8.3,0.3,15.9,2.7,21.6,6.3c1.6-1.4,3.6-2.2,5.8-2.2C84,39,88,43,88,47.8C88,50.8,86.4,53.6,83.8,55.2z"/>
	<path class="st18" d="M76.4,28.1c2.4,0,4.4-2,4.4-4.4s-2-4.4-4.4-4.4s-4.4,2-4.4,4.4S74,28.1,76.4,28.1z"/>
</g>
</svg>
