<?xml version="1.0" encoding="utf-8"?>
<!-- Generator: Adobe Illustrator 16.0.0, SVG Export Plug-In . SVG Version: 6.00 Build 0)  -->
<!DOCTYPE svg PUBLIC "-//W3C//DTD SVG 1.1//EN" "http://www.w3.org/Graphics/SVG/1.1/DTD/svg11.dtd">
<svg version="1.1" id="socialicious" xmlns="http://www.w3.org/2000/svg" xmlns:xlink="http://www.w3.org/1999/xlink" x="0px"
	 y="0px" width="100px" height="100px" viewBox="0 0 100 100" style="enable-background:new 0 0 100 100;" xml:space="preserve">
<style type="text/css">
<![CDATA[
	.st0{fill:#464342;}
	.st1{fill:#E04B26;}
	.st2{fill:#E74B24;}
	.st3{fill:#E94C88;}
	.st4{fill:#1AB6EA;}
	.st5{fill:#EA2429;}
	.st6{fill:#EC1E82;}
	.st7{fill:#B9B9BA;}
	.st8{fill:#EE3E53;}
	.st9{fill:#EE4977;}
	.st10{fill:#5496D0;}
	.st11{fill:#BBBBBB;}
	.st12{fill:#BCBCBC;}
	.st13{fill:#F16722;}
	.st14{fill:#5A471C;}
	.st15{fill:url(#SVGID_1_);}
	.st16{fill:url(#SVGID_2_);}
	.st17{fill:#2AA9E0;}
	.st18{fill-rule:evenodd;clip-rule:evenodd;fill:#BBBBBB;}
	.st19{fill-rule:evenodd;clip-rule:evenodd;fill:#BCBCBC;}
	.st20{fill:#C93C27;}
	.st21{fill:#638BB0;}
	.st22{fill:#CA2027;}
	.st23{fill:#30302F;}
	.st24{fill:#34373D;}
	.st25{fill:#00405D;}
	.st26{fill:#007EE5;}
	.st27{fill:#00A8E1;}
	.st28{fill-rule:evenodd;clip-rule:evenodd;fill:#FFFFFF;}
	.st29{fill:#035795;}
	.st30{fill:#3C5A97;}
	.st31{fill:#3F64AE;}
	.st32{fill:#3F729B;}
	.st33{fill:#A42F23;}
	.st34{fill:#75C044;}
	.st35{fill:#A72723;}
	.st36{fill:#DB2726;}
	.st37{fill:#DD3333;}
	.st38{fill:url(#soundcloud_2_);}
	.st39{fill:#442D86;}
	.st40{fill:#44556B;}
]]>
</style>
<g>
	<path class="st12" d="M90.1,42.3c-1-0.9-2.2-1.6-3.6-2.1c0,0,0,0,0,0c0,0,0,0,0,0c-1.4-0.5-2.9-0.7-4.6-0.7c-1.7,0-3.2,0.2-4.6,0.7
		c-0.2,0.1-0.4,0.1-0.5,0.2c-1.2,0.5-2.2,1.1-3.1,1.9c-1,0.9-1.8,2-2.3,3.3c-0.6,1.3-0.8,2.8-0.8,4.5c0,1.7,0.3,3.2,0.8,4.5
		c0.6,1.3,1.3,2.4,2.3,3.3c1,0.9,2.2,1.6,3.6,2s2.9,0.7,4.6,0.7c1.7,0,3.2-0.2,4.6-0.7c0.1,0,0.2-0.1,0.3-0.1c1-0.3,1.8-0.8,2.6-1.3
		c0.3-0.2,0.5-0.4,0.7-0.6c1-0.9,1.8-2,2.3-3.3c0.6-1.3,0.8-2.8,0.8-4.5s-0.3-3.2-0.8-4.5C91.9,44.3,91.1,43.2,90.1,42.3z
		 M74.1,54.2c-0.4-1.2-0.6-2.6-0.6-4.2c0-1.6,0.2-3,0.6-4.2c0.4-1.2,1-2.2,1.8-2.9c0.5-0.5,1-0.9,1.5-1.2c0.4-0.2,0.8-0.4,1.2-0.5
		c1-0.4,2.1-0.6,3.3-0.6c1.2,0,2.3,0.2,3.3,0.6c1,0.4,1.9,0.9,2.7,1.7c0.8,0.8,1.3,1.7,1.8,2.9c0.4,1.2,0.6,2.6,0.6,4.2
		s-0.2,3-0.6,4.2c-0.4,1.2-1,2.2-1.8,2.9c-0.5,0.5-1.1,0.9-1.7,1.3c-0.3,0.2-0.6,0.3-1,0.4c-1,0.4-2.1,0.6-3.3,0.6
		c-1.2,0-2.3-0.2-3.3-0.6c-1-0.4-1.9-0.9-2.7-1.7c-0.2-0.2-0.4-0.4-0.5-0.6C74.8,55.9,74.4,55.1,74.1,54.2z"/>
	<path class="st12" d="M69.3,49.8c0-1.4-0.3-2.7-0.7-3.8c-0.5-1.2-1.2-2.2-2-3c-0.9-0.8-1.9-1.4-3.1-1.8c-1.2-0.4-2.6-0.6-4-0.6
		c-1.4,0-2.8,0.2-4,0.6c-1.2,0.4-2.3,1-3.1,1.8c-0.9,0.8-1.5,1.8-2,3c-0.5,1.2-0.7,2.5-0.7,4s0.2,2.8,0.7,4c0.5,1.2,1.2,2.2,2,3
		c0.9,0.8,1.9,1.4,3.1,1.8s2.5,0.6,4,0.6c1.5,0,2.8-0.2,4-0.6s2.3-1,3.1-1.8c0.9-0.8,1.5-1.8,2-3c0.5-1.2,0.7-2.5,0.7-4c0,0,0,0,0,0
		s0,0,0,0C69.4,50,69.3,49.9,69.3,49.8z M66.3,50c0,1.4-0.2,2.7-0.5,3.7c-0.3,1-0.8,1.9-1.5,2.6c-0.6,0.7-1.4,1.2-2.2,1.5
		c-0.8,0.3-1.7,0.5-2.7,0.5c-1,0-1.9-0.2-2.7-0.5c-0.8-0.3-1.6-0.8-2.2-1.5c-0.6-0.7-1.1-1.5-1.5-2.6c-0.3-1-0.5-2.3-0.5-3.7
		c0-1.4,0.2-2.7,0.5-3.7c0.3-1,0.8-1.9,1.5-2.6c0.6-0.7,1.3-1.2,2.2-1.5c0.8-0.3,1.7-0.5,2.7-0.5c1,0,1.9,0.2,2.7,0.5
		c0.8,0.3,1.6,0.8,2.2,1.5c0.6,0.7,1.1,1.6,1.5,2.6C66.2,47.4,66.3,48.6,66.3,50z"/>
	<path class="st12" d="M13.9,45.6c0.6-1.1,1.6-2.7,2.2-3.7c0.7-1.2,1.3-2.2,1.6-2.7c0.2-0.4,0.4-0.6,0.6-0.9c0,0,0,0,0,0l0,0
		c0,0,0,0,0,0c0,0-0.1,0-0.2,0c-0.2,0-0.3,0.1-0.5,0.1c-0.1,0-0.1,0-0.2,0c-0.2,0-0.3,0-0.5,0c0,0-0.1,0-0.1,0
		c-0.5,0-1.1-0.1-1.5-0.2c-1.3,2.4-5.9,9.8-6.1,10.2C8.9,48.2,4.4,40.8,3,38.4c0,0,0,0,0,0l0,0c0,0,0,0,0,0c-0.1,0-0.1,0-0.2,0.1
		c-0.1,0-0.3,0.1-0.4,0.1c-0.1,0-0.2,0-0.4,0c0,0-0.1,0-0.1,0c-0.1,0-0.3,0-0.4,0c-0.3,0-0.6,0-0.8-0.1c-0.1,0-0.1,0-0.2,0
		c-0.2,0-0.4-0.1-0.5-0.1c0.2,0.3,0.4,0.6,0.6,0.9c0.3,0.5,0.9,1.4,1.6,2.7c0.6,1,1.5,2.5,2.2,3.7c0.7,1.1,1.3,2.3,2,3.5
		c0.8,1.4,1.3,2.3,1.5,2.6l0,0.9c0,1.2,0,2.5-0.1,3.6c0,1.1-0.1,4.3-0.2,5.4c0.5-0.1,1-0.2,1.5-0.2s1,0.1,1.5,0.2
		c-0.1-1.1-0.1-4.3-0.1-5.4c0-1.1-0.1-2.4-0.1-3.6l0-0.9c0.5-0.9,1-1.7,1.5-2.6C12.6,48,13.3,46.8,13.9,45.6z"/>
	<path class="st12" d="M24.1,41.2c-0.1-0.2-0.1-0.3-0.2-0.4c0,0,0,0,0,0c-0.3,0.1-0.7,0.2-1,0.2c-0.3,0-0.7-0.1-1-0.2
		c0,0-0.1,0-0.1,0c0,0,0,0,0,0c0,0,0,0,0,0c0,0.1-0.1,0.3-0.2,0.4c-1.2,3.1-5.4,13.6-7.4,17.4c-0.1,0.2-0.2,0.5-0.3,0.5
		c0.5-0.1,1-0.2,1.5-0.2c0.5,0,1,0.1,1.5,0.2c0,0,0,0,0,0l0,0c0,0,0,0,0,0c0.2-0.4,1.1-2.7,2.1-5.4c0.5,0,1,0,1.4,0
		c0.6,0,1.7,0,2.3,0h0c0.6,0,1.7,0,2.3,0c0.5,0,1,0,1.4,0c1.1,2.7,2,4.9,2.1,5.4c0,0,0,0,0,0c0,0,0,0,0,0h0c0,0,0,0,0,0
		c0.5-0.1,1-0.2,1.5-0.2c0.5,0,1,0.1,1.5,0.2c0,0,0,0,0,0l0,0c0,0,0,0,0,0v0c0-0.1-0.2-0.4-0.3-0.5C29.5,54.8,25.3,44.3,24.1,41.2z
		 M22.8,43.9c0.2,0.8,1.8,4.9,3.3,8.6c-0.6,0-2.7,0.1-3.3,0.1c-0.6,0-2.7-0.1-3.3-0.1l0,0C21,48.8,22.6,44.7,22.8,43.9z"/>
	<path class="st12" d="M48.5,52.4v-4.6c0-1.2,0-2.3,0.1-3.4c0-1.1,0.1-2.4,0.1-3.5c-0.5,0.1-1,0.2-1.5,0.2c-0.5,0-1-0.1-1.5-0.2h0
		l0,0c0.1,1.2,0.1,2.5,0.2,3.5c0,1.1,0.1,2.3,0.1,3.4l0,1.6l0,0l0,0l0,0h0c-0.8,0-1.6,0-2.3,0c-0.9,0-1.8,0-2.8,0c-1,0-1.9,0-2.8,0
		c-0.8,0-1.5,0-2.3,0l0,0l0-1.6c0-1.2,0-2.3,0.1-3.4c0-1.1,0.1-2.3,0.2-3.6c-0.5,0.1-1,0.2-1.5,0.2c-0.5,0-1-0.1-1.5-0.2l0,0l0,0
		l0,0c0.1,1.2,0.1,2.4,0.1,3.5c0,1.1,0.1,2.3,0.1,3.4v4.6c0,1.2,0,2.3-0.1,3.4c0,1.1-0.1,2.3-0.1,3.4l0,0l0,0l0,0
		c0.5-0.1,1-0.2,1.5-0.2c0.5,0,1,0.1,1.5,0.2c-0.1-1.1-0.1-2.3-0.1-3.4c0-1.1-0.1-2.3-0.1-3.4l0-1.7v0c0.8,0,1.6,0,2.3,0
		c0.9,0,1.8,0,2.8,0c0.9,0,1.9,0,2.8,0c0.8,0,1.5,0,2.3,0h0v1.7c0,1.2,0,2.3-0.1,3.4c0,1.1-0.1,2.3-0.1,3.4l0,0l0,0l0,0
		c0.5-0.1,1-0.2,1.5-0.2c0.5,0,1,0.1,1.5,0.2c-0.1-1.1-0.1-2.2-0.1-3.4C48.5,54.7,48.5,53.5,48.5,52.4z"/>
	<path class="st12" d="M100,39.7C100,39.7,100,39.7,100,39.7C100,39.7,100,39.7,100,39.7C100,39.7,99.9,39.7,100,39.7
		c0-0.1-0.1-0.2-0.1-0.3c0-0.1-0.1-0.1-0.1-0.2c0,0,0,0,0-0.1c0,0,0,0,0,0c0,0,0,0,0,0c0-0.1-0.1-0.1-0.1-0.1c0,0,0,0,0,0
		c0,0,0,0-0.1,0c-0.1,0-0.1-0.1-0.2-0.1c-0.2-0.1-0.3-0.1-0.5-0.2c0,0,0,0-0.1,0h0c-0.2,0-0.4,0-0.6,0s-0.4,0.1-0.5,0.2
		c-0.1,0.1-0.3,0.2-0.4,0.4c-0.1,0.1-0.1,0.3-0.2,0.5c0,0,0,0.1,0,0.1c0,0,0,0,0,0c0,0,0,0,0,0c0,0,0,0.1,0,0.1c0,0.1,0,0.2,0,0.2
		c-0.2,2.2-0.5,5.8-0.6,7.2c-0.4,5-0.9,8.2-1,9.1c0.2,0,0.4,0,0.6,0h0c0.2,0,0.4,0.1,0.5,0.2c0.2-0.9,0.7-4.1,1.8-9
		c0.3-1.4,1.7-7.2,1.7-7.2c0,0,0-0.1,0-0.2C100,40.1,100,39.9,100,39.7z"/>
	<path class="st12" d="M96.6,59.3c-0.1-0.1-0.3-0.3-0.4-0.4c-0.2-0.1-0.4-0.2-0.6-0.2c-0.1,0-0.2,0-0.3,0c-0.1,0-0.2,0-0.3,0
		c-0.2,0-0.4,0.1-0.5,0.2c-0.2,0.1-0.3,0.2-0.4,0.4c-0.1,0.2-0.2,0.4-0.2,0.6c0,0.2,0,0.4,0,0.6c0,0.2,0.1,0.4,0.2,0.5
		c0.1,0.1,0.3,0.3,0.4,0.3c0.2,0.1,0.4,0.2,0.6,0.2c0.1,0,0.2,0,0.3,0c0.1,0,0.2,0,0.3,0c0.2,0,0.4-0.1,0.5-0.2
		c0.2-0.1,0.3-0.2,0.4-0.4c0.1-0.2,0.2-0.4,0.2-0.6c0-0.2,0-0.4,0-0.6C96.7,59.6,96.7,59.4,96.6,59.3z"/>
</g>
</svg>
