<?xml version="1.0" encoding="utf-8"?>
<!-- Generator: Adobe Illustrator 16.0.0, SVG Export Plug-In . SVG Version: 6.00 Build 0)  -->
<!DOCTYPE svg PUBLIC "-//W3C//DTD SVG 1.1//EN" "http://www.w3.org/Graphics/SVG/1.1/DTD/svg11.dtd">
<svg version="1.1" id="socialicious" xmlns="http://www.w3.org/2000/svg" xmlns:xlink="http://www.w3.org/1999/xlink" x="0px"
	 y="0px" width="100px" height="100px" viewBox="0 0 100 100" style="enable-background:new 0 0 100 100;" xml:space="preserve">
<style type="text/css">
<![CDATA[
	.st0{fill:#464342;}
	.st1{fill:#E04B26;}
	.st2{fill:#E74B24;}
	.st3{fill:#E94C88;}
	.st4{fill:#1AB6EA;}
	.st5{fill:#EA2429;}
	.st6{fill:#EC1E82;}
	.st7{fill:#B9B9BA;}
	.st8{fill:#EE3E53;}
	.st9{fill:#EE4977;}
	.st10{fill:#5496D0;}
	.st11{fill:#BBBBBB;}
	.st12{fill:#BCBCBC;}
	.st13{fill:#F16722;}
	.st14{fill:#5A471C;}
	.st15{fill:url(#SVGID_1_);}
	.st16{fill:url(#SVGID_2_);}
	.st17{fill:#2AA9E0;}
	.st18{fill-rule:evenodd;clip-rule:evenodd;fill:#BBBBBB;}
	.st19{fill-rule:evenodd;clip-rule:evenodd;fill:#BCBCBC;}
	.st20{fill:#C93C27;}
	.st21{fill:#638BB0;}
	.st22{fill:#CA2027;}
	.st23{fill:#30302F;}
	.st24{fill:#34373D;}
	.st25{fill:#00405D;}
	.st26{fill:#007EE5;}
	.st27{fill:#00A8E1;}
	.st28{fill-rule:evenodd;clip-rule:evenodd;fill:#FFFFFF;}
	.st29{fill:#035795;}
	.st30{fill:#3C5A97;}
	.st31{fill:#3F64AE;}
	.st32{fill:#3F729B;}
	.st33{fill:#A42F23;}
	.st34{fill:#75C044;}
	.st35{fill:#A72723;}
	.st36{fill:#DB2726;}
	.st37{fill:#DD3333;}
	.st38{fill:url(#soundcloud_2_);}
	.st39{fill:#442D86;}
	.st40{fill:#44556B;}
]]>
</style>
<g id="goodreads">
	<path class="st14" d="M61.7,27.8c-1.2-1.8-2.7-3.3-4.6-4.5c-1.9-1.1-4.2-1.7-6.9-1.7c-2.7,0-5,0.6-6.9,1.7
		c-1.9,1.1-3.5,2.6-4.8,4.3c-1.3,1.8-2.2,3.8-2.7,6.1c-0.6,2.3-0.9,4.7-0.9,7c0,2.3,0.3,4.6,0.9,6.8c0.6,2.2,1.5,4.2,2.8,5.9
		c1.3,1.7,2.8,3.1,4.8,4.1c1.9,1,4.2,1.6,6.8,1.6c2.4,0,4.6-0.5,6.5-1.6c1.9-1,3.4-2.4,4.7-4.1c1.3-1.7,2.2-3.7,2.8-5.9
		c0.6-2.2,0.9-4.5,0.9-6.8c0-2.3-0.3-4.5-0.8-6.8C63.7,31.7,62.8,29.6,61.7,27.8z"/>
	<path class="st14" d="M89.2,0H10.8C4.8,0,0,4.8,0,10.8v78.4c0,6,4.8,10.8,10.8,10.8h78.4c6,0,10.8-4.8,10.8-10.8V10.8
		C100,4.8,95.2,0,89.2,0z M70.7,60.7c0,3.4-0.4,6.5-1.1,9.2c-0.8,2.7-1.9,5.1-3.5,7c-1.6,1.9-3.7,3.4-6.3,4.4
		c-2.6,1-5.8,1.5-9.5,1.5c-2.3,0-4.6-0.3-6.8-0.8c-2.2-0.5-4.2-1.4-6-2.5c-1.8-1.1-3.2-2.6-4.4-4.3c-1.2-1.8-1.8-3.9-2-6.3h5.7
		c0.3,1.7,0.9,3.2,1.7,4.4c0.9,1.2,1.9,2.1,3.1,2.8c1.2,0.7,2.6,1.2,4.1,1.6c1.5,0.3,3,0.5,4.6,0.5c5.3,0,9.1-1.5,11.4-4.5
		c2.3-3,3.5-7.3,3.5-12.9v-6.3h-0.2c-1.3,2.9-3.2,5.2-5.8,6.9s-5.5,2.6-8.9,2.6c-3.7,0-6.9-0.6-9.5-1.8c-2.6-1.2-4.8-2.9-6.5-5.1
		c-1.7-2.1-2.9-4.7-3.7-7.6c-0.8-2.9-1.2-6-1.2-9.3c0-3.2,0.5-6.2,1.4-9c0.9-2.8,2.3-5.3,4-7.4c1.8-2.1,3.9-3.8,6.5-5
		c2.6-1.2,5.6-1.8,8.9-1.8c1.7,0,3.4,0.2,4.9,0.7c1.5,0.5,2.9,1.2,4.2,2c1.3,0.9,2.4,1.9,3.4,3c1,1.1,1.7,2.3,2.3,3.6h0.2v-8h5.7
		V60.7z"/>
</g>
</svg>
