<?xml version="1.0" encoding="utf-8"?>
<!-- Generator: Adobe Illustrator 16.0.0, SVG Export Plug-In . SVG Version: 6.00 Build 0)  -->
<!DOCTYPE svg PUBLIC "-//W3C//DTD SVG 1.1//EN" "http://www.w3.org/Graphics/SVG/1.1/DTD/svg11.dtd">
<svg version="1.1" id="socialicious" xmlns="http://www.w3.org/2000/svg" xmlns:xlink="http://www.w3.org/1999/xlink" x="0px"
	 y="0px" width="100px" height="100px" viewBox="0 0 100 100" style="enable-background:new 0 0 100 100;" xml:space="preserve">
<style type="text/css">
<![CDATA[
	.st0{fill:#464342;}
	.st1{fill:#E04B26;}
	.st2{fill:#E74B24;}
	.st3{fill:#E94C88;}
	.st4{fill:#1AB6EA;}
	.st5{fill:#EA2429;}
	.st6{fill:#EC1E82;}
	.st7{fill:#B9B9BA;}
	.st8{fill:#EE3E53;}
	.st9{fill:#EE4977;}
	.st10{fill:#5496D0;}
	.st11{fill:#BBBBBB;}
	.st12{fill:#BCBCBC;}
	.st13{fill:#F16722;}
	.st14{fill:#5A471C;}
	.st15{fill:url(#SVGID_1_);}
	.st16{fill:url(#SVGID_2_);}
	.st17{fill:#2AA9E0;}
	.st18{fill-rule:evenodd;clip-rule:evenodd;fill:#BBBBBB;}
	.st19{fill-rule:evenodd;clip-rule:evenodd;fill:#BCBCBC;}
	.st20{fill:#C93C27;}
	.st21{fill:#638BB0;}
	.st22{fill:#CA2027;}
	.st23{fill:#30302F;}
	.st24{fill:#34373D;}
	.st25{fill:#00405D;}
	.st26{fill:#007EE5;}
	.st27{fill:#00A8E1;}
	.st28{fill-rule:evenodd;clip-rule:evenodd;fill:#FFFFFF;}
	.st29{fill:#035795;}
	.st30{fill:#3C5A97;}
	.st31{fill:#3F64AE;}
	.st32{fill:#3F729B;}
	.st33{fill:#A42F23;}
	.st34{fill:#75C044;}
	.st35{fill:#A72723;}
	.st36{fill:#DB2726;}
	.st37{fill:#DD3333;}
	.st38{fill:url(#soundcloud_2_);}
	.st39{fill:#442D86;}
	.st40{fill:#44556B;}
]]>
</style>
<path id="github_1_" d="M89.2,0H10.8C4.8,0,0,4.8,0,10.8v78.4c0,6,4.8,10.8,10.8,10.8h78.4c6,0,10.8-4.8,10.8-10.8V10.8
	C100,4.8,95.2,0,89.2,0z M60.6,82.5c-1.7,0.3-2.3-0.7-2.3-1.6c0-1.1,0-4.7,0-9.2c0-3.1-1.1-5.1-2.3-6.2c7.4-0.8,15.2-3.6,15.2-16.5
	c0-3.6-1.3-6.6-3.4-9c0.3-0.8,1.5-4.2-0.3-8.8c0,0-2.8-0.9-9.2,3.4c-2.7-0.7-5.5-1.1-8.4-1.1c-2.8,0-5.7,0.4-8.3,1.1
	c-6.4-4.3-9.2-3.4-9.2-3.4c-1.8,4.6-0.7,8-0.3,8.8c-2.1,2.3-3.4,5.3-3.4,9c0,12.8,7.8,15.6,15.2,16.5c-1,0.8-1.8,2.3-2.1,4.5
	c-1.9,0.9-6.7,2.3-9.7-2.8c0,0-1.8-3.2-5.1-3.4c0,0-3.3,0-0.2,2c0,0,2.2,1,3.7,4.9c0,0,2,6,11.2,3.9c0,2.8,0,5.4,0,6.2
	c0,0.9-0.6,1.9-2.3,1.6c-13.2-4.4-22.8-16.9-22.8-31.6c0-18.4,14.9-33.3,33.3-33.3c18.4,0,33.3,14.9,33.3,33.3
	C83.3,65.6,73.8,78,60.6,82.5z M41.5,71.5c0,0.3-0.2,0.5-0.6,0.6c-0.4,0.1-0.7-0.1-0.8-0.4c0-0.3,0.2-0.5,0.6-0.6
	C41.1,71,41.5,71.2,41.5,71.5z M39,71.9c0,0.3-0.3,0.5-0.7,0.5c-0.4,0-0.7-0.2-0.7-0.5c0-0.3,0.3-0.5,0.7-0.5S39,71.6,39,71.9z
	 M36.2,71.7c-0.1,0.3-0.5,0.4-0.8,0.3c-0.4-0.1-0.6-0.4-0.5-0.7c0.1-0.3,0.5-0.4,0.8-0.3C36.1,71.1,36.3,71.4,36.2,71.7z M33.8,70.6
	c-0.2,0.2-0.6,0.1-0.9-0.1c-0.3-0.3-0.4-0.7-0.2-0.9c0.2-0.2,0.6-0.1,0.9,0.1C33.9,70.1,33.9,70.4,33.8,70.6z M32,68.8
	c-0.2,0.1-0.5,0-0.7-0.3c-0.2-0.3-0.2-0.7,0-0.8c0.2-0.1,0.5,0,0.7,0.3C32.2,68.3,32.2,68.6,32,68.8z M30.6,66.9
	c-0.2,0.1-0.5,0.1-0.7-0.2c-0.2-0.2-0.3-0.5-0.1-0.7c0.2-0.1,0.5-0.1,0.7,0.2C30.8,66.4,30.8,66.7,30.6,66.9z M29.3,65.4
	c-0.1,0.2-0.3,0.2-0.6,0.1c-0.2-0.1-0.4-0.3-0.3-0.5c0.1-0.2,0.3-0.2,0.6-0.1C29.2,65,29.4,65.2,29.3,65.4z"/>
</svg>
