<?xml version="1.0" encoding="utf-8"?>
<!-- Generator: Adobe Illustrator 16.0.0, SVG Export Plug-In . SVG Version: 6.00 Build 0)  -->
<!DOCTYPE svg PUBLIC "-//W3C//DTD SVG 1.1//EN" "http://www.w3.org/Graphics/SVG/1.1/DTD/svg11.dtd">
<svg version="1.1" id="socialicious" xmlns="http://www.w3.org/2000/svg" xmlns:xlink="http://www.w3.org/1999/xlink" x="0px"
	 y="0px" width="100px" height="100px" viewBox="0 0 100 100" style="enable-background:new 0 0 100 100;" xml:space="preserve">
<style type="text/css">
<![CDATA[
	.st0{fill:#464342;}
	.st1{fill:#E14C26;}
	.st2{fill:#E84C24;}
	.st3{fill:#EA4C89;}
	.st4{fill:#EB2629;}
	.st5{fill:#ED1E83;}
	.st6{fill:#1FB7EA;}
	.st7{fill:#EF3F53;}
	.st8{fill:#5597D1;}
	.st9{fill:#8B2C8E;}
	.st10{fill:#BBBBBB;}
	.st11{fill:#BCBCBC;}
	.st12{fill:#F26722;}
	.st13{fill:#5A481C;}
	.st14{fill:url(#SVGID_1_);}
	.st15{fill:url(#SVGID_2_);}
	.st16{fill:#2CAAE1;}
	.st17{fill-rule:evenodd;clip-rule:evenodd;fill:#BCBCBC;}
	.st18{fill:#638CB1;}
	.st19{fill:#CA3C27;}
	.st20{fill:#CB2027;}
	.st21{fill:#303030;}
	.st22{fill:#33373D;}
	.st23{fill:#00A8E1;}
	.st24{fill:#065897;}
	.st25{fill:#3D5B99;}
	.st26{fill:#3F729B;}
	.st27{fill:#75C044;}
	.st28{fill:#A52F23;}
	.st29{fill:#0BBADF;}
	.st30{fill:#A72822;}
	.st31{fill:#DC2726;}
	.st32{fill:#4064AF;}
	.st33{fill:url(#soundcloud_2_);}
	.st34{fill:#45556B;}
]]>
</style>
<path id="lastfm_1_" class="st28" d="M89.2,0H10.8C4.8,0,0,4.8,0,10.8v78.4c0,6,4.8,10.8,10.8,10.8h78.4c6,0,10.8-4.8,10.8-10.8
	V10.8C100,4.8,95.2,0,89.2,0z M67.6,70.1c-13.2,0-17.7-5.9-20.1-13.3L45,49.2c-1.8-5.5-4-9.9-10.6-9.9c-4.6,0-9.4,3.3-9.4,12.7
	c0,7.3,3.7,11.9,9,11.9c5.9,0,9.9-4.4,9.9-4.4l2.4,6.6c0,0-4.1,4-12.7,4C22.9,70.1,17,63.9,17,52.3c0-12,5.9-19.1,17.1-19.1
	c10.1,0,15.2,3.6,18.4,13.5l2.5,7.6c1.8,5.5,5,9.6,12.7,9.6c5.2,0,7.9-1.1,7.9-4c0-2.2-1.3-3.8-5.2-4.7l-5.2-1.2
	c-6.3-1.5-8.8-4.8-8.8-10c0-8.3,6.7-10.9,13.5-10.9c7.8,0,12.5,2.8,13.1,9.7l-7.6,0.9c-0.3-3.3-2.3-4.6-5.9-4.6
	c-3.3,0-5.4,1.5-5.4,4.1c0,2.3,1,3.6,4.3,4.4l4.9,1.1c6.5,1.5,10,4.7,10,10.9C83.4,67.2,77,70.1,67.6,70.1z"/>
</svg>
