<?xml version="1.0" encoding="utf-8"?>
<!-- Generator: Adobe Illustrator 16.0.0, SVG Export Plug-In . SVG Version: 6.00 Build 0)  -->
<!DOCTYPE svg PUBLIC "-//W3C//DTD SVG 1.1//EN" "http://www.w3.org/Graphics/SVG/1.1/DTD/svg11.dtd">
<svg version="1.1" id="socialicious" xmlns="http://www.w3.org/2000/svg" xmlns:xlink="http://www.w3.org/1999/xlink" x="0px"
	 y="0px" width="100px" height="100px" viewBox="0 0 100 100" style="enable-background:new 0 0 100 100;" xml:space="preserve">
<style type="text/css">
<![CDATA[
	.st0{fill:#464342;}
	.st1{fill:#E04B26;}
	.st2{fill:#E74B24;}
	.st3{fill:#E94C88;}
	.st4{fill:#1AB6EA;}
	.st5{fill:#EA2429;}
	.st6{fill:#EC1E82;}
	.st7{fill:#B9B9BA;}
	.st8{fill:#EE3E53;}
	.st9{fill:#EE4977;}
	.st10{fill:#5496D0;}
	.st11{fill:#BBBBBB;}
	.st12{fill:#BCBCBC;}
	.st13{fill:#F16722;}
	.st14{fill:#5A471C;}
	.st15{fill:url(#SVGID_1_);}
	.st16{fill:url(#SVGID_2_);}
	.st17{fill:#2AA9E0;}
	.st18{fill-rule:evenodd;clip-rule:evenodd;fill:#BBBBBB;}
	.st19{fill-rule:evenodd;clip-rule:evenodd;fill:#BCBCBC;}
	.st20{fill:#C93C27;}
	.st21{fill:#638BB0;}
	.st22{fill:#CA2027;}
	.st23{fill:#30302F;}
	.st24{fill:#34373D;}
	.st25{fill:#00405D;}
	.st26{fill:#007EE5;}
	.st27{fill:#00A8E1;}
	.st28{fill-rule:evenodd;clip-rule:evenodd;fill:#FFFFFF;}
	.st29{fill:#035795;}
	.st30{fill:#3C5A97;}
	.st31{fill:#3F64AE;}
	.st32{fill:#3F729B;}
	.st33{fill:#A42F23;}
	.st34{fill:#75C044;}
	.st35{fill:#A72723;}
	.st36{fill:#DB2726;}
	.st37{fill:#DD3333;}
	.st38{fill:url(#soundcloud_2_);}
	.st39{fill:#442D86;}
	.st40{fill:#44556B;}
]]>
</style>
<path id="lastfm_1_" class="st33" d="M89.2,0H10.8C4.8,0,0,4.8,0,10.8v78.4c0,6,4.8,10.8,10.8,10.8h78.4c6,0,10.8-4.8,10.8-10.8
	V10.8C100,4.8,95.2,0,89.2,0z M67.6,70.1c-13.2,0-17.7-5.9-20.1-13.3L45,49.2c-1.8-5.5-4-9.9-10.6-9.9c-4.6,0-9.4,3.3-9.4,12.7
	c0,7.3,3.7,11.9,9,11.9c5.9,0,9.9-4.4,9.9-4.4l2.4,6.6c0,0-4.1,4-12.7,4C22.9,70.1,17,63.9,17,52.3c0-12,5.9-19.1,17.1-19.1
	c10.1,0,15.2,3.6,18.4,13.5l2.5,7.6c1.8,5.5,5,9.6,12.7,9.6c5.2,0,7.9-1.1,7.9-4c0-2.2-1.3-3.8-5.2-4.7l-5.2-1.2
	c-6.3-1.5-8.8-4.8-8.8-10c0-8.3,6.7-10.9,13.5-10.9c7.8,0,12.5,2.8,13.1,9.7l-7.6,0.9c-0.3-3.3-2.3-4.6-5.9-4.6
	c-3.3,0-5.4,1.5-5.4,4.1c0,2.3,1,3.6,4.3,4.4l4.9,1.1c6.5,1.5,10,4.7,10,10.9C83.4,67.2,77,70.1,67.6,70.1z"/>
</svg>
