<?xml version="1.0" encoding="utf-8"?>
<!-- Generator: Adobe Illustrator 16.0.0, SVG Export Plug-In . SVG Version: 6.00 Build 0)  -->
<!DOCTYPE svg PUBLIC "-//W3C//DTD SVG 1.1//EN" "http://www.w3.org/Graphics/SVG/1.1/DTD/svg11.dtd">
<svg version="1.1" id="socialicious" xmlns="http://www.w3.org/2000/svg" xmlns:xlink="http://www.w3.org/1999/xlink" x="0px"
	 y="0px" width="100px" height="100px" viewBox="0 0 100 100" style="enable-background:new 0 0 100 100;" xml:space="preserve">
<style type="text/css">
<![CDATA[
	.st0{fill:#464342;}
	.st1{fill:#E14C26;}
	.st2{fill:#E84C24;}
	.st3{fill:#EA4C89;}
	.st4{fill:#EB2629;}
	.st5{fill:#ED1E83;}
	.st6{fill:#1FB7EA;}
	.st7{fill:#EF3F53;}
	.st8{fill:#5597D1;}
	.st9{fill:#8B2C8E;}
	.st10{fill:#BBBBBB;}
	.st11{fill:#BCBCBC;}
	.st12{fill:#F26722;}
	.st13{fill:#5A481C;}
	.st14{fill:url(#SVGID_1_);}
	.st15{fill:url(#SVGID_2_);}
	.st16{fill:#2CAAE1;}
	.st17{fill-rule:evenodd;clip-rule:evenodd;fill:#BCBCBC;}
	.st18{fill:#638CB1;}
	.st19{fill:#CA3C27;}
	.st20{fill:#CB2027;}
	.st21{fill:#303030;}
	.st22{fill:#33373D;}
	.st23{fill:#00A8E1;}
	.st24{fill:#065897;}
	.st25{fill:#3D5B99;}
	.st26{fill:#3F729B;}
	.st27{fill:#75C044;}
	.st28{fill:#A52F23;}
	.st29{fill:#0BBADF;}
	.st30{fill:#A72822;}
	.st31{fill:#DC2726;}
	.st32{fill:#4064AF;}
	.st33{fill:url(#soundcloud_2_);}
	.st34{fill:#45556B;}
]]>
</style>
<g id="wordpress">
	<g>
		<path class="st11" d="M9.8,50c0,15.9,9.2,29.7,22.7,36.2L13.3,33.6C11.1,38.6,9.8,44.2,9.8,50z"/>
		<path class="st11" d="M77.1,48c0-5-1.8-8.4-3.3-11.1c-2-3.3-3.9-6.1-3.9-9.4c0-3.7,2.8-7.1,6.7-7.1c0.2,0,0.3,0,0.5,0
			C70,13.8,60.5,9.8,50,9.8c-14,0-26.4,7.2-33.6,18.1c0.9,0,1.8,0,2.6,0c4.2,0,10.7-0.5,10.7-0.5c2.2-0.1,2.4,3.1,0.3,3.3
			c0,0-2.2,0.3-4.6,0.4L40,74.7l8.8-26.4l-6.3-17.2c-2.2-0.1-4.2-0.4-4.2-0.4c-2.2-0.1-1.9-3.4,0.3-3.3c0,0,6.6,0.5,10.6,0.5
			c4.2,0,10.7-0.5,10.7-0.5c2.2-0.1,2.4,3.1,0.3,3.3c0,0-2.2,0.3-4.6,0.4l14.5,43.2l4-13.4C75.8,55.4,77.1,51.4,77.1,48z"/>
		<path class="st11" d="M50.7,53.5l-12.1,35c3.6,1.1,7.4,1.6,11.4,1.6c4.7,0,9.2-0.8,13.3-2.3c-0.1-0.2-0.2-0.4-0.3-0.6L50.7,53.5z"
			/>
		<path class="st11" d="M50,0C22.4,0,0,22.4,0,50c0,27.6,22.4,50,50,50c27.6,0,50-22.4,50-50C100,22.4,77.6,0,50,0z M50,94.7
			C25.4,94.7,5.3,74.6,5.3,50c0-24.6,20-44.7,44.7-44.7c24.6,0,44.7,20,44.7,44.7C94.7,74.6,74.6,94.7,50,94.7z"/>
		<path class="st11" d="M85.3,30.7c0.2,1.3,0.3,2.7,0.3,4.1c0,4.1-0.8,8.7-3.1,14.4L70.2,84.7c11.9-7,20-19.9,20-34.7
			C90.2,43,88.4,36.4,85.3,30.7z"/>
	</g>
</g>
</svg>
