<?xml version="1.0" encoding="utf-8"?>
<!-- Generator: Adobe Illustrator 16.0.0, SVG Export Plug-In . SVG Version: 6.00 Build 0)  -->
<!DOCTYPE svg PUBLIC "-//W3C//DTD SVG 1.1//EN" "http://www.w3.org/Graphics/SVG/1.1/DTD/svg11.dtd">
<svg version="1.1" id="socialicious" xmlns="http://www.w3.org/2000/svg" xmlns:xlink="http://www.w3.org/1999/xlink" x="0px"
	 y="0px" width="100px" height="100px" viewBox="0 0 100 100" style="enable-background:new 0 0 100 100;" xml:space="preserve">
<style type="text/css">
<![CDATA[
	.st0{fill:#464342;}
	.st1{fill:#E04B26;}
	.st2{fill:#E74B24;}
	.st3{fill:#E94C88;}
	.st4{fill:#1AB6EA;}
	.st5{fill:#EA2429;}
	.st6{fill:#EC1E82;}
	.st7{fill:#B9B9BA;}
	.st8{fill:#EE3E53;}
	.st9{fill:#EE4977;}
	.st10{fill:#5496D0;}
	.st11{fill:#BBBBBB;}
	.st12{fill:#BCBCBC;}
	.st13{fill:#F16722;}
	.st14{fill:#5A471C;}
	.st15{fill:url(#SVGID_1_);}
	.st16{fill:url(#SVGID_2_);}
	.st17{fill:#2AA9E0;}
	.st18{fill-rule:evenodd;clip-rule:evenodd;fill:#BBBBBB;}
	.st19{fill-rule:evenodd;clip-rule:evenodd;fill:#BCBCBC;}
	.st20{fill:#C93C27;}
	.st21{fill:#638BB0;}
	.st22{fill:#CA2027;}
	.st23{fill:#30302F;}
	.st24{fill:#34373D;}
	.st25{fill:#00405D;}
	.st26{fill:#007EE5;}
	.st27{fill:#00A8E1;}
	.st28{fill-rule:evenodd;clip-rule:evenodd;fill:#FFFFFF;}
	.st29{fill:#035795;}
	.st30{fill:#3C5A97;}
	.st31{fill:#3F64AE;}
	.st32{fill:#3F729B;}
	.st33{fill:#A42F23;}
	.st34{fill:#75C044;}
	.st35{fill:#A72723;}
	.st36{fill:#DB2726;}
	.st37{fill:#DD3333;}
	.st38{fill:url(#soundcloud_2_);}
	.st39{fill:#442D86;}
	.st40{fill:#44556B;}
]]>
</style>
<g>
	<path class="st25" d="M71.8,41.7c-4,0-6.2,2.9-6.6,6.1h13.3C78.1,44.8,76,41.7,71.8,41.7z"/>
	<path class="st25" d="M89.2,0H10.8C4.8,0,0,4.8,0,10.8v78.4c0,6,4.8,10.8,10.8,10.8h78.4c6,0,10.8-4.8,10.8-10.8V10.8
		C100,4.8,95.2,0,89.2,0z M53.3,62.7h-6.8c0,0,0-12.5,0-15.8c0-2.8-1.3-4.4-3.9-4.4c-2.4,0-3.9,1.7-5,2.9c0,6.3,0,17.4,0,17.4h-6.8
		c0,0,0-12.5,0-15.8c0-2.8-1.2-4.4-3.8-4.4c-2.4,0-4,1.7-5,2.9v17.4h-6.8V37.4h6.8v2.9c1.2-1.4,3.8-3.7,7.8-3.7
		c3.6,0,6.1,1.5,7.2,4.6c1.5-2.2,4.3-4.6,8.4-4.6c4.9,0,7.8,2.9,7.8,8.6C53.3,51.5,53.3,62.7,53.3,62.7z M84.7,52.2H65.3
		c0.7,3.3,3.4,5.7,7.3,5.7c2.1,0,5.1-0.8,6.9-2.6l3.4,3.9c-3.1,3.2-7.7,4.1-10.8,4.1c-7.6,0-13.6-5.5-13.6-13.3
		c0-7.3,5.5-13.3,13.2-13.3c7.5,0,13,5.8,13,13.3V52.2z"/>
</g>
</svg>
