<?xml version="1.0" encoding="utf-8"?>
<!-- Generator: Adobe Illustrator 16.0.0, SVG Export Plug-In . SVG Version: 6.00 Build 0)  -->
<!DOCTYPE svg PUBLIC "-//W3C//DTD SVG 1.1//EN" "http://www.w3.org/Graphics/SVG/1.1/DTD/svg11.dtd">
<svg version="1.1" id="socialicious" xmlns="http://www.w3.org/2000/svg" xmlns:xlink="http://www.w3.org/1999/xlink" x="0px"
	 y="0px" width="100px" height="100px" viewBox="0 0 100 100" style="enable-background:new 0 0 100 100;" xml:space="preserve">
<style type="text/css">
<![CDATA[
	.st0{fill:#464342;}
	.st1{fill:#E14C26;}
	.st2{fill:#E84C24;}
	.st3{fill:#EA4C89;}
	.st4{fill:#EB2629;}
	.st5{fill:#ED1E83;}
	.st6{fill:#1FB7EA;}
	.st7{fill:#EF3F53;}
	.st8{fill:#5597D1;}
	.st9{fill:#8B2C8E;}
	.st10{fill:#BBBBBB;}
	.st11{fill:#BCBCBC;}
	.st12{fill:#F26722;}
	.st13{fill:#5A481C;}
	.st14{fill:url(#SVGID_1_);}
	.st15{fill:url(#SVGID_2_);}
	.st16{fill:#2CAAE1;}
	.st17{fill-rule:evenodd;clip-rule:evenodd;fill:#BCBCBC;}
	.st18{fill:#638CB1;}
	.st19{fill:#CA3C27;}
	.st20{fill:#CB2027;}
	.st21{fill:#303030;}
	.st22{fill:#33373D;}
	.st23{fill:#00A8E1;}
	.st24{fill:#065897;}
	.st25{fill:#3D5B99;}
	.st26{fill:#3F729B;}
	.st27{fill:#75C044;}
	.st28{fill:#A52F23;}
	.st29{fill:#0BBADF;}
	.st30{fill:#A72822;}
	.st31{fill:#DC2726;}
	.st32{fill:#4064AF;}
	.st33{fill:url(#soundcloud_2_);}
	.st34{fill:#45556B;}
]]>
</style>
<g id="behance">
	<path class="st32" d="M40.8,39.3c0-4.6-3.2-4.6-3.2-4.6H36H24.7v10h12.2C39,44.7,40.8,44,40.8,39.3z"/>
	<path class="st32" d="M70.9,44.7c-6.9,0-7.9,6.9-7.9,6.9h14.7C77.8,51.5,77.8,44.7,70.9,44.7z"/>
	<path class="st32" d="M37.7,51.5h-13v11.9H37c1.8,0,5.4-0.6,5.4-5.8C42.4,51.5,37.7,51.5,37.7,51.5z"/>
	<path class="st32" d="M89.2,0H10.8C4.8,0,0,4.8,0,10.8v78.4c0,6,4.8,10.8,10.8,10.8h78.4c6,0,10.8-4.8,10.8-10.8V10.8
		C100,4.8,95.2,0,89.2,0z M61.2,29.4h18.4v5.5H61.2V29.4z M51.9,58.2c0,13.6-14.2,13.2-14.2,13.2h-13h-0.4h-9.9V26.8h9.9h0.4h13
		c7.1,0,12.6,3.9,12.6,11.9c0,8-6.8,8.5-6.8,8.5C52.5,47.1,51.9,58.2,51.9,58.2z M86.3,57.5H63.2c0,8.3,7.9,7.8,7.9,7.8
		c7.4,0,7.2-4.8,7.2-4.8h7.9c0,12.7-15.3,11.9-15.3,11.9c-18.3,0-17.2-17.1-17.2-17.1s0-17.2,17.2-17.2
		C88.8,38.1,86.3,57.5,86.3,57.5z"/>
</g>
</svg>
