<?xml version="1.0" encoding="utf-8"?>
<!-- Generator: Adobe Illustrator 16.0.0, SVG Export Plug-In . SVG Version: 6.00 Build 0)  -->
<!DOCTYPE svg PUBLIC "-//W3C//DTD SVG 1.1//EN" "http://www.w3.org/Graphics/SVG/1.1/DTD/svg11.dtd">
<svg version="1.1" id="socialicious" xmlns="http://www.w3.org/2000/svg" xmlns:xlink="http://www.w3.org/1999/xlink" x="0px"
	 y="0px" width="100px" height="100px" viewBox="0 0 100 100" style="enable-background:new 0 0 100 100;" xml:space="preserve">
<style type="text/css">
<![CDATA[
	.st0{fill:#464342;}
	.st1{fill:#E14C26;}
	.st2{fill:#E84C24;}
	.st3{fill:#EA4C89;}
	.st4{fill:#EB2629;}
	.st5{fill:#ED1E83;}
	.st6{fill:#1FB7EA;}
	.st7{fill:#EF3F53;}
	.st8{fill:#5597D1;}
	.st9{fill:#8B2C8E;}
	.st10{fill:#BBBBBB;}
	.st11{fill:#BCBCBC;}
	.st12{fill:#F26722;}
	.st13{fill:#5A481C;}
	.st14{fill:url(#SVGID_1_);}
	.st15{fill:url(#SVGID_2_);}
	.st16{fill:#2CAAE1;}
	.st17{fill-rule:evenodd;clip-rule:evenodd;fill:#BCBCBC;}
	.st18{fill:#638CB1;}
	.st19{fill:#CA3C27;}
	.st20{fill:#CB2027;}
	.st21{fill:#303030;}
	.st22{fill:#33373D;}
	.st23{fill:#00A8E1;}
	.st24{fill:#065897;}
	.st25{fill:#3D5B99;}
	.st26{fill:#3F729B;}
	.st27{fill:#75C044;}
	.st28{fill:#A52F23;}
	.st29{fill:#0BBADF;}
	.st30{fill:#A72822;}
	.st31{fill:#DC2726;}
	.st32{fill:#4064AF;}
	.st33{fill:url(#soundcloud_2_);}
	.st34{fill:#45556B;}
]]>
</style>
<path id="yelp_1_" class="st19" d="M89.2,0H10.8C4.8,0,0,4.8,0,10.8v78.4c0,6,4.8,10.8,10.8,10.8h78.4c6,0,10.8-4.8,10.8-10.8V10.8
	C100,4.8,95.2,0,89.2,0z M30.8,26.1c0.6-1,1.9-1.4,1.9-1.4L45.2,20c0.5-0.1,1.1-0.7,3,0.5c1.2,0.7,1.5,3.4,1.5,3.4l0.1,21.5
	c0,0-0.3,2.6-2.1,3c-1.6,0.4-2.9-0.9-2.9-0.9L31.7,29.7C31.7,29.7,29.9,27.5,30.8,26.1z M24.1,62.9c-0.5-0.9-0.4-2.7-0.4-2.7
	l0.9-10.8c0.1-0.7,0.7-1.5,1.5-1.9c1-0.6,3,0.2,3,0.2l13.5,6.8c0,0,2,1,2,2.7c-0.1,2.2-1.1,2.2-1.7,2.6l-15.8,3.5
	C27.1,63.2,24.8,64.1,24.1,62.9z M48.4,83.4c-1,0.3-2.3,0-2.3,0l-10.6-3.3c-0.7-0.4-1.3-0.9-1.6-1.9c-0.3-1.1,1-2.9,1-2.9l10.6-11.6
	c0,0,1.6-1.4,3-0.7c1.2,0.6,1.3,2.2,1.3,2.2l-0.2,15.7C49.6,80.9,49.8,83,48.4,83.4z M54.9,51.1l8.5-13.5c0,0,0.9-1.7,2.3-1.6
	c1.3,0.1,1.9,1.2,1.9,1.2l7.2,8.5c0,0,0.6,1.4,0.3,2.5c-0.3,1.1-2.4,2-2.4,2l-15.1,4.4c0,0-2.1,0.4-2.9-0.9
	C54.1,52.4,54.9,51.1,54.9,51.1z M74.7,68.7l-6.4,9.2c0,0-1.1,1-2.3,1c-1.2,0-2.5-1.8-2.5-1.8l-8.1-13.5c0,0-0.9-2,0.2-3.1
	c1-1,2.5-0.6,2.5-0.6l15.2,4.9c0,0,2.2,0.4,2.1,1.8C75.4,67.6,74.7,68.7,74.7,68.7z"/>
</svg>
