<?xml version="1.0" encoding="utf-8"?>
<!-- Generator: Adobe Illustrator 16.0.0, SVG Export Plug-In . SVG Version: 6.00 Build 0)  -->
<!DOCTYPE svg PUBLIC "-//W3C//DTD SVG 1.1//EN" "http://www.w3.org/Graphics/SVG/1.1/DTD/svg11.dtd">
<svg version="1.1" id="socialicious" xmlns="http://www.w3.org/2000/svg" xmlns:xlink="http://www.w3.org/1999/xlink" x="0px"
	 y="0px" width="100px" height="100px" viewBox="0 0 100 100" style="enable-background:new 0 0 100 100;" xml:space="preserve">
<style type="text/css">
<![CDATA[
	.st0{fill:#464342;}
	.st1{fill:#E14C26;}
	.st2{fill:#E84C24;}
	.st3{fill:#EA4C89;}
	.st4{fill:#EB2629;}
	.st5{fill:#ED1E83;}
	.st6{fill:#1FB7EA;}
	.st7{fill:#EF3F53;}
	.st8{fill:#5597D1;}
	.st9{fill:#8B2C8E;}
	.st10{fill:#BBBBBB;}
	.st11{fill:#BCBCBC;}
	.st12{fill:#F26722;}
	.st13{fill:#5A481C;}
	.st14{fill:url(#SVGID_1_);}
	.st15{fill:url(#SVGID_2_);}
	.st16{fill:#2CAAE1;}
	.st17{fill-rule:evenodd;clip-rule:evenodd;fill:#BCBCBC;}
	.st18{fill:#638CB1;}
	.st19{fill:#CA3C27;}
	.st20{fill:#CB2027;}
	.st21{fill:#303030;}
	.st22{fill:#33373D;}
	.st23{fill:#00A8E1;}
	.st24{fill:#065897;}
	.st25{fill:#3D5B99;}
	.st26{fill:#3F729B;}
	.st27{fill:#75C044;}
	.st28{fill:#A52F23;}
	.st29{fill:#0BBADF;}
	.st30{fill:#A72822;}
	.st31{fill:#DC2726;}
	.st32{fill:#4064AF;}
	.st33{fill:url(#soundcloud_2_);}
	.st34{fill:#45556B;}
]]>
</style>
<g id="behance_1_">
	<path class="st11" d="M40.4,46.6c0,0,9.5-0.7,9.5-11.8c0-11.1-7.7-16.5-17.5-16.5H14.2h-0.5H0v62h13.7h0.5h18.1
		C32.3,80.4,52,81,52,62C52,62,52.8,46.6,40.4,46.6z M29.9,29.4h2.3c0,0,4.4,0,4.4,6.5c0,6.4-2.6,7.4-5.5,7.4H14.2V29.4H29.9z
		 M31.4,69.3H14.2V52.8h18.1c0,0,6.5-0.1,6.5,8.5C38.8,68.5,33.9,69.3,31.4,69.3z"/>
	<path class="st11" d="M78.2,34.1c-23.8,0-23.8,23.8-23.8,23.8s-1.6,23.7,23.8,23.7c0,0,21.2,1.2,21.2-16.5H88.6
		c0,0,0.4,6.7-9.9,6.7c0,0-10.9,0.7-10.9-10.8h32.1C99.8,61,103.3,34.1,78.2,34.1z M67.6,52.8c0,0,1.3-9.6,10.9-9.6
		c9.6,0,9.5,9.6,9.5,9.6H67.6z"/>
	<rect x="64.9" y="22" class="st11" width="25.6" height="7.6"/>
</g>
</svg>
