<?xml version="1.0" encoding="utf-8"?>
<!-- Generator: Adobe Illustrator 16.0.0, SVG Export Plug-In . SVG Version: 6.00 Build 0)  -->
<!DOCTYPE svg PUBLIC "-//W3C//DTD SVG 1.1//EN" "http://www.w3.org/Graphics/SVG/1.1/DTD/svg11.dtd">
<svg version="1.1" id="socialicious" xmlns="http://www.w3.org/2000/svg" xmlns:xlink="http://www.w3.org/1999/xlink" x="0px"
	 y="0px" width="100px" height="100px" viewBox="0 0 100 100" style="enable-background:new 0 0 100 100;" xml:space="preserve">
<style type="text/css">
<![CDATA[
	.st0{fill:#464342;}
	.st1{fill:#E04B26;}
	.st2{fill:#E74B24;}
	.st3{fill:#E94C88;}
	.st4{fill:#1AB6EA;}
	.st5{fill:#EA2429;}
	.st6{fill:#EC1E82;}
	.st7{fill:#B9B9BA;}
	.st8{fill:#EE3E53;}
	.st9{fill:#EE4977;}
	.st10{fill:#5496D0;}
	.st11{fill:#BBBBBB;}
	.st12{fill:#BCBCBC;}
	.st13{fill:#F16722;}
	.st14{fill:#5A471C;}
	.st15{fill:url(#SVGID_1_);}
	.st16{fill:url(#SVGID_2_);}
	.st17{fill:#2AA9E0;}
	.st18{fill-rule:evenodd;clip-rule:evenodd;fill:#BBBBBB;}
	.st19{fill-rule:evenodd;clip-rule:evenodd;fill:#BCBCBC;}
	.st20{fill:#C93C27;}
	.st21{fill:#638BB0;}
	.st22{fill:#CA2027;}
	.st23{fill:#30302F;}
	.st24{fill:#34373D;}
	.st25{fill:#00405D;}
	.st26{fill:#007EE5;}
	.st27{fill:#00A8E1;}
	.st28{fill-rule:evenodd;clip-rule:evenodd;fill:#FFFFFF;}
	.st29{fill:#035795;}
	.st30{fill:#3C5A97;}
	.st31{fill:#3F64AE;}
	.st32{fill:#3F729B;}
	.st33{fill:#A42F23;}
	.st34{fill:#75C044;}
	.st35{fill:#A72723;}
	.st36{fill:#DB2726;}
	.st37{fill:#DD3333;}
	.st38{fill:url(#soundcloud_2_);}
	.st39{fill:#442D86;}
	.st40{fill:#44556B;}
]]>
</style>
<path id="pinterest_1_" class="st22" d="M89.2,0H10.8C4.8,0,0,4.8,0,10.8v78.4c0,6,4.8,10.8,10.8,10.8h78.4c6,0,10.8-4.8,10.8-10.8
	V10.8C100,4.8,95.2,0,89.2,0z M55.8,67.2c-4.2,0-8.2-2.3-9.5-4.9c0,0-2.3,9-2.7,10.7c-1.7,6.1-6.7,12.3-7.1,12.8
	c-0.3,0.3-0.9,0.2-0.9-0.2c-0.1-0.8-1.4-8.5,0.1-14.8c0.7-3.2,5-21.3,5-21.3s-1.2-2.5-1.2-6.2c0-5.8,3.4-10.1,7.5-10.1
	c3.6,0,5.3,2.7,5.3,5.9c0,3.6-2.3,8.9-3.4,13.9c-1,4.1,2.1,7.5,6.2,7.5c7.4,0,12.4-9.5,12.4-20.8c0-8.6-5.8-15-16.2-15
	c-11.8,0-19.2,8.8-19.2,18.7c0,3.4,1,5.8,2.6,7.7c0.7,0.9,0.8,1.2,0.6,2.2c-0.2,0.7-0.6,2.4-0.8,3.1c-0.3,1-1.1,1.3-2,1
	c-5.5-2.2-8-8.2-8-14.9c0-11.1,9.4-24.4,27.9-24.4c14.9,0,24.7,10.8,24.7,22.4C76.9,55.8,68.4,67.2,55.8,67.2z"/>
</svg>
