<?xml version="1.0" encoding="utf-8"?>
<!-- Generator: Adobe Illustrator 16.0.0, SVG Export Plug-In . SVG Version: 6.00 Build 0)  -->
<!DOCTYPE svg PUBLIC "-//W3C//DTD SVG 1.1//EN" "http://www.w3.org/Graphics/SVG/1.1/DTD/svg11.dtd">
<svg version="1.1" id="socialicious" xmlns="http://www.w3.org/2000/svg" xmlns:xlink="http://www.w3.org/1999/xlink" x="0px"
	 y="0px" width="100px" height="100px" viewBox="0 0 100 100" style="enable-background:new 0 0 100 100;" xml:space="preserve">
<style type="text/css">
<![CDATA[
	.st0{fill:#464342;}
	.st1{fill:#E14C26;}
	.st2{fill:#E84C24;}
	.st3{fill:#EA4C89;}
	.st4{fill:#EB2629;}
	.st5{fill:#ED1E83;}
	.st6{fill:#1FB7EA;}
	.st7{fill:#EF3F53;}
	.st8{fill:#5597D1;}
	.st9{fill:#8B2C8E;}
	.st10{fill:#BBBBBB;}
	.st11{fill:#BCBCBC;}
	.st12{fill:#F26722;}
	.st13{fill:#5A481C;}
	.st14{fill:url(#SVGID_1_);}
	.st15{fill:url(#SVGID_2_);}
	.st16{fill:#2CAAE1;}
	.st17{fill-rule:evenodd;clip-rule:evenodd;fill:#BCBCBC;}
	.st18{fill:#638CB1;}
	.st19{fill:#CA3C27;}
	.st20{fill:#CB2027;}
	.st21{fill:#303030;}
	.st22{fill:#33373D;}
	.st23{fill:#00A8E1;}
	.st24{fill:#065897;}
	.st25{fill:#3D5B99;}
	.st26{fill:#3F729B;}
	.st27{fill:#75C044;}
	.st28{fill:#A52F23;}
	.st29{fill:#0BBADF;}
	.st30{fill:#A72822;}
	.st31{fill:#DC2726;}
	.st32{fill:#4064AF;}
	.st33{fill:url(#soundcloud_2_);}
	.st34{fill:#45556B;}
]]>
</style>
<path id="vimeo" class="st11" d="M100,26.8c-0.4,9.7-7.2,23.1-20.4,40C66,84.4,54.5,93.3,45,93.3c-5.8,0-10.8-5.4-14.8-16.2
	c-2.7-9.9-5.4-19.7-8.1-29.6c-3-10.8-6.2-16.2-9.6-16.2c-0.7,0-3.4,1.6-7.8,4.7L0,30c4.9-4.3,9.8-8.7,14.6-13
	c6.6-5.7,11.5-8.7,14.8-9c7.8-0.7,12.6,4.6,14.4,16c1.9,12.3,3.3,19.9,4,22.9c2.2,10.2,4.7,15.3,7.4,15.3c2.1,0,5.2-3.3,9.4-9.9
	c4.2-6.6,6.4-11.7,6.7-15.1c0.6-5.7-1.6-8.6-6.7-8.6c-2.4,0-4.9,0.6-7.4,1.6C62.2,14.1,71.6,6.3,85.4,6.8
	C95.7,7.1,100.5,13.7,100,26.8z"/>
</svg>
