<?xml version="1.0" encoding="utf-8"?>
<!-- Generator: Adobe Illustrator 16.0.0, SVG Export Plug-In . SVG Version: 6.00 Build 0)  -->
<!DOCTYPE svg PUBLIC "-//W3C//DTD SVG 1.1//EN" "http://www.w3.org/Graphics/SVG/1.1/DTD/svg11.dtd">
<svg version="1.1" id="socialicious" xmlns="http://www.w3.org/2000/svg" xmlns:xlink="http://www.w3.org/1999/xlink" x="0px"
	 y="0px" width="100px" height="100px" viewBox="0 0 100 100" style="enable-background:new 0 0 100 100;" xml:space="preserve">
<style type="text/css">
<![CDATA[
	.st0{fill:#464342;}
	.st1{fill:#E14C26;}
	.st2{fill:#E84C24;}
	.st3{fill:#EA4C89;}
	.st4{fill:#EB2629;}
	.st5{fill:#ED1E83;}
	.st6{fill:#1FB7EA;}
	.st7{fill:#EF3F53;}
	.st8{fill:#5597D1;}
	.st9{fill:#8B2C8E;}
	.st10{fill:#BBBBBB;}
	.st11{fill:#BCBCBC;}
	.st12{fill:#F26722;}
	.st13{fill:#5A481C;}
	.st14{fill:url(#SVGID_1_);}
	.st15{fill:url(#SVGID_2_);}
	.st16{fill:#2CAAE1;}
	.st17{fill-rule:evenodd;clip-rule:evenodd;fill:#BCBCBC;}
	.st18{fill:#638CB1;}
	.st19{fill:#CA3C27;}
	.st20{fill:#CB2027;}
	.st21{fill:#303030;}
	.st22{fill:#33373D;}
	.st23{fill:#00A8E1;}
	.st24{fill:#065897;}
	.st25{fill:#3D5B99;}
	.st26{fill:#3F729B;}
	.st27{fill:#75C044;}
	.st28{fill:#A52F23;}
	.st29{fill:#0BBADF;}
	.st30{fill:#A72822;}
	.st31{fill:#DC2726;}
	.st32{fill:#4064AF;}
	.st33{fill:url(#soundcloud_2_);}
	.st34{fill:#45556B;}
]]>
</style>
<g id="pinterest">
	<path class="st11" d="M52.3,0C25.1,0,11.3,19.6,11.3,35.9c0,9.9,3.7,18.7,11.8,21.9c1.3,0.5,2.5,0,2.9-1.4c0.3-1,0.9-3.6,1.2-4.6
		c0.4-1.4,0.2-1.9-0.8-3.2c-2.3-2.7-3.8-6.3-3.8-11.3c0-14.5,10.9-27.5,28.3-27.5c15.4,0,23.9,9.4,23.9,22
		c0,16.6-7.3,30.5-18.2,30.5c-6,0-10.5-5-9.1-11.1c1.7-7.3,5.1-15.1,5.1-20.4c0-4.7-2.5-8.6-7.8-8.6c-6.1,0-11.1,6.4-11.1,14.9
		c0,5.4,1.8,9.1,1.8,9.1s-6.3,26.6-7.4,31.3c-2.2,9.3-0.3,20.7-0.2,21.8c0.1,0.7,1,0.8,1.4,0.3c0.6-0.7,7.9-9.8,10.4-18.8
		c0.7-2.6,4-15.8,4-15.8c2,3.8,7.8,7.2,14,7.2c18.5,0,31-16.8,31-39.4C88.7,15.9,74.3,0,52.3,0z"/>
</g>
</svg>
