<?xml version="1.0" encoding="utf-8"?>
<!-- Generator: Adobe Illustrator 16.0.0, SVG Export Plug-In . SVG Version: 6.00 Build 0)  -->
<!DOCTYPE svg PUBLIC "-//W3C//DTD SVG 1.1//EN" "http://www.w3.org/Graphics/SVG/1.1/DTD/svg11.dtd">
<svg version="1.1" id="socialicious" xmlns="http://www.w3.org/2000/svg" xmlns:xlink="http://www.w3.org/1999/xlink" x="0px"
	 y="0px" width="100px" height="100px" viewBox="0 0 100 100" style="enable-background:new 0 0 100 100;" xml:space="preserve">
<style type="text/css">
<![CDATA[
	.st0{fill:#464342;}
	.st1{fill:#E04B26;}
	.st2{fill:#E74B24;}
	.st3{fill:#E94C88;}
	.st4{fill:#1AB6EA;}
	.st5{fill:#EA2429;}
	.st6{fill:#EC1E82;}
	.st7{fill:#B9B9BA;}
	.st8{fill:#EE3E53;}
	.st9{fill:#EE4977;}
	.st10{fill:#5496D0;}
	.st11{fill:#BBBBBB;}
	.st12{fill:#BCBCBC;}
	.st13{fill:#F16722;}
	.st14{fill:#5A471C;}
	.st15{fill:url(#SVGID_1_);}
	.st16{fill:url(#SVGID_2_);}
	.st17{fill:#2AA9E0;}
	.st18{fill-rule:evenodd;clip-rule:evenodd;fill:#BBBBBB;}
	.st19{fill-rule:evenodd;clip-rule:evenodd;fill:#BCBCBC;}
	.st20{fill:#C93C27;}
	.st21{fill:#638BB0;}
	.st22{fill:#CA2027;}
	.st23{fill:#30302F;}
	.st24{fill:#34373D;}
	.st25{fill:#00405D;}
	.st26{fill:#007EE5;}
	.st27{fill:#00A8E1;}
	.st28{fill-rule:evenodd;clip-rule:evenodd;fill:#FFFFFF;}
	.st29{fill:#035795;}
	.st30{fill:#3C5A97;}
	.st31{fill:#3F64AE;}
	.st32{fill:#3F729B;}
	.st33{fill:#A42F23;}
	.st34{fill:#75C044;}
	.st35{fill:#A72723;}
	.st36{fill:#DB2726;}
	.st37{fill:#DD3333;}
	.st38{fill:url(#soundcloud_2_);}
	.st39{fill:#442D86;}
	.st40{fill:#44556B;}
]]>
</style>
<path id="yelp_1_" class="st20" d="M89.2,0H10.8C4.8,0,0,4.8,0,10.8v78.4c0,6,4.8,10.8,10.8,10.8h78.4c6,0,10.8-4.8,10.8-10.8V10.8
	C100,4.8,95.2,0,89.2,0z M30.8,26.1c0.6-1,1.9-1.4,1.9-1.4L45.2,20c0.5-0.1,1.1-0.7,3,0.5c1.2,0.7,1.5,3.4,1.5,3.4l0.1,21.5
	c0,0-0.3,2.6-2.1,3c-1.6,0.4-2.9-0.9-2.9-0.9L31.7,29.7C31.7,29.7,29.9,27.5,30.8,26.1z M24.1,62.9c-0.5-0.9-0.4-2.7-0.4-2.7
	l0.9-10.8c0.1-0.7,0.7-1.5,1.5-1.9c1-0.6,3,0.2,3,0.2l13.5,6.8c0,0,2,1,2,2.7c-0.1,2.2-1.1,2.2-1.7,2.6l-15.8,3.5
	C27.1,63.2,24.8,64.1,24.1,62.9z M48.4,83.4c-1,0.3-2.3,0-2.3,0l-10.6-3.3c-0.7-0.4-1.3-0.9-1.6-1.9c-0.3-1.1,1-2.9,1-2.9l10.6-11.6
	c0,0,1.6-1.4,3-0.7c1.2,0.6,1.3,2.2,1.3,2.2l-0.2,15.7C49.6,80.9,49.8,83,48.4,83.4z M54.9,51.1l8.5-13.5c0,0,0.9-1.7,2.3-1.6
	c1.3,0.1,1.9,1.2,1.9,1.2l7.2,8.5c0,0,0.6,1.4,0.3,2.5c-0.3,1.1-2.4,2-2.4,2l-15.1,4.4c0,0-2.1,0.4-2.9-0.9
	C54.1,52.4,54.9,51.1,54.9,51.1z M74.7,68.7l-6.4,9.2c0,0-1.1,1-2.3,1c-1.2,0-2.5-1.8-2.5-1.8l-8.1-13.5c0,0-0.9-2,0.2-3.1
	c1-1,2.5-0.6,2.5-0.6l15.2,4.9c0,0,2.2,0.4,2.1,1.8C75.4,67.6,74.7,68.7,74.7,68.7z"/>
</svg>
