<?xml version="1.0" encoding="utf-8"?>
<!-- Generator: Adobe Illustrator 16.0.0, SVG Export Plug-In . SVG Version: 6.00 Build 0)  -->
<!DOCTYPE svg PUBLIC "-//W3C//DTD SVG 1.1//EN" "http://www.w3.org/Graphics/SVG/1.1/DTD/svg11.dtd">
<svg version="1.1" id="socialicious" xmlns="http://www.w3.org/2000/svg" xmlns:xlink="http://www.w3.org/1999/xlink" x="0px"
	 y="0px" width="100px" height="100px" viewBox="0 0 100 100" style="enable-background:new 0 0 100 100;" xml:space="preserve">
<style type="text/css">
<![CDATA[
	.st0{fill:#464342;}
	.st1{fill:#E04B26;}
	.st2{fill:#E74B24;}
	.st3{fill:#E94C88;}
	.st4{fill:#1AB6EA;}
	.st5{fill:#EA2429;}
	.st6{fill:#EC1E82;}
	.st7{fill:#B9B9BA;}
	.st8{fill:#EE3E53;}
	.st9{fill:#EE4977;}
	.st10{fill:#5496D0;}
	.st11{fill:#BBBBBB;}
	.st12{fill:#BCBCBC;}
	.st13{fill:#F16722;}
	.st14{fill:#5A471C;}
	.st15{fill:url(#SVGID_1_);}
	.st16{fill:url(#SVGID_2_);}
	.st17{fill:#2AA9E0;}
	.st18{fill-rule:evenodd;clip-rule:evenodd;fill:#BBBBBB;}
	.st19{fill-rule:evenodd;clip-rule:evenodd;fill:#BCBCBC;}
	.st20{fill:#C93C27;}
	.st21{fill:#638BB0;}
	.st22{fill:#CA2027;}
	.st23{fill:#30302F;}
	.st24{fill:#34373D;}
	.st25{fill:#00405D;}
	.st26{fill:#007EE5;}
	.st27{fill:#00A8E1;}
	.st28{fill-rule:evenodd;clip-rule:evenodd;fill:#FFFFFF;}
	.st29{fill:#035795;}
	.st30{fill:#3C5A97;}
	.st31{fill:#3F64AE;}
	.st32{fill:#3F729B;}
	.st33{fill:#A42F23;}
	.st34{fill:#75C044;}
	.st35{fill:#A72723;}
	.st36{fill:#DB2726;}
	.st37{fill:#DD3333;}
	.st38{fill:url(#soundcloud_2_);}
	.st39{fill:#442D86;}
	.st40{fill:#44556B;}
]]>
</style>
<g id="spotify_1_">
	<path class="st34" d="M89.2,0H10.8C4.8,0,0,4.8,0,10.8v78.4c0,6,4.8,10.8,10.8,10.8h78.4c6,0,10.8-4.8,10.8-10.8V10.8
		C100,4.8,95.2,0,89.2,0z M49.9,83.4c-17.4,0-31.5-14.1-31.5-31.5c0-17.4,14.1-31.5,31.5-31.5s31.5,14.1,31.5,31.5
		C81.4,69.3,67.3,83.4,49.9,83.4z"/>
	<path class="st34" d="M67.6,53.7c-9.5-5.9-23.5-7.5-34.7-4.1c-1.3,0.4-2,1.7-1.6,3c0.4,1.3,1.7,2,3,1.6c9.8-3,22.5-1.5,30.8,3.6
		c1.1,0.7,2.6,0.3,3.3-0.8C69,55.9,68.7,54.4,67.6,53.7z"/>
	<path class="st34" d="M71.6,43.2C60.2,36.4,42,35.7,31.1,39c-1.5,0.5-2.4,2.1-1.9,3.6c0.5,1.5,2.1,2.4,3.6,1.9
		c9.5-2.9,25.9-2.3,35.9,3.6c1.4,0.8,3.1,0.4,4-1C73.4,45.7,73,44,71.6,43.2z"/>
	<path class="st34" d="M63.9,62.8c-8.1-5-18.2-6.1-30-3.4c-1,0.2-1.7,1.3-1.4,2.3c0.2,1,1.3,1.7,2.3,1.5c10.7-2.5,19.9-1.5,27.1,3
		c0.9,0.5,2.1,0.3,2.7-0.6C65.1,64.5,64.8,63.3,63.9,62.8z"/>
</g>
</svg>
