<?xml version="1.0" encoding="utf-8"?>
<!-- Generator: Adobe Illustrator 16.0.0, SVG Export Plug-In . SVG Version: 6.00 Build 0)  -->
<!DOCTYPE svg PUBLIC "-//W3C//DTD SVG 1.1//EN" "http://www.w3.org/Graphics/SVG/1.1/DTD/svg11.dtd">
<svg version="1.1" id="socialicious" xmlns="http://www.w3.org/2000/svg" xmlns:xlink="http://www.w3.org/1999/xlink" x="0px"
	 y="0px" width="100px" height="100px" viewBox="0 0 100 100" style="enable-background:new 0 0 100 100;" xml:space="preserve">
<style type="text/css">
<![CDATA[
	.st0{fill:#464342;}
	.st1{fill:#E04B26;}
	.st2{fill:#E74B24;}
	.st3{fill:#E94C88;}
	.st4{fill:#1AB6EA;}
	.st5{fill:#EA2429;}
	.st6{fill:#EC1E82;}
	.st7{fill:#B9B9BA;}
	.st8{fill:#EE3E53;}
	.st9{fill:#EE4977;}
	.st10{fill:#5496D0;}
	.st11{fill:#BBBBBB;}
	.st12{fill:#BCBCBC;}
	.st13{fill:#F16722;}
	.st14{fill:#5A471C;}
	.st15{fill:url(#SVGID_1_);}
	.st16{fill:url(#SVGID_2_);}
	.st17{fill:#2AA9E0;}
	.st18{fill-rule:evenodd;clip-rule:evenodd;fill:#BBBBBB;}
	.st19{fill-rule:evenodd;clip-rule:evenodd;fill:#BCBCBC;}
	.st20{fill:#C93C27;}
	.st21{fill:#638BB0;}
	.st22{fill:#CA2027;}
	.st23{fill:#30302F;}
	.st24{fill:#34373D;}
	.st25{fill:#00405D;}
	.st26{fill:#007EE5;}
	.st27{fill:#00A8E1;}
	.st28{fill-rule:evenodd;clip-rule:evenodd;fill:#FFFFFF;}
	.st29{fill:#035795;}
	.st30{fill:#3C5A97;}
	.st31{fill:#3F64AE;}
	.st32{fill:#3F729B;}
	.st33{fill:#A42F23;}
	.st34{fill:#75C044;}
	.st35{fill:#A72723;}
	.st36{fill:#DB2726;}
	.st37{fill:#DD3333;}
	.st38{fill:url(#soundcloud_2_);}
	.st39{fill:#442D86;}
	.st40{fill:#44556B;}
]]>
</style>
<g id="pinterest">
	<path class="st12" d="M52.3,0C25.1,0,11.3,19.6,11.3,35.9c0,9.9,3.7,18.7,11.8,21.9c1.3,0.5,2.5,0,2.9-1.4c0.3-1,0.9-3.6,1.2-4.6
		c0.4-1.4,0.2-1.9-0.8-3.2c-2.3-2.7-3.8-6.3-3.8-11.3c0-14.5,10.9-27.5,28.3-27.5c15.4,0,23.9,9.4,23.9,22
		c0,16.6-7.3,30.5-18.2,30.5c-6,0-10.5-5-9.1-11.1c1.7-7.3,5.1-15.1,5.1-20.4c0-4.7-2.5-8.6-7.8-8.6c-6.1,0-11.1,6.4-11.1,14.9
		c0,5.4,1.8,9.1,1.8,9.1s-6.3,26.6-7.4,31.3c-2.2,9.3-0.3,20.7-0.2,21.8c0.1,0.7,1,0.8,1.4,0.3c0.6-0.7,7.9-9.8,10.4-18.8
		c0.7-2.6,4-15.8,4-15.8c2,3.8,7.8,7.2,14,7.2c18.5,0,31-16.8,31-39.4C88.7,15.9,74.3,0,52.3,0z"/>
</g>
</svg>
