<?xml version="1.0" encoding="utf-8"?>
<!-- Generator: Adobe Illustrator 16.0.0, SVG Export Plug-In . SVG Version: 6.00 Build 0)  -->
<!DOCTYPE svg PUBLIC "-//W3C//DTD SVG 1.1//EN" "http://www.w3.org/Graphics/SVG/1.1/DTD/svg11.dtd">
<svg version="1.1" id="socialicious" xmlns="http://www.w3.org/2000/svg" xmlns:xlink="http://www.w3.org/1999/xlink" x="0px"
	 y="0px" width="100px" height="100px" viewBox="0 0 100 100" style="enable-background:new 0 0 100 100;" xml:space="preserve">
<style type="text/css">
<![CDATA[
	.st0{fill:#464342;}
	.st1{fill:#E04B26;}
	.st2{fill:#E74B24;}
	.st3{fill:#E94C88;}
	.st4{fill:#1AB6EA;}
	.st5{fill:#EA2429;}
	.st6{fill:#EC1E82;}
	.st7{fill:#B9B9BA;}
	.st8{fill:#EE3E53;}
	.st9{fill:#EE4977;}
	.st10{fill:#5496D0;}
	.st11{fill:#BBBBBB;}
	.st12{fill:#BCBCBC;}
	.st13{fill:#F16722;}
	.st14{fill:#5A471C;}
	.st15{fill:url(#SVGID_1_);}
	.st16{fill:url(#SVGID_2_);}
	.st17{fill:#2AA9E0;}
	.st18{fill-rule:evenodd;clip-rule:evenodd;fill:#BBBBBB;}
	.st19{fill-rule:evenodd;clip-rule:evenodd;fill:#BCBCBC;}
	.st20{fill:#C93C27;}
	.st21{fill:#638BB0;}
	.st22{fill:#CA2027;}
	.st23{fill:#30302F;}
	.st24{fill:#34373D;}
	.st25{fill:#00405D;}
	.st26{fill:#007EE5;}
	.st27{fill:#00A8E1;}
	.st28{fill-rule:evenodd;clip-rule:evenodd;fill:#FFFFFF;}
	.st29{fill:#035795;}
	.st30{fill:#3C5A97;}
	.st31{fill:#3F64AE;}
	.st32{fill:#3F729B;}
	.st33{fill:#A42F23;}
	.st34{fill:#75C044;}
	.st35{fill:#A72723;}
	.st36{fill:#DB2726;}
	.st37{fill:#DD3333;}
	.st38{fill:url(#soundcloud_2_);}
	.st39{fill:#442D86;}
	.st40{fill:#44556B;}
]]>
</style>
<g id="behance">
	<path class="st31" d="M40.8,39.3c0-4.6-3.2-4.6-3.2-4.6H36H24.7v10h12.2C39,44.7,40.8,44,40.8,39.3z"/>
	<path class="st31" d="M70.9,44.7c-6.9,0-7.9,6.9-7.9,6.9h14.7C77.8,51.5,77.8,44.7,70.9,44.7z"/>
	<path class="st31" d="M37.7,51.5h-13v11.9H37c1.8,0,5.4-0.6,5.4-5.8C42.4,51.5,37.7,51.5,37.7,51.5z"/>
	<path class="st31" d="M89.2,0H10.8C4.8,0,0,4.8,0,10.8v78.4c0,6,4.8,10.8,10.8,10.8h78.4c6,0,10.8-4.8,10.8-10.8V10.8
		C100,4.8,95.2,0,89.2,0z M61.2,29.4h18.4v5.5H61.2V29.4z M51.9,58.2c0,13.6-14.2,13.2-14.2,13.2h-13h-0.4h-9.9V26.8h9.9h0.4h13
		c7.1,0,12.6,3.9,12.6,11.9c0,8-6.8,8.5-6.8,8.5C52.5,47.1,51.9,58.2,51.9,58.2z M86.3,57.5H63.2c0,8.3,7.9,7.8,7.9,7.8
		c7.4,0,7.2-4.8,7.2-4.8h7.9c0,12.7-15.3,11.9-15.3,11.9c-18.3,0-17.2-17.1-17.2-17.1s0-17.2,17.2-17.2
		C88.8,38.1,86.3,57.5,86.3,57.5z"/>
</g>
</svg>
