<?xml version="1.0" encoding="utf-8"?>
<!-- Generator: Adobe Illustrator 16.0.0, SVG Export Plug-In . SVG Version: 6.00 Build 0)  -->
<!DOCTYPE svg PUBLIC "-//W3C//DTD SVG 1.1//EN" "http://www.w3.org/Graphics/SVG/1.1/DTD/svg11.dtd">
<svg version="1.1" id="socialicious" xmlns="http://www.w3.org/2000/svg" xmlns:xlink="http://www.w3.org/1999/xlink" x="0px"
	 y="0px" width="100px" height="100px" viewBox="0 0 100 100" style="enable-background:new 0 0 100 100;" xml:space="preserve">
<style type="text/css">
<![CDATA[
	.st0{fill:#464342;}
	.st1{fill:#E14C26;}
	.st2{fill:#E84C24;}
	.st3{fill:#EA4C89;}
	.st4{fill:#EB2629;}
	.st5{fill:#ED1E83;}
	.st6{fill:#1FB7EA;}
	.st7{fill:#EF3F53;}
	.st8{fill:#5597D1;}
	.st9{fill:#8B2C8E;}
	.st10{fill:#BBBBBB;}
	.st11{fill:#BCBCBC;}
	.st12{fill:#F26722;}
	.st13{fill:#5A481C;}
	.st14{fill:url(#SVGID_1_);}
	.st15{fill:url(#SVGID_2_);}
	.st16{fill:#2CAAE1;}
	.st17{fill-rule:evenodd;clip-rule:evenodd;fill:#BCBCBC;}
	.st18{fill:#638CB1;}
	.st19{fill:#CA3C27;}
	.st20{fill:#CB2027;}
	.st21{fill:#303030;}
	.st22{fill:#33373D;}
	.st23{fill:#00A8E1;}
	.st24{fill:#065897;}
	.st25{fill:#3D5B99;}
	.st26{fill:#3F729B;}
	.st27{fill:#75C044;}
	.st28{fill:#A52F23;}
	.st29{fill:#0BBADF;}
	.st30{fill:#A72822;}
	.st31{fill:#DC2726;}
	.st32{fill:#4064AF;}
	.st33{fill:url(#soundcloud_2_);}
	.st34{fill:#45556B;}
]]>
</style>
<path id="soundcloud_1_" class="st11" d="M1.1,54.3c-0.2,0-0.4,0.2-0.4,0.4L0,60.2l0.7,5.5c0,0.2,0.2,0.4,0.4,0.4
	c0.2,0,0.4-0.2,0.4-0.4l0,0v0c0,0,0,0,0,0l0.9-5.5l-0.9-5.6C1.5,54.4,1.3,54.3,1.1,54.3z M5.2,51.2c0-0.2-0.2-0.4-0.4-0.4
	c-0.2,0-0.4,0.2-0.4,0.4c0,0-1,9-1,9l1,8.8c0,0.2,0.2,0.4,0.4,0.4c0.2,0,0.4-0.2,0.4-0.4l1.1-8.8L5.2,51.2z M20.7,42.9
	c-0.4,0-0.7,0.3-0.8,0.7l-0.8,16.5L20,70.9c0,0.4,0.4,0.7,0.8,0.7c0.4,0,0.7-0.3,0.8-0.7v0l0.9-10.7l-0.9-16.5
	C21.5,43.3,21.1,42.9,20.7,42.9z M12.7,48.7c-0.3,0-0.6,0.2-0.6,0.6l-0.9,10.9l0.9,10.6c0,0.3,0.3,0.6,0.6,0.6
	c0.3,0,0.6-0.2,0.6-0.6l1-10.6l-1-11C13.3,48.9,13,48.7,12.7,48.7z M28.9,71.6c0.5,0,0.9-0.4,0.9-0.9l0.8-10.5l-0.8-22
	c0-0.5-0.4-0.9-0.9-0.9c-0.5,0-0.9,0.4-0.9,0.9c0,0-0.7,22-0.7,22L28,70.7C28,71.2,28.4,71.6,28.9,71.6z M45.6,71.7
	c0.7,0,1.3-0.6,1.3-1.3v0v0l0.5-10.2l-0.5-25.4c0-0.7-0.6-1.3-1.3-1.3c-0.7,0-1.3,0.6-1.3,1.3l-0.5,25.4c0,0,0.5,10.2,0.5,10.2
	C44.3,71.1,44.9,71.7,45.6,71.7z M37.2,71.6c0.6,0,1.1-0.5,1.1-1.1v0l0.7-10.3l-0.7-22.2c0-0.6-0.5-1.1-1.1-1.1
	c-0.6,0-1.1,0.5-1.1,1.1l-0.6,22.2l0.6,10.3C36.1,71.2,36.6,71.6,37.2,71.6z M16.7,71.5c0.4,0,0.6-0.3,0.7-0.7l0.9-10.7L17.4,50
	c0-0.4-0.3-0.7-0.7-0.7c-0.4,0-0.6,0.3-0.7,0.7l-0.8,10.2L16,70.9C16.1,71.3,16.3,71.5,16.7,71.5z M8.8,71c0.3,0,0.5-0.2,0.5-0.5
	l1.1-10.3L9.3,49.6c0-0.3-0.2-0.5-0.5-0.5c-0.3,0-0.5,0.2-0.5,0.5L7.3,60.2l0.9,10.3C8.3,70.8,8.5,71,8.8,71z M41.3,37.7
	c-0.7,0-1.2,0.5-1.2,1.2l-0.5,21.3l0.5,10.3c0,0.7,0.5,1.2,1.2,1.2c0.6,0,1.2-0.5,1.2-1.2v0l0.6-10.3l-0.6-21.4
	C42.5,38.2,42,37.7,41.3,37.7z M24.8,71.7c0.4,0,0.8-0.4,0.8-0.8l0.8-10.6l-0.8-20.3c0-0.5-0.4-0.8-0.8-0.8c-0.5,0-0.8,0.4-0.8,0.8
	c0,0-0.7,20.3-0.7,20.3L24,70.8C24,71.3,24.3,71.7,24.8,71.7z M34,70.7L34,70.7l0.7-10.4L34,37.5c0-0.6-0.5-1-1-1c-0.5,0-1,0.4-1,1
	l-0.6,22.7L32,70.7c0,0.6,0.5,1,1,1C33.6,71.7,34,71.2,34,70.7L34,70.7z M87.7,47.1c-1.7,0-3.3,0.3-4.8,1C82,37,72.7,28.3,61.3,28.3
	c-2.8,0-5.5,0.5-7.9,1.5c-0.9,0.4-1.2,0.7-1.2,1.4v39c0,0.8,0.6,1.4,1.3,1.5c0,0,33.9,0,34.1,0c6.8,0,12.3-5.5,12.3-12.3
	C100,52.6,94.5,47.1,87.7,47.1z M49.8,31.2c-0.7,0-1.3,0.6-1.4,1.4l-0.6,27.7l0.6,10.1c0,0.7,0.6,1.3,1.4,1.3c0.7,0,1.3-0.6,1.4-1.4
	v0l0.6-10.1l-0.6-27.7C51.1,31.8,50.5,31.2,49.8,31.2z"/>
</svg>
