<?xml version="1.0" encoding="utf-8"?>
<!-- Generator: Adobe Illustrator 16.0.0, SVG Export Plug-In . SVG Version: 6.00 Build 0)  -->
<!DOCTYPE svg PUBLIC "-//W3C//DTD SVG 1.1//EN" "http://www.w3.org/Graphics/SVG/1.1/DTD/svg11.dtd">
<svg version="1.1" id="socialicious" xmlns="http://www.w3.org/2000/svg" xmlns:xlink="http://www.w3.org/1999/xlink" x="0px"
	 y="0px" width="100px" height="100px" viewBox="0 0 100 100" style="enable-background:new 0 0 100 100;" xml:space="preserve">
<style type="text/css">
<![CDATA[
	.st0{fill:#464342;}
	.st1{fill:#E04B26;}
	.st2{fill:#E74B24;}
	.st3{fill:#E94C88;}
	.st4{fill:#1AB6EA;}
	.st5{fill:#EA2429;}
	.st6{fill:#EC1E82;}
	.st7{fill:#B9B9BA;}
	.st8{fill:#EE3E53;}
	.st9{fill:#EE4977;}
	.st10{fill:#5496D0;}
	.st11{fill:#BBBBBB;}
	.st12{fill:#BCBCBC;}
	.st13{fill:#F16722;}
	.st14{fill:#5A471C;}
	.st15{fill:url(#SVGID_1_);}
	.st16{fill:url(#SVGID_2_);}
	.st17{fill:#2AA9E0;}
	.st18{fill-rule:evenodd;clip-rule:evenodd;fill:#BBBBBB;}
	.st19{fill-rule:evenodd;clip-rule:evenodd;fill:#BCBCBC;}
	.st20{fill:#C93C27;}
	.st21{fill:#638BB0;}
	.st22{fill:#CA2027;}
	.st23{fill:#30302F;}
	.st24{fill:#34373D;}
	.st25{fill:#00405D;}
	.st26{fill:#007EE5;}
	.st27{fill:#00A8E1;}
	.st28{fill-rule:evenodd;clip-rule:evenodd;fill:#FFFFFF;}
	.st29{fill:#035795;}
	.st30{fill:#3C5A97;}
	.st31{fill:#3F64AE;}
	.st32{fill:#3F729B;}
	.st33{fill:#A42F23;}
	.st34{fill:#75C044;}
	.st35{fill:#A72723;}
	.st36{fill:#DB2726;}
	.st37{fill:#DD3333;}
	.st38{fill:url(#soundcloud_2_);}
	.st39{fill:#442D86;}
	.st40{fill:#44556B;}
]]>
</style>
<g id="lastfm">
	<path class="st12" d="M44.1,71.7l-3.7-10c0,0-6,6.6-14.9,6.6c-7.9,0-13.5-6.9-13.5-17.9c0-14.1,7.1-19.1,14.1-19.1
		c10.1,0,13.3,6.5,16,14.9l3.7,11.5c3.7,11.1,10.5,20,30.4,20c14.2,0,23.8-4.4,23.8-15.8c0-9.3-5.3-14.1-15.1-16.4L77.6,44
		c-5-1.1-6.5-3.2-6.5-6.6c0-3.9,3.1-6.2,8.1-6.2c5.5,0,8.5,2.1,8.9,7l11.5-1.4c-0.9-10.3-8-14.5-19.7-14.5
		c-10.3,0-20.4,3.9-20.4,16.4c0,7.8,3.8,12.7,13.3,15l7.8,1.8c5.8,1.4,7.8,3.8,7.8,7.1c0,4.2-4.1,6-11.9,6
		c-11.6,0-16.4-6.1-19.1-14.4l-3.8-11.5C48.7,27.7,41,22.2,25.8,22.2C8.9,22.2,0,32.9,0,51c0,17.4,8.9,26.8,25,26.8
		C37.9,77.8,44.1,71.7,44.1,71.7L44.1,71.7z"/>
</g>
</svg>
