<?xml version="1.0" encoding="utf-8"?>
<!-- Generator: Adobe Illustrator 16.0.0, SVG Export Plug-In . SVG Version: 6.00 Build 0)  -->
<!DOCTYPE svg PUBLIC "-//W3C//DTD SVG 1.1//EN" "http://www.w3.org/Graphics/SVG/1.1/DTD/svg11.dtd">
<svg version="1.1" id="socialicious" xmlns="http://www.w3.org/2000/svg" xmlns:xlink="http://www.w3.org/1999/xlink" x="0px"
	 y="0px" width="100px" height="100px" viewBox="0 0 100 100" style="enable-background:new 0 0 100 100;" xml:space="preserve">
<style type="text/css">
<![CDATA[
	.st0{fill:#464342;}
	.st1{fill:#E14C26;}
	.st2{fill:#E84C24;}
	.st3{fill:#EA4C89;}
	.st4{fill:#EB2629;}
	.st5{fill:#ED1E83;}
	.st6{fill:#1FB7EA;}
	.st7{fill:#EF3F53;}
	.st8{fill:#5597D1;}
	.st9{fill:#8B2C8E;}
	.st10{fill:#BBBBBB;}
	.st11{fill:#BCBCBC;}
	.st12{fill:#F26722;}
	.st13{fill:#5A481C;}
	.st14{fill:url(#SVGID_1_);}
	.st15{fill:url(#SVGID_2_);}
	.st16{fill:#2CAAE1;}
	.st17{fill-rule:evenodd;clip-rule:evenodd;fill:#BCBCBC;}
	.st18{fill:#638CB1;}
	.st19{fill:#CA3C27;}
	.st20{fill:#CB2027;}
	.st21{fill:#303030;}
	.st22{fill:#33373D;}
	.st23{fill:#00A8E1;}
	.st24{fill:#065897;}
	.st25{fill:#3D5B99;}
	.st26{fill:#3F729B;}
	.st27{fill:#75C044;}
	.st28{fill:#A52F23;}
	.st29{fill:#0BBADF;}
	.st30{fill:#A72822;}
	.st31{fill:#DC2726;}
	.st32{fill:#4064AF;}
	.st33{fill:url(#soundcloud_2_);}
	.st34{fill:#45556B;}
]]>
</style>
<g id="youtube">
	<path class="st17" d="M29,22.2v15.1h5.6V22.2L41.3,0h-5.7l-3.8,14.7L27.9,0H22c1.2,3.5,2.4,6.9,3.6,10.4
		C27.4,15.6,28.5,19.6,29,22.2z"/>
	<path class="st17" d="M48.8,37.8c2.5,0,4.5-1,5.9-2.9c1.1-1.4,1.6-3.6,1.6-6.6v-9.8c0-3-0.5-5.2-1.6-6.6c-1.4-1.9-3.4-2.9-5.9-2.9
		c-2.5,0-4.5,1-5.9,2.9c-1.1,1.4-1.6,3.6-1.6,6.6v9.8c0,3,0.5,5.2,1.6,6.6C44.4,36.8,46.3,37.8,48.8,37.8z M46.4,17.6
		c0-2.6,0.8-3.9,2.4-3.9c1.6,0,2.4,1.3,2.4,3.9v11.7c0,2.6-0.8,3.9-2.4,3.9c-1.6,0-2.4-1.3-2.4-3.9V17.6z"/>
	<path class="st17" d="M64.2,37.8c1.8,0,3.8-1.1,5.8-3.4v3H75V9.5h-5.1v21.3c-1.1,1.6-2.2,2.4-3.2,2.4c-0.7,0-1.1-0.4-1.2-1.2
		c-0.1-0.2-0.1-0.8-0.1-2V9.5h-5v22c0,2,0.2,3.3,0.4,4.1C61.4,37.1,62.5,37.8,64.2,37.8z"/>
	<path class="st17" d="M77.7,65.7c-1.7,0-2.5,1.3-2.5,3.8V72h5v-2.5C80.2,66.9,79.3,65.7,77.7,65.7z"/>
	<path class="st17" d="M59.1,65.7c-0.8,0-1.7,0.4-2.5,1.2v16.8c0.8,0.8,1.7,1.2,2.5,1.2c1.4,0,2.2-1.2,2.2-3.7V69.4
		C61.3,66.9,60.6,65.7,59.1,65.7z"/>
	<path class="st17" d="M89.9,51.7c-1-4.4-4.6-7.6-8.9-8.1c-10.3-1.1-20.6-1.2-31-1.1c-10.3,0-20.7,0-31,1.1
		c-4.3,0.5-7.9,3.7-8.9,8.1c-1.4,6.3-1.5,13.1-1.5,19.5c0,6.4,0,13.3,1.4,19.5c1,4.4,4.6,7.6,8.9,8.1c10.2,1.1,20.6,1.1,31,1.1
		c10.3,0,20.7,0,31-1.1c4.3-0.5,7.9-3.7,8.9-8.1c1.4-6.3,1.4-13.1,1.4-19.5C91.3,64.7,91.3,57.9,89.9,51.7z M32.2,57.3h-6v31.8h-5.6
		V57.3h-5.9v-5.2h17.4V57.3z M47.3,89.1h-5v-3c-2,2.3-3.9,3.4-5.7,3.4c-1.6,0-2.7-0.7-3.2-2.1c-0.3-0.8-0.4-2.1-0.4-4.1V61.5h5v20.3
		c0,1.2,0,1.8,0,1.9c0.1,0.8,0.5,1.2,1.2,1.2c1,0,2-0.8,3.2-2.3V61.5h5V89.1z M66.3,80.8c0,2.5-0.2,4.4-0.5,5.6
		c-0.7,2.1-2,3.1-4,3.1c-1.8,0-3.5-1-5.2-3.1v2.7h-5v-37h5v12.1c1.6-2,3.3-3,5.2-3c2,0,3.3,1,4,3.1c0.3,1.1,0.5,2.9,0.5,5.5V80.8z
		 M85.2,76.2h-10v4.9c0,2.6,0.8,3.8,2.5,3.8c1.2,0,1.9-0.7,2.2-2c0-0.3,0.1-1.4,0.1-3.4h5.1v0.7c0,1.6-0.1,2.7-0.1,3.2
		c-0.2,1.1-0.6,2.1-1.2,3c-1.4,2-3.4,3-6,3c-2.6,0-4.6-0.9-6-2.8c-1.1-1.4-1.6-3.6-1.6-6.5v-9.7c0-2.9,0.5-5.1,1.5-6.5
		c1.4-1.9,3.4-2.8,6-2.8c2.5,0,4.5,0.9,5.9,2.8c1,1.4,1.5,3.5,1.5,6.5V76.2z"/>
</g>
</svg>
