<?xml version="1.0" encoding="utf-8"?>
<!-- Generator: Adobe Illustrator 16.0.0, SVG Export Plug-In . SVG Version: 6.00 Build 0)  -->
<!DOCTYPE svg PUBLIC "-//W3C//DTD SVG 1.1//EN" "http://www.w3.org/Graphics/SVG/1.1/DTD/svg11.dtd">
<svg version="1.1" id="socialicious" xmlns="http://www.w3.org/2000/svg" xmlns:xlink="http://www.w3.org/1999/xlink" x="0px"
	 y="0px" width="100px" height="100px" viewBox="0 0 100 100" style="enable-background:new 0 0 100 100;" xml:space="preserve">
<style type="text/css">
<![CDATA[
	.st0{fill:#464342;}
	.st1{fill:#E14C26;}
	.st2{fill:#E84C24;}
	.st3{fill:#EA4C89;}
	.st4{fill:#EB2629;}
	.st5{fill:#ED1E83;}
	.st6{fill:#1FB7EA;}
	.st7{fill:#EF3F53;}
	.st8{fill:#5597D1;}
	.st9{fill:#8B2C8E;}
	.st10{fill:#BBBBBB;}
	.st11{fill:#BCBCBC;}
	.st12{fill:#F26722;}
	.st13{fill:#5A481C;}
	.st14{fill:url(#SVGID_1_);}
	.st15{fill:url(#SVGID_2_);}
	.st16{fill:#2CAAE1;}
	.st17{fill-rule:evenodd;clip-rule:evenodd;fill:#BCBCBC;}
	.st18{fill:#638CB1;}
	.st19{fill:#CA3C27;}
	.st20{fill:#CB2027;}
	.st21{fill:#303030;}
	.st22{fill:#33373D;}
	.st23{fill:#00A8E1;}
	.st24{fill:#065897;}
	.st25{fill:#3D5B99;}
	.st26{fill:#3F729B;}
	.st27{fill:#75C044;}
	.st28{fill:#A52F23;}
	.st29{fill:#0BBADF;}
	.st30{fill:#A72822;}
	.st31{fill:#DC2726;}
	.st32{fill:#4064AF;}
	.st33{fill:url(#soundcloud_2_);}
	.st34{fill:#45556B;}
]]>
</style>
<g id="linkedin_1_">
	<linearGradient id="SVGID_1_" gradientUnits="userSpaceOnUse" x1="54.7051" y1="45.5078" x2="54.791" y2="45.5078">
		<stop  offset="0" style="stop-color:#016699"/>
		<stop  offset="1" style="stop-color:#016699"/>
	</linearGradient>
	<path class="st14" d="M54.8,45.6v-0.1C54.8,45.5,54.7,45.5,54.8,45.6L54.8,45.6z"/>
	<linearGradient id="SVGID_2_" gradientUnits="userSpaceOnUse" x1="0" y1="50" x2="100" y2="50">
		<stop  offset="0" style="stop-color:#016699"/>
		<stop  offset="1" style="stop-color:#016699"/>
	</linearGradient>
	<path class="st15" d="M89.2,0H10.8C4.8,0,0,4.8,0,10.8v78.4c0,6,4.8,10.8,10.8,10.8h78.4c6,0,10.8-4.8,10.8-10.8V10.8
		C100,4.8,95.2,0,89.2,0z M34.2,79.7H20.9v-40h13.3V79.7z M27.5,34.3L27.5,34.3c-4.5,0-7.4-3.1-7.4-6.9c0-3.9,3-6.9,7.5-6.9
		c4.5,0,7.3,3,7.4,6.9C35,31.3,32.1,34.3,27.5,34.3z M82.1,79.7H68.8V58.4c0-5.4-1.9-9-6.7-9c-3.7,0-5.9,2.5-6.8,4.9
		c-0.4,0.9-0.4,2-0.4,3.2v22.3H41.5c0,0,0.2-36.2,0-40h13.3v5.7c1.8-2.7,4.9-6.6,12-6.6c8.7,0,15.3,5.7,15.3,18V79.7z"/>
</g>
</svg>
