<?xml version="1.0" encoding="utf-8"?>
<!-- Generator: Adobe Illustrator 16.0.0, SVG Export Plug-In . SVG Version: 6.00 Build 0)  -->
<!DOCTYPE svg PUBLIC "-//W3C//DTD SVG 1.1//EN" "http://www.w3.org/Graphics/SVG/1.1/DTD/svg11.dtd">
<svg version="1.1" id="socialicious" xmlns="http://www.w3.org/2000/svg" xmlns:xlink="http://www.w3.org/1999/xlink" x="0px"
	 y="0px" width="100px" height="100px" viewBox="0 0 100 100" style="enable-background:new 0 0 100 100;" xml:space="preserve">
<style type="text/css">
<![CDATA[
	.st0{fill:#464342;}
	.st1{fill:#E04B26;}
	.st2{fill:#E74B24;}
	.st3{fill:#E94C88;}
	.st4{fill:#1AB6EA;}
	.st5{fill:#EA2429;}
	.st6{fill:#EC1E82;}
	.st7{fill:#B9B9BA;}
	.st8{fill:#EE3E53;}
	.st9{fill:#EE4977;}
	.st10{fill:#5496D0;}
	.st11{fill:#BBBBBB;}
	.st12{fill:#BCBCBC;}
	.st13{fill:#F16722;}
	.st14{fill:#5A471C;}
	.st15{fill:url(#SVGID_1_);}
	.st16{fill:url(#SVGID_2_);}
	.st17{fill:#2AA9E0;}
	.st18{fill-rule:evenodd;clip-rule:evenodd;fill:#BBBBBB;}
	.st19{fill-rule:evenodd;clip-rule:evenodd;fill:#BCBCBC;}
	.st20{fill:#C93C27;}
	.st21{fill:#638BB0;}
	.st22{fill:#CA2027;}
	.st23{fill:#30302F;}
	.st24{fill:#34373D;}
	.st25{fill:#00405D;}
	.st26{fill:#007EE5;}
	.st27{fill:#00A8E1;}
	.st28{fill-rule:evenodd;clip-rule:evenodd;fill:#FFFFFF;}
	.st29{fill:#035795;}
	.st30{fill:#3C5A97;}
	.st31{fill:#3F64AE;}
	.st32{fill:#3F729B;}
	.st33{fill:#A42F23;}
	.st34{fill:#75C044;}
	.st35{fill:#A72723;}
	.st36{fill:#DB2726;}
	.st37{fill:#DD3333;}
	.st38{fill:url(#soundcloud_2_);}
	.st39{fill:#442D86;}
	.st40{fill:#44556B;}
]]>
</style>
<g id="wordpress">
	<g>
		<path class="st12" d="M9.8,50c0,15.9,9.2,29.7,22.7,36.2L13.3,33.6C11.1,38.6,9.8,44.2,9.8,50z"/>
		<path class="st12" d="M77.1,48c0-5-1.8-8.4-3.3-11.1c-2-3.3-3.9-6.1-3.9-9.4c0-3.7,2.8-7.1,6.7-7.1c0.2,0,0.3,0,0.5,0
			C70,13.8,60.5,9.8,50,9.8c-14,0-26.4,7.2-33.6,18.1c0.9,0,1.8,0,2.6,0c4.2,0,10.7-0.5,10.7-0.5c2.2-0.1,2.4,3.1,0.3,3.3
			c0,0-2.2,0.3-4.6,0.4L40,74.7l8.8-26.4l-6.3-17.2c-2.2-0.1-4.2-0.4-4.2-0.4c-2.2-0.1-1.9-3.4,0.3-3.3c0,0,6.6,0.5,10.6,0.5
			c4.2,0,10.7-0.5,10.7-0.5c2.2-0.1,2.4,3.1,0.3,3.3c0,0-2.2,0.3-4.6,0.4l14.5,43.2l4-13.4C75.8,55.4,77.1,51.4,77.1,48z"/>
		<path class="st12" d="M50.7,53.5l-12.1,35c3.6,1.1,7.4,1.6,11.4,1.6c4.7,0,9.2-0.8,13.3-2.3c-0.1-0.2-0.2-0.4-0.3-0.6L50.7,53.5z"
			/>
		<path class="st12" d="M50,0C22.4,0,0,22.4,0,50c0,27.6,22.4,50,50,50c27.6,0,50-22.4,50-50C100,22.4,77.6,0,50,0z M50,94.7
			C25.4,94.7,5.3,74.6,5.3,50c0-24.6,20-44.7,44.7-44.7c24.6,0,44.7,20,44.7,44.7C94.7,74.6,74.6,94.7,50,94.7z"/>
		<path class="st12" d="M85.3,30.7c0.2,1.3,0.3,2.7,0.3,4.1c0,4.1-0.8,8.7-3.1,14.4L70.2,84.7c11.9-7,20-19.9,20-34.7
			C90.2,43,88.4,36.4,85.3,30.7z"/>
	</g>
</g>
</svg>
