<?xml version="1.0" encoding="utf-8"?>
<!-- Generator: Adobe Illustrator 16.0.0, SVG Export Plug-In . SVG Version: 6.00 Build 0)  -->
<!DOCTYPE svg PUBLIC "-//W3C//DTD SVG 1.1//EN" "http://www.w3.org/Graphics/SVG/1.1/DTD/svg11.dtd">
<svg version="1.1" id="socialicious" xmlns="http://www.w3.org/2000/svg" xmlns:xlink="http://www.w3.org/1999/xlink" x="0px"
	 y="0px" width="100px" height="100px" viewBox="0 0 100 100" style="enable-background:new 0 0 100 100;" xml:space="preserve">
<style type="text/css">
<![CDATA[
	.st0{fill:#464342;}
	.st1{fill:#E14C26;}
	.st2{fill:#E84C24;}
	.st3{fill:#EA4C89;}
	.st4{fill:#EB2629;}
	.st5{fill:#ED1E83;}
	.st6{fill:#1FB7EA;}
	.st7{fill:#EF3F53;}
	.st8{fill:#5597D1;}
	.st9{fill:#8B2C8E;}
	.st10{fill:#BBBBBB;}
	.st11{fill:#BCBCBC;}
	.st12{fill:#F26722;}
	.st13{fill:#5A481C;}
	.st14{fill:url(#SVGID_1_);}
	.st15{fill:url(#SVGID_2_);}
	.st16{fill:#2CAAE1;}
	.st17{fill-rule:evenodd;clip-rule:evenodd;fill:#BCBCBC;}
	.st18{fill:#638CB1;}
	.st19{fill:#CA3C27;}
	.st20{fill:#CB2027;}
	.st21{fill:#303030;}
	.st22{fill:#33373D;}
	.st23{fill:#00A8E1;}
	.st24{fill:#065897;}
	.st25{fill:#3D5B99;}
	.st26{fill:#3F729B;}
	.st27{fill:#75C044;}
	.st28{fill:#A52F23;}
	.st29{fill:#0BBADF;}
	.st30{fill:#A72822;}
	.st31{fill:#DC2726;}
	.st32{fill:#4064AF;}
	.st33{fill:url(#soundcloud_2_);}
	.st34{fill:#45556B;}
]]>
</style>
<g>
	<g>
		<path class="st11" d="M29.8,21.8c0,1.2,0,6.1,0,6.1h8.8c0,0,1.1,0,1.1-1.2c0-1.2,0-6.1,0-6.1h-8.8C30.9,20.6,29.8,20.6,29.8,21.8z
			 M29.8,34.5c0,1.2,0,33.1,0,33.1h8.8c0,0,1.1,0,1.1-1.2c0-0.3,0-33.1,0-33.1h-8.8C30.9,33.3,29.8,33.3,29.8,34.5z M16.8,21.8v11.5
			H1.1c0,0-1.1,0-1.1,1.2v33.1h25.6c0,0,1.1,0,1.1-1.2c0-1.2,0-45.8,0-45.8H18C18,20.6,16.8,20.6,16.8,21.8z M16.8,59
			c0,1.3-1.1,1.2-1.1,1.2h-6V41.9c0-1.3,1.1-1.2,1.1-1.2h6L16.8,59L16.8,59z M43.1,34.5v33.1h16.8V72H44.2c0,0-1.1,0-1.1,1.2
			c0,1.2,0,6.1,0,6.1h25.6c0,0,1.1,0,1.1-1.2c0-1.2,0-44.8,0-44.8l-25.6,0C44.2,33.3,43.1,33.3,43.1,34.5z M52.8,41.9
			c0-1.3,1.1-1.2,1.1-1.2h6V59c0,1.3-1.1,1.2-1.1,1.2h-6V41.9z M74.4,33.3c0,0-1.1,0-1.1,1.2v33.1h16.8V72H74.4c0,0-1.1,0-1.1,1.2
			c0,1.2,0,6.1,0,6.1h25.6c0,0,1.1,0,1.1-1.2c0-1.2,0-44.8,0-44.8L74.4,33.3z M90.1,59c0,1.3-1.1,1.2-1.1,1.2h-6V41.9
			c0-1.3,1.1-1.2,1.1-1.2h6V59z"/>
	</g>
</g>
</svg>
