<?xml version="1.0" encoding="utf-8"?>
<!-- Generator: Adobe Illustrator 16.0.0, SVG Export Plug-In . SVG Version: 6.00 Build 0)  -->
<!DOCTYPE svg PUBLIC "-//W3C//DTD SVG 1.1//EN" "http://www.w3.org/Graphics/SVG/1.1/DTD/svg11.dtd">
<svg version="1.1" id="socialicious" xmlns="http://www.w3.org/2000/svg" xmlns:xlink="http://www.w3.org/1999/xlink" x="0px"
	 y="0px" width="100px" height="100px" viewBox="0 0 100 100" style="enable-background:new 0 0 100 100;" xml:space="preserve">
<style type="text/css">
<![CDATA[
	.st0{fill:#464342;}
	.st1{fill:#E04B26;}
	.st2{fill:#E74B24;}
	.st3{fill:#E94C88;}
	.st4{fill:#1AB6EA;}
	.st5{fill:#EA2429;}
	.st6{fill:#EC1E82;}
	.st7{fill:#B9B9BA;}
	.st8{fill:#EE3E53;}
	.st9{fill:#EE4977;}
	.st10{fill:#5496D0;}
	.st11{fill:#BBBBBB;}
	.st12{fill:#BCBCBC;}
	.st13{fill:#F16722;}
	.st14{fill:#5A471C;}
	.st15{fill:url(#SVGID_1_);}
	.st16{fill:url(#SVGID_2_);}
	.st17{fill:#2AA9E0;}
	.st18{fill-rule:evenodd;clip-rule:evenodd;fill:#BBBBBB;}
	.st19{fill-rule:evenodd;clip-rule:evenodd;fill:#BCBCBC;}
	.st20{fill:#C93C27;}
	.st21{fill:#638BB0;}
	.st22{fill:#CA2027;}
	.st23{fill:#30302F;}
	.st24{fill:#34373D;}
	.st25{fill:#00405D;}
	.st26{fill:#007EE5;}
	.st27{fill:#00A8E1;}
	.st28{fill-rule:evenodd;clip-rule:evenodd;fill:#FFFFFF;}
	.st29{fill:#035795;}
	.st30{fill:#3C5A97;}
	.st31{fill:#3F64AE;}
	.st32{fill:#3F729B;}
	.st33{fill:#A42F23;}
	.st34{fill:#75C044;}
	.st35{fill:#A72723;}
	.st36{fill:#DB2726;}
	.st37{fill:#DD3333;}
	.st38{fill:url(#soundcloud_2_);}
	.st39{fill:#442D86;}
	.st40{fill:#44556B;}
]]>
</style>
<path class="st12" d="M14.9,71c0,11.8,9.9,22.7,20.5,26.7c4,1.5,8.2,2.3,12.4,2.3c23,0,37.3-17.3,37.3-39.6c0-8.4-1.3-16-10.7-18.3
	c2.3-6.4,8.9-24.8,8.9-30.7c0-5.2-3.1-9.5-8.5-9.5c-8.7,0-16.4,25.7-18.9,31.9C54,28.1,45.1,0,37.3,0c-6.1,0-8.9,4.5-8.9,10.1
	c0,6.3,6.8,25,9.1,31.6c-1.2-0.4-2.6-0.8-3.9-0.8c-4.6,0-10.2,5.7-10.2,10.3c0,1.7,0.9,4.2,1.6,5.8C17.7,58.9,14.9,63.7,14.9,71z
	 M21.3,70.5c0-2.9,1.9-7.5,5.4-7.5c2.2,0,11.4,11.8,11.4,14.3c0,0.9-1.5,1.6-2.3,1.6c-3,0-5.8-3.6-7.4-5.8c-1.1-1.5-2.2-2.8-3.3-4.2
	c-1.1,1.1-1.8,2.1-1.8,3.7c0,6.1,8,13.2,14,13.2c3.9,0,7.5-3,7.5-7c0-0.4,0-0.8-0.1-1.2c0.7,0,1.6,0.1,2.3-0.1
	c0.2,5.3,1.8,11.6,8.1,12.1c0-0.2,0.4-1.4,0.4-1.5c0-3.4-2.1-6.4-2.1-9.8c0-5.5,4.2-10.9,8.5-14c1.6-1.2,3.3-1.9,5.2-2.6
	c1.9-0.7,3.9-1.6,5.4-3c-0.1-1.1-0.3-2.2-1.1-3.1c-0.7-0.8-1.2-1.1-2.2-1.1c-5.4,0-23.4,0.8-23.4-7.8c0-0.6,0-1.7,0.7-2
	c0.6-0.6,2-0.6,2.7-0.6c6.3,0,22.2,1.6,26.9,5.7c2.5,2.2,2.4,7.2,2.4,10.3c0,8.9-2.5,17.1-8.5,23.8c-5.7,6.2-12.8,9.5-21.3,9.5
	c-11.6,0-21.5-6.4-25.9-17.2C21.9,74.4,21.3,72.5,21.3,70.5z M30.1,51.8c0-1.5,2.5-4.1,4-4.1c4.6,0,9.9,11.6,11.3,15.3
	c0.5,1.2,1.8,4.4,1.8,5.7c0,1-0.9,2.2-2.1,2.2C41,70.9,30.1,55.9,30.1,51.8z M34.5,9.4c0-1.3,0.7-3.1,2.2-3.1
	c2.9,0,6.1,10.2,6.9,12.3l6.8,19.6c-1.3-0.1-2.8-0.3-4.2-0.3c-0.9,0-2,0.1-2.7,0.6C41.2,32.9,34.5,15.1,34.5,9.4z M50.8,59.4
	c1.9,0.6,3.8,0.8,5.8,1.2c-1.5,1.1-2.7,2.3-4,3.7C52.1,62.7,51.4,61,50.8,59.4z M61.1,39.4l6.4-18.3c0.8-2.4,4.1-12.6,7.3-12.6
	c1.7,0,2.1,1.7,2.1,3.1c0,3.7-7.5,24.3-9.2,28.9L61.1,39.4z"/>
</svg>
