<?xml version="1.0" encoding="utf-8"?>
<!-- Generator: Adobe Illustrator 16.0.0, SVG Export Plug-In . SVG Version: 6.00 Build 0)  -->
<!DOCTYPE svg PUBLIC "-//W3C//DTD SVG 1.1//EN" "http://www.w3.org/Graphics/SVG/1.1/DTD/svg11.dtd">
<svg version="1.1" id="socialicious" xmlns="http://www.w3.org/2000/svg" xmlns:xlink="http://www.w3.org/1999/xlink" x="0px"
	 y="0px" width="100px" height="100px" viewBox="0 0 100 100" style="enable-background:new 0 0 100 100;" xml:space="preserve">
<style type="text/css">
<![CDATA[
	.st0{fill:#464342;}
	.st1{fill:#E14C26;}
	.st2{fill:#E84C24;}
	.st3{fill:#EA4C89;}
	.st4{fill:#EB2629;}
	.st5{fill:#ED1E83;}
	.st6{fill:#1FB7EA;}
	.st7{fill:#EF3F53;}
	.st8{fill:#5597D1;}
	.st9{fill:#8B2C8E;}
	.st10{fill:#BBBBBB;}
	.st11{fill:#BCBCBC;}
	.st12{fill:#F26722;}
	.st13{fill:#5A481C;}
	.st14{fill:url(#SVGID_1_);}
	.st15{fill:url(#SVGID_2_);}
	.st16{fill:#2CAAE1;}
	.st17{fill-rule:evenodd;clip-rule:evenodd;fill:#BCBCBC;}
	.st18{fill:#638CB1;}
	.st19{fill:#CA3C27;}
	.st20{fill:#CB2027;}
	.st21{fill:#303030;}
	.st22{fill:#33373D;}
	.st23{fill:#00A8E1;}
	.st24{fill:#065897;}
	.st25{fill:#3D5B99;}
	.st26{fill:#3F729B;}
	.st27{fill:#75C044;}
	.st28{fill:#A52F23;}
	.st29{fill:#0BBADF;}
	.st30{fill:#A72822;}
	.st31{fill:#DC2726;}
	.st32{fill:#4064AF;}
	.st33{fill:url(#soundcloud_2_);}
	.st34{fill:#45556B;}
]]>
</style>
<path id="pinterest_1_" class="st20" d="M89.2,0H10.8C4.8,0,0,4.8,0,10.8v78.4c0,6,4.8,10.8,10.8,10.8h78.4c6,0,10.8-4.8,10.8-10.8
	V10.8C100,4.8,95.2,0,89.2,0z M55.8,67.2c-4.2,0-8.2-2.3-9.5-4.9c0,0-2.3,9-2.7,10.7c-1.7,6.1-6.7,12.3-7.1,12.8
	c-0.3,0.3-0.9,0.2-0.9-0.2c-0.1-0.8-1.4-8.5,0.1-14.8c0.7-3.2,5-21.3,5-21.3s-1.2-2.5-1.2-6.2c0-5.8,3.4-10.1,7.5-10.1
	c3.6,0,5.3,2.7,5.3,5.9c0,3.6-2.3,8.9-3.4,13.9c-1,4.1,2.1,7.5,6.2,7.5c7.4,0,12.4-9.5,12.4-20.8c0-8.6-5.8-15-16.2-15
	c-11.8,0-19.2,8.8-19.2,18.7c0,3.4,1,5.8,2.6,7.7c0.7,0.9,0.8,1.2,0.6,2.2c-0.2,0.7-0.6,2.4-0.8,3.1c-0.3,1-1.1,1.3-2,1
	c-5.5-2.2-8-8.2-8-14.9c0-11.1,9.4-24.4,27.9-24.4c14.9,0,24.7,10.8,24.7,22.4C76.9,55.8,68.4,67.2,55.8,67.2z"/>
</svg>
