<?xml version="1.0" encoding="utf-8"?>
<!-- Generator: Adobe Illustrator 16.0.0, SVG Export Plug-In . SVG Version: 6.00 Build 0)  -->
<!DOCTYPE svg PUBLIC "-//W3C//DTD SVG 1.1//EN" "http://www.w3.org/Graphics/SVG/1.1/DTD/svg11.dtd">
<svg version="1.1" id="socialicious" xmlns="http://www.w3.org/2000/svg" xmlns:xlink="http://www.w3.org/1999/xlink" x="0px"
	 y="0px" width="100px" height="100px" viewBox="0 0 100 100" style="enable-background:new 0 0 100 100;" xml:space="preserve">
<style type="text/css">
<![CDATA[
	.st0{fill:#464342;}
	.st1{fill:#E14C26;}
	.st2{fill:#E84C24;}
	.st3{fill:#EA4C89;}
	.st4{fill:#EB2629;}
	.st5{fill:#ED1E83;}
	.st6{fill:#1FB7EA;}
	.st7{fill:#EF3F53;}
	.st8{fill:#5597D1;}
	.st9{fill:#8B2C8E;}
	.st10{fill:#BBBBBB;}
	.st11{fill:#BCBCBC;}
	.st12{fill:#F26722;}
	.st13{fill:#5A481C;}
	.st14{fill:url(#SVGID_1_);}
	.st15{fill:url(#SVGID_2_);}
	.st16{fill:#2CAAE1;}
	.st17{fill-rule:evenodd;clip-rule:evenodd;fill:#BCBCBC;}
	.st18{fill:#638CB1;}
	.st19{fill:#CA3C27;}
	.st20{fill:#CB2027;}
	.st21{fill:#303030;}
	.st22{fill:#33373D;}
	.st23{fill:#00A8E1;}
	.st24{fill:#065897;}
	.st25{fill:#3D5B99;}
	.st26{fill:#3F729B;}
	.st27{fill:#75C044;}
	.st28{fill:#A52F23;}
	.st29{fill:#0BBADF;}
	.st30{fill:#A72822;}
	.st31{fill:#DC2726;}
	.st32{fill:#4064AF;}
	.st33{fill:url(#soundcloud_2_);}
	.st34{fill:#45556B;}
]]>
</style>
<g id="lastfm">
	<path class="st11" d="M44.1,71.7l-3.7-10c0,0-6,6.6-14.9,6.6c-7.9,0-13.5-6.9-13.5-17.9c0-14.1,7.1-19.1,14.1-19.1
		c10.1,0,13.3,6.5,16,14.9l3.7,11.5c3.7,11.1,10.5,20,30.4,20c14.2,0,23.8-4.4,23.8-15.8c0-9.3-5.3-14.1-15.1-16.4L77.6,44
		c-5-1.1-6.5-3.2-6.5-6.6c0-3.9,3.1-6.2,8.1-6.2c5.5,0,8.5,2.1,8.9,7l11.5-1.4c-0.9-10.3-8-14.5-19.7-14.5
		c-10.3,0-20.4,3.9-20.4,16.4c0,7.8,3.8,12.7,13.3,15l7.8,1.8c5.8,1.4,7.8,3.8,7.8,7.1c0,4.2-4.1,6-11.9,6
		c-11.6,0-16.4-6.1-19.1-14.4l-3.8-11.5C48.7,27.7,41,22.2,25.8,22.2C8.9,22.2,0,32.9,0,51c0,17.4,8.9,26.8,25,26.8
		C37.9,77.8,44.1,71.7,44.1,71.7L44.1,71.7z"/>
</g>
</svg>
