<?xml version="1.0" encoding="utf-8"?>
<!-- Generator: Adobe Illustrator 16.0.0, SVG Export Plug-In . SVG Version: 6.00 Build 0)  -->
<!DOCTYPE svg PUBLIC "-//W3C//DTD SVG 1.1//EN" "http://www.w3.org/Graphics/SVG/1.1/DTD/svg11.dtd">
<svg version="1.1" id="socialicious" xmlns="http://www.w3.org/2000/svg" xmlns:xlink="http://www.w3.org/1999/xlink" x="0px"
	 y="0px" width="100px" height="100px" viewBox="0 0 100 100" style="enable-background:new 0 0 100 100;" xml:space="preserve">
<style type="text/css">
<![CDATA[
	.st0{fill:#464342;}
	.st1{fill:#E14C26;}
	.st2{fill:#E84C24;}
	.st3{fill:#EA4C89;}
	.st4{fill:#EB2629;}
	.st5{fill:#ED1E83;}
	.st6{fill:#1FB7EA;}
	.st7{fill:#EF3F53;}
	.st8{fill:#5597D1;}
	.st9{fill:#8B2C8E;}
	.st10{fill:#BBBBBB;}
	.st11{fill:#BCBCBC;}
	.st12{fill:#F26722;}
	.st13{fill:#5A481C;}
	.st14{fill:url(#SVGID_1_);}
	.st15{fill:url(#SVGID_2_);}
	.st16{fill:#2CAAE1;}
	.st17{fill-rule:evenodd;clip-rule:evenodd;fill:#BCBCBC;}
	.st18{fill:#638CB1;}
	.st19{fill:#CA3C27;}
	.st20{fill:#CB2027;}
	.st21{fill:#303030;}
	.st22{fill:#33373D;}
	.st23{fill:#00A8E1;}
	.st24{fill:#065897;}
	.st25{fill:#3D5B99;}
	.st26{fill:#3F729B;}
	.st27{fill:#75C044;}
	.st28{fill:#A52F23;}
	.st29{fill:#0BBADF;}
	.st30{fill:#A72822;}
	.st31{fill:#DC2726;}
	.st32{fill:#4064AF;}
	.st33{fill:url(#soundcloud_2_);}
	.st34{fill:#45556B;}
]]>
</style>
<g id="yahoo_1_">
	<polygon class="st17" points="89.8,77.8 79.6,76.6 80.7,67.6 90.9,68.8 89.8,77.8 	"/>
	<polygon class="st17" points="100,23.4 82.5,21.3 82.6,61.8 90.2,62.8 100,23.4 	"/>
	<path class="st17" d="M64.8,30.5c-7-5.3-16.1-7.9-27.1-7.9c-11.1,0-20.2,2.6-27.1,7.9C3.5,35.7,0,42.4,0,50.7
		c0,8.4,3.5,15.2,10.6,20.4c5.7,4.3,13,6.9,21.6,7.6h11c8.6-0.7,15.8-3.3,21.7-7.6c6.9-5.2,10.4-12,10.4-20.4
		C75.3,42.4,71.7,35.7,64.8,30.5z M59.6,43.8l-5.3,1.1c-0.8,0.2-3,1.8-6.7,4.9c-4,3.2-6,5.2-6.4,6.2L41,58.9l-0.1,1.7l0.5,4.3l7,0.1
		l-0.1,2.2H36.8l-10.2,0.1l0.3-2l3.3-0.1c1.7-0.1,2.7-0.3,3.1-0.7c0.2-0.2,0.3-1.6,0.3-4V59l-0.1-3c-0.2-0.7-2-3.2-5.6-7.5
		c-3.6-4.4-6-7-7.2-7.9l-6.6-0.9v-1.9c0.3-0.2,4-0.2,10.7-0.1c4.7-0.1,8.5-0.1,11.6,0.1l-0.2,1.6L29.3,40c2.2,3.2,5.4,7.6,9.9,13.2
		c5.8-4.4,8.9-7.3,9-8.5l-5.9-0.9l-0.5-2h9.9l9.3,0.1L59.6,43.8z"/>
</g>
</svg>
