<?xml version="1.0" encoding="utf-8"?>
<!-- Generator: Adobe Illustrator 16.0.0, SVG Export Plug-In . SVG Version: 6.00 Build 0)  -->
<!DOCTYPE svg PUBLIC "-//W3C//DTD SVG 1.1//EN" "http://www.w3.org/Graphics/SVG/1.1/DTD/svg11.dtd">
<svg version="1.1" id="socialicious" xmlns="http://www.w3.org/2000/svg" xmlns:xlink="http://www.w3.org/1999/xlink" x="0px"
	 y="0px" width="100px" height="100px" viewBox="0 0 100 100" style="enable-background:new 0 0 100 100;" xml:space="preserve">
<style type="text/css">
<![CDATA[
	.st0{fill:#464342;}
	.st1{fill:#E14C26;}
	.st2{fill:#E84C24;}
	.st3{fill:#EA4C89;}
	.st4{fill:#EB2629;}
	.st5{fill:#ED1E83;}
	.st6{fill:#1FB7EA;}
	.st7{fill:#EF3F53;}
	.st8{fill:#5597D1;}
	.st9{fill:#8B2C8E;}
	.st10{fill:#BBBBBB;}
	.st11{fill:#BCBCBC;}
	.st12{fill:#F26722;}
	.st13{fill:#5A481C;}
	.st14{fill:url(#SVGID_1_);}
	.st15{fill:url(#SVGID_2_);}
	.st16{fill:#2CAAE1;}
	.st17{fill-rule:evenodd;clip-rule:evenodd;fill:#BCBCBC;}
	.st18{fill:#638CB1;}
	.st19{fill:#CA3C27;}
	.st20{fill:#CB2027;}
	.st21{fill:#303030;}
	.st22{fill:#33373D;}
	.st23{fill:#00A8E1;}
	.st24{fill:#065897;}
	.st25{fill:#3D5B99;}
	.st26{fill:#3F729B;}
	.st27{fill:#75C044;}
	.st28{fill:#A52F23;}
	.st29{fill:#0BBADF;}
	.st30{fill:#A72822;}
	.st31{fill:#DC2726;}
	.st32{fill:#4064AF;}
	.st33{fill:url(#soundcloud_2_);}
	.st34{fill:#45556B;}
]]>
</style>
<path id="spotify" class="st11" d="M100,50c0-27.6-22.4-50-50-50C22.4,0,0,22.4,0,50c0,27.6,22.4,50,50,50C77.6,100,100,77.6,100,50
	z M25.2,53.7c-2,0.6-4.2-0.5-4.8-2.5c-0.6-2,0.5-4.2,2.5-4.8c17.8-5.4,39.9-2.8,55,6.5c1.8,1.1,2.4,3.5,1.3,5.2
	c-1.1,1.8-3.5,2.4-5.3,1.3C60.8,51.3,40.7,48.9,25.2,53.7z M73.2,71.5c-0.9,1.4-2.8,1.9-4.2,1c-11.5-7-26-8.6-43-4.7
	c-1.6,0.4-3.3-0.7-3.7-2.3c-0.4-1.6,0.6-3.3,2.3-3.7c18.7-4.3,34.7-2.4,47.6,5.5C73.7,68.1,74.1,70,73.2,71.5z M20.2,29.6
	c17.3-5.3,46.1-4.2,64.3,6.5c2.2,1.3,2.9,4.1,1.6,6.3c-1.3,2.2-4.1,2.9-6.3,1.6C64,34.6,37.9,33.8,22.8,38.4c-2.4,0.7-5-0.6-5.7-3.1
	C16.4,32.9,17.7,30.3,20.2,29.6z"/>
</svg>
