<?xml version="1.0" encoding="utf-8"?>
<!-- Generator: Adobe Illustrator 16.0.0, SVG Export Plug-In . SVG Version: 6.00 Build 0)  -->
<!DOCTYPE svg PUBLIC "-//W3C//DTD SVG 1.1//EN" "http://www.w3.org/Graphics/SVG/1.1/DTD/svg11.dtd">
<svg version="1.1" id="socialicious" xmlns="http://www.w3.org/2000/svg" xmlns:xlink="http://www.w3.org/1999/xlink" x="0px"
	 y="0px" width="100px" height="100px" viewBox="0 0 100 100" style="enable-background:new 0 0 100 100;" xml:space="preserve">
<style type="text/css">
<![CDATA[
	.st0{fill:#464342;}
	.st1{fill:#E14C26;}
	.st2{fill:#E84C24;}
	.st3{fill:#EA4C89;}
	.st4{fill:#EB2629;}
	.st5{fill:#ED1E83;}
	.st6{fill:#1FB7EA;}
	.st7{fill:#EF3F53;}
	.st8{fill:#5597D1;}
	.st9{fill:#8B2C8E;}
	.st10{fill:#BBBBBB;}
	.st11{fill:#BCBCBC;}
	.st12{fill:#F26722;}
	.st13{fill:#5A481C;}
	.st14{fill:url(#SVGID_1_);}
	.st15{fill:url(#SVGID_2_);}
	.st16{fill:#2CAAE1;}
	.st17{fill-rule:evenodd;clip-rule:evenodd;fill:#BCBCBC;}
	.st18{fill:#638CB1;}
	.st19{fill:#CA3C27;}
	.st20{fill:#CB2027;}
	.st21{fill:#303030;}
	.st22{fill:#33373D;}
	.st23{fill:#00A8E1;}
	.st24{fill:#065897;}
	.st25{fill:#3D5B99;}
	.st26{fill:#3F729B;}
	.st27{fill:#75C044;}
	.st28{fill:#A52F23;}
	.st29{fill:#0BBADF;}
	.st30{fill:#A72822;}
	.st31{fill:#DC2726;}
	.st32{fill:#4064AF;}
	.st33{fill:url(#soundcloud_2_);}
	.st34{fill:#45556B;}
]]>
</style>
<g id="yahoo">
	<path class="st9" d="M89.2,0H10.8C4.8,0,0,4.8,0,10.8v78.4c0,6,4.8,10.8,10.8,10.8h78.4c6,0,10.8-4.8,10.8-10.8V10.8
		C100,4.8,95.2,0,89.2,0z M61.9,64.2c-4.3,3.2-9.5,5-15.8,5.5h-8c-6.3-0.5-11.6-2.4-15.7-5.5c-5.1-3.8-7.7-8.8-7.7-14.9
		c0-6,2.6-10.9,7.7-14.7c5-3.9,11.7-5.8,19.8-5.8c8,0,14.6,1.9,19.8,5.8c5,3.8,7.6,8.7,7.6,14.7C69.5,55.4,67,60.4,61.9,64.2z
		 M80.1,69.1l-7.4-0.9l0.8-6.5l7.4,0.9L80.1,69.1z M80.5,58.2l-5.5-0.7l-0.1-29.5l12.7,1.6L80.5,58.2z"/>
	<path class="st9" d="M45.1,42.8l0.3,1.5l4.3,0.7c-0.1,0.9-2.3,3-6.5,6.2c-3.2-4.1-5.6-7.3-7.2-9.6l5-0.5l0.2-1.2
		c-2.2-0.2-5-0.2-8.4-0.1c-4.9-0.1-7.5-0.1-7.8,0.1v1.4l4.8,0.7c0.8,0.7,2.6,2.6,5.2,5.8c2.6,3.1,3.9,5,4.1,5.5l0.1,2.1v1.1
		c0,1.7-0.1,2.7-0.2,2.9c-0.2,0.2-1,0.4-2.2,0.5l-2.4,0.1l-0.2,1.5l7.4-0.1h8.4l0.1-1.6l-5.1-0.1l-0.3-3.1l0.1-1.2l0.2-2.1
		c0.2-0.7,1.7-2.2,4.6-4.5c2.7-2.2,4.3-3.4,4.9-3.6l3.9-0.8l1-1.4l-6.8-0.1H45.1z"/>
</g>
</svg>
