<?xml version="1.0" encoding="utf-8"?>
<!-- Generator: Adobe Illustrator 16.0.0, SVG Export Plug-In . SVG Version: 6.00 Build 0)  -->
<!DOCTYPE svg PUBLIC "-//W3C//DTD SVG 1.1//EN" "http://www.w3.org/Graphics/SVG/1.1/DTD/svg11.dtd">
<svg version="1.1" id="socialicious" xmlns="http://www.w3.org/2000/svg" xmlns:xlink="http://www.w3.org/1999/xlink" x="0px"
	 y="0px" width="100px" height="100px" viewBox="0 0 100 100" style="enable-background:new 0 0 100 100;" xml:space="preserve">
<style type="text/css">
<![CDATA[
	.st0{fill:#464342;}
	.st1{fill:#E04B26;}
	.st2{fill:#E74B24;}
	.st3{fill:#E94C88;}
	.st4{fill:#1AB6EA;}
	.st5{fill:#EA2429;}
	.st6{fill:#EC1E82;}
	.st7{fill:#B9B9BA;}
	.st8{fill:#EE3E53;}
	.st9{fill:#EE4977;}
	.st10{fill:#5496D0;}
	.st11{fill:#BBBBBB;}
	.st12{fill:#BCBCBC;}
	.st13{fill:#F16722;}
	.st14{fill:#5A471C;}
	.st15{fill:url(#SVGID_1_);}
	.st16{fill:url(#SVGID_2_);}
	.st17{fill:#2AA9E0;}
	.st18{fill-rule:evenodd;clip-rule:evenodd;fill:#BBBBBB;}
	.st19{fill-rule:evenodd;clip-rule:evenodd;fill:#BCBCBC;}
	.st20{fill:#C93C27;}
	.st21{fill:#638BB0;}
	.st22{fill:#CA2027;}
	.st23{fill:#30302F;}
	.st24{fill:#34373D;}
	.st25{fill:#00405D;}
	.st26{fill:#007EE5;}
	.st27{fill:#00A8E1;}
	.st28{fill-rule:evenodd;clip-rule:evenodd;fill:#FFFFFF;}
	.st29{fill:#035795;}
	.st30{fill:#3C5A97;}
	.st31{fill:#3F64AE;}
	.st32{fill:#3F729B;}
	.st33{fill:#A42F23;}
	.st34{fill:#75C044;}
	.st35{fill:#A72723;}
	.st36{fill:#DB2726;}
	.st37{fill:#DD3333;}
	.st38{fill:url(#soundcloud_2_);}
	.st39{fill:#442D86;}
	.st40{fill:#44556B;}
]]>
</style>
<path class="st18" d="M87,98.1c-3.3,1-4.4-0.3-5.3-3.4c-5.4-17.8-11-35.5-16.8-54c-0.3,2.4-0.7,4.4-0.8,6.3
	c-0.6,10.8-1,21.6-1.6,32.3c-0.1,2.5-0.4,5.3-1.5,7.5c-0.8,1.6-2.8,3.1-4.6,3.6c-2.6,0.8-5.5,0.3-8.1,1c-6.6,2-10.2-1.4-13.2-6.6
	c-3.7-6.3-7.7-12.5-11.5-18.8c-0.3,0-0.5,0-0.8,0C23.4,72,24,77.7,25,83.4c0.5,3.3-0.8,5.3-3.7,6.5c-0.6,0.3-1.2,0.6-1.8,0.9
	C6.7,95.6,4.2,93.9,2.1,80.6c-2.9-19.3-2.2-38.6-1.5-58c0-1.1,1.3-2.7,2.4-3.2c2.1-1,4.5-1.5,6.9-1.9c9.4-1.6,11.9-0.3,16.3,8.1
	c4.4,8.3,8.7,16.7,13.1,25.1c0.6,1.1,1.3,2.2,2.2,3.7c2-9.3,3.3-18,5.7-26.5c2.3-8,5.5-15.8,8.7-23.5C56.5,3,59,1.6,60.7,1.6
	c4.6,0,9.5-0.2,13.7,1.3c2.5,0.9,5,4.5,5.8,7.4c2.9,10,5.2,20.2,7.5,30.4c4.1,17.8,8.1,35.6,12.2,54C96.2,95.7,91.6,96.8,87,98.1
	L87,98.1z"/>
</svg>
