<?xml version="1.0" encoding="utf-8"?>
<!-- Generator: Adobe Illustrator 16.0.0, SVG Export Plug-In . SVG Version: 6.00 Build 0)  -->
<!DOCTYPE svg PUBLIC "-//W3C//DTD SVG 1.1//EN" "http://www.w3.org/Graphics/SVG/1.1/DTD/svg11.dtd">
<svg version="1.1" id="socialicious" xmlns="http://www.w3.org/2000/svg" xmlns:xlink="http://www.w3.org/1999/xlink" x="0px"
	 y="0px" width="100px" height="100px" viewBox="0 0 100 100" style="enable-background:new 0 0 100 100;" xml:space="preserve">
<style type="text/css">
<![CDATA[
	.st0{fill:#464342;}
	.st1{fill:#E04B26;}
	.st2{fill:#E74B24;}
	.st3{fill:#E94C88;}
	.st4{fill:#1AB6EA;}
	.st5{fill:#EA2429;}
	.st6{fill:#EC1E82;}
	.st7{fill:#B9B9BA;}
	.st8{fill:#EE3E53;}
	.st9{fill:#EE4977;}
	.st10{fill:#5496D0;}
	.st11{fill:#BBBBBB;}
	.st12{fill:#BCBCBC;}
	.st13{fill:#F16722;}
	.st14{fill:#5A471C;}
	.st15{fill:url(#SVGID_1_);}
	.st16{fill:url(#SVGID_2_);}
	.st17{fill:#2AA9E0;}
	.st18{fill-rule:evenodd;clip-rule:evenodd;fill:#BBBBBB;}
	.st19{fill-rule:evenodd;clip-rule:evenodd;fill:#BCBCBC;}
	.st20{fill:#C93C27;}
	.st21{fill:#638BB0;}
	.st22{fill:#CA2027;}
	.st23{fill:#30302F;}
	.st24{fill:#34373D;}
	.st25{fill:#00405D;}
	.st26{fill:#007EE5;}
	.st27{fill:#00A8E1;}
	.st28{fill-rule:evenodd;clip-rule:evenodd;fill:#FFFFFF;}
	.st29{fill:#035795;}
	.st30{fill:#3C5A97;}
	.st31{fill:#3F64AE;}
	.st32{fill:#3F729B;}
	.st33{fill:#A42F23;}
	.st34{fill:#75C044;}
	.st35{fill:#A72723;}
	.st36{fill:#DB2726;}
	.st37{fill:#DD3333;}
	.st38{fill:url(#soundcloud_2_);}
	.st39{fill:#442D86;}
	.st40{fill:#44556B;}
]]>
</style>
<g>
	<path class="st9" d="M56.3,18.2c-1.4,0-35.1,0-35.1,0c-1.6,0-2.7,1.4-2.7,2.7v54.3c0,0.2,0.1,0.2,0.3,0.1c0,0,12.9-15.5,14.4-17.3
		c1.4-1.8,2.1-2.1,4.2-2.1c0,0,10.4,0,11.8,0c1.6,0,2.5-1.4,2.7-2.1c0.2-0.8,1.5-8,1.8-9.4c0.3-1.4-1-2.9-2.4-2.9
		c-1.4,0-14.5,0-14.5,0c-1.9,0-3.3-1.4-3.3-3.3V36c0-1.9,1.4-3.2,3.3-3.2c0,0,15.8,0,17,0c1.2,0,2.5-1.1,2.7-2.1l1.8-9.6
		C58.8,19.4,57.6,18.2,56.3,18.2z"/>
	<path class="st9" d="M89.2,0H10.8C4.8,0,0,4.8,0,10.8v78.4c0,6,4.8,10.8,10.8,10.8h78.4c6,0,10.8-4.8,10.8-10.8V10.8
		C100,4.8,95.2,0,89.2,0z M67.8,19.6l-2.7,13.5c-2.2,11.1-4.8,24.1-5.1,25.4c-0.6,2.4-1.5,6.4-7.1,6.4c-4.3,0-12.3,0-13.4,0
		c-0.5,0-0.5,0-1.1,0.5c-0.4,0.4-21,24.3-21,24.3c-1.6,1.9-4.3,1.5-5.3,1.1c-1-0.4-2.7-1.6-2.7-4.8c0,0,0-66.7,0-69.5
		c0-2.9,1.8-7.4,7.8-7.4c6,0,43.8,0,43.8,0C67.5,9.2,69.2,12.8,67.8,19.6z"/>
</g>
</svg>
