<?xml version="1.0" encoding="utf-8"?>
<!-- Generator: Adobe Illustrator 15.1.0, SVG Export Plug-In . SVG Version: 6.00 Build 0)  -->
<!DOCTYPE svg PUBLIC "-//W3C//DTD SVG 1.1//EN" "http://www.w3.org/Graphics/SVG/1.1/DTD/svg11.dtd">
<svg version="1.1"
	 id="svg17317" xmlns:dc="http://purl.org/dc/elements/1.1/" xmlns:cc="http://creativecommons.org/ns#" xmlns:rdf="http://www.w3.org/1999/02/22-rdf-syntax-ns#" xmlns:svg="http://www.w3.org/2000/svg" xmlns:sodipodi="http://sodipodi.sourceforge.net/DTD/sodipodi-0.dtd" xmlns:inkscape="http://www.inkscape.org/namespaces/inkscape" sodipodi:docname="stackexchange.svg" inkscape:version="0.91 r13725"
	 xmlns="http://www.w3.org/2000/svg" xmlns:xlink="http://www.w3.org/1999/xlink" x="0px" y="0px" width="125px" height="125px"
	 viewBox="0 0 125 125" enable-background="new 0 0 125 125" xml:space="preserve">
<sodipodi:namedview  id="namedview17319" inkscape:cy="67.587279" inkscape:cx="59.351123" inkscape:zoom="5.3400704" showgrid="false" guidetolerance="10" gridtolerance="10" objecttolerance="10" borderopacity="1" bordercolor="#666666" pagecolor="#ffffff" inkscape:window-maximized="1" inkscape:current-layer="layer10" inkscape:window-y="-8" inkscape:window-x="-8" inkscape:window-height="705" inkscape:window-width="1366" inkscape:pageshadow="2" inkscape:pageopacity="0">
	</sodipodi:namedview>
<g id="layer10" inkscape:label="merged" inkscape:groupmode="layer">
	<g>
		<defs>
			<polygon id="SVGID_1_" points="11.477,78.657 56.513,78.657 36.277,104.914 -8.757,104.914 			"/>
		</defs>
		<clipPath id="SVGID_2_">
			<use xlink:href="#SVGID_1_"  overflow="visible"/>
		</clipPath>
		
			<path id="path4364" inkscape:connector-curvature="0" sodipodi:nodetypes="sssssss" opacity="0.859" clip-path="url(#SVGID_2_)" fill="#4563A0" enable-background="new    " d="
			M33.766,95.946h56.724c6.524,0,15.225-7.971,15.225-17.87s-5.252-17.87-11.776-17.87H30.81c-6.525,0-11.778,7.97-11.778,17.87
			S27.241,95.946,33.766,95.946z"/>
	</g>
	<g>
		<defs>
			<rect id="SVGID_3_" x="61.212" y="64.353" width="36.693" height="61.834"/>
		</defs>
		<defs>
			<rect id="SVGID_4_" x="21.733" y="95.908" width="71.062" height="29.425"/>
		</defs>
		<defs>
			<polygon id="SVGID_5_" points="62.373,120.796 36.428,96.976 62.373,73.154 88.318,96.976 			"/>
		</defs>
		<clipPath id="SVGID_6_">
			<use xlink:href="#SVGID_3_"  overflow="visible"/>
		</clipPath>
		<clipPath id="SVGID_7_" clip-path="url(#SVGID_6_)">
			<use xlink:href="#SVGID_4_"  overflow="visible"/>
		</clipPath>
		<clipPath id="SVGID_8_" clip-path="url(#SVGID_7_)">
			<use xlink:href="#SVGID_5_"  overflow="visible"/>
		</clipPath>
		
			<path id="rect18006" inkscape:connector-curvature="0" opacity="0.859" clip-path="url(#SVGID_8_)" fill="#1F5296" fill-opacity="0.9412" enable-background="new    " d="
			M86.653,94.46l-23.689,21.653l5.735-29.12L92.39,65.34L86.653,94.46z"/>
	</g>
	<g>
		<defs>
			<rect id="SVGID_9_" x="11.966" y="-1.187" width="102.7" height="26.789"/>
		</defs>
		<clipPath id="SVGID_10_">
			<use xlink:href="#SVGID_9_"  overflow="visible"/>
		</clipPath>
		
			<path id="rect17867" inkscape:connector-curvature="0" sodipodi:nodetypes="sssssss" opacity="0.859" clip-path="url(#SVGID_10_)" fill="#8ED5EB" enable-background="new    " d="
			M33.93,9.528h56.723c6.525,0,15.062,7.468,15.062,16.743c0,9.276-5.252,16.743-11.776,16.743H30.81
			c-6.525,0-11.778-7.467-11.778-16.743C19.032,16.997,27.405,9.528,33.93,9.528z"/>
	</g>
	<g>
		<defs>
			<rect id="SVGID_11_" x="11.966" y="18.772" width="102.7" height="29.575"/>
		</defs>
		<clipPath id="SVGID_12_">
			<use xlink:href="#SVGID_11_"  overflow="visible"/>
		</clipPath>
		
			<path id="rect17867-3" inkscape:connector-curvature="0" sodipodi:nodetypes="ccccc" opacity="0.859" clip-path="url(#SVGID_12_)" fill="#4BA2D9" enable-background="new    " d="
			M90.096,30.602h15.618V67.57H62.69L90.096,30.602z"/>
	</g>
	<g>
		<defs>
			<rect id="SVGID_13_" x="11.966" y="42.701" width="102.7" height="29.577"/>
		</defs>
		<clipPath id="SVGID_14_">
			<use xlink:href="#SVGID_13_"  overflow="visible"/>
		</clipPath>
		
			<path id="rect17867-3-6" inkscape:connector-curvature="0" sodipodi:nodetypes="ccccc" opacity="0.859" clip-path="url(#SVGID_14_)" fill="#356EB6" enable-background="new    " d="
			M73.374,54.531h32.34V91.5H45.506L73.374,54.531z"/>
	</g>
	<g>
		<defs>
			<rect id="SVGID_15_" x="11.966" y="18.772" width="102.7" height="29.575"/>
		</defs>
		<clipPath id="SVGID_16_">
			<use xlink:href="#SVGID_15_"  overflow="visible"/>
		</clipPath>
		
			<path id="path4248" inkscape:connector-curvature="0" sodipodi:nodetypes="ccccc" opacity="0.859" clip-path="url(#SVGID_16_)" fill="#69ACDE" enable-background="new    " d="
			M19.032,30.602h71.355L62.521,67.57H19.032V30.602z"/>
	</g>
	<g>
		<defs>
			<rect id="SVGID_17_" x="11.966" y="42.701" width="102.7" height="29.577"/>
		</defs>
		<clipPath id="SVGID_18_">
			<use xlink:href="#SVGID_17_"  overflow="visible"/>
		</clipPath>
		
			<path id="path4250" inkscape:connector-curvature="0" sodipodi:nodetypes="ccccc" opacity="0.859" clip-path="url(#SVGID_18_)" fill="#557CBE" enable-background="new    " d="
			M19.032,54.531h54.636L45.334,91.5H19.032V54.531z"/>
	</g>
	<g>
		<defs>
			<rect id="SVGID_19_" x="11.966" y="42.701" width="102.7" height="29.577"/>
		</defs>
		<clipPath id="SVGID_20_">
			<use xlink:href="#SVGID_19_"  overflow="visible"/>
		</clipPath>
		
			<path id="path4349" inkscape:connector-curvature="0" sodipodi:nodetypes="ccccc" opacity="0.859" clip-path="url(#SVGID_20_)" fill="#356EB6" enable-background="new    " d="
			M73.374,54.531h32.34V91.5H45.506L73.374,54.531z"/>
	</g>
	<g>
		<defs>
			<rect id="SVGID_21_" x="11.966" y="42.701" width="102.7" height="29.577"/>
		</defs>
		<clipPath id="SVGID_22_">
			<use xlink:href="#SVGID_21_"  overflow="visible"/>
		</clipPath>
		
			<path id="path4351" inkscape:connector-curvature="0" sodipodi:nodetypes="ccccc" opacity="0.859" clip-path="url(#SVGID_22_)" fill="#557CBE" enable-background="new    " d="
			M19.032,54.531h54.636L45.334,91.5H19.032V54.531z"/>
	</g>
	<g>
		<defs>
			<polygon id="SVGID_23_" points="56.498,78.503 112.079,78.503 86.381,111.926 30.8,111.926 			"/>
		</defs>
		<clipPath id="SVGID_24_">
			<use xlink:href="#SVGID_23_"  overflow="visible"/>
		</clipPath>
		
			<path id="path4358" inkscape:connector-curvature="0" sodipodi:nodetypes="sssssss" opacity="0.859" clip-path="url(#SVGID_24_)" fill="#1F5296" enable-background="new    " d="
			M33.122,95.946h57.08c6.566,0,15.498-8.051,15.715-18.051c0.216-10.001-4.895-18.051-11.461-18.051H30.932
			c-6.566,0-12.027,8.05-12.244,18.051C18.471,87.896,26.556,95.946,33.122,95.946z"/>
	</g>
</g>
</svg>
