<?xml version="1.0" encoding="utf-8"?>
<!-- Generator: Adobe Illustrator 16.0.0, SVG Export Plug-In . SVG Version: 6.00 Build 0)  -->
<!DOCTYPE svg PUBLIC "-//W3C//DTD SVG 1.1//EN" "http://www.w3.org/Graphics/SVG/1.1/DTD/svg11.dtd">
<svg version="1.1" id="socialicious" xmlns="http://www.w3.org/2000/svg" xmlns:xlink="http://www.w3.org/1999/xlink" x="0px"
	 y="0px" width="100px" height="100px" viewBox="0 0 100 100" style="enable-background:new 0 0 100 100;" xml:space="preserve">
<style type="text/css">
<![CDATA[
	.st0{fill:#464342;}
	.st1{fill:#E04B26;}
	.st2{fill:#E74B24;}
	.st3{fill:#E94C88;}
	.st4{fill:#1AB6EA;}
	.st5{fill:#EA2429;}
	.st6{fill:#EC1E82;}
	.st7{fill:#B9B9BA;}
	.st8{fill:#EE3E53;}
	.st9{fill:#EE4977;}
	.st10{fill:#5496D0;}
	.st11{fill:#BBBBBB;}
	.st12{fill:#BCBCBC;}
	.st13{fill:#F16722;}
	.st14{fill:#5A471C;}
	.st15{fill:url(#SVGID_1_);}
	.st16{fill:url(#SVGID_2_);}
	.st17{fill:#2AA9E0;}
	.st18{fill-rule:evenodd;clip-rule:evenodd;fill:#BBBBBB;}
	.st19{fill-rule:evenodd;clip-rule:evenodd;fill:#BCBCBC;}
	.st20{fill:#C93C27;}
	.st21{fill:#638BB0;}
	.st22{fill:#CA2027;}
	.st23{fill:#30302F;}
	.st24{fill:#34373D;}
	.st25{fill:#00405D;}
	.st26{fill:#007EE5;}
	.st27{fill:#00A8E1;}
	.st28{fill-rule:evenodd;clip-rule:evenodd;fill:#FFFFFF;}
	.st29{fill:#035795;}
	.st30{fill:#3C5A97;}
	.st31{fill:#3F64AE;}
	.st32{fill:#3F729B;}
	.st33{fill:#A42F23;}
	.st34{fill:#75C044;}
	.st35{fill:#A72723;}
	.st36{fill:#DB2726;}
	.st37{fill:#DD3333;}
	.st38{fill:url(#soundcloud_2_);}
	.st39{fill:#442D86;}
	.st40{fill:#44556B;}
]]>
</style>
<path id="spotify" class="st12" d="M100,50c0-27.6-22.4-50-50-50C22.4,0,0,22.4,0,50c0,27.6,22.4,50,50,50C77.6,100,100,77.6,100,50
	z M25.2,53.7c-2,0.6-4.2-0.5-4.8-2.5c-0.6-2,0.5-4.2,2.5-4.8c17.8-5.4,39.9-2.8,55,6.5c1.8,1.1,2.4,3.5,1.3,5.2
	c-1.1,1.8-3.5,2.4-5.3,1.3C60.8,51.3,40.7,48.9,25.2,53.7z M73.2,71.5c-0.9,1.4-2.8,1.9-4.2,1c-11.5-7-26-8.6-43-4.7
	c-1.6,0.4-3.3-0.7-3.7-2.3c-0.4-1.6,0.6-3.3,2.3-3.7c18.7-4.3,34.7-2.4,47.6,5.5C73.7,68.1,74.1,70,73.2,71.5z M20.2,29.6
	c17.3-5.3,46.1-4.2,64.3,6.5c2.2,1.3,2.9,4.1,1.6,6.3c-1.3,2.2-4.1,2.9-6.3,1.6C64,34.6,37.9,33.8,22.8,38.4c-2.4,0.7-5-0.6-5.7-3.1
	C16.4,32.9,17.7,30.3,20.2,29.6z"/>
</svg>
