<?xml version="1.0" encoding="utf-8"?>
<!-- Generator: Adobe Illustrator 16.0.0, SVG Export Plug-In . SVG Version: 6.00 Build 0)  -->
<!DOCTYPE svg PUBLIC "-//W3C//DTD SVG 1.1//EN" "http://www.w3.org/Graphics/SVG/1.1/DTD/svg11.dtd">
<svg version="1.1" id="socialicious" xmlns="http://www.w3.org/2000/svg" xmlns:xlink="http://www.w3.org/1999/xlink" x="0px"
	 y="0px" width="100px" height="100px" viewBox="0 0 100 100" style="enable-background:new 0 0 100 100;" xml:space="preserve">
<style type="text/css">
<![CDATA[
	.st0{fill:#464342;}
	.st1{fill:#E04B26;}
	.st2{fill:#E74B24;}
	.st3{fill:#E94C88;}
	.st4{fill:#1AB6EA;}
	.st5{fill:#EA2429;}
	.st6{fill:#EC1E82;}
	.st7{fill:#B9B9BA;}
	.st8{fill:#EE3E53;}
	.st9{fill:#EE4977;}
	.st10{fill:#5496D0;}
	.st11{fill:#BBBBBB;}
	.st12{fill:#BCBCBC;}
	.st13{fill:#F16722;}
	.st14{fill:#5A471C;}
	.st15{fill:url(#SVGID_1_);}
	.st16{fill:url(#SVGID_2_);}
	.st17{fill:#2AA9E0;}
	.st18{fill-rule:evenodd;clip-rule:evenodd;fill:#BBBBBB;}
	.st19{fill-rule:evenodd;clip-rule:evenodd;fill:#BCBCBC;}
	.st20{fill:#C93C27;}
	.st21{fill:#638BB0;}
	.st22{fill:#CA2027;}
	.st23{fill:#30302F;}
	.st24{fill:#34373D;}
	.st25{fill:#00405D;}
	.st26{fill:#007EE5;}
	.st27{fill:#00A8E1;}
	.st28{fill-rule:evenodd;clip-rule:evenodd;fill:#FFFFFF;}
	.st29{fill:#035795;}
	.st30{fill:#3C5A97;}
	.st31{fill:#3F64AE;}
	.st32{fill:#3F729B;}
	.st33{fill:#A42F23;}
	.st34{fill:#75C044;}
	.st35{fill:#A72723;}
	.st36{fill:#DB2726;}
	.st37{fill:#DD3333;}
	.st38{fill:url(#soundcloud_2_);}
	.st39{fill:#442D86;}
	.st40{fill:#44556B;}
]]>
</style>
<g>
	<path class="st39" d="M79.8,44.2c-0.6-0.6-1.3-1.1-2.2-1.4c-0.8-0.3-1.7-0.5-2.7-0.5c-1,0-1.8,0.2-2.7,0.5
		c-0.3,0.1-0.6,0.3-0.9,0.4c-0.4,0.3-0.9,0.6-1.2,1c-0.6,0.6-1.1,1.4-1.4,2.4c-0.3,1-0.5,2.1-0.5,3.4c0,1.3,0.2,2.5,0.5,3.4
		c0.3,0.7,0.6,1.3,1,1.9c0.1,0.2,0.3,0.3,0.4,0.5c0.6,0.6,1.3,1.1,2.2,1.4c0.8,0.3,1.7,0.5,2.7,0.5c1,0,1.9-0.2,2.7-0.5
		c0.3-0.1,0.5-0.2,0.8-0.3c0.5-0.3,1-0.6,1.4-1c0.6-0.6,1.1-1.4,1.4-2.4c0.3-1,0.5-2.1,0.5-3.4s-0.2-2.5-0.5-3.4
		C80.9,45.6,80.4,44.8,79.8,44.2z"/>
	<path class="st39" d="M24.2,52c0.5,0,2.2,0.1,2.7,0.1c0.5,0,2.2,0,2.7-0.1c-1.2-3-2.5-6.4-2.7-7C26.7,45.7,25.4,49,24.2,52z"/>
	<path class="st39" d="M89.2,0H10.8C4.8,0,0,4.8,0,10.8v78.4c0,6,4.8,10.8,10.8,10.8h78.4c6,0,10.8-4.8,10.8-10.8V10.8
		C100,4.8,95.2,0,89.2,0z M16.8,52.1c0,1,0,2,0.1,2.9c0,0.9,0.1,3.5,0.1,4.4c-0.4-0.1-0.8-0.2-1.2-0.2c-0.4,0-0.8,0.1-1.2,0.2
		c0-0.9,0.1-3.5,0.1-4.4c0-0.9,0.1-2,0.1-2.9l0-0.7c-0.1-0.2-0.5-0.9-1.2-2.1c-0.5-0.9-1.1-1.9-1.6-2.8c-0.5-0.9-1.3-2.2-1.8-3
		c-0.6-1-1.1-1.8-1.3-2.2c-0.2-0.3-0.3-0.5-0.5-0.8c0.1,0,0.3,0.1,0.4,0.1c0,0,0.1,0,0.1,0c0.2,0,0.4,0,0.7,0c0.1,0,0.2,0,0.4,0
		c0,0,0.1,0,0.1,0c0.1,0,0.2,0,0.3,0c0.1,0,0.2,0,0.3-0.1c0.1,0,0.1,0,0.2,0c1.1,2,4.8,8,5,8.3c0.2-0.3,3.9-6.3,5-8.3
		c0.4,0.1,0.8,0.2,1.2,0.2c0,0,0.1,0,0.1,0c0.1,0,0.3,0,0.4,0c0.1,0,0.1,0,0.2,0c0.1,0,0.3,0,0.4-0.1c0,0,0.1,0,0.1,0
		c-0.2,0.2-0.3,0.5-0.5,0.8c-0.3,0.4-0.7,1.2-1.3,2.2c-0.5,0.8-1.2,2.1-1.8,3c-0.5,0.9-1.1,1.9-1.6,2.8c-0.4,0.7-0.8,1.4-1.2,2.1
		L16.8,52.1z M34.2,57.5L34.2,57.5c-0.4-0.1-0.8-0.2-1.2-0.2c-0.4,0-0.8,0.1-1.2,0.2c0,0,0,0,0,0c-0.1-0.4-0.9-2.2-1.7-4.4
		c-0.4,0-0.8,0-1.2,0c-0.5,0-1.4,0-1.9,0h0c-0.5,0-1.4,0-1.9,0c-0.4,0-0.8,0-1.2,0c-0.9,2.2-1.6,4-1.7,4.4c-0.4-0.1-0.8-0.2-1.2-0.2
		c-0.4,0-0.9,0.1-1.2,0.2c0-0.1,0.2-0.3,0.2-0.4c1.6-3.1,5-11.6,6-14.1c0.1-0.1,0.1-0.3,0.1-0.3c0,0,0.1,0,0.1,0
		c0.2,0.1,0.5,0.1,0.8,0.1c0.3,0,0.6-0.1,0.9-0.2c0,0,0,0,0,0c0,0.1,0.1,0.2,0.1,0.3c1,2.5,4.4,11,6,14.1
		C34,57.2,34.1,57.4,34.2,57.5L34.2,57.5L34.2,57.5z M46.7,57.3c-0.4,0-0.9,0.1-1.2,0.2c0-0.9,0.1-1.9,0.1-2.8
		c0-0.9,0.1-1.8,0.1-2.8v-1.4h0c-0.7,0-1.3,0-1.9,0c-0.7,0-1.5,0-2.2,0c-0.8,0-1.5,0-2.2,0c-0.6,0-1.3,0-1.9,0v0l0,1.4
		c0,0.9,0,1.9,0.1,2.8c0,0.9,0.1,1.8,0.1,2.8c-0.4-0.1-0.8-0.2-1.2-0.2c-0.4,0-0.9,0.1-1.2,0.2c0-0.9,0.1-1.8,0.1-2.7
		c0-0.9,0.1-1.9,0.1-2.8v-3.7c0-0.9,0-1.9-0.1-2.8c0-0.9-0.1-1.9-0.1-2.9c0.4,0.1,0.8,0.2,1.2,0.2c0.4,0,0.8-0.1,1.2-0.2
		c0,1-0.1,2-0.1,2.9c0,0.9-0.1,1.8-0.1,2.8l0,1.3c0.7,0,1.3,0,1.9,0c0.7,0,1.5,0,2.2,0c0.8,0,1.5,0,2.2,0c0.6,0,1.2,0,1.9,0h0l0-1.3
		c0-0.9,0-1.9-0.1-2.8c0-0.9-0.1-1.9-0.1-2.9l0,0h0c0.4,0.1,0.8,0.2,1.2,0.2c0.4,0,0.8-0.1,1.2-0.2c0,0.9-0.1,2-0.1,2.9
		c0,0.9-0.1,1.8-0.1,2.8v3.7c0,0.9,0,1.9,0.1,2.8c0,0.9,0.1,1.8,0.1,2.7C47.6,57.3,47.1,57.3,46.7,57.3z M64.7,50
		C64.7,50,64.7,50,64.7,50c0,1.2-0.2,2.3-0.6,3.2c-0.4,1-0.9,1.8-1.7,2.4c-0.7,0.7-1.6,1.1-2.5,1.5s-2.1,0.5-3.3,0.5
		c-1.2,0-2.3-0.2-3.2-0.5s-1.8-0.8-2.5-1.5c-0.7-0.7-1.3-1.5-1.7-2.4c-0.4-1-0.6-2-0.6-3.2c0-1.2,0.2-2.3,0.6-3.2
		c0.4-1,0.9-1.8,1.7-2.4c0.7-0.7,1.6-1.2,2.5-1.5c1-0.3,2.1-0.5,3.2-0.5c1.2,0,2.3,0.2,3.3,0.5c1,0.3,1.8,0.8,2.5,1.5
		c0.7,0.7,1.3,1.5,1.7,2.4c0.4,0.9,0.6,1.9,0.6,3.1C64.7,49.9,64.7,50,64.7,50C64.7,50,64.7,50,64.7,50z M83.5,53.7
		c-0.5,1.1-1.1,2-1.9,2.7c-0.2,0.2-0.4,0.3-0.6,0.5c-0.6,0.5-1.3,0.8-2.1,1.1c-0.1,0-0.2,0.1-0.3,0.1c-1.1,0.4-2.4,0.5-3.8,0.5
		c-1.4,0-2.6-0.2-3.7-0.5s-2.1-0.9-2.9-1.6c-0.8-0.7-1.5-1.6-1.9-2.7c-0.5-1.1-0.7-2.3-0.7-3.6c0-1.4,0.2-2.6,0.7-3.6
		c0.5-1.1,1.1-2,1.9-2.7c0.7-0.6,1.5-1.1,2.5-1.5c0.1-0.1,0.3-0.1,0.4-0.2c1.1-0.4,2.4-0.6,3.7-0.6c1.4,0,2.6,0.2,3.8,0.6
		c0,0,0,0,0,0c0,0,0,0,0,0c1.1,0.4,2.1,0.9,2.9,1.7c0.8,0.7,1.5,1.6,1.9,2.7c0.5,1.1,0.7,2.3,0.7,3.6S84,52.6,83.5,53.7z M86.9,58.9
		c-0.1,0.1-0.2,0.2-0.3,0.3c-0.1,0.1-0.3,0.1-0.4,0.2c-0.1,0-0.2,0-0.2,0c-0.1,0-0.2,0-0.3,0c-0.2,0-0.3-0.1-0.5-0.2
		c-0.1-0.1-0.3-0.2-0.3-0.3c-0.1-0.1-0.2-0.3-0.2-0.4c0-0.2,0-0.3,0-0.5c0-0.2,0.1-0.3,0.2-0.5c0.1-0.1,0.2-0.2,0.3-0.3
		c0.1-0.1,0.3-0.1,0.4-0.2c0.1,0,0.2,0,0.2,0s0.2,0,0.3,0c0.2,0,0.3,0.1,0.5,0.2c0.1,0.1,0.3,0.2,0.3,0.3c0.1,0.1,0.2,0.3,0.2,0.4
		c0,0.2,0,0.3,0,0.5C87,58.6,87,58.8,86.9,58.9z M89.6,42.3c0,0-1.1,4.7-1.4,5.8c-0.9,4-1.3,6.6-1.5,7.3c-0.1-0.1-0.3-0.1-0.4-0.1h0
		c-0.2,0-0.3,0-0.5,0c0.1-0.7,0.5-3.3,0.8-7.4c0.1-1.1,0.3-4,0.5-5.8c0,0,0-0.1,0-0.2c0,0,0-0.1,0-0.1c0,0,0,0,0,0s0,0,0,0
		c0,0,0,0,0-0.1c0-0.2,0.1-0.3,0.1-0.4c0.1-0.1,0.2-0.2,0.3-0.3c0.1-0.1,0.3-0.1,0.4-0.2c0.2,0,0.3,0,0.5,0h0c0,0,0,0,0.1,0
		c0.2,0,0.3,0.1,0.4,0.1c0,0,0.1,0.1,0.1,0.1c0,0,0,0,0.1,0c0,0,0,0,0,0c0,0,0.1,0.1,0.1,0.1c0,0,0,0,0,0c0,0,0,0,0,0c0,0,0,0,0,0
		c0,0,0.1,0.1,0.1,0.1c0,0.1,0,0.1,0.1,0.2c0,0,0,0,0,0c0,0,0,0,0,0c0,0,0,0,0,0c0,0.2,0,0.3,0,0.5C89.6,42.2,89.6,42.2,89.6,42.3z"
		/>
	<path class="st39" d="M60.7,44.9c-0.5-0.6-1.1-1-1.8-1.2c-0.7-0.3-1.4-0.4-2.2-0.4c-0.8,0-1.5,0.1-2.2,0.4
		c-0.7,0.3-1.3,0.7-1.8,1.2c-0.5,0.6-0.9,1.3-1.2,2.1c-0.3,0.9-0.4,1.9-0.4,3c0,1.2,0.1,2.2,0.4,3c0.3,0.9,0.7,1.6,1.2,2.1
		c0.5,0.6,1.1,1,1.8,1.2c0.7,0.3,1.4,0.4,2.2,0.4c0.8,0,1.5-0.1,2.2-0.4c0.7-0.3,1.3-0.7,1.8-1.2c0.5-0.6,0.9-1.3,1.2-2.1
		c0.3-0.9,0.4-1.9,0.4-3c0-1.2-0.1-2.2-0.4-3C61.6,46.1,61.2,45.4,60.7,44.9z"/>
	<polygon class="st39" points="31.7,57.5 31.7,57.5 31.7,57.5 	"/>
</g>
</svg>
