<?xml version="1.0" encoding="utf-8"?>
<!-- Generator: Adobe Illustrator 16.0.0, SVG Export Plug-In . SVG Version: 6.00 Build 0)  -->
<!DOCTYPE svg PUBLIC "-//W3C//DTD SVG 1.1//EN" "http://www.w3.org/Graphics/SVG/1.1/DTD/svg11.dtd">
<svg version="1.1" id="socialicious" xmlns="http://www.w3.org/2000/svg" xmlns:xlink="http://www.w3.org/1999/xlink" x="0px"
	 y="0px" width="100px" height="100px" viewBox="0 0 100 100" style="enable-background:new 0 0 100 100;" xml:space="preserve">
<style type="text/css">
<![CDATA[
	.st0{fill:#464342;}
	.st1{fill:#E04B26;}
	.st2{fill:#E74B24;}
	.st3{fill:#E94C88;}
	.st4{fill:#1AB6EA;}
	.st5{fill:#EA2429;}
	.st6{fill:#EC1E82;}
	.st7{fill:#B9B9BA;}
	.st8{fill:#EE3E53;}
	.st9{fill:#EE4977;}
	.st10{fill:#5496D0;}
	.st11{fill:#BBBBBB;}
	.st12{fill:#BCBCBC;}
	.st13{fill:#F16722;}
	.st14{fill:#5A471C;}
	.st15{fill:url(#SVGID_1_);}
	.st16{fill:url(#SVGID_2_);}
	.st17{fill:#2AA9E0;}
	.st18{fill-rule:evenodd;clip-rule:evenodd;fill:#BBBBBB;}
	.st19{fill-rule:evenodd;clip-rule:evenodd;fill:#BCBCBC;}
	.st20{fill:#C93C27;}
	.st21{fill:#638BB0;}
	.st22{fill:#CA2027;}
	.st23{fill:#30302F;}
	.st24{fill:#34373D;}
	.st25{fill:#00405D;}
	.st26{fill:#007EE5;}
	.st27{fill:#00A8E1;}
	.st28{fill-rule:evenodd;clip-rule:evenodd;fill:#FFFFFF;}
	.st29{fill:#035795;}
	.st30{fill:#3C5A97;}
	.st31{fill:#3F64AE;}
	.st32{fill:#3F729B;}
	.st33{fill:#A42F23;}
	.st34{fill:#75C044;}
	.st35{fill:#A72723;}
	.st36{fill:#DB2726;}
	.st37{fill:#DD3333;}
	.st38{fill:url(#soundcloud_2_);}
	.st39{fill:#442D86;}
	.st40{fill:#44556B;}
]]>
</style>
<path id="goodreads_1_" class="st12" d="M72.6,2.5v12h-0.3c-0.8-1.9-1.9-3.7-3.4-5.4c-1.5-1.7-3.2-3.2-5-4.5c-1.9-1.3-4-2.3-6.3-3
	c-2.3-0.7-4.7-1.1-7.3-1.1c-5,0-9.5,0.9-13.4,2.8C33,5.1,29.7,7.6,27,10.8c-2.6,3.2-4.7,6.9-6.1,11.2c-1.4,4.3-2.1,8.8-2.1,13.5
	c0,4.9,0.6,9.6,1.8,13.9c1.2,4.3,3,8.1,5.6,11.4c2.6,3.2,5.8,5.8,9.8,7.6c3.9,1.8,8.7,2.8,14.3,2.8c5.1,0,9.6-1.3,13.4-3.9
	c3.8-2.6,6.7-6.1,8.7-10.4h0.3v9.4c0,8.4-1.7,14.9-5.2,19.4c-3.5,4.5-9.2,6.7-17.1,6.7c-2.3,0-4.6-0.2-6.9-0.7
	c-2.2-0.5-4.3-1.3-6.1-2.4c-1.8-1.1-3.4-2.5-4.7-4.2c-1.3-1.8-2.2-3.9-2.6-6.5h-8.5c0.3,3.7,1.3,6.8,3,9.5c1.8,2.6,4,4.8,6.6,6.5
	c2.6,1.7,5.6,3,8.9,3.8c3.3,0.8,6.7,1.2,10.2,1.2c5.7,0,10.4-0.8,14.3-2.3c3.9-1.5,7.1-3.7,9.5-6.6c2.4-2.9,4.2-6.4,5.3-10.5
	c1.1-4.1,1.7-8.8,1.7-13.9V2.5H72.6z M71.2,46.6c-0.9,3.3-2.4,6.3-4.2,8.8c-1.9,2.6-4.2,4.6-7,6.2c-2.8,1.6-6,2.4-9.7,2.4
	c-3.9,0-7.4-0.8-10.2-2.4c-2.9-1.6-5.2-3.6-7.1-6.2c-1.9-2.5-3.3-5.5-4.2-8.8c-0.9-3.3-1.4-6.7-1.4-10.2c0-3.6,0.4-7.1,1.3-10.6
	c0.9-3.5,2.2-6.5,4.1-9.2c1.9-2.7,4.3-4.9,7.1-6.5c2.9-1.7,6.3-2.5,10.4-2.5c4,0,7.5,0.9,10.3,2.6c2.8,1.7,5.1,3.9,6.9,6.7
	c1.8,2.8,3.1,5.9,3.9,9.3c0.8,3.4,1.2,6.8,1.2,10.2C72.6,39.9,72.1,43.3,71.2,46.6z"/>
</svg>
