<?xml version="1.0" encoding="utf-8"?>
<!-- Generator: Adobe Illustrator 16.0.0, SVG Export Plug-In . SVG Version: 6.00 Build 0)  -->
<!DOCTYPE svg PUBLIC "-//W3C//DTD SVG 1.1//EN" "http://www.w3.org/Graphics/SVG/1.1/DTD/svg11.dtd">
<svg version="1.1" id="socialicious" xmlns="http://www.w3.org/2000/svg" xmlns:xlink="http://www.w3.org/1999/xlink" x="0px"
	 y="0px" width="100px" height="100px" viewBox="0 0 100 100" style="enable-background:new 0 0 100 100;" xml:space="preserve">
<style type="text/css">
<![CDATA[
	.st0{fill:#464342;}
	.st1{fill:#E14C26;}
	.st2{fill:#E84C24;}
	.st3{fill:#EA4C89;}
	.st4{fill:#EB2629;}
	.st5{fill:#ED1E83;}
	.st6{fill:#1FB7EA;}
	.st7{fill:#EF3F53;}
	.st8{fill:#5597D1;}
	.st9{fill:#8B2C8E;}
	.st10{fill:#BBBBBB;}
	.st11{fill:#BCBCBC;}
	.st12{fill:#F26722;}
	.st13{fill:#5A481C;}
	.st14{fill:url(#SVGID_1_);}
	.st15{fill:url(#SVGID_2_);}
	.st16{fill:#2CAAE1;}
	.st17{fill-rule:evenodd;clip-rule:evenodd;fill:#BCBCBC;}
	.st18{fill:#638CB1;}
	.st19{fill:#CA3C27;}
	.st20{fill:#CB2027;}
	.st21{fill:#303030;}
	.st22{fill:#33373D;}
	.st23{fill:#00A8E1;}
	.st24{fill:#065897;}
	.st25{fill:#3D5B99;}
	.st26{fill:#3F729B;}
	.st27{fill:#75C044;}
	.st28{fill:#A52F23;}
	.st29{fill:#0BBADF;}
	.st30{fill:#A72822;}
	.st31{fill:#DC2726;}
	.st32{fill:#4064AF;}
	.st33{fill:url(#soundcloud_2_);}
	.st34{fill:#45556B;}
]]>
</style>
<g id="twitter">
	<path class="st11" d="M100,19c-3.7,1.6-7.6,2.7-11.8,3.2c4.2-2.5,7.5-6.6,9-11.4c-4,2.4-8.4,4.1-13,5c-3.7-4-9.1-6.5-15-6.5
		c-11.3,0-20.5,9.2-20.5,20.5c0,1.6,0.2,3.2,0.5,4.7c-17.1-0.9-32.2-9-42.3-21.4c-1.8,3-2.8,6.6-2.8,10.3c0,7.1,3.6,13.4,9.1,17.1
		c-3.4-0.1-6.5-1-9.3-2.6c0,0.1,0,0.2,0,0.3c0,9.9,7.1,18.2,16.5,20.1c-1.7,0.5-3.5,0.7-5.4,0.7c-1.3,0-2.6-0.1-3.9-0.4
		c2.6,8.1,10.2,14.1,19.2,14.2c-7,5.5-15.9,8.8-25.5,8.8c-1.7,0-3.3-0.1-4.9-0.3c9.1,5.8,19.9,9.2,31.4,9.2
		c37.7,0,58.4-31.3,58.4-58.4c0-0.9,0-1.8-0.1-2.7C93.8,26.7,97.3,23.1,100,19z"/>
</g>
</svg>
