<?xml version="1.0" encoding="utf-8"?>
<!-- Generator: Adobe Illustrator 16.0.0, SVG Export Plug-In . SVG Version: 6.00 Build 0)  -->
<!DOCTYPE svg PUBLIC "-//W3C//DTD SVG 1.1//EN" "http://www.w3.org/Graphics/SVG/1.1/DTD/svg11.dtd">
<svg version="1.1" id="socialicious" xmlns="http://www.w3.org/2000/svg" xmlns:xlink="http://www.w3.org/1999/xlink" x="0px"
	 y="0px" width="100px" height="100px" viewBox="0 0 100 100" style="enable-background:new 0 0 100 100;" xml:space="preserve">
<style type="text/css">
<![CDATA[
	.st0{fill:#464342;}
	.st1{fill:#E04B26;}
	.st2{fill:#E74B24;}
	.st3{fill:#E94C88;}
	.st4{fill:#1AB6EA;}
	.st5{fill:#EA2429;}
	.st6{fill:#EC1E82;}
	.st7{fill:#B9B9BA;}
	.st8{fill:#EE3E53;}
	.st9{fill:#EE4977;}
	.st10{fill:#5496D0;}
	.st11{fill:#BBBBBB;}
	.st12{fill:#BCBCBC;}
	.st13{fill:#F16722;}
	.st14{fill:#5A471C;}
	.st15{fill:url(#SVGID_1_);}
	.st16{fill:url(#SVGID_2_);}
	.st17{fill:#2AA9E0;}
	.st18{fill-rule:evenodd;clip-rule:evenodd;fill:#BBBBBB;}
	.st19{fill-rule:evenodd;clip-rule:evenodd;fill:#BCBCBC;}
	.st20{fill:#C93C27;}
	.st21{fill:#638BB0;}
	.st22{fill:#CA2027;}
	.st23{fill:#30302F;}
	.st24{fill:#34373D;}
	.st25{fill:#00405D;}
	.st26{fill:#007EE5;}
	.st27{fill:#00A8E1;}
	.st28{fill-rule:evenodd;clip-rule:evenodd;fill:#FFFFFF;}
	.st29{fill:#035795;}
	.st30{fill:#3C5A97;}
	.st31{fill:#3F64AE;}
	.st32{fill:#3F729B;}
	.st33{fill:#A42F23;}
	.st34{fill:#75C044;}
	.st35{fill:#A72723;}
	.st36{fill:#DB2726;}
	.st37{fill:#DD3333;}
	.st38{fill:url(#soundcloud_2_);}
	.st39{fill:#442D86;}
	.st40{fill:#44556B;}
]]>
</style>
<g id="behance_1_">
	<path class="st12" d="M40.4,46.6c0,0,9.5-0.7,9.5-11.8c0-11.1-7.7-16.5-17.5-16.5H14.2h-0.5H0v62h13.7h0.5h18.1
		C32.3,80.4,52,81,52,62C52,62,52.8,46.6,40.4,46.6z M29.9,29.4h2.3c0,0,4.4,0,4.4,6.5c0,6.4-2.6,7.4-5.5,7.4H14.2V29.4H29.9z
		 M31.4,69.3H14.2V52.8h18.1c0,0,6.5-0.1,6.5,8.5C38.8,68.5,33.9,69.3,31.4,69.3z"/>
	<path class="st12" d="M78.2,34.1c-23.8,0-23.8,23.8-23.8,23.8s-1.6,23.7,23.8,23.7c0,0,21.2,1.2,21.2-16.5H88.6
		c0,0,0.4,6.7-9.9,6.7c0,0-10.9,0.7-10.9-10.8h32.1C99.8,61,103.3,34.1,78.2,34.1z M67.6,52.8c0,0,1.3-9.6,10.9-9.6
		c9.6,0,9.5,9.6,9.5,9.6H67.6z"/>
	<rect x="64.9" y="22" class="st12" width="25.6" height="7.6"/>
</g>
</svg>
