<?xml version="1.0" encoding="utf-8"?>
<!-- Generator: Adobe Illustrator 16.0.0, SVG Export Plug-In . SVG Version: 6.00 Build 0)  -->
<!DOCTYPE svg PUBLIC "-//W3C//DTD SVG 1.1//EN" "http://www.w3.org/Graphics/SVG/1.1/DTD/svg11.dtd">
<svg version="1.1" id="socialicious" xmlns="http://www.w3.org/2000/svg" xmlns:xlink="http://www.w3.org/1999/xlink" x="0px"
	 y="0px" width="100px" height="100px" viewBox="0 0 100 100" style="enable-background:new 0 0 100 100;" xml:space="preserve">
<style type="text/css">
<![CDATA[
	.st0{fill:#464342;}
	.st1{fill:#E04B26;}
	.st2{fill:#E74B24;}
	.st3{fill:#E94C88;}
	.st4{fill:#1AB6EA;}
	.st5{fill:#EA2429;}
	.st6{fill:#EC1E82;}
	.st7{fill:#B9B9BA;}
	.st8{fill:#EE3E53;}
	.st9{fill:#EE4977;}
	.st10{fill:#5496D0;}
	.st11{fill:#BBBBBB;}
	.st12{fill:#BCBCBC;}
	.st13{fill:#F16722;}
	.st14{fill:#5A471C;}
	.st15{fill:url(#SVGID_1_);}
	.st16{fill:url(#SVGID_2_);}
	.st17{fill:#2AA9E0;}
	.st18{fill-rule:evenodd;clip-rule:evenodd;fill:#BBBBBB;}
	.st19{fill-rule:evenodd;clip-rule:evenodd;fill:#BCBCBC;}
	.st20{fill:#C93C27;}
	.st21{fill:#638BB0;}
	.st22{fill:#CA2027;}
	.st23{fill:#30302F;}
	.st24{fill:#34373D;}
	.st25{fill:#00405D;}
	.st26{fill:#007EE5;}
	.st27{fill:#00A8E1;}
	.st28{fill-rule:evenodd;clip-rule:evenodd;fill:#FFFFFF;}
	.st29{fill:#035795;}
	.st30{fill:#3C5A97;}
	.st31{fill:#3F64AE;}
	.st32{fill:#3F729B;}
	.st33{fill:#A42F23;}
	.st34{fill:#75C044;}
	.st35{fill:#A72723;}
	.st36{fill:#DB2726;}
	.st37{fill:#DD3333;}
	.st38{fill:url(#soundcloud_2_);}
	.st39{fill:#442D86;}
	.st40{fill:#44556B;}
]]>
</style>
<g>
	<path d="M47.4,42.1c0.9,0,1.9,0.1,2.7,0.2l-4.4-12.8c-0.5-1.4-2.6-8-4.5-8c-1,0-1.4,1.2-1.4,2c0,3.7,4.4,15.4,5.8,19
		C46.2,42.2,46.8,42.1,47.4,42.1z"/>
	<path d="M46.8,63.7c0.7,0,1.4-0.8,1.4-1.5c0-0.8-0.8-2.9-1.2-3.7c-1-2.4-4.4-10-7.4-10c-1,0-2.6,1.7-2.6,2.7
		C36.9,53.8,44.1,63.7,46.8,63.7z"/>
	<path d="M67.6,24.9c0-0.9-0.3-2-1.4-2c-2,0-4.2,6.7-4.8,8.2l-4.2,12l4.3,0.8C62.7,40.8,67.6,27.3,67.6,24.9z"/>
	<path d="M54.3,56.9c-1.3-0.3-2.6-0.4-3.8-0.8c0.4,1.1,0.8,2.1,1.2,3.2C52.5,58.5,53.4,57.6,54.3,56.9z"/>
	<path d="M89.2,0H10.8C4.8,0,0,4.8,0,10.8v78.4c0,6,4.8,10.8,10.8,10.8h78.4c6,0,10.8-4.8,10.8-10.8V10.8C100,4.8,95.2,0,89.2,0z
		 M48.6,82.8c-2.8,0-5.5-0.6-8.2-1.5C33.5,78.6,27,71.5,27,63.7c0-4.8,1.8-7.9,6.5-9.2c-0.4-1.1-1-2.7-1-3.8c0-3,3.7-6.7,6.7-6.7
		c0.9,0,1.8,0.3,2.6,0.5c-1.5-4.4-6-16.6-6-20.7c0-3.7,1.9-6.6,5.8-6.6c5.1,0,10.9,18.4,12.2,22.1c1.6-4,6.7-20.9,12.4-20.9
		c3.6,0,5.6,2.9,5.6,6.3c0,3.9-4.3,15.9-5.8,20.1c6.1,1.5,7,6.5,7,12C73,71.4,63.7,82.8,48.6,82.8z"/>
	<path d="M49.4,46.2c-0.5,0-1.4,0-1.8,0.4c-0.4,0.2-0.4,0.9-0.4,1.3c0,5.6,11.8,5.1,15.4,5.1c0.7,0,1,0.2,1.5,0.7
		c0.5,0.6,0.6,1.3,0.7,2c-1,1-2.3,1.5-3.5,2c-1.2,0.4-2.4,0.9-3.4,1.7c-2.8,2-5.6,5.6-5.6,9.2c0,2.3,1.4,4.2,1.4,6.4
		c0,0-0.3,0.8-0.3,1c-4.2-0.3-5.2-4.4-5.3-7.9c-0.4,0.1-1,0.1-1.5,0.1c0.1,0.3,0.1,0.5,0.1,0.8c0,2.7-2.4,4.6-4.9,4.6
		c-4,0-9.2-4.6-9.2-8.7c0-1.1,0.5-1.7,1.2-2.4c0.7,0.9,1.5,1.8,2.2,2.8c1.1,1.4,2.9,3.8,4.9,3.8c0.5,0,1.5-0.4,1.5-1.1
		c0-1.6-6-9.4-7.5-9.4c-2.3,0-3.5,3-3.5,4.9c0,1.3,0.4,2.6,0.9,3.8c2.9,7.1,9.4,11.3,17,11.3c5.6,0,10.2-2.1,14-6.2
		c3.9-4.4,5.6-9.8,5.6-15.6c0-2,0-5.3-1.6-6.8C64,47.2,53.5,46.2,49.4,46.2z"/>
</g>
</svg>
