<?xml version="1.0" encoding="utf-8"?>
<!-- Generator: Adobe Illustrator 16.0.0, SVG Export Plug-In . SVG Version: 6.00 Build 0)  -->
<!DOCTYPE svg PUBLIC "-//W3C//DTD SVG 1.1//EN" "http://www.w3.org/Graphics/SVG/1.1/DTD/svg11.dtd">
<svg version="1.1" id="socialicious" xmlns="http://www.w3.org/2000/svg" xmlns:xlink="http://www.w3.org/1999/xlink" x="0px"
	 y="0px" width="100px" height="100px" viewBox="0 0 100 100" style="enable-background:new 0 0 100 100;" xml:space="preserve">
<style type="text/css">
<![CDATA[
	.st0{fill:#464342;}
	.st1{fill:#E04B26;}
	.st2{fill:#E74B24;}
	.st3{fill:#E94C88;}
	.st4{fill:#1AB6EA;}
	.st5{fill:#EA2429;}
	.st6{fill:#EC1E82;}
	.st7{fill:#B9B9BA;}
	.st8{fill:#EE3E53;}
	.st9{fill:#EE4977;}
	.st10{fill:#5496D0;}
	.st11{fill:#BBBBBB;}
	.st12{fill:#BCBCBC;}
	.st13{fill:#F16722;}
	.st14{fill:#5A471C;}
	.st15{fill:url(#SVGID_1_);}
	.st16{fill:url(#SVGID_2_);}
	.st17{fill:#2AA9E0;}
	.st18{fill-rule:evenodd;clip-rule:evenodd;fill:#BBBBBB;}
	.st19{fill-rule:evenodd;clip-rule:evenodd;fill:#BCBCBC;}
	.st20{fill:#C93C27;}
	.st21{fill:#638BB0;}
	.st22{fill:#CA2027;}
	.st23{fill:#30302F;}
	.st24{fill:#34373D;}
	.st25{fill:#00405D;}
	.st26{fill:#007EE5;}
	.st27{fill:#00A8E1;}
	.st28{fill-rule:evenodd;clip-rule:evenodd;fill:#FFFFFF;}
	.st29{fill:#035795;}
	.st30{fill:#3C5A97;}
	.st31{fill:#3F64AE;}
	.st32{fill:#3F729B;}
	.st33{fill:#A42F23;}
	.st34{fill:#75C044;}
	.st35{fill:#A72723;}
	.st36{fill:#DB2726;}
	.st37{fill:#DD3333;}
	.st38{fill:url(#soundcloud_2_);}
	.st39{fill:#442D86;}
	.st40{fill:#44556B;}
]]>
</style>
<g id="googleplus_1_">
	<path class="st23" d="M44.1,58c-0.7-0.1-1.1-0.1-1.9-0.1c-0.7,0-5.2,0.2-8.6,1.3c-1.8,0.6-7,2.6-7,8.3c0,5.7,5.6,9.8,14.4,9.8
		c7.8,0,12-3.7,12-8.7C53,64.5,50.3,62.3,44.1,58z"/>
	<path class="st23" d="M89.2,0H10.8C4.8,0,0,4.8,0,10.8v78.4c0,6,4.8,10.8,10.8,10.8h78.4c6,0,10.8-4.8,10.8-10.8V10.8
		C100,4.8,95.2,0,89.2,0z M36.8,80.7c-11.8,0-17.3-5.6-17.3-11.6c0-2.9,1.5-7,6.3-9.8c5.1-3.1,11.9-3.5,15.6-3.7
		c-1.1-1.4-2.5-3-2.5-5.5c0-1.4,0.4-2.2,0.8-3.1c-0.9,0.1-1.8,0.2-2.6,0.2c-8.7,0-13.6-6.4-13.6-12.6c0-3.7,1.2-8.1,4.7-11.1
		c4.7-3.8,10.6-4.2,15-4.2l17,0L55,22.5h-4.8C52,24,55.7,27,55.7,33.1c0,6-3.4,8.8-6.9,11.4c-1.1,1-2.3,2.2-2.3,3.9
		c0,1.8,1.2,2.7,2.1,3.5l2.9,2.2c3.6,3,6.9,5.7,6.9,11.3C58.5,73,50.8,80.7,36.8,80.7z M80.6,50.5h-8.1v8.1h-4.1v-8.1h-8.1v-4h8.1
		v-8.1h4.1v8.1h8.1V50.5z"/>
	<path class="st23" d="M48.5,37c0-5.8-3.5-14.8-10.3-14.8c-2.1,0-4.4,0.8-5.7,2.5c-1.4,1.7-1.8,4.1-1.8,6.2
		c0,5.4,3.2,14.3,10.2,14.3c2,0,4.2-1.2,5.6-2.5C48.4,40.8,48.5,38.5,48.5,37z"/>
</g>
</svg>
