<?xml version="1.0" encoding="utf-8"?>
<!-- Generator: Adobe Illustrator 16.0.0, SVG Export Plug-In . SVG Version: 6.00 Build 0)  -->
<!DOCTYPE svg PUBLIC "-//W3C//DTD SVG 1.1//EN" "http://www.w3.org/Graphics/SVG/1.1/DTD/svg11.dtd">
<svg version="1.1" id="socialicious" xmlns="http://www.w3.org/2000/svg" xmlns:xlink="http://www.w3.org/1999/xlink" x="0px"
	 y="0px" width="100px" height="100px" viewBox="0 0 100 100" style="enable-background:new 0 0 100 100;" xml:space="preserve">
<style type="text/css">
<![CDATA[
	.st0{fill:#464342;}
	.st1{fill:#E14C26;}
	.st2{fill:#E84C24;}
	.st3{fill:#EA4C89;}
	.st4{fill:#EB2629;}
	.st5{fill:#ED1E83;}
	.st6{fill:#1FB7EA;}
	.st7{fill:#EF3F53;}
	.st8{fill:#5597D1;}
	.st9{fill:#8B2C8E;}
	.st10{fill:#BBBBBB;}
	.st11{fill:#BCBCBC;}
	.st12{fill:#F26722;}
	.st13{fill:#5A481C;}
	.st14{fill:url(#SVGID_1_);}
	.st15{fill:url(#SVGID_2_);}
	.st16{fill:#2CAAE1;}
	.st17{fill-rule:evenodd;clip-rule:evenodd;fill:#BCBCBC;}
	.st18{fill:#638CB1;}
	.st19{fill:#CA3C27;}
	.st20{fill:#CB2027;}
	.st21{fill:#303030;}
	.st22{fill:#33373D;}
	.st23{fill:#00A8E1;}
	.st24{fill:#065897;}
	.st25{fill:#3D5B99;}
	.st26{fill:#3F729B;}
	.st27{fill:#75C044;}
	.st28{fill:#A52F23;}
	.st29{fill:#0BBADF;}
	.st30{fill:#A72822;}
	.st31{fill:#DC2726;}
	.st32{fill:#4064AF;}
	.st33{fill:url(#soundcloud_2_);}
	.st34{fill:#45556B;}
]]>
</style>
<path id="vimeo_1_" class="st6" d="M89.2,0H10.8C4.8,0,0,4.8,0,10.8v78.4c0,6,4.8,10.8,10.8,10.8h78.4c6,0,10.8-4.8,10.8-10.8V10.8
	C100,4.8,95.2,0,89.2,0z M83.1,35.1c-0.3,6.7-4.9,15.8-13.9,27.3C59.9,74.5,52,80.6,45.6,80.6c-4,0-7.3-3.7-10.1-11
	C33.7,62.8,31.8,56,30,49.3c-2-7.4-4.2-11-6.6-11c-0.5,0-2.3,1.1-5.4,3.2l-3.2-4.1c3.4-3,6.7-5.9,10-8.9c4.5-3.9,7.9-5.9,10.1-6.1
	c5.3-0.5,8.6,3.1,9.8,10.9c1.3,8.4,2.2,13.6,2.8,15.7c1.5,7,3.2,10.4,5.1,10.4c1.4,0,3.6-2.3,6.4-6.8c2.9-4.5,4.4-8,4.6-10.3
	c0.4-3.9-1.1-5.9-4.6-5.9c-1.6,0-3.3,0.4-5.1,1.1c3.4-11,9.8-16.3,19.2-16C80.2,21.7,83.5,26.2,83.1,35.1z"/>
</svg>
