<?xml version="1.0" encoding="utf-8"?>
<!-- Generator: Adobe Illustrator 16.0.0, SVG Export Plug-In . SVG Version: 6.00 Build 0)  -->
<!DOCTYPE svg PUBLIC "-//W3C//DTD SVG 1.1//EN" "http://www.w3.org/Graphics/SVG/1.1/DTD/svg11.dtd">
<svg version="1.1" id="socialicious" xmlns="http://www.w3.org/2000/svg" xmlns:xlink="http://www.w3.org/1999/xlink" x="0px"
	 y="0px" width="100px" height="100px" viewBox="0 0 100 100" style="enable-background:new 0 0 100 100;" xml:space="preserve">
<style type="text/css">
<![CDATA[
	.st0{fill:#464342;}
	.st1{fill:#E04B26;}
	.st2{fill:#E74B24;}
	.st3{fill:#E94C88;}
	.st4{fill:#1AB6EA;}
	.st5{fill:#EA2429;}
	.st6{fill:#EC1E82;}
	.st7{fill:#B9B9BA;}
	.st8{fill:#EE3E53;}
	.st9{fill:#EE4977;}
	.st10{fill:#5496D0;}
	.st11{fill:#BBBBBB;}
	.st12{fill:#BCBCBC;}
	.st13{fill:#F16722;}
	.st14{fill:#5A471C;}
	.st15{fill:url(#SVGID_1_);}
	.st16{fill:url(#SVGID_2_);}
	.st17{fill:#2AA9E0;}
	.st18{fill-rule:evenodd;clip-rule:evenodd;fill:#BBBBBB;}
	.st19{fill-rule:evenodd;clip-rule:evenodd;fill:#BCBCBC;}
	.st20{fill:#C93C27;}
	.st21{fill:#638BB0;}
	.st22{fill:#CA2027;}
	.st23{fill:#30302F;}
	.st24{fill:#34373D;}
	.st25{fill:#00405D;}
	.st26{fill:#007EE5;}
	.st27{fill:#00A8E1;}
	.st28{fill-rule:evenodd;clip-rule:evenodd;fill:#FFFFFF;}
	.st29{fill:#035795;}
	.st30{fill:#3C5A97;}
	.st31{fill:#3F64AE;}
	.st32{fill:#3F729B;}
	.st33{fill:#A42F23;}
	.st34{fill:#75C044;}
	.st35{fill:#A72723;}
	.st36{fill:#DB2726;}
	.st37{fill:#DD3333;}
	.st38{fill:url(#soundcloud_2_);}
	.st39{fill:#442D86;}
	.st40{fill:#44556B;}
]]>
</style>
<g>
	<g>
		<path class="st12" d="M77,0c0,0-46,0-53.3,0c-7.4,0-9.5,5.5-9.5,9c0,3.5,0,84.7,0,84.7c0,3.9,2.1,5.4,3.3,5.9
			c1.2,0.5,4.5,0.9,6.4-1.4c0,0,25.2-29.2,25.6-29.7c0.7-0.7,0.7-0.7,1.3-0.7c1.3,0,11,0,16.3,0c6.8,0,7.9-4.9,8.7-7.8
			c0.6-2.4,7.3-36.6,9.5-47.4C87,4.5,84.9,0,77,0z M75.8,60.2c0.6-2.4,7.3-36.6,9.5-47.4 M73.9,14.4l-2.2,11.7
			c-0.3,1.3-1.9,2.6-3.3,2.6c-1.5,0-20.8,0-20.8,0c-2.3,0-4,1.6-4,3.9v2.5c0,2.3,1.7,4,4,4c0,0,16,0,17.6,0c1.7,0,3.3,1.8,2.9,3.6
			c-0.4,1.8-2,10.5-2.2,11.5c-0.2,1-1.3,2.6-3.3,2.6c-1.7,0-14.4,0-14.4,0c-2.6,0-3.4,0.3-5.2,2.5c-1.8,2.2-17.5,21.1-17.5,21.1
			c-0.2,0.2-0.3,0.1-0.3-0.1V14.3c0-1.5,1.3-3.2,3.2-3.2c0,0,41.1,0,42.8,0C72.8,11,74.3,12.5,73.9,14.4z"/>
	</g>
</g>
</svg>
