<?xml version="1.0" encoding="utf-8"?>
<!-- Generator: Adobe Illustrator 16.0.0, SVG Export Plug-In . SVG Version: 6.00 Build 0)  -->
<!DOCTYPE svg PUBLIC "-//W3C//DTD SVG 1.1//EN" "http://www.w3.org/Graphics/SVG/1.1/DTD/svg11.dtd">
<svg version="1.1" id="socialicious" xmlns="http://www.w3.org/2000/svg" xmlns:xlink="http://www.w3.org/1999/xlink" x="0px"
	 y="0px" width="100px" height="100px" viewBox="0 0 100 100" style="enable-background:new 0 0 100 100;" xml:space="preserve">
<style type="text/css">
<![CDATA[
	.st0{fill:#464342;}
	.st1{fill:#E04B26;}
	.st2{fill:#E74B24;}
	.st3{fill:#E94C88;}
	.st4{fill:#1AB6EA;}
	.st5{fill:#EA2429;}
	.st6{fill:#EC1E82;}
	.st7{fill:#B9B9BA;}
	.st8{fill:#EE3E53;}
	.st9{fill:#EE4977;}
	.st10{fill:#5496D0;}
	.st11{fill:#BBBBBB;}
	.st12{fill:#BCBCBC;}
	.st13{fill:#F16722;}
	.st14{fill:#5A471C;}
	.st15{fill:url(#SVGID_1_);}
	.st16{fill:url(#SVGID_2_);}
	.st17{fill:#2AA9E0;}
	.st18{fill-rule:evenodd;clip-rule:evenodd;fill:#BBBBBB;}
	.st19{fill-rule:evenodd;clip-rule:evenodd;fill:#BCBCBC;}
	.st20{fill:#C93C27;}
	.st21{fill:#638BB0;}
	.st22{fill:#CA2027;}
	.st23{fill:#30302F;}
	.st24{fill:#34373D;}
	.st25{fill:#00405D;}
	.st26{fill:#007EE5;}
	.st27{fill:#00A8E1;}
	.st28{fill-rule:evenodd;clip-rule:evenodd;fill:#FFFFFF;}
	.st29{fill:#035795;}
	.st30{fill:#3C5A97;}
	.st31{fill:#3F64AE;}
	.st32{fill:#3F729B;}
	.st33{fill:#A42F23;}
	.st34{fill:#75C044;}
	.st35{fill:#A72723;}
	.st36{fill:#DB2726;}
	.st37{fill:#DD3333;}
	.st38{fill:url(#soundcloud_2_);}
	.st39{fill:#442D86;}
	.st40{fill:#44556B;}
]]>
</style>
<g id="wordpress_1_">
	<path class="st0" d="M50,17.7c-17.8,0-32.3,14.5-32.3,32.3c0,17.8,14.5,32.3,32.3,32.3c17.8,0,32.3-14.5,32.3-32.3
		C82.3,32.2,67.8,17.7,50,17.7z M21,50c0-4.2,0.9-8.2,2.5-11.8l13.8,37.9C27.7,71.4,21,61.5,21,50z M50,79c-2.8,0-5.6-0.4-8.2-1.2
		l8.7-25.3L59.4,77c0.1,0.1,0.1,0.3,0.2,0.4C56.6,78.4,53.4,79,50,79z M54,36.4c1.7-0.1,3.3-0.3,3.3-0.3c1.6-0.2,1.4-2.5-0.2-2.4
		c0,0-4.7,0.4-7.7,0.4c-2.9,0-7.6-0.4-7.6-0.4c-1.6-0.1-1.7,2.3-0.2,2.4c0,0,1.5,0.2,3,0.3l4.5,12.4l-6.3,19L32.2,36.4
		c1.7-0.1,3.3-0.3,3.3-0.3c1.6-0.2,1.4-2.5-0.2-2.4c0,0-4.7,0.4-7.7,0.4c-0.5,0-1.2,0-1.9,0C31,26.2,39.9,21,50,21
		c7.5,0,14.4,2.9,19.6,7.6c-0.1,0-0.2,0-0.4,0c-2.9,0-4.9,2.5-4.9,5.1c0,2.4,1.4,4.4,2.8,6.8c1.1,1.9,2.4,4.4,2.4,8
		c0,2.5-1,5.4-2.2,9.4l-2.9,9.7L54,36.4z M75.5,36.1C77.7,40.2,79,45,79,50c0,10.7-5.8,20-14.4,25.1l8.9-25.6
		c1.7-4.1,2.2-7.4,2.2-10.4C75.6,38,75.6,37,75.5,36.1z"/>
	<path class="st0" d="M89.2,0H10.8C4.8,0,0,4.8,0,10.8v78.4c0,6,4.8,10.8,10.8,10.8h78.4c6,0,10.8-4.8,10.8-10.8V10.8
		C100,4.8,95.2,0,89.2,0z M50,86.1c-19.9,0-36.1-16.2-36.1-36.1c0-19.9,16.2-36.1,36.1-36.1S86.1,30.1,86.1,50
		C86.1,69.9,69.9,86.1,50,86.1z"/>
</g>
</svg>
