<?xml version="1.0" encoding="utf-8"?>
<!-- Generator: Adobe Illustrator 16.0.0, SVG Export Plug-In . SVG Version: 6.00 Build 0)  -->
<!DOCTYPE svg PUBLIC "-//W3C//DTD SVG 1.1//EN" "http://www.w3.org/Graphics/SVG/1.1/DTD/svg11.dtd">
<svg version="1.1" id="socialicious" xmlns="http://www.w3.org/2000/svg" xmlns:xlink="http://www.w3.org/1999/xlink" x="0px"
	 y="0px" width="100px" height="100px" viewBox="0 0 100 100" style="enable-background:new 0 0 100 100;" xml:space="preserve">
<style type="text/css">
<![CDATA[
	.st0{fill:#464342;}
	.st1{fill:#E14C26;}
	.st2{fill:#E84C24;}
	.st3{fill:#EA4C89;}
	.st4{fill:#EB2629;}
	.st5{fill:#ED1E83;}
	.st6{fill:#1FB7EA;}
	.st7{fill:#EF3F53;}
	.st8{fill:#5597D1;}
	.st9{fill:#8B2C8E;}
	.st10{fill:#BBBBBB;}
	.st11{fill:#BCBCBC;}
	.st12{fill:#F26722;}
	.st13{fill:#5A481C;}
	.st14{fill:url(#SVGID_1_);}
	.st15{fill:url(#SVGID_2_);}
	.st16{fill:#2CAAE1;}
	.st17{fill-rule:evenodd;clip-rule:evenodd;fill:#BCBCBC;}
	.st18{fill:#638CB1;}
	.st19{fill:#CA3C27;}
	.st20{fill:#CB2027;}
	.st21{fill:#303030;}
	.st22{fill:#33373D;}
	.st23{fill:#00A8E1;}
	.st24{fill:#065897;}
	.st25{fill:#3D5B99;}
	.st26{fill:#3F729B;}
	.st27{fill:#75C044;}
	.st28{fill:#A52F23;}
	.st29{fill:#0BBADF;}
	.st30{fill:#A72822;}
	.st31{fill:#DC2726;}
	.st32{fill:#4064AF;}
	.st33{fill:url(#soundcloud_2_);}
	.st34{fill:#45556B;}
]]>
</style>
<g id="bread_1_">
	<path class="st11" d="M89.8,44c4.6-5.5,8.2-12.9,7.2-20.4C95.1,8.7,80.8-1.8,65,0.2c-7,0.9-13,4-17.5,8.5c-5.5-3.3-12.2-4.8-19.2-4
		C12.4,6.8,1.1,20.5,3,35.4c0.9,7.5,6.2,13.7,12.1,18l1.5,30.8c1.2,9.7,8.8,16.7,16.8,15.6c0,0,8.8-1.7,13.8-2.9
		c5.1-1.3,19.2-3,24.7-3.1c4.1-0.1,11.6-0.3,11.6-0.3c8.1-1,13.7-9.7,12.4-19.3L89.8,44z M85.6,83.1c-1.1,1.4-2.5,2.2-4.2,2.4
		c-1.7,0.2-3.3-0.2-4.7-1.3c-1.4-1.1-2.2-2.5-2.5-4.3c-0.2-1.8,0.2-3.4,1.3-4.7c1.1-1.4,2.5-2.2,4.2-2.4c1.7-0.2,3.3,0.2,4.7,1.3
		c1.4,1.1,2.2,2.5,2.4,4.3C87.1,80.1,86.7,81.7,85.6,83.1z"/>
</g>
</svg>
