<?xml version="1.0" encoding="utf-8"?>
<!-- Generator: Adobe Illustrator 16.0.0, SVG Export Plug-In . SVG Version: 6.00 Build 0)  -->
<!DOCTYPE svg PUBLIC "-//W3C//DTD SVG 1.1//EN" "http://www.w3.org/Graphics/SVG/1.1/DTD/svg11.dtd">
<svg version="1.1" id="socialicious" xmlns="http://www.w3.org/2000/svg" xmlns:xlink="http://www.w3.org/1999/xlink" x="0px"
	 y="0px" width="100px" height="100px" viewBox="0 0 100 100" style="enable-background:new 0 0 100 100;" xml:space="preserve">
<style type="text/css">
<![CDATA[
	.st0{fill:#464342;}
	.st1{fill:#E14C26;}
	.st2{fill:#E84C24;}
	.st3{fill:#EA4C89;}
	.st4{fill:#EB2629;}
	.st5{fill:#ED1E83;}
	.st6{fill:#1FB7EA;}
	.st7{fill:#EF3F53;}
	.st8{fill:#5597D1;}
	.st9{fill:#8B2C8E;}
	.st10{fill:#BBBBBB;}
	.st11{fill:#BCBCBC;}
	.st12{fill:#F26722;}
	.st13{fill:#5A481C;}
	.st14{fill:url(#SVGID_1_);}
	.st15{fill:url(#SVGID_2_);}
	.st16{fill:#2CAAE1;}
	.st17{fill-rule:evenodd;clip-rule:evenodd;fill:#BCBCBC;}
	.st18{fill:#638CB1;}
	.st19{fill:#CA3C27;}
	.st20{fill:#CB2027;}
	.st21{fill:#303030;}
	.st22{fill:#33373D;}
	.st23{fill:#00A8E1;}
	.st24{fill:#065897;}
	.st25{fill:#3D5B99;}
	.st26{fill:#3F729B;}
	.st27{fill:#75C044;}
	.st28{fill:#A52F23;}
	.st29{fill:#0BBADF;}
	.st30{fill:#A72822;}
	.st31{fill:#DC2726;}
	.st32{fill:#4064AF;}
	.st33{fill:url(#soundcloud_2_);}
	.st34{fill:#45556B;}
]]>
</style>
<g id="digg">
	<g>
		<path class="st24" d="M57.8,57.1V42.6h-4.7c0,0-0.9,0-0.9,1v14.5h4.7C56.9,58.1,57.8,58.1,57.8,57.1z"/>
		<path class="st24" d="M18.3,43.6v14.5H23c0,0,0.9,0,0.9-1V42.6h-4.7C19.2,42.6,18.3,42.6,18.3,43.6z"/>
		<path class="st24" d="M89.2,0H10.8C4.8,0,0,4.8,0,10.8v78.4c0,6,4.8,10.8,10.8,10.8h78.4c6,0,10.8-4.8,10.8-10.8V10.8
			C100,4.8,95.2,0,89.2,0z M31.7,62.9c0,1-0.9,1-0.9,1H10.6v-26c0-1,0.9-1,0.9-1h12.4v-9c0-1,0.9-1,0.9-1h6.9
			C31.7,26.8,31.7,62,31.7,62.9z M41.9,62.9c0,1-0.9,1-0.9,1h-6.9c0,0,0-25.1,0-26c0-1,0.9-1,0.9-1h6.9
			C41.9,36.8,41.9,62.7,41.9,62.9z M41.9,31.6c0,1-0.9,1-0.9,1h-6.9c0,0,0-3.9,0-4.8c0-1,0.9-1,0.9-1h6.9
			C41.9,26.8,41.9,30.7,41.9,31.6z M65.6,72.1c0,1-0.9,1-0.9,1H44.5c0,0,0-3.9,0-4.8c0-1,0.9-1,0.9-1h12.4v-3.5H44.5v-26
			c0-1,0.9-1,0.9-1l20.2,0C65.6,36.8,65.6,71.2,65.6,72.1z M89.4,72.1c0,1-0.9,1-0.9,1H68.3c0,0,0-3.9,0-4.8c0-1,0.9-1,0.9-1h12.4
			v-3.5H68.3v-26c0-1,0.9-1,0.9-1l20.2,0C89.4,36.8,89.4,71.2,89.4,72.1z"/>
		<path class="st24" d="M81.6,57.1V42.6h-4.7c0,0-0.9,0-0.9,1v14.5h4.7C80.7,58.1,81.6,58.1,81.6,57.1z"/>
	</g>
</g>
</svg>
