<?xml version="1.0" encoding="utf-8"?>
<!-- Generator: Adobe Illustrator 16.0.0, SVG Export Plug-In . SVG Version: 6.00 Build 0)  -->
<!DOCTYPE svg PUBLIC "-//W3C//DTD SVG 1.1//EN" "http://www.w3.org/Graphics/SVG/1.1/DTD/svg11.dtd">
<svg version="1.1" id="socialicious" xmlns="http://www.w3.org/2000/svg" xmlns:xlink="http://www.w3.org/1999/xlink" x="0px"
	 y="0px" width="100px" height="100px" viewBox="0 0 100 100" style="enable-background:new 0 0 100 100;" xml:space="preserve">
<style type="text/css">
<![CDATA[
	.st0{fill:#464342;}
	.st1{fill:#E04B26;}
	.st2{fill:#E74B24;}
	.st3{fill:#E94C88;}
	.st4{fill:#1AB6EA;}
	.st5{fill:#EA2429;}
	.st6{fill:#EC1E82;}
	.st7{fill:#B9B9BA;}
	.st8{fill:#EE3E53;}
	.st9{fill:#EE4977;}
	.st10{fill:#5496D0;}
	.st11{fill:#BBBBBB;}
	.st12{fill:#BCBCBC;}
	.st13{fill:#F16722;}
	.st14{fill:#5A471C;}
	.st15{fill:url(#SVGID_1_);}
	.st16{fill:url(#SVGID_2_);}
	.st17{fill:#2AA9E0;}
	.st18{fill-rule:evenodd;clip-rule:evenodd;fill:#BBBBBB;}
	.st19{fill-rule:evenodd;clip-rule:evenodd;fill:#BCBCBC;}
	.st20{fill:#C93C27;}
	.st21{fill:#638BB0;}
	.st22{fill:#CA2027;}
	.st23{fill:#30302F;}
	.st24{fill:#34373D;}
	.st25{fill:#00405D;}
	.st26{fill:#007EE5;}
	.st27{fill:#00A8E1;}
	.st28{fill-rule:evenodd;clip-rule:evenodd;fill:#FFFFFF;}
	.st29{fill:#035795;}
	.st30{fill:#3C5A97;}
	.st31{fill:#3F64AE;}
	.st32{fill:#3F729B;}
	.st33{fill:#A42F23;}
	.st34{fill:#75C044;}
	.st35{fill:#A72723;}
	.st36{fill:#DB2726;}
	.st37{fill:#DD3333;}
	.st38{fill:url(#soundcloud_2_);}
	.st39{fill:#442D86;}
	.st40{fill:#44556B;}
]]>
</style>
<g id="dribbble_1_">
	<path class="st3" d="M51.8,50.2c0.4-0.1,0.7-0.2,1.1-0.3c-0.7-1.6-1.4-3.1-2.2-4.7c-12.6,3.8-24.7,4-27.6,3.9c0,0.3,0,0.6,0,0.9
		c0,1.8,0.2,3.7,0.5,5.5c0.4,1.7,0.9,3.5,1.6,5.1c0.7,1.6,1.5,3.2,2.5,4.6c0.6,0.9,1.3,1.8,2.1,2.7C31.2,65.4,38.6,54.4,51.8,50.2z"
		/>
	<path class="st3" d="M54.6,54.5c-14.4,5-20.2,14.6-21.4,16.8c0.6,0.5,1.1,0.9,1.7,1.3c1.4,1,3,1.8,4.6,2.5c1.6,0.7,3.3,1.2,5.1,1.6
		c3.6,0.7,7.3,0.7,10.9,0c1.7-0.4,3.4-0.9,5.1-1.6c0,0,0,0,0.1,0c-0.5-2.8-2.1-11-5.8-20.6C54.7,54.4,54.6,54.5,54.6,54.5z"/>
	<path class="st3" d="M38.4,25.4c-1.2,0.6-2.4,1.3-3.5,2c-1.4,1-2.8,2.1-4,3.3c-1.2,1.2-2.3,2.6-3.3,4c-1,1.5-1.8,3-2.5,4.6
		c-0.7,1.6-1.2,3.2-1.5,4.9c2.8,0,13.1-0.3,24.8-3.4C44.1,33.4,39.6,27.1,38.4,25.4z"/>
	<path class="st3" d="M67.9,29.6c-0.9-0.8-1.8-1.5-2.8-2.1c-1.4-1-3-1.8-4.6-2.5c-1.6-0.7-3.3-1.2-5.1-1.6c-1.8-0.4-3.6-0.6-5.4-0.6
		c-1.8,0-3.7,0.2-5.4,0.6c-0.3,0.1-0.6,0.1-0.9,0.2c1.2,1.7,5.8,8,10,15.7C62.8,35.9,66.9,30.9,67.9,29.6z"/>
	<path class="st3" d="M74.9,39.4c-0.7-1.6-1.5-3.2-2.5-4.6c-0.5-0.7-1-1.4-1.5-2c-1.1,1.4-5.6,6.7-15.1,10.6c0.6,1.3,1.3,2.7,1.8,4
		c0.2,0.5,0.4,1,0.6,1.4c8.5-1.1,16.8,0.4,18.8,0.8c0-1.7-0.2-3.4-0.5-5.1C76.1,42.8,75.6,41,74.9,39.4z"/>
	<path class="st3" d="M89.2,0H10.8C4.8,0,0,4.8,0,10.8v78.4c0,6,4.8,10.8,10.8,10.8h78.4c6,0,10.8-4.8,10.8-10.8V10.8
		C100,4.8,95.2,0,89.2,0z M82,56.6c-0.4,2.1-1.1,4.2-1.9,6.2c-0.8,1.9-1.8,3.8-3,5.6c-1.2,1.7-2.5,3.4-4,4.9c-1.5,1.5-3.1,2.8-4.8,4
		c-1.7,1.2-3.6,2.2-5.5,3c-2,0.8-4,1.5-6.1,1.9c-2.2,0.4-4.4,0.7-6.6,0.7c-2.2,0-4.4-0.2-6.6-0.7c-2.1-0.4-4.2-1.1-6.1-1.9
		c-1.9-0.8-3.8-1.8-5.5-3c-1.7-1.2-3.3-2.5-4.8-4c-1.5-1.5-2.8-3.1-4-4.9c-1.2-1.8-2.2-3.6-3-5.6c-0.8-2-1.5-4.1-1.9-6.2
		c-0.4-2.2-0.7-4.4-0.7-6.6c0-2.2,0.2-4.4,0.7-6.6c0.4-2.1,1.1-4.2,1.9-6.2c0.8-1.9,1.8-3.8,3-5.6c1.2-1.7,2.5-3.4,4-4.9
		c1.5-1.5,3.1-2.8,4.8-4c1.7-1.2,3.6-2.2,5.5-3c2-0.8,4-1.5,6.1-1.9c4.3-0.9,8.8-0.9,13.2,0c2.1,0.4,4.2,1.1,6.1,1.9
		c1.9,0.8,3.8,1.8,5.5,3c1.7,1.2,3.4,2.5,4.8,4c1.5,1.5,2.8,3.1,4,4.9c1.2,1.8,2.2,3.6,3,5.6c0.8,2,1.5,4.1,1.9,6.2
		c0.4,2.2,0.7,4.4,0.7,6.6C82.6,52.2,82.4,54.4,82,56.6z"/>
	<path class="st3" d="M59.9,53.1c3.4,9.3,4.9,17.1,5.3,19.3c1.4-1,2.7-2,3.9-3.2c1.2-1.2,2.3-2.6,3.3-4c1-1.5,1.8-3,2.5-4.6
		c0.7-1.6,1.2-3.4,1.6-5.1c0.1-0.4,0.2-0.8,0.2-1.3C74.9,53.7,67.9,51.9,59.9,53.1z"/>
</g>
</svg>
