<?xml version="1.0" encoding="utf-8"?>
<!-- Generator: Adobe Illustrator 16.0.0, SVG Export Plug-In . SVG Version: 6.00 Build 0)  -->
<!DOCTYPE svg PUBLIC "-//W3C//DTD SVG 1.1//EN" "http://www.w3.org/Graphics/SVG/1.1/DTD/svg11.dtd">
<svg version="1.1" id="socialicious" xmlns="http://www.w3.org/2000/svg" xmlns:xlink="http://www.w3.org/1999/xlink" x="0px"
	 y="0px" width="100px" height="100px" viewBox="0 0 100 100" style="enable-background:new 0 0 100 100;" xml:space="preserve">
<style type="text/css">
<![CDATA[
	.st0{fill:#464342;}
	.st1{fill:#E04B26;}
	.st2{fill:#E74B24;}
	.st3{fill:#E94C88;}
	.st4{fill:#1AB6EA;}
	.st5{fill:#EA2429;}
	.st6{fill:#EC1E82;}
	.st7{fill:#B9B9BA;}
	.st8{fill:#EE3E53;}
	.st9{fill:#EE4977;}
	.st10{fill:#5496D0;}
	.st11{fill:#BBBBBB;}
	.st12{fill:#BCBCBC;}
	.st13{fill:#F16722;}
	.st14{fill:#5A471C;}
	.st15{fill:url(#SVGID_1_);}
	.st16{fill:url(#SVGID_2_);}
	.st17{fill:#2AA9E0;}
	.st18{fill-rule:evenodd;clip-rule:evenodd;fill:#BBBBBB;}
	.st19{fill-rule:evenodd;clip-rule:evenodd;fill:#BCBCBC;}
	.st20{fill:#C93C27;}
	.st21{fill:#638BB0;}
	.st22{fill:#CA2027;}
	.st23{fill:#30302F;}
	.st24{fill:#34373D;}
	.st25{fill:#00405D;}
	.st26{fill:#007EE5;}
	.st27{fill:#00A8E1;}
	.st28{fill-rule:evenodd;clip-rule:evenodd;fill:#FFFFFF;}
	.st29{fill:#035795;}
	.st30{fill:#3C5A97;}
	.st31{fill:#3F64AE;}
	.st32{fill:#3F729B;}
	.st33{fill:#A42F23;}
	.st34{fill:#75C044;}
	.st35{fill:#A72723;}
	.st36{fill:#DB2726;}
	.st37{fill:#DD3333;}
	.st38{fill:url(#soundcloud_2_);}
	.st39{fill:#442D86;}
	.st40{fill:#44556B;}
]]>
</style>
<g id="youtube_1_">
	<path class="st5" d="M44.9,71.8c-0.7,1-1.4,1.6-2.1,1.6c-0.4,0-0.7-0.3-0.8-0.8c0-0.1,0-0.5,0-1.3V57.7h-3.3v14.6
		c0,1.3,0.1,2.2,0.3,2.7c0.3,0.9,1.1,1.4,2.2,1.4c1.2,0,2.5-0.7,3.8-2.3v2h3.3V57.7h-3.3V71.8z"/>
	<polygon class="st5" points="26.5,54.9 30.4,54.9 30.4,76.1 34.1,76.1 34.1,54.9 38.1,54.9 38.1,51.4 26.5,51.4 	"/>
	<path class="st5" d="M57.9,57.5c-1.2,0-2.4,0.7-3.4,2v-8.1h-3.3v24.7h3.3v-1.8c1.1,1.4,2.3,2,3.4,2c1.3,0,2.2-0.7,2.7-2.1
		c0.2-0.8,0.3-2,0.3-3.7v-7.3c0-1.7-0.1-3-0.3-3.7C60.1,58.2,59.2,57.5,57.9,57.5z M57.6,70.8c0,1.7-0.5,2.5-1.5,2.5
		c-0.5,0-1.1-0.3-1.7-0.8V61.3c0.6-0.5,1.1-0.8,1.7-0.8c1,0,1.5,0.9,1.5,2.5V70.8z"/>
	<path class="st5" d="M89.2,0H10.8C4.8,0,0,4.8,0,10.8v78.4c0,6,4.8,10.8,10.8,10.8h78.4c6,0,10.8-4.8,10.8-10.8V10.8
		C100,4.8,95.2,0,89.2,0z M57,23.4L57,23.4l0-0.4h3.4v13.7c0,0.8,0,1.2,0,1.3c0.1,0.5,0.3,0.8,0.8,0.8c0.7,0,1.4-0.5,2.1-1.6V23.4h0
		V23h3.4v18.6h0V42h-3.4v-2c-1.3,1.5-2.6,2.3-3.9,2.3c-1.1,0-1.8-0.4-2.2-1.4c-0.2-0.6-0.3-1.5-0.3-2.8V23.4z M44.2,29.4
		c0-0.1,0-0.1,0-0.2V29c0-2,0.3-3.4,1.1-4.4c0.9-1.3,2.2-1.9,3.9-1.9c1.7,0,3,0.6,3.9,1.9c0.7,0.9,1,2.4,1,4.4v6.5
		c0,0.1,0,0.2,0,0.2V36c0,2-0.3,3.4-1,4.4c-0.9,1.3-2.2,1.9-3.9,1.9c-1.7,0-3-0.6-3.9-1.9c-0.7-0.9-1.1-2.4-1.1-4.4V29.4z
		 M31.3,16.6h3.9l2.7,9.8l2.5-9.8h3.8L44.1,17h0.1l-4.5,14.8v9.7h0V42H36V31.9c-0.3-1.8-1.1-4.4-2.3-7.9c-0.8-2.3-1.6-4.6-2.4-7h0.1
		C31.4,16.9,31.3,16.7,31.3,16.6z M76.6,77.2c-0.7,2.9-3.1,5.1-6,5.4c-6.8,0.8-13.8,0.8-20.7,0.8c-6.9,0-13.8,0-20.7-0.8
		c-2.9-0.3-5.3-2.5-6-5.4c-1-4.2-1-8.7-1-13.1c0-4.3,0-8.9,1-13.1c0.7-2.9,3.1-5.1,6-5.4c6.8-0.8,13.8-0.8,20.7-0.8
		c6.9,0,13.8,0,20.7,0.8c2.9,0.3,5.3,2.5,6,5.4c1,4.2,1,8.7,1,13.1C77.6,68.5,77.6,73,76.6,77.2z"/>
	<path class="st5" d="M68.5,57.5c-1.7,0-3,0.6-4,1.9c-0.7,0.9-1,2.4-1,4.3v6.5c0,2,0.4,3.4,1.1,4.3c1,1.3,2.3,1.9,4,1.9
		c1.7,0,3.1-0.7,4-2c0.4-0.6,0.7-1.3,0.8-2c0-0.3,0.1-1.1,0.1-2.1v-0.5h-3.4c0,1.3,0,2.1-0.1,2.3c-0.2,0.9-0.7,1.3-1.5,1.3
		c-1.1,0-1.7-0.8-1.7-2.6v-3.3h6.7v-3.8c0-2-0.3-3.4-1-4.3C71.5,58.1,70.2,57.5,68.5,57.5z M70.2,64.7h-3.3V63
		c0-1.7,0.6-2.6,1.7-2.6c1.1,0,1.7,0.9,1.7,2.6V64.7z"/>
	<path class="st5" d="M49.2,38.8c1,0,1.5-0.8,1.6-2.3v-7.7c0-1.7-0.5-2.6-1.6-2.6c-1,0-1.5,0.8-1.6,2.3v7.7
		C47.6,37.9,48.1,38.8,49.2,38.8z"/>
</g>
</svg>
