<?xml version="1.0" encoding="utf-8"?>
<!-- Generator: Adobe Illustrator 16.0.0, SVG Export Plug-In . SVG Version: 6.00 Build 0)  -->
<!DOCTYPE svg PUBLIC "-//W3C//DTD SVG 1.1//EN" "http://www.w3.org/Graphics/SVG/1.1/DTD/svg11.dtd">
<svg version="1.1" id="socialicious" xmlns="http://www.w3.org/2000/svg" xmlns:xlink="http://www.w3.org/1999/xlink" x="0px"
	 y="0px" width="100px" height="100px" viewBox="0 0 100 100" style="enable-background:new 0 0 100 100;" xml:space="preserve">
<style type="text/css">
<![CDATA[
	.st0{fill:#464342;}
	.st1{fill:#E14C26;}
	.st2{fill:#E84C24;}
	.st3{fill:#EA4C89;}
	.st4{fill:#EB2629;}
	.st5{fill:#ED1E83;}
	.st6{fill:#1FB7EA;}
	.st7{fill:#EF3F53;}
	.st8{fill:#5597D1;}
	.st9{fill:#8B2C8E;}
	.st10{fill:#BBBBBB;}
	.st11{fill:#BCBCBC;}
	.st12{fill:#F26722;}
	.st13{fill:#5A481C;}
	.st14{fill:url(#SVGID_1_);}
	.st15{fill:url(#SVGID_2_);}
	.st16{fill:#2CAAE1;}
	.st17{fill-rule:evenodd;clip-rule:evenodd;fill:#BCBCBC;}
	.st18{fill:#638CB1;}
	.st19{fill:#CA3C27;}
	.st20{fill:#CB2027;}
	.st21{fill:#303030;}
	.st22{fill:#33373D;}
	.st23{fill:#00A8E1;}
	.st24{fill:#065897;}
	.st25{fill:#3D5B99;}
	.st26{fill:#3F729B;}
	.st27{fill:#75C044;}
	.st28{fill:#A52F23;}
	.st29{fill:#0BBADF;}
	.st30{fill:#A72822;}
	.st31{fill:#DC2726;}
	.st32{fill:#4064AF;}
	.st33{fill:url(#soundcloud_2_);}
	.st34{fill:#45556B;}
]]>
</style>
<g id="yelp">
	<g>
		<path class="st11" d="M59.5,63.8c-1.7,1.7-0.3,4.8-0.3,4.8l12.7,21.2c0,0,2.1,2.8,3.9,2.8c1.8,0,3.6-1.5,3.6-1.5l10-14.4
			c0,0,1-1.8,1-3.4c0-2.3-3.4-2.9-3.4-2.9l-23.8-7.6C63.3,62.9,61,62.2,59.5,63.8z"/>
		<path class="st11" d="M58.3,53.1c1.2,2.1,4.6,1.5,4.6,1.5l23.7-6.9c0,0,3.2-1.3,3.7-3.1c0.5-1.8-0.5-3.9-0.5-3.9L78.4,27.4
			c0,0-1-1.7-3-1.9c-2.2-0.2-3.6,2.5-3.6,2.5L58.3,49.1C58.3,49.1,57.1,51.2,58.3,53.1z"/>
		<path class="st11" d="M47,44.9c2.8-0.7,3.2-4.7,3.2-4.7L50.1,6.4c0,0-0.4-4.2-2.3-5.3c-2.9-1.8-3.8-0.9-4.6-0.7L23.5,7.7
			c0,0-1.9,0.6-2.9,2.2c-1.4,2.3,1.5,5.6,1.5,5.6l20.5,27.9C42.5,43.4,44.5,45.5,47,44.9z"/>
		<path class="st11" d="M42.2,58.6c0.1-2.6-3.1-4.2-3.1-4.2L17.9,43.7c0,0-3.1-1.3-4.7-0.4c-1.2,0.7-2.2,1.9-2.3,3l-1.4,17
			c0,0-0.2,2.9,0.6,4.3c1.1,1.9,4.6,0.6,4.6,0.6l24.7-5.5C40.4,62.1,42.1,62,42.2,58.6z"/>
		<path class="st11" d="M48.3,67.7c-2.1-1.1-4.7,1.2-4.7,1.2L27.1,87.1c0,0-2.1,2.8-1.5,4.5c0.5,1.6,1.3,2.4,2.5,3l16.6,5.2
			c0,0,2,0.4,3.5,0c2.2-0.6,1.8-4,1.8-4l0.4-24.7C50.4,71.1,50.3,68.7,48.3,67.7z"/>
	</g>
</g>
</svg>
