<?xml version="1.0" encoding="utf-8"?>
<!-- Generator: Adobe Illustrator 16.0.0, SVG Export Plug-In . SVG Version: 6.00 Build 0)  -->
<!DOCTYPE svg PUBLIC "-//W3C//DTD SVG 1.1//EN" "http://www.w3.org/Graphics/SVG/1.1/DTD/svg11.dtd">
<svg version="1.1" id="socialicious" xmlns="http://www.w3.org/2000/svg" xmlns:xlink="http://www.w3.org/1999/xlink" x="0px"
	 y="0px" width="100px" height="100px" viewBox="0 0 100 100" style="enable-background:new 0 0 100 100;" xml:space="preserve">
<style type="text/css">
<![CDATA[
	.st0{fill:#464342;}
	.st1{fill:#E04B26;}
	.st2{fill:#E74B24;}
	.st3{fill:#E94C88;}
	.st4{fill:#1AB6EA;}
	.st5{fill:#EA2429;}
	.st6{fill:#EC1E82;}
	.st7{fill:#B9B9BA;}
	.st8{fill:#EE3E53;}
	.st9{fill:#EE4977;}
	.st10{fill:#5496D0;}
	.st11{fill:#BBBBBB;}
	.st12{fill:#BCBCBC;}
	.st13{fill:#F16722;}
	.st14{fill:#5A471C;}
	.st15{fill:url(#SVGID_1_);}
	.st16{fill:url(#SVGID_2_);}
	.st17{fill:#2AA9E0;}
	.st18{fill-rule:evenodd;clip-rule:evenodd;fill:#BBBBBB;}
	.st19{fill-rule:evenodd;clip-rule:evenodd;fill:#BCBCBC;}
	.st20{fill:#C93C27;}
	.st21{fill:#638BB0;}
	.st22{fill:#CA2027;}
	.st23{fill:#30302F;}
	.st24{fill:#34373D;}
	.st25{fill:#00405D;}
	.st26{fill:#007EE5;}
	.st27{fill:#00A8E1;}
	.st28{fill-rule:evenodd;clip-rule:evenodd;fill:#FFFFFF;}
	.st29{fill:#035795;}
	.st30{fill:#3C5A97;}
	.st31{fill:#3F64AE;}
	.st32{fill:#3F729B;}
	.st33{fill:#A42F23;}
	.st34{fill:#75C044;}
	.st35{fill:#A72723;}
	.st36{fill:#DB2726;}
	.st37{fill:#DD3333;}
	.st38{fill:url(#soundcloud_2_);}
	.st39{fill:#442D86;}
	.st40{fill:#44556B;}
]]>
</style>
<path class="st37" d="M89.2,0H10.8C4.8,0,0,4.9,0,10.8v78.4c0,6,4.8,10.8,10.8,10.8h78.4c6,0,10.8-4.8,10.8-10.8V10.8
	C100,4.9,95.2,0,89.2,0z"/>
<path class="st28" d="M69.9,75.8c-1.8,0.5-2.4-0.2-2.9-1.8c-2.9-9.6-5.9-19.1-9-29c-0.2,1.3-0.4,2.3-0.4,3.4
	C57.2,54.2,57,60,56.7,65.8c-0.1,1.4-0.2,2.8-0.8,4c-0.4,0.9-1.5,1.6-2.5,1.9c-1.4,0.4-3,0.1-4.4,0.6c-3.6,1.1-5.5-0.8-7.1-3.5
	c-2-3.4-4.1-6.7-6.2-10.1c-0.2,0-0.3,0-0.4,0c0.4,3.1,0.7,6.2,1.2,9.2c0.3,1.8-0.4,2.8-2,3.5c-0.3,0.1-0.6,0.3-1,0.5
	c-6.9,2.6-8.2,1.7-9.3-5.5c-1.6-10.3-1.2-20.7-0.8-31.1c0-0.6,0.7-1.4,1.3-1.7c1.2-0.5,2.4-0.8,3.7-1c5.1-0.8,6.4-0.2,8.8,4.3
	c2.3,4.5,4.7,9,7,13.5c0.3,0.6,0.7,1.2,1.2,2c1-5,1.8-9.7,3.1-14.2c1.2-4.3,3-8.5,4.7-12.6c0.3-0.7,1.7-1.5,2.5-1.5
	c2.5,0,5.1-0.1,7.4,0.7c1.4,0.5,2.7,2.4,3.1,4c1.6,5.4,2.8,10.9,4,16.3c2.2,9.6,4.3,19.1,6.6,29C74.8,74.5,72.3,75.1,69.9,75.8
	L69.9,75.8z"/>
</svg>
