<?xml version="1.0" encoding="utf-8"?>
<!-- Generator: Adobe Illustrator 16.0.0, SVG Export Plug-In . SVG Version: 6.00 Build 0)  -->
<!DOCTYPE svg PUBLIC "-//W3C//DTD SVG 1.1//EN" "http://www.w3.org/Graphics/SVG/1.1/DTD/svg11.dtd">
<svg version="1.1" id="socialicious" xmlns="http://www.w3.org/2000/svg" xmlns:xlink="http://www.w3.org/1999/xlink" x="0px"
	 y="0px" width="100px" height="100px" viewBox="0 0 100 100" style="enable-background:new 0 0 100 100;" xml:space="preserve">
<style type="text/css">
<![CDATA[
	.st0{fill:#464342;}
	.st1{fill:#E14C26;}
	.st2{fill:#E84C24;}
	.st3{fill:#EA4C89;}
	.st4{fill:#EB2629;}
	.st5{fill:#ED1E83;}
	.st6{fill:#1FB7EA;}
	.st7{fill:#EF3F53;}
	.st8{fill:#5597D1;}
	.st9{fill:#8B2C8E;}
	.st10{fill:#BBBBBB;}
	.st11{fill:#BCBCBC;}
	.st12{fill:#F26722;}
	.st13{fill:#5A481C;}
	.st14{fill:url(#SVGID_1_);}
	.st15{fill:url(#SVGID_2_);}
	.st16{fill:#2CAAE1;}
	.st17{fill-rule:evenodd;clip-rule:evenodd;fill:#BCBCBC;}
	.st18{fill:#638CB1;}
	.st19{fill:#CA3C27;}
	.st20{fill:#CB2027;}
	.st21{fill:#303030;}
	.st22{fill:#33373D;}
	.st23{fill:#00A8E1;}
	.st24{fill:#065897;}
	.st25{fill:#3D5B99;}
	.st26{fill:#3F729B;}
	.st27{fill:#75C044;}
	.st28{fill:#A52F23;}
	.st29{fill:#0BBADF;}
	.st30{fill:#A72822;}
	.st31{fill:#DC2726;}
	.st32{fill:#4064AF;}
	.st33{fill:url(#soundcloud_2_);}
	.st34{fill:#45556B;}
]]>
</style>
<g id="foursquare">
	<g>
		<path class="st11" d="M35.2,69.4l-4.5-13.8h38.5l-4.9,14.2c0,0-0.3,1.2-1.9,1.2H37.4C35.4,71,35.2,69.4,35.2,69.4 M75.1,46.1
			c-0.7,0-1.3-0.1-2-0.4l-3.3,8.5H30.2l-3.3-8.5c-0.7,0.3-1.3,0.4-2,0.4c-2.5,0-4.6-2.1-4.6-4.6c0-2.5,2.1-4.6,4.6-4.6
			c2.5,0,4.6,2.1,4.6,4.6c0,1.2-0.6,2.4-1.3,3.2c6.2,3.8,16.9,1.9,21.2-6.5c-2.3-0.2-4.1-2.2-4.1-4.5c0-2.5,2.1-4.6,4.6-4.6
			c2.5,0,4.6,2.1,4.6,4.6c0,2.3-1.8,4.3-4.1,4.5c4.3,8.4,15,10.3,21.2,6.5c-0.8-0.8-1.3-2-1.3-3.2c0-2.5,2.1-4.6,4.6-4.6
			c2.5,0,4.6,2.1,4.6,4.6C79.7,44,77.6,46.1,75.1,46.1"/>
		<path class="st11" d="M50,9C27.4,9,9,27.4,9,50s18.4,41,41,41s41-18.4,41-41S72.6,9,50,9 M50,100C22.4,100,0,77.6,0,50
			C0,22.4,22.4,0,50,0c27.6,0,50,22.4,50,50C100,77.6,77.6,100,50,100"/>
	</g>
</g>
</svg>
