<?xml version="1.0" encoding="utf-8"?>
<!-- Generator: Adobe Illustrator 16.0.0, SVG Export Plug-In . SVG Version: 6.00 Build 0)  -->
<!DOCTYPE svg PUBLIC "-//W3C//DTD SVG 1.1//EN" "http://www.w3.org/Graphics/SVG/1.1/DTD/svg11.dtd">
<svg version="1.1" id="socialicious" xmlns="http://www.w3.org/2000/svg" xmlns:xlink="http://www.w3.org/1999/xlink" x="0px"
	 y="0px" width="100px" height="100px" viewBox="0 0 100 100" style="enable-background:new 0 0 100 100;" xml:space="preserve">
<style type="text/css">
<![CDATA[
	.st0{fill:#464342;}
	.st1{fill:#E04B26;}
	.st2{fill:#E74B24;}
	.st3{fill:#E94C88;}
	.st4{fill:#1AB6EA;}
	.st5{fill:#EA2429;}
	.st6{fill:#EC1E82;}
	.st7{fill:#B9B9BA;}
	.st8{fill:#EE3E53;}
	.st9{fill:#EE4977;}
	.st10{fill:#5496D0;}
	.st11{fill:#BBBBBB;}
	.st12{fill:#BCBCBC;}
	.st13{fill:#F16722;}
	.st14{fill:#5A471C;}
	.st15{fill:url(#SVGID_1_);}
	.st16{fill:url(#SVGID_2_);}
	.st17{fill:#2AA9E0;}
	.st18{fill-rule:evenodd;clip-rule:evenodd;fill:#BBBBBB;}
	.st19{fill-rule:evenodd;clip-rule:evenodd;fill:#BCBCBC;}
	.st20{fill:#C93C27;}
	.st21{fill:#638BB0;}
	.st22{fill:#CA2027;}
	.st23{fill:#30302F;}
	.st24{fill:#34373D;}
	.st25{fill:#00405D;}
	.st26{fill:#007EE5;}
	.st27{fill:#00A8E1;}
	.st28{fill-rule:evenodd;clip-rule:evenodd;fill:#FFFFFF;}
	.st29{fill:#035795;}
	.st30{fill:#3C5A97;}
	.st31{fill:#3F64AE;}
	.st32{fill:#3F729B;}
	.st33{fill:#A42F23;}
	.st34{fill:#75C044;}
	.st35{fill:#A72723;}
	.st36{fill:#DB2726;}
	.st37{fill:#DD3333;}
	.st38{fill:url(#soundcloud_2_);}
	.st39{fill:#442D86;}
	.st40{fill:#44556B;}
]]>
</style>
<g id="bebo">
	<path class="st19" d="M99.5,41.5l-0.8-1.7l-1.4-1.1c-1.8-1.4-11.1,0.1-13.6-2.2c-1.8-1.6-2-4.6-2.6-8.6c-1-7.7-1.6-8.1-2.8-10.7
		C73.9,8,62,1,53.8,0H31.8C14.4,0,0.2,14.2,0.2,31.6v36.9c0,17.3,14.2,31.5,31.6,31.5H68c17.4,0,31.5-14.2,31.6-31.5l0.2-25.5
		L99.5,41.5z M32.2,25.8h17.5c3.3,0,6,2.7,6,6c0,3.3-2.7,6-6,6H32.2c-3.3,0-6-2.7-6-6C26.1,28.5,28.8,25.8,32.2,25.8z M67.7,74H32.2
		c-3.3,0-6-2.7-6-6c0-3.3,2.7-6,6-6h35.6c3.3,0,6,2.7,6,6C73.8,71.3,71,74,67.7,74z"/>
</g>
</svg>
