<?xml version="1.0" encoding="utf-8"?>
<!-- Generator: Adobe Illustrator 16.0.0, SVG Export Plug-In . SVG Version: 6.00 Build 0)  -->
<!DOCTYPE svg PUBLIC "-//W3C//DTD SVG 1.1//EN" "http://www.w3.org/Graphics/SVG/1.1/DTD/svg11.dtd">
<svg version="1.1" id="socialicious" xmlns="http://www.w3.org/2000/svg" xmlns:xlink="http://www.w3.org/1999/xlink" x="0px"
	 y="0px" width="100px" height="100px" viewBox="0 0 100 100" style="enable-background:new 0 0 100 100;" xml:space="preserve">
<style type="text/css">
<![CDATA[
	.st0{fill:#464342;}
	.st1{fill:#E04B26;}
	.st2{fill:#E74B24;}
	.st3{fill:#E94C88;}
	.st4{fill:#1AB6EA;}
	.st5{fill:#EA2429;}
	.st6{fill:#EC1E82;}
	.st7{fill:#B9B9BA;}
	.st8{fill:#EE3E53;}
	.st9{fill:#EE4977;}
	.st10{fill:#5496D0;}
	.st11{fill:#BBBBBB;}
	.st12{fill:#BCBCBC;}
	.st13{fill:#F16722;}
	.st14{fill:#5A471C;}
	.st15{fill:url(#SVGID_1_);}
	.st16{fill:url(#SVGID_2_);}
	.st17{fill:#2AA9E0;}
	.st18{fill-rule:evenodd;clip-rule:evenodd;fill:#BBBBBB;}
	.st19{fill-rule:evenodd;clip-rule:evenodd;fill:#BCBCBC;}
	.st20{fill:#C93C27;}
	.st21{fill:#638BB0;}
	.st22{fill:#CA2027;}
	.st23{fill:#30302F;}
	.st24{fill:#34373D;}
	.st25{fill:#00405D;}
	.st26{fill:#007EE5;}
	.st27{fill:#00A8E1;}
	.st28{fill-rule:evenodd;clip-rule:evenodd;fill:#FFFFFF;}
	.st29{fill:#035795;}
	.st30{fill:#3C5A97;}
	.st31{fill:#3F64AE;}
	.st32{fill:#3F729B;}
	.st33{fill:#A42F23;}
	.st34{fill:#75C044;}
	.st35{fill:#A72723;}
	.st36{fill:#DB2726;}
	.st37{fill:#DD3333;}
	.st38{fill:url(#soundcloud_2_);}
	.st39{fill:#442D86;}
	.st40{fill:#44556B;}
]]>
</style>
<linearGradient id="soundcloud_2_" gradientUnits="userSpaceOnUse" x1="0" y1="50" x2="100" y2="50">
	<stop  offset="0" style="stop-color:#EE3F23"/>
	<stop  offset="1" style="stop-color:#EE3B24"/>
</linearGradient>
<path id="soundcloud" class="st38" d="M89.2,0H10.8C4.8,0,0,4.8,0,10.8v78.4c0,6,4.8,10.8,10.8,10.8h78.4c6,0,10.8-4.8,10.8-10.8
	V10.8C100,4.8,95.2,0,89.2,0z M12.7,63.7c0,0.2-0.2,0.3-0.3,0.3c-0.2,0-0.3-0.1-0.3-0.3l-0.6-4.2l0.6-4.3c0-0.2,0.1-0.3,0.3-0.3
	c0.2,0,0.3,0.1,0.3,0.3l0.7,4.3L12.7,63.7z M15.6,66.3c0,0.2-0.2,0.3-0.3,0.3c-0.2,0-0.3-0.1-0.3-0.3l-0.8-6.7c0,0,0.8-6.9,0.8-6.9
	c0-0.2,0.2-0.3,0.3-0.3c0.2,0,0.3,0.1,0.3,0.3l0.9,6.9L15.6,66.3z M18.7,67.4c0,0.2-0.2,0.4-0.4,0.4c-0.2,0-0.4-0.2-0.4-0.4
	l-0.7-7.9l0.7-8.2c0-0.2,0.2-0.4,0.4-0.4c0.2,0,0.4,0.2,0.4,0.4l0.8,8.2L18.7,67.4z M21.8,67.7c0,0.3-0.2,0.4-0.4,0.4
	c-0.2,0-0.4-0.2-0.5-0.4l-0.7-8.1l0.7-8.4c0-0.3,0.2-0.4,0.5-0.4c0.2,0,0.4,0.2,0.4,0.4l0.8,8.4L21.8,67.7z M24.9,67.7
	c0,0.3-0.2,0.5-0.5,0.5c-0.3,0-0.5-0.2-0.5-0.5l-0.6-8.2l0.6-7.8c0-0.3,0.2-0.5,0.5-0.5c0.3,0,0.5,0.2,0.5,0.5l0.7,7.8L24.9,67.7z
	 M28.1,67.7L28.1,67.7c0,0.3-0.3,0.6-0.6,0.6c-0.3,0-0.6-0.3-0.6-0.6l-0.6-8.2l0.6-12.7c0-0.3,0.3-0.6,0.6-0.6
	c0.3,0,0.6,0.3,0.6,0.6l0.7,12.7L28.1,67.7z M31.3,67.7c0,0.4-0.3,0.6-0.6,0.6c-0.3,0-0.6-0.3-0.6-0.6l-0.6-8.2
	c0,0,0.6-15.6,0.6-15.6c0-0.4,0.3-0.6,0.6-0.6c0.3,0,0.6,0.3,0.6,0.6l0.6,15.6L31.3,67.7z M34.5,67.6c0,0.4-0.3,0.7-0.7,0.7
	c-0.4,0-0.7-0.3-0.7-0.7l-0.5-8.1c0,0,0.5-16.9,0.5-16.9c0-0.4,0.3-0.7,0.7-0.7c0.4,0,0.7,0.3,0.7,0.7l0.6,16.9L34.5,67.6z
	 M37.7,67.6L37.7,67.6c0,0.4-0.4,0.8-0.8,0.8c-0.4,0-0.8-0.3-0.8-0.8l-0.5-8l0.5-17.5c0-0.4,0.4-0.8,0.8-0.8c0.4,0,0.8,0.3,0.8,0.8
	l0.5,17.5L37.7,67.6z M41,67.5L41,67.5c0,0.5-0.4,0.8-0.8,0.8c-0.5,0-0.8-0.4-0.8-0.8l-0.4-7.9l0.4-17c0-0.5,0.4-0.8,0.8-0.8
	c0.5,0,0.8,0.4,0.8,0.8l0.5,17L41,67.5z M44.3,67.4L44.3,67.4c0,0.5-0.4,0.9-0.9,0.9c-0.5,0-0.9-0.4-0.9-0.9L42,59.5l0.4-16.4
	c0-0.5,0.4-0.9,0.9-0.9c0.5,0,0.9,0.4,0.9,0.9l0.5,16.4L44.3,67.4z M47.6,67.4c0,0.5-0.4,1-1,1c-0.5,0-1-0.4-1-1
	c0,0-0.4-7.8-0.4-7.8L45.6,40c0-0.5,0.4-1,1-1c0.5,0,1,0.4,1,1L48,59.5L47.6,67.4z M50.9,67.3L50.9,67.3c0,0.6-0.5,1-1,1s-1-0.5-1-1
	l-0.4-7.7l0.4-21.3c0-0.6,0.5-1,1-1s1,0.5,1,1l0.5,21.3L50.9,67.3z M79,68.4c-0.2,0-26.2,0-26.2,0c-0.6-0.1-1-0.5-1-1.1v-30
	c0-0.6,0.2-0.8,0.9-1.1c1.8-0.7,3.9-1.1,6-1.1c8.7,0,15.9,6.7,16.6,15.2c1.1-0.5,2.4-0.7,3.7-0.7c5.2,0,9.5,4.2,9.5,9.5
	C88.4,64.1,84.2,68.4,79,68.4z"/>
</svg>
