<?xml version="1.0" encoding="utf-8"?>
<!DOCTYPE svg PUBLIC "-//W3C//DTD SVG 1.1//EN" "http://www.w3.org/Graphics/SVG/1.1/DTD/svg11.dtd">
<svg version="1.1" id="Layer_1" xmlns="http://www.w3.org/2000/svg" xmlns:xlink="http://www.w3.org/1999/xlink" x="0px" y="0px"
	 width="99.441px" height="99.44px" viewBox="0 0 99.441 99.44" enable-background="new 0 0 99.441 99.44" xml:space="preserve">
<g id="instagram">
	<path fill-rule="evenodd" clip-rule="evenodd" fill="#BCBCBC" d="M87.688,42.122h-8.593c0.627,2.431,0.996,4.97,0.996,7.597
		c0,16.776-13.598,30.371-30.371,30.371c-16.775,0-30.374-13.595-30.374-30.371c0-2.627,0.372-5.166,0.999-7.597h-8.594v41.768
		c0,2.091,1.696,3.793,3.8,3.793h68.336c2.1,0,3.8-1.702,3.8-3.793V42.122z M87.688,15.546c0-2.095-1.7-3.797-3.8-3.797H72.502
		c-2.097,0-3.797,1.702-3.797,3.797v11.393c0,2.093,1.7,3.796,3.797,3.796h11.387c2.1,0,3.8-1.704,3.8-3.796V15.546z M49.721,30.735
		c-10.487,0-18.985,8.498-18.985,18.983c0,10.48,8.499,18.982,18.985,18.982c10.483,0,18.984-8.502,18.984-18.982
		C68.705,39.233,60.204,30.735,49.721,30.735 M87.688,99.077H11.753c-6.291,0-11.39-5.101-11.39-11.395V11.75
		c0-6.29,5.099-11.387,11.39-11.387h75.936c6.292,0,11.39,5.097,11.39,11.387v75.933C99.078,93.976,93.98,99.077,87.688,99.077"/>
</g>
</svg>
