<?xml version="1.0" encoding="utf-8"?>
<!-- Generator: Adobe Illustrator 15.1.0, SVG Export Plug-In . SVG Version: 6.00 Build 0)  -->
<!DOCTYPE svg PUBLIC "-//W3C//DTD SVG 1.1//EN" "http://www.w3.org/Graphics/SVG/1.1/DTD/svg11.dtd">
<svg version="1.1" id="Layer_1" xmlns="http://www.w3.org/2000/svg" xmlns:xlink="http://www.w3.org/1999/xlink" x="0px" y="0px"
	 width="99.441px" height="99.44px" viewBox="0 0 99.441 99.44" enable-background="new 0 0 99.441 99.44" xml:space="preserve">
<g id="twitter" display="none">
	<path display="inline" fill="#BCBCBC" d="M90.066,23.566c-2.957,1.312-6.135,2.197-9.471,2.596c3.404-2.04,6.02-5.274,7.25-9.125
		c-3.188,1.891-6.715,3.263-10.473,4.002c-3.008-3.204-7.295-5.208-12.037-5.208c-9.109,0-16.494,7.385-16.494,16.493
		c0,1.291,0.146,2.55,0.428,3.758C35.562,35.394,23.41,28.829,15.275,18.85c-1.418,2.436-2.232,5.269-2.232,8.291
		c0,5.723,2.91,10.77,7.336,13.729c-2.701-0.086-5.244-0.829-7.469-2.064c-0.002,0.07-0.002,0.139-0.002,0.208
		c0,7.99,5.686,14.656,13.23,16.172c-1.385,0.375-2.842,0.578-4.346,0.578c-1.062,0-2.096-0.104-3.104-0.297
		c2.1,6.553,8.191,11.322,15.406,11.453c-5.645,4.426-12.754,7.061-20.482,7.061c-1.33,0-2.643-0.078-3.934-0.229
		c7.299,4.678,15.969,7.408,25.281,7.408c30.334,0,46.926-25.131,46.926-46.924c0-0.715-0.018-1.427-0.049-2.135
		C85.061,29.777,87.855,26.872,90.066,23.566z"/>
</g>
<g id="linkedin" display="none">
	<path display="inline" fill-rule="evenodd" clip-rule="evenodd" fill="#BCBCBC" d="M30.334,82.703V36.541H14.992v46.162H30.334
		L30.334,82.703z M22.664,30.242c5.35,0,8.68-3.548,8.68-7.978c-0.1-4.529-3.33-7.977-8.578-7.977c-5.25,0-8.68,3.447-8.68,7.977
		c0,4.43,3.328,7.978,8.479,7.978H22.664L22.664,30.242z"/>
	<path display="inline" fill-rule="evenodd" clip-rule="evenodd" fill="#BCBCBC" d="M38.826,82.703h15.342V56.923
		c0-1.379,0.1-2.76,0.506-3.744c1.107-2.756,3.633-5.613,7.871-5.613c5.553,0,7.773,4.236,7.773,10.441v24.695H85.66V56.232
		c0-14.177-7.57-20.773-17.664-20.773c-8.277,0-11.91,4.628-13.93,7.777h0.102v-6.695H38.826
		C39.027,40.871,38.826,82.703,38.826,82.703L38.826,82.703z"/>
</g>
<g id="facebook" display="none">
	<path display="inline" fill="#BCBCBC" d="M41.734,82.709V50.6h-8.49V39.039h8.49c0,0,0-4.736,0-9.873
		c0-7.761,5.014-14.885,16.57-14.885c4.68,0,8.139,0.449,8.139,0.449l-0.271,10.795c0,0-3.529-0.034-7.379-0.034
		c-4.168,0-4.834,1.921-4.834,5.107c0,2.52,0-5.371,0,8.44h12.543L65.957,50.6H53.959v32.109H41.734z"/>
</g>
<g id="yelp" display="none">
	<g display="inline">
		<path fill="#BCBCBC" d="M56.42,58.055c-1.168,1.177-0.182,3.32-0.182,3.32l8.791,14.678c0,0,1.443,1.935,2.695,1.935
			c1.256,0,2.496-1.03,2.496-1.03l6.951-9.934c0,0,0.699-1.255,0.715-2.353c0.025-1.561-2.328-1.99-2.328-1.99l-16.453-5.283
			C59.105,57.398,57.492,56.97,56.42,58.055z"/>
		<path fill="#BCBCBC" d="M55.586,50.655c0.84,1.429,3.164,1.013,3.164,1.013l16.416-4.799c0,0,2.236-0.909,2.557-2.123
			c0.314-1.213-0.371-2.678-0.371-2.678l-7.844-9.24c0,0-0.68-1.169-2.09-1.286c-1.555-0.133-2.514,1.75-2.514,1.75L55.631,47.89
			C55.631,47.89,54.809,49.344,55.586,50.655z"/>
		<path fill="#BCBCBC" d="M47.828,44.965c1.934-0.477,2.24-3.282,2.24-3.282l-0.129-23.375c0,0-0.293-2.884-1.588-3.663
			c-2.033-1.233-2.635-0.591-3.217-0.504l-13.631,5.064c0,0-1.334,0.439-2.029,1.555c-0.992,1.579,1.01,3.89,1.01,3.89L44.65,43.958
			C44.65,43.958,46.049,45.405,47.828,44.965z"/>
		<path fill="#BCBCBC" d="M44.463,54.424c0.049-1.804-2.164-2.886-2.164-2.886l-14.65-7.402c0,0-2.17-0.895-3.225-0.271
			c-0.807,0.478-1.521,1.341-1.592,2.104l-0.955,11.746c0,0-0.143,2.034,0.383,2.961c0.748,1.313,3.207,0.398,3.207,0.398
			l17.102-3.779C43.234,56.847,44.4,56.808,44.463,54.424z"/>
		<path fill="#BCBCBC" d="M48.717,60.764c-1.469-0.755-3.225,0.805-3.225,0.805L34.039,74.177c0,0-1.428,1.929-1.066,3.112
			c0.342,1.108,0.91,1.661,1.711,2.05l11.502,3.631c0,0,1.395,0.291,2.451-0.018c1.498-0.435,1.221-2.781,1.221-2.781l0.26-17.068
			C50.117,63.103,50.061,61.458,48.717,60.764z"/>
	</g>
</g>
<g id="lastfm" display="none">
	<path display="inline" fill="#BCBCBC" d="M44.747,67.358l-3.186-8.66c0,0-5.178,5.777-12.941,5.777
		c-6.867,0-11.744-5.975-11.744-15.531c0-12.244,6.17-16.625,12.244-16.625c8.756,0,11.545,5.675,13.936,12.94l3.188,9.954
		c3.182,9.656,9.154,17.42,26.375,17.42c12.344,0,20.705-3.781,20.705-13.736c0-8.062-4.58-12.242-13.139-14.233l-6.371-1.395
		c-4.381-0.996-5.674-2.786-5.674-5.773c0-3.384,2.688-5.374,7.066-5.374c4.779,0,7.367,1.792,7.766,6.071l9.955-1.196
		c-0.799-8.957-6.969-12.64-17.123-12.64c-8.959,0-17.719,3.383-17.719,14.235c0,6.768,3.287,11.046,11.545,13.041l6.77,1.59
		c5.08,1.197,6.77,3.287,6.77,6.172c0,3.684-3.584,5.176-10.354,5.176c-10.051,0-14.23-5.275-16.623-12.541l-3.283-9.953
		c-4.18-12.941-10.85-17.72-24.09-17.72c-14.633,0-22.396,9.256-22.396,24.983c0,15.135,7.764,23.293,21.699,23.293
		C39.37,72.633,44.747,67.358,44.747,67.358L44.747,67.358z"/>
</g>
<g id="tumblr" display="none">
	<path display="inline" fill="#BCBCBC" d="M52.367,15.294v16.785h15.758v10.424H52.367v17.028c0,3.848,0.203,6.318,0.613,7.414
		c0.404,1.092,1.166,1.965,2.273,2.617c1.471,0.881,3.148,1.322,5.041,1.322c3.359,0,6.705-1.094,10.031-3.281v10.473
		c-2.838,1.336-5.406,2.277-7.707,2.814c-2.299,0.537-4.787,0.807-7.461,0.807c-3.033,0-5.719-0.383-8.051-1.148
		c-2.332-0.768-4.32-1.861-5.969-3.277c-1.648-1.42-2.789-2.93-3.426-4.529c-0.637-1.598-0.955-3.914-0.955-6.947V42.503H29.42
		v-9.397c2.607-0.848,4.844-2.062,6.701-3.645c1.863-1.58,3.354-3.481,4.479-5.702c1.125-2.216,1.898-5.037,2.324-8.465H52.367z"/>
</g>
<g id="pinterest" display="none">
	<path display="inline" fill="#BCBCBC" d="M51.458,14.69c-18.451,0-27.756,13.229-27.756,24.26c0,6.679,2.529,12.623,7.955,14.835
		c0.889,0.363,1.684,0.012,1.941-0.973c0.182-0.68,0.604-2.4,0.793-3.115c0.262-0.975,0.16-1.316-0.559-2.166
		c-1.562-1.844-2.561-4.232-2.561-7.614c0-9.814,7.34-18.601,19.117-18.601c10.432,0,16.16,6.372,16.16,14.882
		c0,11.198-4.955,20.649-12.311,20.649c-4.064,0-7.107-3.359-6.131-7.48c1.168-4.92,3.43-10.229,3.43-13.782
		c0-3.178-1.707-5.829-5.24-5.829c-4.152,0-7.488,4.296-7.488,10.052c0,3.665,1.238,6.145,1.238,6.145s-4.25,18.008-4.994,21.16
		c-1.484,6.281-0.225,13.982-0.117,14.76c0.062,0.461,0.654,0.568,0.924,0.223c0.383-0.502,5.33-6.607,7.012-12.709
		c0.475-1.729,2.732-10.676,2.732-10.676c1.35,2.574,5.291,4.84,9.484,4.84c12.484,0,20.955-11.381,20.955-26.613
		C76.044,25.417,66.286,14.69,51.458,14.69z"/>
</g>
<g id="flickr" display="none">
	<circle display="inline" fill="#BCBCBC" cx="33.11" cy="48.496" r="13.604"/>
	<circle display="inline" fill="#BCBCBC" cx="66.634" cy="48.496" r="13.604"/>
</g>
<g id="vevo" display="none">
	<polygon display="inline" fill="#BCBCBC" points="9.563,21.145 29.435,21.145 50.333,62.421 71.136,21.145 90.183,21.145 
		61.146,75.845 40.263,75.845 	"/>
</g>
<g id="wordpress" display="none">
	<g display="inline">
		<path fill="#BCBCBC" d="M21.562,48.495c0,11.205,6.514,20.89,15.957,25.477L24.014,36.974
			C22.445,40.494,21.562,44.39,21.562,48.495z"/>
		<path fill="#BCBCBC" d="M68.984,47.067c0-3.5-1.258-5.923-2.336-7.808c-1.434-2.333-2.779-4.307-2.779-6.639
			c0-2.603,1.973-5.025,4.754-5.025c0.127,0,0.244,0.015,0.365,0.022c-5.035-4.614-11.748-7.432-19.115-7.432
			c-9.891,0-18.592,5.074-23.652,12.759c0.664,0.022,1.289,0.035,1.82,0.035c2.963,0,7.545-0.359,7.545-0.359
			c1.525-0.09,1.705,2.15,0.182,2.332c0,0-1.533,0.18-3.24,0.269l10.309,30.666l6.197-18.58l-4.41-12.085
			c-1.525-0.089-2.971-0.269-2.971-0.269c-1.525-0.09-1.346-2.422,0.18-2.332c0,0,4.674,0.359,7.457,0.359
			c2.959,0,7.543-0.359,7.543-0.359c1.525-0.09,1.707,2.15,0.182,2.332c0,0-1.535,0.18-3.238,0.269l10.23,30.432l2.824-9.435
			C68.051,52.301,68.984,49.489,68.984,47.067z"/>
		<path fill="#BCBCBC" d="M50.369,50.97l-8.494,24.683c2.537,0.745,5.219,1.152,7.998,1.152c3.297,0,6.457-0.568,9.4-1.604
			c-0.076-0.122-0.145-0.25-0.203-0.391L50.369,50.97z"/>
		<path fill="#BCBCBC" d="M49.873,13.272c-19.422,0-35.223,15.8-35.223,35.222c0,19.423,15.801,35.224,35.223,35.224
			s35.223-15.801,35.223-35.224C85.096,29.072,69.295,13.272,49.873,13.272z M49.873,79.982c-17.363,0-31.486-14.125-31.486-31.487
			c0-17.363,14.123-31.487,31.486-31.487c17.361,0,31.484,14.124,31.484,31.487C81.357,65.857,67.234,79.982,49.873,79.982z"/>
		<path fill="#BCBCBC" d="M74.715,34.913c0.121,0.901,0.189,1.867,0.189,2.91c0,2.872-0.537,6.103-2.152,10.141l-8.646,24.999
			c8.416-4.907,14.076-14.025,14.076-24.469C78.182,43.572,76.924,38.944,74.715,34.913z"/>
	</g>
</g>
<g id="bebo" display="none">
	<path display="inline" fill-rule="evenodd" clip-rule="evenodd" fill="#BCBCBC" d="M83.035,42.822l-0.559-1.164l-0.939-0.737
		c-1.23-0.963-7.451,0.066-9.131-1.456c-1.186-1.096-1.363-3.064-1.723-5.727c-0.672-5.172-1.096-5.438-1.9-7.184
		c-2.932-6.222-10.877-10.899-16.336-11.547H37.654c-11.637,0-21.146,9.531-21.146,21.168v24.683
		c0,11.613,9.51,21.124,21.146,21.124h24.301c11.637,0,21.08-9.511,21.148-21.124l0.135-17.097L83.035,42.822z M37.922,32.304
		h11.727c2.238,0,4.051,1.813,4.051,4.029c0,2.215-1.812,4.051-4.051,4.051H37.922c-2.236,0-4.049-1.836-4.049-4.051
		C33.873,34.117,35.686,32.304,37.922,32.304z M61.754,64.573H37.922c-2.236,0-4.049-1.835-4.049-4.027
		c0-2.216,1.812-4.027,4.049-4.027h23.832c2.217,0,4.029,1.812,4.029,4.027C65.783,62.738,63.971,64.573,61.754,64.573z"/>
</g>
<g id="instagram" display="none">
	<path display="inline" fill-rule="evenodd" clip-rule="evenodd" fill="#BCBCBC" d="M75.929,43.281h-5.896
		c0.43,1.669,0.684,3.411,0.684,5.214c0,11.513-9.331,20.842-20.843,20.842s-20.844-9.329-20.844-20.842
		c0-1.803,0.255-3.545,0.686-5.214h-5.897v28.663c0,1.436,1.164,2.604,2.607,2.604h46.896c1.441,0,2.607-1.168,2.607-2.604V43.281z
		 M75.929,25.043c0-1.438-1.166-2.605-2.607-2.605h-7.814c-1.439,0-2.605,1.168-2.605,2.605v7.818c0,1.437,1.166,2.605,2.605,2.605
		h7.814c1.441,0,2.607-1.169,2.607-2.605V25.043z M49.873,35.467c-7.196,0-13.028,5.831-13.028,13.027
		c0,7.192,5.832,13.027,13.028,13.027c7.194,0,13.028-5.835,13.028-13.027C62.901,41.298,57.067,35.467,49.873,35.467
		 M75.929,82.367H23.817c-4.317,0-7.816-3.5-7.816-7.819V22.438c0-4.316,3.499-7.814,7.816-7.814h52.111
		c4.317,0,7.816,3.498,7.816,7.814v52.109C83.745,78.867,80.246,82.367,75.929,82.367"/>
</g>
<g id="googleplus" display="none">
	<g display="inline">
		<path fill="#BCBCBC" d="M44.57,53.47c-1.877-1.328-5.467-4.561-5.467-6.461c0-2.225,0.637-3.322,3.986-5.941
			c3.438-2.685,5.867-6.346,5.867-10.734c0-5.226-2.328-10.191-6.697-11.887h6.588l4.648-3.389c0,0-15.578,0-20.77,0
			c-9.312,0-18.076,6.956-18.076,15.13c0,8.349,6.348,15.04,15.822,15.04c0.658,0,1.297-0.036,1.924-0.082
			c-0.617,1.179-1.055,2.492-1.055,3.868c0,2.321,1.25,4.198,2.826,5.732c-1.193,0-2.342,0.031-3.6,0.031
			c-11.533,0-20.408,7.344-20.408,14.961c0,7.501,9.73,12.193,21.264,12.193c13.146,0,20.41-7.46,20.41-14.964
			C51.834,60.954,50.061,57.351,44.57,53.47z M33.475,43.064c-5.352-0.161-10.434-5.987-11.359-13.012
			c-0.924-7.028,2.664-12.406,8.016-12.247c5.35,0.161,10.436,5.8,11.359,12.825C42.414,37.658,38.824,43.224,33.475,43.064z
			 M31.381,78.616c-7.973,0-13.73-5.047-13.73-11.108c0-5.941,7.143-10.886,15.115-10.801c1.861,0.02,3.592,0.319,5.168,0.829
			c4.326,3.01,7.432,4.709,8.307,8.141c0.164,0.694,0.256,1.41,0.256,2.14C46.496,73.877,42.586,78.616,31.381,78.616z"/>
		<polygon fill="#BCBCBC" points="89.586,31.58 76.029,31.58 76.029,45.137 73.066,45.137 73.066,31.58 59.086,31.58 59.086,28.191 
			73.066,28.191 73.066,15.059 76.029,15.059 76.029,28.191 89.586,28.191 		"/>
	</g>
</g>
<g id="foursquare" display="none">
	<g display="inline">
		<path fill="#BCBCBC" d="M39.813,61.743l-3.051-9.413h26.219l-3.311,9.655c0,0-0.184,0.832-1.283,0.832H41.278
			C39.956,62.817,39.813,61.743,39.813,61.743 M66.972,45.848c-0.449,0-0.902-0.076-1.354-0.3l-2.26,5.797H36.388l-2.262-5.797
			c-0.449,0.224-0.904,0.3-1.35,0.3c-1.736,0-3.168-1.434-3.168-3.163c0-1.732,1.432-3.162,3.168-3.162
			c1.729,0,3.162,1.43,3.162,3.162c0,0.83-0.377,1.658-0.904,2.184c4.219,2.561,11.523,1.281,14.461-4.444
			c-1.584-0.147-2.785-1.505-2.785-3.089c0-1.732,1.43-3.16,3.164-3.16c1.729,0,3.164,1.428,3.164,3.16
			c0,1.584-1.205,2.941-2.787,3.089c2.936,5.726,10.24,7.005,14.465,4.444c-0.533-0.525-0.904-1.354-0.904-2.184
			c0-1.732,1.428-3.162,3.16-3.162s3.166,1.43,3.166,3.162C70.138,44.414,68.704,45.848,66.972,45.848"/>
		<path fill="#BCBCBC" d="M49.872,20.58c-15.393,0-27.914,12.525-27.914,27.917c0,15.392,12.521,27.914,27.914,27.914
			s27.914-12.522,27.914-27.914C77.786,33.105,65.265,20.58,49.872,20.58 M49.872,82.562c-18.785,0-34.064-15.283-34.064-34.064
			c0-18.787,15.279-34.069,34.064-34.069c18.783,0,34.066,15.282,34.066,34.069C83.938,67.279,68.655,82.562,49.872,82.562"/>
	</g>
</g>
<path id="dribbble" display="none" fill="#BCBCBC" d="M83.629,41.526c-0.454-2.225-1.129-4.413-2.01-6.507
	c-0.863-2.052-1.931-4.033-3.176-5.887c-1.231-1.83-2.646-3.553-4.201-5.119c-1.556-1.565-3.27-2.988-5.094-4.226
	c-1.842-1.252-3.812-2.328-5.855-3.197c-2.085-0.886-4.265-1.567-6.481-2.022c-4.542-0.935-9.337-0.935-13.878,0
	c-2.217,0.455-4.396,1.137-6.48,2.022c-2.044,0.869-4.015,1.945-5.854,3.196c-1.823,1.236-3.537,2.659-5.095,4.226
	c-1.557,1.567-2.971,3.29-4.201,5.121c-1.244,1.852-2.312,3.831-3.176,5.885c-0.881,2.095-1.558,4.284-2.01,6.508
	c-0.463,2.28-0.699,4.624-0.699,6.967c0,2.344,0.236,4.688,0.699,6.969c0.452,2.221,1.129,4.412,2.01,6.51
	c0.865,2.053,1.934,4.035,3.176,5.883c1.229,1.83,2.642,3.553,4.201,5.121c1.559,1.566,3.272,2.988,5.094,4.227
	c1.845,1.252,3.814,2.326,5.855,3.195c2.081,0.887,4.262,1.566,6.479,2.021c2.271,0.469,4.605,0.705,6.94,0.705
	s4.67-0.236,6.938-0.705c2.218-0.455,4.398-1.135,6.481-2.021c2.041-0.869,4.011-1.943,5.855-3.195
	c1.824-1.24,3.537-2.662,5.095-4.227c1.558-1.568,2.971-3.291,4.2-5.119c1.243-1.854,2.312-3.834,3.176-5.885
	c0.881-2.098,1.556-4.285,2.009-6.51c0.464-2.279,0.7-4.623,0.7-6.969C84.328,46.15,84.092,43.806,83.629,41.526z M44.128,20.371
	c1.879-0.386,3.812-0.583,5.745-0.583s3.865,0.197,5.744,0.583c1.832,0.377,3.633,0.939,5.355,1.673
	c1.691,0.719,3.321,1.608,4.847,2.645c1.014,0.688,1.981,1.451,2.901,2.266c-1.012,1.361-5.391,6.621-14.968,10.211
	C49.309,29,44.473,22.335,43.178,20.591C43.494,20.514,43.81,20.437,44.128,20.371z M23.588,37.314
	c0.717-1.701,1.602-3.342,2.634-4.878c1.02-1.518,2.19-2.947,3.483-4.245c1.291-1.3,2.713-2.477,4.224-3.503
	c1.174-0.799,2.413-1.508,3.693-2.123c1.279,1.755,6.024,8.399,10.498,16.351c-12.337,3.275-23.228,3.547-26.143,3.556
	C22.351,40.711,22.89,38.976,23.588,37.314z M28.393,67.372c-0.78-0.898-1.512-1.838-2.171-2.82
	c-1.031-1.533-1.917-3.176-2.633-4.879c-0.731-1.736-1.291-3.551-1.666-5.393c-0.384-1.893-0.579-3.838-0.579-5.787
	c0-0.312,0.013-0.625,0.023-0.938c3.141,0.014,15.915-0.191,29.163-4.155c0.835,1.633,1.631,3.291,2.364,4.946
	c-0.386,0.109-0.769,0.225-1.148,0.348C37.846,53.184,30.012,64.766,28.393,67.372z M60.973,74.944
	c-1.721,0.732-3.521,1.297-5.355,1.674c-3.754,0.773-7.734,0.773-11.489,0c-1.833-0.377-3.635-0.941-5.355-1.674
	c-1.688-0.717-3.319-1.607-4.844-2.645c-0.632-0.428-1.244-0.889-1.841-1.369c1.237-2.309,7.372-12.395,22.596-17.699
	c0.064-0.023,0.129-0.041,0.193-0.064c3.922,10.195,5.639,18.803,6.156,21.752C61.014,74.926,60.992,74.936,60.973,74.944z
	 M77.822,54.28c-0.374,1.842-0.936,3.656-1.665,5.393c-0.716,1.703-1.601,3.344-2.634,4.879c-1.019,1.516-2.19,2.945-3.482,4.246
	c-1.26,1.266-2.643,2.416-4.111,3.424c-0.424-2.393-2.008-10.535-5.6-20.402c8.445-1.352,15.872,0.592,17.725,1.141
	C77.986,53.403,77.911,53.842,77.822,54.28z M58.556,47.225c-0.204-0.499-0.412-1-0.627-1.504c-0.606-1.422-1.257-2.834-1.936-4.223
	c10.019-4.09,14.85-9.739,15.962-11.177c0.555,0.683,1.081,1.387,1.568,2.114c1.034,1.537,1.92,3.178,2.634,4.878
	c0.729,1.735,1.291,3.551,1.665,5.394c0.357,1.76,0.545,3.567,0.57,5.379C76.326,47.676,67.5,46.1,58.556,47.225z"/>
<path id="klout" fill="#BCBCBC" d="M0,10.786v60.042h66.405l31.892,16.027V70.828V10.786H0z M40.19,45.185h-4.863L23.45,61.889
	H9.364l16.25-21.701L10.613,19.283h13.749l10.965,16.023h4.863V45.185z M74.851,61.889L62.978,45.185h-8.097v16.704H43.609V19.283
	h11.272v16.023h8.097l10.962-16.023h13.741L72.688,40.188l16.246,21.701H74.851z"/>
<path id="spotify" display="none" fill="#BCBCBC" d="M97.929,49.764c0-27.043-21.922-48.965-48.963-48.965
	C21.922,0.799,0,22.721,0,49.764c0,27.042,21.922,48.963,48.965,48.963C76.007,98.727,97.929,76.806,97.929,49.764z M24.639,53.347
	c-1.983,0.607-4.07-0.516-4.672-2.493c-0.603-1.975,0.516-4.065,2.488-4.656c17.431-5.297,39.096-2.723,53.901,6.371
	c1.756,1.091,2.314,3.385,1.24,5.142c-1.092,1.762-3.396,2.312-5.15,1.238C59.556,51.009,39.886,48.723,24.639,53.347z
	 M71.729,70.781c-0.871,1.401-2.719,1.845-4.123,0.991c-11.268-6.888-25.443-8.438-42.146-4.622
	c-1.607,0.359-3.223-0.641-3.583-2.256c-0.37-1.608,0.637-3.206,2.252-3.575c18.266-4.184,33.949-2.378,46.6,5.355
	C72.144,67.526,72.579,69.361,71.729,70.781z M19.75,29.771c16.95-5.15,45.132-4.148,62.923,6.413
	c2.131,1.271,2.834,4.017,1.564,6.158c-1.252,2.135-4.008,2.83-6.141,1.567c-15.467-9.184-40.982-10.029-55.735-5.543
	c-2.382,0.714-4.883-0.625-5.601-2.993C16.041,33.001,17.375,30.494,19.75,29.771z"/>
<path id="github" display="none" fill="#BCBCBC" d="M64.507,95.749c-2.439,0.474-3.303-1.026-3.303-2.307
	c0-1.584,0.053-6.763,0.053-13.197c0-4.486-1.535-7.412-3.259-8.905c10.707-1.189,21.958-5.257,21.958-23.727
	c0-5.25-1.867-9.541-4.949-12.908c0.499-1.211,2.145-6.101-0.473-12.726c0,0-4.034-1.292-13.211,4.931
	c-3.844-1.065-7.96-1.601-12.047-1.619c-4.088,0.018-8.201,0.554-12.036,1.619c-9.189-6.222-13.228-4.931-13.228-4.931
	c-2.611,6.625-0.966,11.515-0.465,12.726c-3.079,3.368-4.957,7.658-4.957,12.908c0,18.428,11.228,22.55,21.91,23.767
	c-1.374,1.199-2.62,3.32-3.054,6.428c-2.745,1.23-9.705,3.356-13.993-3.996c0,0-2.543-4.615-7.373-4.956c0,0-4.69-0.061-0.329,2.923
	c0,0,3.152,1.479,5.339,7.036c0,0,2.824,8.585,16.202,5.675c0.02,4.019,0.065,7.808,0.065,8.953c0,1.27-0.881,2.758-3.286,2.312
	C14.968,89.396,1.188,71.37,1.188,50.125c0-26.56,21.533-48.089,48.089-48.089c26.558,0,48.088,21.529,48.088,48.089
	C97.364,71.366,83.604,89.382,64.507,95.749z"/>
<path id="vimeo" display="none" fill="#BCBCBC" d="M97.671,27.013c-0.436,9.516-7.08,22.546-19.929,39.081
	C64.457,83.369,53.214,92.008,44.021,92.008c-5.694,0-10.518-5.259-14.454-15.782c-2.63-9.643-5.259-19.288-7.888-28.93
	c-2.923-10.519-6.06-15.783-9.413-15.783c-0.731,0-3.289,1.54-7.669,4.604L0,30.192c4.822-4.238,9.579-8.477,14.261-12.721
	c6.431-5.56,11.26-8.484,14.478-8.78c7.605-0.729,12.287,4.469,14.043,15.603c1.897,12.009,3.212,19.479,3.949,22.405
	c2.194,9.963,4.605,14.94,7.24,14.94c2.045,0,5.117-3.232,9.215-9.693c4.092-6.467,6.283-11.385,6.578-14.763
	c0.584-5.58-1.609-8.375-6.578-8.375c-2.341,0-4.752,0.538-7.234,1.603c4.804-15.737,13.98-23.38,27.522-22.945
	C93.517,7.763,98.248,14.277,97.671,27.013z"/>
<g id="youtube" display="none">
	<path display="inline" fill-rule="evenodd" clip-rule="evenodd" fill="#BCBCBC" d="M41.605,0.876h-5.474L32.44,15.073L28.596,0.876
		H22.9c1.14,3.35,2.329,6.72,3.472,10.074c1.734,5.042,2.818,8.842,3.307,11.438V37.03h5.415V22.388L41.605,0.876z M56.075,28.309
		v-9.438c0-2.879-0.493-4.985-1.515-6.347c-1.354-1.84-3.25-2.761-5.697-2.761c-2.431,0-4.333,0.921-5.682,2.761
		c-1.039,1.362-1.53,3.468-1.53,6.347v9.438c0,2.862,0.492,4.984,1.53,6.337c1.349,1.835,3.251,2.757,5.682,2.757
		c2.447,0,4.344-0.922,5.697-2.757C55.582,33.293,56.075,31.171,56.075,28.309z M51.19,29.227c0,2.492-0.752,3.74-2.327,3.74
		c-1.575,0-2.33-1.248-2.33-3.74V17.893c0-2.493,0.755-3.734,2.33-3.734c1.575,0,2.327,1.241,2.327,3.734V29.227z M74.131,37.03
		V10.088h-4.886V30.68c-1.08,1.53-2.106,2.287-3.083,2.287c-0.653,0-1.036-0.387-1.144-1.144c-0.059-0.158-0.059-0.753-0.059-1.901
		V10.088h-4.868v21.305c0,1.901,0.165,3.192,0.433,4.005c0.488,1.366,1.572,2.005,3.145,2.005c1.78,0,3.635-1.083,5.576-3.313v2.94
		H74.131z"/>
	<g display="inline">
		<path fill-rule="evenodd" clip-rule="evenodd" fill="#BCBCBC" d="M76.75,64.384c-1.614,0-2.421,1.234-2.421,3.699v2.466h4.829
			v-2.466C79.158,65.619,78.35,64.384,76.75,64.384z"/>
		<path fill-rule="evenodd" clip-rule="evenodd" fill="#BCBCBC" d="M58.823,64.384c-0.793,0-1.6,0.379-2.406,1.175V81.81
			c0.807,0.809,1.613,1.188,2.406,1.188c1.395,0,2.102-1.188,2.102-3.596V68.025C60.925,65.619,60.218,64.384,58.823,64.384z"/>
		<path fill-rule="evenodd" clip-rule="evenodd" fill="#BCBCBC" d="M88.561,50.831c-0.977-4.249-4.454-7.384-8.638-7.851
			c-9.916-1.11-19.947-1.115-29.935-1.11c-9.989-0.005-20.023,0-29.935,1.11c-4.186,0.467-7.664,3.602-8.64,7.851
			c-1.393,6.057-1.407,12.663-1.407,18.898c0,6.231,0,12.842,1.392,18.896c0.977,4.251,4.451,7.387,8.637,7.854
			c9.912,1.105,19.945,1.112,29.935,1.105c9.987,0.007,20.02,0,29.935-1.105c4.184-0.468,7.664-3.604,8.64-7.854
			c1.394-6.055,1.401-12.665,1.401-18.896C89.947,63.494,89.953,56.887,88.561,50.831z M32.807,56.279h-5.787v30.745h-5.373V56.279
			h-5.683V51.24h16.843V56.279z M47.404,87.024h-4.835v-2.909c-1.919,2.203-3.743,3.276-5.519,3.276
			c-1.557,0-2.63-0.633-3.114-1.985c-0.264-0.807-0.423-2.078-0.423-3.962V60.362h4.828V79.99c0,1.131,0,1.724,0.044,1.877
			c0.117,0.752,0.485,1.131,1.13,1.131c0.97,0,1.982-0.747,3.054-2.26V60.362h4.835V87.024z M65.757,79.023
			c0,2.465-0.165,4.241-0.486,5.371c-0.647,1.984-1.938,2.997-3.864,2.997c-1.717,0-3.376-0.956-4.989-2.953v2.586h-4.832V51.24
			h4.832v11.688c1.56-1.921,3.214-2.894,4.989-2.894c1.926,0,3.217,1.013,3.864,3.013c0.321,1.07,0.486,2.834,0.486,5.356V79.023z
			 M83.988,74.573h-9.659v4.726c0,2.47,0.807,3.699,2.465,3.699c1.19,0,1.884-0.646,2.16-1.937c0.043-0.263,0.104-1.335,0.104-3.273
			h4.931v0.707c0,1.554-0.059,2.626-0.103,3.111c-0.164,1.069-0.543,2.038-1.127,2.896c-1.34,1.933-3.321,2.889-5.844,2.889
			c-2.528,0-4.45-0.912-5.847-2.731c-1.026-1.332-1.553-3.438-1.553-6.27v-9.341c0-2.848,0.466-4.932,1.493-6.279
			c1.395-1.827,3.32-2.735,5.785-2.735c2.424,0,4.347,0.908,5.7,2.735c1.009,1.348,1.494,3.432,1.494,6.279V74.573z"/>
	</g>
</g>
<g id="bread_1_" display="none">
	<path display="inline" fill="#BCBCBC" d="M88.513,43.425c4.529-5.455,8.015-12.668,7.089-20.031
		C93.753,8.728,79.642-1.575,64.082,0.391c-6.84,0.862-12.821,3.952-17.22,8.39c-5.377-3.239-11.96-4.767-18.84-3.899
		C12.466,6.844,1.353,20.321,3.201,34.985c0.931,7.379,6.109,13.502,11.865,17.67l1.501,30.309
		c1.196,9.494,8.606,16.384,16.551,15.381c0,0,8.601-1.625,13.549-2.866c4.97-1.32,18.858-2.912,24.261-3.062
		c4.022-0.108,11.429-0.276,11.429-0.276c7.945-1.003,13.417-9.516,12.221-19.01L88.513,43.425z M84.349,81.786
		c-1.084,1.351-2.471,2.136-4.159,2.346c-1.688,0.213-3.228-0.198-4.61-1.241c-1.383-1.047-2.189-2.448-2.411-4.208
		c-0.221-1.759,0.209-3.319,1.293-4.665c1.08-1.352,2.468-2.136,4.156-2.349c1.69-0.213,3.228,0.201,4.612,1.243
		c1.387,1.033,2.183,2.439,2.401,4.198C85.854,78.875,85.432,80.43,84.349,81.786z"/>
</g>
<path id="twitter_1_" display="none" fill="#2CAAE1" d="M88.701,0H10.74C4.809,0,0,4.809,0,10.74V88.7
	c0,5.932,4.809,10.74,10.74,10.74h77.961c5.932,0,10.74-4.809,10.74-10.74V10.74C99.441,4.809,94.633,0,88.701,0z M80.047,36.081
	c0.027,0.625,0.043,1.256,0.043,1.887c0,19.264-14.664,41.477-41.477,41.477c-8.232,0-15.896-2.414-22.348-6.549
	c1.143,0.135,2.301,0.203,3.479,0.203c6.83,0,13.115-2.33,18.104-6.24c-6.377-0.117-11.762-4.332-13.617-10.123
	c0.891,0.17,1.805,0.262,2.744,0.262c1.328,0,2.617-0.18,3.84-0.512c-6.67-1.34-11.693-7.232-11.693-14.295c0-0.061,0-0.121,0-0.184
	c1.967,1.092,4.215,1.748,6.604,1.824c-3.912-2.615-6.484-7.076-6.484-12.134c0-2.671,0.719-5.176,1.973-7.328
	c7.189,8.82,17.932,14.623,30.047,15.23c-0.248-1.066-0.377-2.18-0.377-3.32c0-8.051,6.527-14.579,14.578-14.579
	c4.191,0,7.98,1.771,10.641,4.604c3.32-0.653,6.439-1.866,9.256-3.537c-1.088,3.403-3.4,6.262-6.408,8.065
	c2.947-0.353,5.758-1.136,8.371-2.295C85.365,31.458,82.896,34.026,80.047,36.081z"/>
<g id="linkedin_1_" display="none">
	<linearGradient id="SVGID_1_" gradientUnits="userSpaceOnUse" x1="54.3994" y1="45.2524" x2="54.4854" y2="45.2524">
		<stop  offset="0" style="stop-color:#016699"/>
		<stop  offset="1" style="stop-color:#016699"/>
	</linearGradient>
	<path display="inline" fill="url(#SVGID_1_)" d="M54.485,45.319v-0.133c-0.027,0.045-0.059,0.09-0.086,0.133H54.485z"/>
	<linearGradient id="SVGID_2_" gradientUnits="userSpaceOnUse" x1="9.765625e-04" y1="49.7202" x2="99.4404" y2="49.7202">
		<stop  offset="0" style="stop-color:#016699"/>
		<stop  offset="1" style="stop-color:#016699"/>
	</linearGradient>
	<path display="inline" fill="url(#SVGID_2_)" d="M88.702,0H10.741C4.81,0,0.001,4.809,0.001,10.74V88.7
		c0,5.932,4.809,10.74,10.74,10.74h77.961c5.932,0,10.738-4.809,10.738-10.74V10.74C99.44,4.809,94.634,0,88.702,0z M33.966,79.297
		H20.759V39.555h13.207V79.297z M27.362,34.131h-0.086c-4.434,0-7.299-3.054-7.299-6.868c0-3.899,2.953-6.867,7.473-6.867
		c4.518,0,7.299,2.968,7.387,6.867C34.837,31.077,31.968,34.131,27.362,34.131z M81.599,79.297H68.39v-21.26
		c0-5.342-1.91-8.99-6.691-8.99c-3.648,0-5.824,2.459-6.777,4.834c-0.35,0.848-0.436,2.035-0.436,3.223v22.193H41.276
		c0,0,0.174-36.014,0-39.742h13.209v5.631c1.756-2.707,4.893-6.562,11.906-6.562c8.689,0,15.207,5.68,15.207,17.885V79.297z"/>
</g>
<path id="facebook_1_" display="none" fill="#3D5B99" d="M88.7,0H10.739C4.808,0,0.001,4.809,0.001,10.74V88.7
	c0,5.932,4.807,10.74,10.738,10.74H88.7c5.934,0,10.74-4.809,10.74-10.74V10.74C99.44,4.809,94.634,0,88.7,0z M65.394,53.129h-11.25
	v30.105H42.683V53.129h-7.961V42.29h7.961c0,0,0-4.441,0-9.258c0-7.276,4.701-13.956,15.537-13.956c4.387,0,7.631,0.421,7.631,0.421
	l-0.256,10.122c0,0-3.309-0.032-6.918-0.032c-3.908,0-4.533,1.801-4.533,4.79c0,0.369,0,0.5,0,0.506c0,0.838,0,2.873,0,7.408h11.762
	L65.394,53.129z"/>
<path id="yelp_1_" display="none" fill="#CA3C27" d="M88.703,0H10.74C4.809,0,0,4.809,0,10.74V88.7c0,5.932,4.809,10.74,10.74,10.74
	h77.963c5.93,0,10.738-4.809,10.738-10.74V10.74C99.441,4.809,94.633,0,88.703,0z M30.605,25.937
	c0.637-1.022,1.859-1.426,1.859-1.426l12.496-4.643c0.533-0.079,1.086-0.669,2.949,0.462c1.186,0.715,1.455,3.358,1.455,3.358
	l0.119,21.427c0,0-0.281,2.572-2.055,3.01c-1.631,0.402-2.914-0.924-2.914-0.924l-12.984-17.7
	C31.531,29.502,29.695,27.384,30.605,25.937z M23.992,62.528c-0.482-0.85-0.352-2.715-0.352-2.715l0.875-10.768
	c0.064-0.699,0.721-1.49,1.459-1.928c0.967-0.572,2.957,0.248,2.957,0.248l13.43,6.785c0,0,2.029,0.992,1.984,2.645
	c-0.059,2.186-1.127,2.221-1.736,2.633l-15.68,3.465C26.93,62.893,24.678,63.731,23.992,62.528z M48.17,82.948
	c-0.969,0.283-2.246,0.016-2.246,0.016l-10.543-3.328c-0.734-0.355-1.256-0.863-1.568-1.879c-0.332-1.084,0.977-2.854,0.977-2.854
	l10.5-11.557c0,0,1.609-1.43,2.955-0.738c1.232,0.637,1.285,2.145,1.285,2.145l-0.238,15.646
	C49.291,80.399,49.545,82.549,48.17,82.948z M54.582,50.805l8.502-13.381c0,0,0.879-1.727,2.303-1.604
	c1.293,0.107,1.918,1.178,1.918,1.178l7.189,8.471c0,0,0.627,1.344,0.34,2.455c-0.293,1.113-2.344,1.945-2.344,1.945l-15.049,4.398
	c0,0-2.129,0.383-2.9-0.928C53.828,52.139,54.582,50.805,54.582,50.805z M74.328,68.346l-6.371,9.105c0,0-1.137,0.945-2.289,0.945
	c-1.146,0-2.469-1.773-2.469-1.773l-8.059-13.455c0,0-0.906-1.965,0.164-3.045c0.984-0.994,2.463-0.602,2.463-0.602l15.082,4.844
	c0,0,2.158,0.393,2.135,1.824C74.971,67.196,74.328,68.346,74.328,68.346z"/>
<path id="lastfm_1_" display="none" fill="#A52F23" d="M88.701,0H10.738C4.809,0,0.002,4.809,0.002,10.74V88.7
	c0,5.932,4.807,10.74,10.736,10.74h77.963c5.932,0,10.738-4.809,10.738-10.74V10.74C99.439,4.809,94.633,0,88.701,0z M67.193,69.719
	c-13.078,0-17.615-5.896-20.031-13.23l-2.42-7.559c-1.814-5.52-3.934-9.828-10.584-9.828c-4.613,0-9.299,3.326-9.299,12.625
	c0,7.258,3.703,11.795,8.92,11.795c5.896,0,9.828-4.387,9.828-4.387l2.42,6.576c0,0-4.084,4.008-12.627,4.008
	c-10.582,0-16.48-6.197-16.48-17.691c0-11.943,5.898-18.973,17.01-18.973c10.055,0,15.121,3.629,18.297,13.457l2.492,7.559
	c1.816,5.518,4.992,9.525,12.625,9.525c5.141,0,7.863-1.135,7.863-3.932c0-2.191-1.285-3.779-5.141-4.688l-5.143-1.209
	c-6.271-1.512-8.768-4.762-8.768-9.902c0-8.242,6.652-10.811,13.457-10.811c7.711,0,12.396,2.797,13.004,9.6l-7.561,0.908
	c-0.303-3.25-2.27-4.611-5.898-4.611c-3.324,0-5.367,1.512-5.367,4.082c0,2.268,0.984,3.627,4.311,4.385l4.838,1.059
	c6.5,1.512,9.979,4.686,9.979,10.809C82.918,66.846,76.568,69.719,67.193,69.719z"/>
<path id="tumblr_1_" display="none" fill="#45556B" d="M88.701,0H10.74C4.809,0,0,4.809,0,10.74V88.7
	c0,5.932,4.809,10.74,10.74,10.74h77.961c5.932,0,10.74-4.809,10.74-10.74V10.74C99.441,4.809,94.633,0,88.701,0z M66.295,76.163
	c-2.469,1.16-4.703,1.98-6.703,2.447s-4.164,0.701-6.488,0.701c-2.639,0-4.973-0.332-7.002-1c-2.027-0.666-3.756-1.617-5.189-2.85
	c-1.434-1.234-2.426-2.547-2.979-3.938c-0.555-1.389-0.832-3.404-0.832-6.043V45.227h-6.381v-8.172
	c2.268-0.736,4.213-1.793,5.828-3.17c1.619-1.374,2.916-3.027,3.895-4.958c0.979-1.927,1.652-4.381,2.021-7.361h8.211v14.596h13.703
	v9.064H50.676v14.809c0,3.346,0.178,5.494,0.533,6.447c0.354,0.949,1.016,1.707,1.979,2.275c1.277,0.766,2.736,1.15,4.383,1.15
	c2.922,0,5.83-0.951,8.725-2.854V76.163z"/>
<path id="pinterest_1_" display="none" fill="#CB2027" d="M88.7,0H10.741C4.81,0,0.001,4.809,0.001,10.74V88.7
	c0,5.932,4.809,10.74,10.74,10.74H88.7c5.932,0,10.74-4.809,10.74-10.74V10.74C99.44,4.809,94.632,0,88.7,0z M55.515,66.866
	c-4.193,0-8.135-2.266-9.484-4.84c0,0-2.258,8.947-2.732,10.676c-1.682,6.102-6.629,12.207-7.012,12.709
	c-0.27,0.346-0.861,0.238-0.924-0.223c-0.107-0.777-1.367-8.479,0.117-14.76c0.744-3.152,4.994-21.16,4.994-21.16
	s-1.238-2.48-1.238-6.145c0-5.756,3.336-10.053,7.488-10.053c3.533,0,5.24,2.652,5.24,5.83c0,3.553-2.262,8.861-3.43,13.781
	c-0.977,4.121,2.066,7.48,6.131,7.48c7.355,0,12.311-9.451,12.311-20.648c0-8.51-5.729-14.882-16.16-14.882
	c-11.777,0-19.117,8.787-19.117,18.601c0,3.381,0.998,5.77,2.561,7.613c0.719,0.85,0.82,1.191,0.559,2.166
	c-0.189,0.715-0.611,2.436-0.793,3.115c-0.258,0.984-1.053,1.336-1.941,0.973c-5.426-2.213-7.955-8.156-7.955-14.836
	c0-11.031,9.305-24.259,27.756-24.259c14.828,0,24.586,10.727,24.586,22.248C76.47,55.485,67.999,66.866,55.515,66.866z"/>
<path id="flickr_1_" display="none" fill="#ED1E83" d="M88.701,0H10.739C4.808,0-0.001,4.809-0.001,10.74V88.7
	c0,5.932,4.809,10.74,10.74,10.74h77.962c5.932,0,10.74-4.809,10.74-10.74V10.74C99.441,4.809,94.633,0,88.701,0z M32.958,63.323
	c-7.513,0-13.604-6.09-13.604-13.604c0-7.512,6.091-13.602,13.604-13.602c7.514,0,13.604,6.09,13.604,13.602
	C46.562,57.233,40.472,63.323,32.958,63.323z M66.48,63.323c-7.513,0-13.603-6.09-13.603-13.604c0-7.512,6.09-13.602,13.603-13.602
	c7.514,0,13.605,6.09,13.605,13.602C80.086,57.233,73.994,63.323,66.48,63.323z"/>
<path id="vevo_1_" display="none" fill="#DC2726" d="M88.701,0H10.74C4.809,0,0,4.809,0,10.74V88.7c0,5.932,4.809,10.74,10.74,10.74
	h77.961c5.934,0,10.74-4.809,10.74-10.74V10.74C99.441,4.809,94.635,0,88.701,0z M59.861,75.215H41.076L13.457,26.007h17.879
	l18.799,37.132L68.85,26.007h17.133L59.861,75.215z"/>
<g id="wordpress_1_" display="none">
	<path display="inline" fill="#464342" d="M49.721,17.64c-17.689,0-32.08,14.391-32.08,32.08c0,17.689,14.391,32.08,32.08,32.08
		s32.078-14.391,32.078-32.08C81.799,32.03,67.41,17.64,49.721,17.64z M20.879,49.719c0-4.182,0.898-8.15,2.496-11.738l13.76,37.695
		C27.514,71.002,20.879,61.135,20.879,49.719z M49.721,78.563c-2.832,0-5.564-0.414-8.148-1.174l8.654-25.148l8.865,24.289
		c0.059,0.145,0.131,0.273,0.207,0.398C56.301,77.985,53.08,78.563,49.721,78.563z M53.697,36.196
		c1.734-0.09,3.299-0.273,3.299-0.273c1.555-0.186,1.369-2.469-0.184-2.377c0,0-4.67,0.367-7.686,0.367
		c-2.836,0-7.598-0.367-7.598-0.367c-1.555-0.092-1.738,2.285-0.184,2.377c0,0,1.473,0.184,3.025,0.273l4.494,12.312l-6.312,18.93
		L32.049,36.196c1.738-0.09,3.301-0.273,3.301-0.273c1.553-0.186,1.371-2.469-0.184-2.377c0,0-4.67,0.367-7.688,0.367
		c-0.541,0-1.178-0.014-1.855-0.037c5.156-7.829,14.021-12.999,24.098-12.999c7.508,0,14.346,2.871,19.477,7.572
		c-0.123-0.008-0.244-0.023-0.373-0.023c-2.834,0-4.844,2.469-4.844,5.12c0,2.377,1.371,4.387,2.832,6.764
		c1.098,1.922,2.379,4.389,2.379,7.955c0,2.469-0.949,5.334-2.193,9.324L64.119,67.2L53.697,36.196z M75.031,35.881
		c2.25,4.107,3.533,8.824,3.533,13.838c0,10.641-5.768,19.93-14.344,24.93l8.811-25.471c1.645-4.113,2.193-7.404,2.193-10.33
		C75.225,37.786,75.154,36.801,75.031,35.881z"/>
	<path display="inline" fill="#464342" d="M88.701,0H10.74C4.809,0,0,4.808,0,10.739V88.7c0,5.934,4.809,10.74,10.74,10.74h77.961
		c5.932,0,10.74-4.807,10.74-10.74v-77.96C99.441,4.808,94.633,0,88.701,0z M49.721,85.606c-19.787,0-35.887-16.098-35.887-35.887
		c0-19.788,16.1-35.885,35.887-35.885s35.887,16.098,35.887,35.885C85.607,69.508,69.508,85.606,49.721,85.606z"/>
</g>
<g id="bebo_1_" display="none">
	<path display="inline" fill="#F26722" d="M39.68,42.907h9.852c1.881,0,3.402-1.543,3.402-3.404s-1.521-3.385-3.402-3.385H39.68
		c-1.879,0-3.402,1.523-3.402,3.385S37.801,42.907,39.68,42.907z"/>
	<path display="inline" fill="#F26722" d="M59.703,56.461H39.68c-1.879,0-3.402,1.521-3.402,3.383c0,1.842,1.523,3.385,3.402,3.385
		h20.023c1.861,0,3.383-1.543,3.383-3.385C63.086,57.983,61.564,56.461,59.703,56.461z"/>
	<path display="inline" fill="#F26722" d="M88.701,0H10.74C4.809,0,0,4.81,0,10.74v77.961c0,5.93,4.809,10.738,10.74,10.738h77.961
		c5.932,0,10.74-4.809,10.74-10.738V10.74C99.441,4.81,94.633,0,88.701,0z M77.639,60.108c-0.059,9.758-7.99,17.748-17.768,17.748
		H39.455c-9.777,0-17.766-7.99-17.766-17.748V39.372c0-9.777,7.988-17.785,17.766-17.785h12.428
		c4.586,0.544,11.262,4.474,13.725,9.701c0.676,1.466,1.033,1.691,1.598,6.035c0.301,2.236,0.449,3.891,1.447,4.812
		c1.41,1.277,6.637,0.414,7.67,1.223l0.791,0.619l0.467,0.979l0.172,0.789L77.639,60.108z"/>
</g>
<g id="instagram_1_" display="none">
	<path display="inline" fill="#3F729B" d="M69.708,27.51h-6.661c-1.228,0-2.221,0.995-2.221,2.221v6.665
		c0,1.225,0.993,2.221,2.221,2.221h6.661c1.229,0,2.223-0.996,2.223-2.221V29.73C71.931,28.505,70.937,27.51,69.708,27.51z"/>
	<path display="inline" fill="#3F729B" d="M67.486,49.719c0,9.814-7.953,17.766-17.766,17.766s-17.767-7.951-17.767-17.766
		c0-1.535,0.217-3.021,0.584-4.443h-5.027v24.432c0,1.225,0.993,2.219,2.223,2.219h39.975c1.229,0,2.223-0.994,2.223-2.219V45.276
		h-5.026C67.271,46.698,67.486,48.184,67.486,49.719z"/>
	<path display="inline" fill="#3F729B" d="M88.7,0H10.74C4.809,0,0,4.81,0,10.74v77.961c0,5.93,4.809,10.738,10.74,10.738H88.7
		c5.932,0,10.74-4.809,10.74-10.738V10.74C99.44,4.81,94.632,0,88.7,0z M78.593,71.926c0,3.682-2.982,6.666-6.662,6.666h-44.42
		c-3.68,0-6.662-2.984-6.662-6.666V27.51c0-3.68,2.982-6.661,6.662-6.661h44.42c3.68,0,6.662,2.981,6.662,6.661V71.926z"/>
	<circle display="inline" fill="#3F729B" cx="49.721" cy="49.72" r="11.104"/>
</g>
<g id="google_plus" display="none">
	<path display="inline" fill="#303030" d="M36.633,29.672c-4.273-0.127-7.139,4.167-6.4,9.778c0.738,5.609,4.797,10.262,9.07,10.389
		c4.27,0.129,7.135-4.316,6.398-9.926C44.963,34.303,40.902,29.801,36.633,29.672z"/>
	<path display="inline" fill="#303030" d="M38.734,60.731c-6.365-0.068-12.066,3.881-12.066,8.625c0,4.838,4.596,8.869,10.961,8.869
		c8.947,0,12.068-3.783,12.068-8.623c0-0.584-0.072-1.154-0.203-1.709c-0.699-2.74-3.178-4.098-6.633-6.5
		C41.604,60.987,40.221,60.747,38.734,60.731z"/>
	<path display="inline" fill="#303030" d="M88.701,0H10.738C4.809,0,0,4.809,0,10.739V88.7c0,5.932,4.809,10.74,10.738,10.74h77.963
		c5.932,0,10.74-4.809,10.74-10.74v-77.96C99.441,4.809,94.633,0,88.701,0z M51.662,39.674c0,3.504-1.939,6.428-4.684,8.572
		c-2.674,2.09-3.184,2.967-3.184,4.742c0,1.518,2.867,4.098,4.365,5.158c4.383,3.1,5.801,5.975,5.801,10.777
		c0,5.992-5.801,11.947-16.297,11.947c-9.209,0-16.979-3.746-16.979-9.734c0-6.082,7.088-11.945,16.295-11.945
		c1.004,0,1.922-0.025,2.875-0.025c-1.26-1.225-2.258-2.723-2.258-4.576c0-1.1,0.35-2.146,0.842-3.088
		c-0.5,0.035-1.01,0.064-1.535,0.064c-7.564,0-12.633-5.342-12.633-12.008c0-6.525,6.996-12.081,14.432-12.081
		c4.146,0,16.584,0,16.584,0l-3.711,2.706h-5.26C49.805,31.537,51.662,35.502,51.662,39.674z M84.104,40.67H73.279v10.822h-2.367
		V40.67H59.75v-2.707h11.162V27.479h2.367v10.485h10.824V40.67z"/>
</g>
<g id="foursquare_1_" display="none">
	<path display="inline" fill="#0BBADF" d="M49.72,23.171c-14.639,0-26.549,11.912-26.549,26.55S35.081,76.27,49.72,76.27
		s26.549-11.91,26.549-26.549S64.358,23.171,49.72,23.171z M59.038,62.549c0,0-0.174,0.791-1.219,0.791H41.546
		c-1.256,0-1.393-1.021-1.393-1.021l-2.9-8.953h24.936L59.038,62.549z M65.983,47.202c-0.428,0-0.857-0.072-1.289-0.285
		l-2.148,5.514h-25.65l-2.15-5.514c-0.428,0.213-0.861,0.285-1.287,0.285c-1.65,0-3.012-1.363-3.012-3.008
		c0-1.648,1.361-3.008,3.012-3.008c1.646,0,3.01,1.359,3.01,3.008c0,0.789-0.359,1.576-0.859,2.076
		c4.012,2.436,10.959,1.219,13.752-4.227c-1.506-0.141-2.648-1.432-2.648-2.938c0-1.648,1.361-3.006,3.01-3.006
		c1.645,0,3.01,1.357,3.01,3.006c0,1.506-1.146,2.797-2.652,2.938c2.793,5.445,9.74,6.662,13.758,4.227
		c-0.506-0.5-0.859-1.287-0.859-2.076c0-1.648,1.357-3.008,3.006-3.008s3.01,1.359,3.01,3.008
		C68.993,45.838,67.632,47.202,65.983,47.202z"/>
	<path display="inline" fill="#0BBADF" d="M88.7,0H10.739C4.808,0,0.001,4.809,0.001,10.738v77.963
		c0,5.93,4.807,10.738,10.738,10.738H88.7c5.934,0,10.74-4.809,10.74-10.738V10.738C99.44,4.809,94.634,0,88.7,0z M49.72,82.12
		c-17.865,0-32.398-14.535-32.398-32.398c0-17.867,14.533-32.401,32.398-32.401s32.4,14.534,32.4,32.401
		C82.12,67.584,67.585,82.12,49.72,82.12z"/>
</g>
<g id="dribbble_1_" display="none">
	<path display="inline" fill="#EA4C89" d="M51.486,49.905c0.357-0.115,0.719-0.224,1.082-0.326c-0.691-1.561-1.441-3.121-2.229-4.66
		c-12.482,3.735-24.52,3.929-27.479,3.915c-0.01,0.294-0.021,0.589-0.021,0.884c0,1.836,0.184,3.67,0.545,5.453
		c0.354,1.734,0.881,3.444,1.57,5.082c0.674,1.604,1.51,3.15,2.48,4.595c0.621,0.927,1.311,1.812,2.045,2.659
		C31.008,65.051,38.389,54.139,51.486,49.905z"/>
	<path display="inline" fill="#EA4C89" d="M54.254,54.181C39.91,59.18,34.129,68.684,32.963,70.859
		c0.562,0.452,1.139,0.887,1.734,1.29c1.438,0.977,2.973,1.815,4.564,2.492c1.621,0.689,3.318,1.221,5.047,1.576
		c3.537,0.729,7.287,0.729,10.824,0c1.729-0.355,3.426-0.887,5.047-1.576c0.02-0.008,0.039-0.018,0.057-0.025
		c-0.486-2.777-2.105-10.889-5.801-20.494C54.375,54.142,54.314,54.161,54.254,54.181z"/>
	<path display="inline" fill="#EA4C89" d="M38.178,25.287c-1.207,0.579-2.373,1.247-3.48,2c-1.424,0.967-2.762,2.077-3.979,3.301
		c-1.219,1.224-2.322,2.57-3.283,4c-0.973,1.446-1.807,2.993-2.48,4.597c-0.658,1.566-1.166,3.2-1.518,4.859
		c2.746-0.01,13.008-0.265,24.633-3.352C43.855,33.2,39.383,26.94,38.178,25.287z"/>
	<path display="inline" fill="#EA4C89" d="M67.48,29.422c-0.867-0.768-1.779-1.487-2.734-2.136
		c-1.438-0.976-2.973-1.814-4.566-2.492c-1.623-0.69-3.32-1.22-5.047-1.575c-1.77-0.364-3.59-0.549-5.412-0.549
		c-1.82,0-3.643,0.185-5.412,0.549c-0.301,0.062-0.598,0.135-0.896,0.208c1.221,1.644,5.777,7.923,9.965,15.615
		C62.4,35.66,66.527,30.705,67.48,29.422z"/>
	<path display="inline" fill="#EA4C89" d="M74.488,39.184c-0.674-1.602-1.508-3.148-2.482-4.597
		c-0.459-0.685-0.955-1.35-1.479-1.992c-1.047,1.354-5.6,6.678-15.039,10.531c0.639,1.31,1.252,2.638,1.824,3.979
		c0.201,0.474,0.398,0.946,0.59,1.417c8.428-1.061,16.744,0.424,18.691,0.812c-0.023-1.708-0.201-3.411-0.537-5.07
		C75.703,42.528,75.176,40.819,74.488,39.184z"/>
	<path display="inline" fill="#EA4C89" d="M88.701,0H10.74C4.809,0,0,4.809,0,10.738v77.963c0,5.93,4.809,10.738,10.74,10.738
		h77.961c5.934,0,10.74-4.809,10.74-10.738V10.738C99.441,4.809,94.635,0,88.701,0z M81.527,56.284
		c-0.428,2.094-1.064,4.157-1.893,6.133c-0.814,1.934-1.822,3.8-2.994,5.545c-1.158,1.723-2.488,3.346-3.957,4.823
		c-1.467,1.476-3.082,2.815-4.801,3.982c-1.738,1.18-3.594,2.193-5.518,3.011c-1.961,0.836-4.016,1.477-6.105,1.906
		c-2.139,0.44-4.338,0.664-6.539,0.664c-2.199,0-4.4-0.224-6.539-0.664c-2.09-0.43-4.145-1.07-6.105-1.906
		c-1.924-0.817-3.779-1.831-5.518-3.011c-1.715-1.166-3.33-2.506-4.799-3.981c-1.469-1.479-2.801-3.102-3.959-4.826
		c-1.17-1.741-2.178-3.607-2.992-5.543c-0.83-1.977-1.467-4.04-1.895-6.134c-0.436-2.147-0.658-4.356-0.658-6.565
		c0-2.207,0.223-4.416,0.658-6.564c0.428-2.096,1.064-4.159,1.895-6.133c0.814-1.935,1.82-3.8,2.992-5.545
		c1.16-1.726,2.492-3.349,3.959-4.825c1.467-1.476,3.082-2.816,4.801-3.982c1.732-1.178,3.59-2.192,5.516-3.012
		c1.965-0.835,4.018-1.477,6.107-1.906c4.277-0.88,8.797-0.88,13.076,0c2.088,0.429,4.143,1.071,6.105,1.906
		c1.926,0.82,3.783,1.833,5.518,3.012c1.719,1.167,3.334,2.507,4.801,3.982c1.465,1.475,2.797,3.098,3.957,4.824
		c1.174,1.747,2.18,3.612,2.994,5.545c0.828,1.973,1.465,4.035,1.893,6.132c0.436,2.148,0.658,4.356,0.658,6.565
		S81.963,54.135,81.527,56.284z"/>
	<path display="inline" fill="#EA4C89" d="M59.574,52.852c3.385,9.297,4.877,16.969,5.275,19.224
		c1.385-0.95,2.688-2.034,3.875-3.227c1.217-1.226,2.322-2.572,3.281-4.001c0.973-1.447,1.807-2.992,2.482-4.596
		c0.688-1.637,1.215-3.347,1.568-5.082c0.084-0.412,0.154-0.828,0.219-1.244C74.529,53.408,67.531,51.578,59.574,52.852z"/>
</g>
<g id="klout_1_" display="none">
	<g display="inline">
		<polygon fill="#E14C26" points="31.007,60.729 39.194,49.215 42.546,49.215 42.546,42.405 39.194,42.405 31.636,31.358 
			22.157,31.358 32.499,45.77 21.296,60.729 		"/>
		<polygon fill="#E14C26" points="52.673,49.215 58.253,49.215 66.438,60.729 76.147,60.729 64.95,45.77 75.286,31.358 
			65.812,31.358 58.253,42.405 52.673,42.405 52.673,31.358 44.903,31.358 44.903,60.729 52.673,60.729 		"/>
		<path fill="#E14C26" d="M88.702,0H10.741C4.81,0,0.001,4.809,0.001,10.738v77.963c0,5.93,4.809,10.738,10.74,10.738h77.961
			c5.932,0,10.738-4.809,10.738-10.738V10.738C99.44,4.809,94.634,0,88.702,0z M82.603,66.891v11.047L60.618,66.891H14.841v-41.39
			h67.762V66.891z"/>
	</g>
</g>
<g id="spotify_1_" display="none">
	<path display="inline" fill="#75C044" d="M88.701,0H10.74C4.809,0,0,4.809,0,10.739v77.962c0,5.93,4.809,10.738,10.74,10.738
		h77.961c5.932,0,10.739-4.809,10.739-10.738V10.739C99.44,4.809,94.633,0,88.701,0z M49.653,82.944
		c-17.305,0-31.332-14.027-31.332-31.332S32.349,20.28,49.653,20.28c17.304,0,31.331,14.027,31.331,31.332
		S66.957,82.944,49.653,82.944z"/>
	<path display="inline" fill="#75C044" d="M67.181,53.407c-9.474-5.82-23.337-7.467-34.49-4.078
		c-1.262,0.379-1.978,1.715-1.592,2.98s1.72,1.984,2.988,1.596c9.757-2.961,22.343-1.496,30.591,3.586
		c1.123,0.686,2.597,0.334,3.295-0.795C68.66,55.575,68.304,54.104,67.181,53.407z"/>
	<path display="inline" fill="#75C044" d="M71.221,42.922c-11.383-6.758-29.416-7.398-40.262-4.102
		c-1.52,0.461-2.373,2.064-1.913,3.582s2.06,2.373,3.585,1.916c9.439-2.871,25.767-2.33,35.662,3.547
		c1.365,0.809,3.129,0.363,3.931-1.002C73.037,45.493,72.586,43.737,71.221,42.922z"/>
	<path display="inline" fill="#75C044" d="M63.579,62.432c-8.095-4.947-18.13-6.102-29.818-3.426
		c-1.032,0.234-1.677,1.258-1.44,2.287c0.231,1.033,1.266,1.674,2.293,1.443c10.688-2.441,19.758-1.449,26.969,2.957
		c0.896,0.547,2.08,0.264,2.637-0.633C64.762,64.153,64.484,62.979,63.579,62.432z"/>
</g>
<path id="github_1_" display="none" d="M88.701,0H10.74C4.809,0,0,4.809,0,10.738v77.963c0,5.93,4.809,10.738,10.74,10.738h77.961
	c5.934,0,10.74-4.809,10.74-10.738V10.738C99.441,4.809,94.635,0,88.701,0z M60.223,81.997c-1.682,0.326-2.277-0.707-2.277-1.59
	c0-1.094,0.037-4.664,0.037-9.1c0-3.094-1.059-5.111-2.248-6.141c7.383-0.82,15.141-3.625,15.141-16.361
	c0-3.619-1.287-6.578-3.412-8.9c0.344-0.834,1.479-4.207-0.326-8.774c0,0-2.781-0.891-9.109,3.399
	c-2.65-0.734-5.488-1.103-8.307-1.115c-2.818,0.013-5.654,0.381-8.299,1.115c-6.336-4.29-9.121-3.399-9.121-3.399
	c-1.801,4.567-0.666,7.94-0.32,8.774c-2.123,2.322-3.418,5.281-3.418,8.9c0,12.707,7.742,15.549,15.107,16.389
	c-0.947,0.826-1.807,2.289-2.105,4.432c-1.893,0.848-6.691,2.314-9.648-2.756c0,0-1.754-3.182-5.084-3.416
	c0,0-3.234-0.043-0.227,2.016c0,0,2.174,1.02,3.682,4.852c0,0,1.947,5.918,11.172,3.912c0.014,2.771,0.045,5.383,0.045,6.174
	c0,0.875-0.607,1.9-2.266,1.594c-13.174-4.383-22.676-16.812-22.676-31.463c0-18.313,14.848-33.158,33.158-33.158
	c18.312,0,33.158,14.845,33.158,33.158C82.879,65.184,73.391,77.608,60.223,81.997z M41.273,71.081
	c0.047,0.266-0.227,0.541-0.619,0.613c-0.385,0.07-0.74-0.094-0.789-0.359c-0.049-0.273,0.23-0.547,0.615-0.617
	C40.873,70.649,41.223,70.809,41.273,71.081z M38.748,71.51c0.01,0.273-0.309,0.5-0.703,0.504c-0.396,0.01-0.719-0.211-0.723-0.48
	c0-0.275,0.312-0.5,0.707-0.508S38.748,71.239,38.748,71.51z M36.033,71.311c-0.08,0.26-0.451,0.377-0.828,0.268
	c-0.375-0.113-0.619-0.418-0.545-0.68c0.078-0.262,0.453-0.385,0.832-0.266C35.865,70.745,36.111,71.047,36.033,71.311z
	 M33.562,70.241c-0.182,0.199-0.568,0.146-0.852-0.127c-0.289-0.268-0.371-0.646-0.189-0.848c0.186-0.201,0.574-0.145,0.859,0.127
	C33.67,69.661,33.758,70.042,33.562,70.241z M31.771,68.395c-0.201,0.143-0.535,0.01-0.74-0.285
	c-0.203-0.295-0.203-0.65,0.004-0.791c0.205-0.143,0.535-0.014,0.742,0.279C31.98,67.897,31.98,68.25,31.771,68.395z M30.465,66.485
	c-0.158,0.146-0.467,0.078-0.678-0.152c-0.217-0.23-0.256-0.541-0.096-0.689c0.162-0.146,0.463-0.078,0.68,0.154
	S30.631,66.336,30.465,66.485z M29.121,64.987c-0.072,0.166-0.332,0.215-0.568,0.102c-0.24-0.107-0.375-0.332-0.297-0.498
	c0.072-0.17,0.33-0.217,0.57-0.104C29.066,64.596,29.205,64.823,29.121,64.987z"/>
<path id="vimeo_1_" display="none" fill="#1FB7EA" d="M88.7,0H10.739C4.808,0,0,4.81,0,10.739V88.7
	c0,5.932,4.808,10.74,10.739,10.74H88.7c5.932,0,10.74-4.809,10.74-10.74v-77.96C99.44,4.81,94.632,0,88.7,0z M82.64,34.936
	c-0.303,6.613-4.92,15.666-13.849,27.158C59.56,74.098,51.747,80.1,45.358,80.1c-3.957,0-7.309-3.654-10.044-10.965
	c-1.827-6.703-3.654-13.404-5.481-20.105c-2.031-7.309-4.211-10.967-6.541-10.967c-0.508,0-2.285,1.07-5.329,3.199l-3.194-4.117
	c3.351-2.945,6.656-5.89,9.91-8.839c4.469-3.863,7.824-5.896,10.061-6.101c5.285-0.507,8.538,3.105,9.759,10.842
	c1.318,8.344,2.232,13.536,2.744,15.569c1.524,6.924,3.2,10.381,5.031,10.381c1.421,0,3.556-2.244,6.403-6.736
	c2.843-4.492,4.366-7.91,4.571-10.258c0.405-3.877-1.118-5.818-4.571-5.818c-1.627,0-3.303,0.373-5.027,1.113
	c3.338-10.935,9.715-16.247,19.125-15.944C79.753,21.56,83.041,26.086,82.64,34.936z"/>
<g id="youtube_1_" display="none">
	<path display="inline" fill="#EB2629" d="M44.633,71.362c-0.736,1.039-1.432,1.551-2.098,1.551c-0.443,0-0.696-0.26-0.776-0.775
		c-0.03-0.105-0.03-0.514-0.03-1.289V57.366h-3.316v14.48c0,1.293,0.109,2.166,0.291,2.721c0.332,0.93,1.069,1.363,2.139,1.363
		c1.22,0,2.473-0.736,3.791-2.25v1.998h3.32V57.366h-3.32V71.362z"/>
	<polygon display="inline" fill="#EB2629" points="26.359,54.561 30.263,54.561 30.263,75.678 33.953,75.678 33.953,54.561 
		37.928,54.561 37.928,51.1 26.359,51.1 	"/>
	<path display="inline" fill="#EB2629" d="M57.57,57.141c-1.219,0-2.355,0.668-3.427,1.988V51.1h-3.318v24.578h3.318v-1.775
		c1.108,1.371,2.248,2.027,3.427,2.027c1.323,0,2.21-0.695,2.654-2.059c0.221-0.775,0.334-1.996,0.334-3.689v-7.293
		c0-1.732-0.113-2.943-0.334-3.68C59.78,57.836,58.894,57.141,57.57,57.141z M57.24,70.444c0,1.654-0.486,2.469-1.443,2.469
		c-0.545,0-1.099-0.26-1.653-0.814V60.936c0.555-0.547,1.108-0.807,1.653-0.807c0.957,0,1.443,0.848,1.443,2.5V70.444z"/>
	<path display="inline" fill="#EB2629" d="M88.701,0H10.74C4.809,0,0,4.809,0,10.739v77.963c0,5.93,4.809,10.738,10.74,10.738
		h77.961c5.932,0,10.739-4.809,10.739-10.738V10.739C99.44,4.809,94.633,0,88.701,0z M56.658,23.238h0.01v-0.402h3.344v13.624
		c0,0.787,0,1.197,0.04,1.305c0.074,0.52,0.337,0.785,0.786,0.785c0.667,0,1.369-0.516,2.107-1.558V23.238h0.01v-0.402h3.355V41.34
		h-0.012v0.404h-3.354v-2.02c-1.336,1.533-2.607,2.273-3.83,2.273c-1.079,0-1.825-0.438-2.158-1.375
		c-0.186-0.561-0.299-1.445-0.299-2.75V23.238z M43.992,29.272c0-0.076,0.009-0.137,0.01-0.211v-0.193
		c0-1.978,0.338-3.424,1.051-4.359c0.927-1.264,2.233-1.896,3.903-1.896c1.681,0,2.983,0.633,3.913,1.896
		c0.701,0.936,1.04,2.382,1.04,4.359v6.482c0,0.083-0.01,0.151-0.011,0.232v0.17c0,1.969-0.337,3.426-1.041,4.352
		c-0.926,1.262-2.232,1.895-3.912,1.895c-1.671,0-2.975-0.633-3.902-1.895c-0.713-0.926-1.051-2.383-1.051-4.352V29.272z
		 M31.123,16.508h3.912l2.641,9.751l2.535-9.751h3.76L43.85,16.91h0.113l-4.465,14.748v9.683h-0.009v0.404h-3.72V31.686
		c-0.337-1.781-1.08-4.392-2.273-7.856c-0.783-2.304-1.6-4.616-2.383-6.92h0.148C31.216,16.776,31.169,16.642,31.123,16.508z
		 M76.211,76.778c-0.67,2.92-3.061,5.074-5.934,5.395c-6.811,0.76-13.701,0.766-20.561,0.76c-6.861,0.006-13.753,0-20.561-0.76
		c-2.875-0.32-5.262-2.475-5.933-5.395c-0.956-4.158-0.956-8.697-0.956-12.979c0-4.283,0.01-8.82,0.967-12.98
		c0.67-2.918,3.059-5.07,5.934-5.391c6.808-0.764,13.699-0.766,20.561-0.764c6.859-0.002,13.75,0,20.56,0.764
		c2.874,0.32,5.263,2.473,5.934,5.391c0.956,4.16,0.952,8.697,0.952,12.98C77.174,68.081,77.168,72.62,76.211,76.778z"/>
	<path display="inline" fill="#EB2629" d="M68.14,57.141c-1.693,0-3.016,0.625-3.974,1.879c-0.705,0.926-1.025,2.357-1.025,4.312
		v6.416c0,1.945,0.361,3.391,1.066,4.307c0.959,1.25,2.279,1.875,4.016,1.875c1.732,0,3.094-0.656,4.014-1.984
		c0.401-0.588,0.662-1.254,0.774-1.988c0.03-0.334,0.07-1.07,0.07-2.137v-0.486h-3.387c0,1.332-0.042,2.068-0.071,2.248
		c-0.189,0.887-0.666,1.33-1.483,1.33c-1.139,0-1.693-0.844-1.693-2.541v-3.244h6.635v-3.795c0-1.955-0.333-3.387-1.026-4.312
		C71.125,57.766,69.805,57.141,68.14,57.141z M69.764,64.364h-3.317V62.67c0-1.693,0.555-2.541,1.663-2.541
		c1.099,0,1.654,0.848,1.654,2.541V64.364z"/>
	<path display="inline" fill="#EB2629" d="M48.956,38.549c1.026,0,1.539-0.782,1.589-2.326V28.6c0-1.712-0.52-2.567-1.6-2.567
		c-1.026,0-1.54,0.782-1.59,2.327v7.622C47.355,37.694,47.874,38.549,48.956,38.549z"/>
</g>
<g id="bread" display="none">
	<path display="inline" fill="#00A4E4" d="M70.039,66.724c-0.912-0.688-1.926-0.961-3.041-0.82
		c-1.112,0.141-2.027,0.658-2.739,1.549c-0.714,0.887-0.998,1.916-0.853,3.076c0.146,1.16,0.678,2.084,1.59,2.773
		c0.911,0.688,1.926,0.959,3.039,0.818c1.113-0.139,2.028-0.656,2.742-1.547c0.714-0.893,0.992-1.918,0.846-3.082
		C71.479,68.333,70.953,67.406,70.039,66.724z"/>
	<path display="inline" fill="#00A4E4" d="M88.701,0H10.74C4.809,0,0,4.809,0,10.74v77.961c0,5.932,4.809,10.74,10.74,10.74h77.961
		c5.932,0,10.74-4.809,10.74-10.74V10.74C99.441,4.809,94.633,0,88.701,0z M77.521,66.869c0.789,6.26-2.817,11.871-8.056,12.531
		c0,0-4.884,0.111-7.535,0.184c-3.562,0.098-12.718,1.146-15.995,2.018c-3.262,0.818-8.933,1.891-8.933,1.891
		c-5.237,0.66-10.123-3.881-10.911-10.141l-0.99-19.982c-3.795-2.746-7.209-6.783-7.822-11.648
		c-1.219-9.668,6.107-18.553,16.363-19.846c4.535-0.572,8.876,0.436,12.421,2.57c2.9-2.926,6.843-4.963,11.353-5.531
		c10.258-1.295,19.561,5.496,20.779,15.166c0.611,4.854-1.686,9.607-4.672,13.205L77.521,66.869z"/>
</g>
</svg>
