<?xml version="1.0" encoding="utf-8"?>
<!-- Generator: Adobe Illustrator 15.1.0, SVG Export Plug-In . SVG Version: 6.00 Build 0)  -->
<!DOCTYPE svg PUBLIC "-//W3C//DTD SVG 1.1//EN" "http://www.w3.org/Graphics/SVG/1.1/DTD/svg11.dtd">
<svg version="1.1" id="Layer_1" xmlns="http://www.w3.org/2000/svg" xmlns:xlink="http://www.w3.org/1999/xlink" x="0px" y="0px"
	 width="99.441px" height="99.44px" viewBox="0 0 99.441 99.44" enable-background="new 0 0 99.441 99.44" xml:space="preserve">
<g>
	<g>
		<polygon fill="#E14C26" points="31.007,60.729 39.194,49.215 42.546,49.215 42.546,42.404 39.194,42.404 31.636,31.358 
			22.157,31.358 32.499,45.771 21.296,60.729 		"/>
		<polygon fill="#E14C26" points="52.673,49.215 58.253,49.215 66.438,60.729 76.147,60.729 64.95,45.771 75.286,31.358 
			65.812,31.358 58.253,42.404 52.673,42.404 52.673,31.358 44.903,31.358 44.903,60.729 52.673,60.729 		"/>
		<path fill="#E14C26" d="M88.702,0H10.741C4.81,0,0.001,4.809,0.001,10.738v77.963c0,5.93,4.809,10.738,10.74,10.738h77.961
			c5.932,0,10.738-4.809,10.738-10.738V10.738C99.44,4.809,94.634,0,88.702,0z M82.603,66.891v11.047L60.618,66.891H14.841v-41.39
			h67.762V66.891z"/>
	</g>
</g>
</svg>
