<?xml version="1.0" encoding="utf-8"?>
<!-- Generator: Adobe Illustrator 15.1.0, SVG Export Plug-In . SVG Version: 6.00 Build 0)  -->
<!DOCTYPE svg PUBLIC "-//W3C//DTD SVG 1.1//EN" "http://www.w3.org/Graphics/SVG/1.1/DTD/svg11.dtd">
<svg version="1.1" id="Layer_1" xmlns="http://www.w3.org/2000/svg" xmlns:xlink="http://www.w3.org/1999/xlink" x="0px" y="0px"
	 width="99.441px" height="99.44px" viewBox="0 0 99.441 99.44" enable-background="new 0 0 99.441 99.44" xml:space="preserve">
<path fill="#A52F23" d="M88.701,0H10.739C4.809,0,0.002,4.809,0.002,10.74V88.7c0,5.932,4.807,10.74,10.736,10.74h77.962
	c5.932,0,10.738-4.809,10.738-10.74V10.74C99.439,4.809,94.633,0,88.701,0z M67.193,69.719c-13.078,0-17.615-5.896-20.031-13.23
	l-2.42-7.559c-1.814-5.519-3.934-9.829-10.584-9.829c-4.613,0-9.299,3.327-9.299,12.625c0,7.258,3.703,11.795,8.92,11.795
	c5.896,0,9.828-4.387,9.828-4.387l2.42,6.576c0,0-4.084,4.008-12.627,4.008c-10.582,0-16.48-6.197-16.48-17.691
	c0-11.944,5.898-18.973,17.01-18.973c10.055,0,15.121,3.629,18.296,13.457l2.492,7.559c1.816,5.518,4.992,9.525,12.625,9.525
	c5.141,0,7.863-1.135,7.863-3.932c0-2.191-1.285-3.779-5.141-4.688l-5.143-1.209c-6.271-1.512-8.768-4.762-8.768-9.903
	c0-8.241,6.652-10.811,13.457-10.811c7.711,0,12.396,2.797,13.004,9.6l-7.561,0.908c-0.303-3.25-2.27-4.611-5.898-4.611
	c-3.324,0-5.367,1.512-5.367,4.082c0,2.269,0.984,3.628,4.311,4.385l4.838,1.059c6.5,1.512,9.979,4.686,9.979,10.809
	C82.918,66.846,76.568,69.719,67.193,69.719z"/>
</svg>
