<?xml version="1.0" encoding="utf-8"?>
<!DOCTYPE svg PUBLIC "-//W3C//DTD SVG 1.1//EN" "http://www.w3.org/Graphics/SVG/1.1/DTD/svg11.dtd">
<svg version="1.1" id="Layer_1" xmlns="http://www.w3.org/2000/svg" xmlns:xlink="http://www.w3.org/1999/xlink" x="0px" y="0px"
	 width="99.441px" height="99.44px" viewBox="0 0 99.441 99.44" enable-background="new 0 0 99.441 99.44" xml:space="preserve">
<g id="linkedin">
	<path fill-rule="evenodd" clip-rule="evenodd" fill="#BCBCBC" d="M22.61,94.878V31.644H1.595v63.234H22.61L22.61,94.878z
		 M12.104,23.016c7.328,0,11.89-4.86,11.89-10.928c-0.136-6.204-4.562-10.926-11.75-10.926c-7.192,0-11.89,4.722-11.89,10.926
		c0,6.068,4.559,10.928,11.614,10.928H12.104L12.104,23.016z"/>
	<path fill-rule="evenodd" clip-rule="evenodd" fill="#BCBCBC" d="M34.244,94.878H55.26V59.565c0-1.89,0.135-3.78,0.692-5.128
		c1.518-3.775,4.977-7.69,10.781-7.69c7.606,0,10.649,5.804,10.649,14.304v33.828h21.016V58.618
		c0-19.419-10.37-28.456-24.196-28.456c-11.34,0-16.315,6.339-19.082,10.654h0.14v-9.171H34.244
		C34.519,37.575,34.244,94.878,34.244,94.878L34.244,94.878z"/>
</g>
</svg>
