<?xml version="1.0" encoding="utf-8"?>
<!-- Generator: Adobe Illustrator 15.1.0, SVG Export Plug-In . SVG Version: 6.00 Build 0)  -->
<!DOCTYPE svg PUBLIC "-//W3C//DTD SVG 1.1//EN" "http://www.w3.org/Graphics/SVG/1.1/DTD/svg11.dtd">
<svg version="1.1" id="Layer_1" xmlns="http://www.w3.org/2000/svg" xmlns:xlink="http://www.w3.org/1999/xlink" x="0px" y="0px"
	 width="99.441px" height="99.44px" viewBox="0 0 99.441 99.44" enable-background="new 0 0 99.441 99.44" xml:space="preserve">
<g>
	<linearGradient id="SVGID_1_" gradientUnits="userSpaceOnUse" x1="54.3994" y1="45.2524" x2="54.4854" y2="45.2524">
		<stop  offset="0" style="stop-color:#016699"/>
		<stop  offset="1" style="stop-color:#016699"/>
	</linearGradient>
	<path fill="url(#SVGID_1_)" d="M54.485,45.319v-0.133c-0.027,0.045-0.059,0.09-0.086,0.133H54.485z"/>
	<linearGradient id="SVGID_2_" gradientUnits="userSpaceOnUse" x1="9.765625e-04" y1="49.7202" x2="99.4404" y2="49.7202">
		<stop  offset="0" style="stop-color:#016699"/>
		<stop  offset="1" style="stop-color:#016699"/>
	</linearGradient>
	<path fill="url(#SVGID_2_)" d="M88.702,0H10.741C4.81,0,0.001,4.809,0.001,10.74V88.7c0,5.932,4.809,10.74,10.74,10.74h77.961
		c5.932,0,10.738-4.809,10.738-10.74V10.74C99.44,4.809,94.634,0,88.702,0z M33.966,79.297H20.759V39.555h13.207V79.297z
		 M27.362,34.132h-0.086c-4.434,0-7.299-3.055-7.299-6.868c0-3.899,2.953-6.867,7.473-6.867c4.518,0,7.299,2.968,7.387,6.867
		C34.837,31.077,31.968,34.132,27.362,34.132z M81.599,79.297H68.39v-21.26c0-5.342-1.91-8.99-6.691-8.99
		c-3.648,0-5.824,2.459-6.777,4.834c-0.35,0.848-0.436,2.035-0.436,3.223v22.193H41.276c0,0,0.174-36.014,0-39.742h13.209v5.631
		c1.756-2.707,4.893-6.562,11.906-6.562c8.689,0,15.207,5.68,15.207,17.885V79.297z"/>
</g>
</svg>
