<?xml version="1.0" encoding="utf-8"?>
<!DOCTYPE svg PUBLIC "-//W3C//DTD SVG 1.1//EN" "http://www.w3.org/Graphics/SVG/1.1/DTD/svg11.dtd">
<svg version="1.1" id="Layer_1" xmlns="http://www.w3.org/2000/svg" xmlns:xlink="http://www.w3.org/1999/xlink" x="0px" y="0px"
	 width="99.441px" height="99.44px" viewBox="0 0 99.441 99.44" enable-background="new 0 0 99.441 99.44" xml:space="preserve">
<g id="pinterest">
	<path fill="#BCBCBC" d="M50.991-0.056c-27.168,0-40.869,19.478-40.869,35.721c0,9.834,3.724,18.585,11.713,21.843
		c1.309,0.535,2.479,0.018,2.858-1.432c0.268-1,0.889-3.535,1.168-4.588c0.385-1.434,0.236-1.937-0.823-3.188
		c-2.3-2.715-3.771-6.231-3.771-11.211c0-14.451,10.808-27.388,28.149-27.388c15.36,0,23.795,9.382,23.795,21.912
		c0,16.488-7.297,30.404-18.127,30.404c-5.984,0-10.465-4.947-9.027-11.014c1.719-7.245,5.05-15.062,5.05-20.292
		c0-4.68-2.514-8.583-7.716-8.583c-6.114,0-11.026,6.326-11.026,14.8c0,5.396,1.823,9.049,1.823,9.049s-6.258,26.515-7.354,31.156
		c-2.185,9.25-0.331,20.59-0.172,21.732c0.092,0.68,0.964,0.838,1.36,0.33c0.563-0.74,7.848-9.73,10.325-18.715
		c0.699-2.545,4.023-15.719,4.023-15.719c1.987,3.791,7.791,7.127,13.965,7.127c18.383,0,30.855-16.758,30.855-39.187
		C87.192,15.738,72.825-0.056,50.991-0.056z"/>
</g>
</svg>
