<?xml version="1.0" encoding="utf-8"?>
<!-- Generator: Adobe Illustrator 15.1.0, SVG Export Plug-In . SVG Version: 6.00 Build 0)  -->
<!DOCTYPE svg PUBLIC "-//W3C//DTD SVG 1.1//EN" "http://www.w3.org/Graphics/SVG/1.1/DTD/svg11.dtd">
<svg version="1.1" id="Layer_1" xmlns="http://www.w3.org/2000/svg" xmlns:xlink="http://www.w3.org/1999/xlink" x="0px" y="0px"
	 width="99.441px" height="99.44px" viewBox="0 0 99.441 99.44" enable-background="new 0 0 99.441 99.44" xml:space="preserve">
<path fill="#CB2027" d="M88.7,0H10.741C4.81,0,0.001,4.809,0.001,10.74V88.7c0,5.932,4.809,10.74,10.74,10.74H88.7
	c5.932,0,10.74-4.809,10.74-10.74V10.74C99.44,4.809,94.632,0,88.7,0z M55.515,66.866c-4.193,0-8.135-2.266-9.484-4.84
	c0,0-2.258,8.947-2.732,10.676c-1.682,6.102-6.629,12.207-7.012,12.709c-0.27,0.346-0.861,0.238-0.924-0.223
	c-0.107-0.777-1.367-8.479,0.117-14.76c0.744-3.152,4.994-21.16,4.994-21.16s-1.238-2.48-1.238-6.145
	c0-5.756,3.336-10.052,7.488-10.052c3.533,0,5.24,2.651,5.24,5.829c0,3.553-2.262,8.861-3.43,13.782
	c-0.977,4.121,2.066,7.48,6.131,7.48c7.355,0,12.311-9.451,12.311-20.649c0-8.51-5.729-14.882-16.16-14.882
	c-11.777,0-19.117,8.786-19.117,18.601c0,3.382,0.998,5.77,2.561,7.614c0.719,0.85,0.82,1.191,0.559,2.166
	c-0.189,0.715-0.611,2.436-0.793,3.115c-0.258,0.984-1.053,1.336-1.941,0.973c-5.426-2.213-7.955-8.156-7.955-14.835
	c0-11.031,9.305-24.26,27.756-24.26c14.828,0,24.586,10.727,24.586,22.248C76.47,55.485,67.999,66.866,55.515,66.866z"/>
</svg>
