<?xml version="1.0" encoding="utf-8"?>
<!-- Generator: Adobe Illustrator 17.0.0, SVG Export Plug-In . SVG Version: 6.00 Build 0)  -->
<!DOCTYPE svg PUBLIC "-//W3C//DTD SVG 1.1//EN" "http://www.w3.org/Graphics/SVG/1.1/DTD/svg11.dtd">
<svg version="1.1" id="pocket" xmlns="http://www.w3.org/2000/svg" xmlns:xlink="http://www.w3.org/1999/xlink" x="0px" y="0px"
	 width="99.441px" height="99.44px" viewBox="0 0 99.441 99.44" enable-background="new 0 0 99.441 99.44" xml:space="preserve">
<path fill="#BCBCBC" d="M93.779,6.422H5.662c-3.114,0-5.638,2.524-5.638,5.638v31.262c0,27.446,22.25,49.696,49.696,49.696
	c27.447,0,49.697-22.25,49.697-49.696V12.06C99.417,8.946,96.893,6.422,93.779,6.422z M78.056,41.117L54.667,64.51
	c-1.339,1.339-3.156,2.092-5.05,2.092c-1.894,0-3.71-0.753-5.05-2.092L21.439,41.382c-2.79-2.79-2.79-7.309,0-10.099
	s7.309-2.79,10.099,0l18.078,18.078l18.34-18.343c2.79-2.79,7.309-2.79,10.099,0C80.846,33.804,80.846,38.327,78.056,41.117z"/>
</svg>
