<?xml version="1.0" encoding="utf-8"?>
<!-- Generator: Adobe Illustrator 17.0.0, SVG Export Plug-In . SVG Version: 6.00 Build 0)  -->
<!DOCTYPE svg PUBLIC "-//W3C//DTD SVG 1.1//EN" "http://www.w3.org/Graphics/SVG/1.1/DTD/svg11.dtd">
<svg version="1.1" id="pocket" xmlns="http://www.w3.org/2000/svg" xmlns:xlink="http://www.w3.org/1999/xlink" x="0px" y="0px"
	 width="99.441px" height="99.44px" viewBox="0 0 99.441 99.44" enable-background="new 0 0 99.441 99.44" xml:space="preserve">
<g>
	<path fill="#F13D52" d="M60.858,39.84L49.657,51.043L38.616,40.002c-1.704-1.704-4.464-1.704-6.168,0
		c-1.704,1.704-1.704,4.464,0,6.168l14.125,14.125c0.818,0.818,1.927,1.278,3.084,1.278s2.266-0.46,3.084-1.278l14.285-14.287
		c1.704-1.704,1.704-4.466,0-6.168C65.322,38.136,62.562,38.136,60.858,39.84z"/>
	<path fill="#F13D52" d="M88.701,0.026H10.74C4.808,0.026,0,4.834,0,10.766v77.959c0,5.932,4.809,10.74,10.74,10.74h77.961
		c5.934,0,10.74-4.809,10.74-10.74V10.766C99.441,4.834,94.635,0.026,88.701,0.026z M80.072,47.355
		c0,16.762-13.589,30.351-30.351,30.351c-16.762,0-30.351-13.589-30.351-30.351V28.262c0-1.902,1.542-3.443,3.443-3.443h53.815
		c1.902,0,3.444,1.542,3.444,3.443V47.355z"/>
</g>
</svg>
