<?xml version="1.0" encoding="utf-8"?>
<!DOCTYPE svg PUBLIC "-//W3C//DTD SVG 1.1//EN" "http://www.w3.org/Graphics/SVG/1.1/DTD/svg11.dtd">
<svg version="1.1" id="Layer_1" xmlns="http://www.w3.org/2000/svg" xmlns:xlink="http://www.w3.org/1999/xlink" x="0px" y="0px"
	 width="99.441px" height="99.44px" viewBox="0 0 99.441 99.44" enable-background="new 0 0 99.441 99.44" xml:space="preserve">
  <g id="quora">
    <path fill="#BCBCBC" d="M72.318,82.451c12.515-7.852,20.856-21.888,20.856-37.902C93.175,19.946,73.497,0,49.226,0
      C24.955,0,5.28,19.946,5.28,44.549c0,24.604,19.675,44.549,43.946,44.549c3.57,0,7.038-0.443,10.359-1.259
      c4.174,7.591,10.527,12.961,24.017,10.394V90.68C83.602,90.68,74.952,88.506,72.318,82.451z M72.012,50.438
      c0,7.438-2.369,14.19-6.212,19.176c-4.832-5.141-12.402-9.368-22.008-8.829v0.902v7.854c0,0,6.515,0.258,10.978,7.925
      c-1.672,0.49-3.415,0.76-5.208,0.76c-12.398,0-22.445-12.438-22.445-27.787c0-1.968,0-9.507,0-11.477
      c0-15.345,10.047-27.786,22.445-27.786s22.45,12.44,22.45,27.786C72.012,40.931,72.012,48.47,72.012,50.438z"/>
  </g>
</svg>
