<?xml version="1.0" encoding="utf-8"?>
<!DOCTYPE svg PUBLIC "-//W3C//DTD SVG 1.1//EN" "http://www.w3.org/Graphics/SVG/1.1/DTD/svg11.dtd">
<svg version="1.1" id="Layer_1" xmlns="http://www.w3.org/2000/svg" xmlns:xlink="http://www.w3.org/1999/xlink" x="0px" y="0px"
	 width="99.441px" height="99.44px" viewBox="0 0 99.441 99.44" enable-background="new 0 0 99.441 99.44" xml:space="preserve">
  <g id="quora-sign">
    <path fill="#A72822" d="M49.902,28.81c-6.719,0-12.164,6.742-12.164,15.058c0,1.067,0,5.153,0,6.219
      c0,8.317,5.445,15.058,12.164,15.058c0.972,0,1.916-0.146,2.822-0.411c-2.418-4.154-5.949-4.295-5.949-4.295v-4.256v-0.488
      c5.206-0.293,9.308,1.998,11.927,4.785c2.082-2.703,3.366-6.361,3.366-10.393c0-1.066,0-5.152,0-6.219
      C62.068,35.551,56.621,28.81,49.902,28.81z"/>
    <path fill="#A72822" d="M88.702,0H10.741C4.81,0,0.001,4.809,0.001,10.739v77.963c0,5.93,4.809,10.738,10.74,10.738h77.961
      c5.932,0,10.738-4.809,10.738-10.738V10.739C99.44,4.809,94.634,0,88.702,0z M68.35,71.895v4.092
      c-7.311,1.393-10.754-1.52-13.016-5.632c-1.8,0.442-3.679,0.681-5.614,0.681c-13.152,0-23.814-10.807-23.814-24.141
      c0-13.333,10.662-24.142,23.814-24.142c13.153,0,23.817,10.809,23.817,24.142c0,8.679-4.521,16.285-11.303,20.539
      C63.662,70.717,68.35,71.895,68.35,71.895z"/>
  </g>
</svg>
