<?xml version="1.0" encoding="utf-8"?>
<!DOCTYPE svg PUBLIC "-//W3C//DTD SVG 1.1//EN" "http://www.w3.org/Graphics/SVG/1.1/DTD/svg11.dtd">
<svg version="1.1" id="Layer_1" xmlns="http://www.w3.org/2000/svg" xmlns:xlink="http://www.w3.org/1999/xlink" x="0px" y="0px"
	 width="99.441px" height="99.44px" viewBox="0 0 99.441 99.44" enable-background="new 0 0 99.441 99.44" xml:space="preserve">
<g id="reddit">
	<path fill="#BCBCBC" d="M99.242,48.792c0-6.302-5.128-11.432-11.433-11.432c-2.804,0-5.447,1.015-7.533,2.852
		c-7.435-4.757-17.299-7.816-28.204-8.228l6.501-18.477l16.242,3.883c0.011,5.14,4.192,9.315,9.334,9.315
		c5.146,0,9.338-4.187,9.338-9.336c0-5.149-4.191-9.337-9.338-9.337c-3.907,0-7.256,2.416-8.646,5.829L56.262,9.262l-7.987,22.692
		c-11.361,0.213-21.668,3.289-29.378,8.194c-2.077-1.798-4.692-2.789-7.465-2.789C5.129,37.36,0,42.489,0,48.792
		c0,3.899,2.007,7.494,5.257,9.594c-0.197,1.14-0.31,2.297-0.31,3.473c0,16.501,20.002,29.926,44.589,29.926
		s44.59-13.425,44.59-29.926c0-1.141-0.105-2.268-0.292-3.377C97.174,56.4,99.242,52.752,99.242,48.792z M84.149,11.625
		c3.17,0,5.747,2.577,5.747,5.745s-2.577,5.746-5.747,5.746c-3.168,0-5.744-2.578-5.744-5.746S80.981,11.625,84.149,11.625z
		 M3.592,48.792c0-4.323,3.517-7.841,7.839-7.841c1.591,0,3.109,0.474,4.396,1.351c-4.522,3.506-7.855,7.72-9.569,12.361
		C4.592,53.191,3.592,51.068,3.592,48.792z M49.536,88.193c-22.607,0-40.999-11.813-40.999-26.335
		c0-14.522,18.392-26.335,40.999-26.335c22.606,0,40.999,11.813,40.999,26.335C90.535,76.379,72.143,88.193,49.536,88.193z
		 M92.853,54.774c-1.69-4.655-5.01-8.885-9.525-12.408c1.308-0.916,2.854-1.416,4.482-1.416c4.325,0,7.842,3.518,7.842,7.841
		C95.651,51.125,94.6,53.3,92.853,54.774z"/>
	<path fill="#BCBCBC" d="M42.395,56.574c0-3.879-3.144-7.024-7.022-7.024c-3.884,0-7.026,3.145-7.026,7.024
		c0,3.88,3.142,7.023,7.026,7.023C39.251,63.597,42.395,60.454,42.395,56.574z"/>
	<path fill="#BCBCBC" d="M64.699,49.55c-3.884,0-7.027,3.145-7.027,7.024c0,3.88,3.144,7.023,7.027,7.023
		c3.878,0,7.021-3.144,7.021-7.023C71.721,52.695,68.577,49.55,64.699,49.55z"/>
	<path fill="#BCBCBC" d="M63.511,73.081c-0.042,0.041-4.314,4.249-14.059,4.249c-9.576,0-13.397-4.063-13.5-4.177
		c-0.646-0.741-1.771-0.824-2.522-0.186c-0.753,0.644-0.842,1.778-0.196,2.533c0.188,0.221,4.77,5.421,16.218,5.421
		c11.395,0,16.434-5.13,16.644-5.348c0.681-0.713,0.654-1.835-0.051-2.523C65.337,72.36,64.202,72.377,63.511,73.081z"/>
</g>
</svg>
