<?xml version="1.0" encoding="utf-8"?>
<!DOCTYPE svg PUBLIC "-//W3C//DTD SVG 1.1//EN" "http://www.w3.org/Graphics/SVG/1.1/DTD/svg11.dtd">
<svg version="1.1" id="Layer_1" xmlns="http://www.w3.org/2000/svg" xmlns:xlink="http://www.w3.org/1999/xlink" x="0px" y="0px"
	 width="99.441px" height="99.44px" viewBox="0 0 99.441 99.44" enable-background="new 0 0 99.441 99.44" xml:space="preserve">
<g id="reddit-sign">
	<path fill="#638CB1" d="M49.656,37.427c-17.203,0-31.198,8.989-31.198,20.041c0,11.049,13.995,20.039,31.198,20.039
		c17.202,0,31.198-8.99,31.198-20.039C80.854,46.416,66.858,37.427,49.656,37.427z M33.531,53.446c0-2.951,2.392-5.346,5.347-5.346
		c2.952,0,5.344,2.395,5.344,5.346c0,2.953-2.392,5.344-5.344,5.344C35.923,58.79,33.531,56.399,33.531,53.446z M62.258,67.903
		c-0.16,0.168-3.995,4.07-12.665,4.07c-8.713,0-12.199-3.957-12.342-4.125c-0.491-0.574-0.425-1.438,0.149-1.928
		c0.57-0.486,1.427-0.424,1.919,0.141c0.078,0.086,2.986,3.18,10.273,3.18c7.414,0,10.666-3.203,10.698-3.234
		c0.524-0.535,1.389-0.549,1.928-0.023C62.755,66.508,62.774,67.362,62.258,67.903z M61.194,58.79c-2.955,0-5.348-2.391-5.348-5.344
		c0-2.951,2.393-5.346,5.348-5.346c2.951,0,5.344,2.395,5.344,5.346C66.538,56.399,64.146,58.79,61.194,58.79z"/>
	<path fill="#638CB1" d="M78.781,41.558c-1.239,0-2.417,0.38-3.411,1.076c3.437,2.681,5.961,5.899,7.248,9.443
		c1.329-1.123,2.13-2.777,2.13-4.553C84.748,44.232,82.071,41.558,78.781,41.558z"/>
	<path fill="#638CB1" d="M24.006,42.585c-0.979-0.667-2.135-1.027-3.346-1.027c-3.29,0-5.966,2.675-5.966,5.966
		c0,1.732,0.761,3.348,2.029,4.467C18.028,48.459,20.563,45.254,24.006,42.585z"/>
	<path fill="#638CB1" d="M88.702,0H10.741C4.81,0,0.001,4.808,0.001,10.738v77.964c0,5.93,4.809,10.738,10.74,10.738h77.961
		c5.932,0,10.738-4.809,10.738-10.738V10.738C99.44,4.808,94.634,0,88.702,0z M83.365,54.897c0.142,0.844,0.222,1.701,0.222,2.57
		c0,12.557-15.221,22.771-33.931,22.771S15.726,70.024,15.726,57.467c0-0.895,0.086-1.775,0.236-2.645
		c-2.474-1.596-4.001-4.332-4.001-7.299c0-4.796,3.903-8.699,8.699-8.699c2.109,0,4.101,0.754,5.68,2.122
		c5.868-3.732,13.711-6.073,22.356-6.235l6.077-17.268l14.643,3.5c1.058-2.598,3.605-4.436,6.58-4.436
		c3.916,0,7.104,3.187,7.104,7.105c0,3.918-3.188,7.105-7.104,7.105c-3.913,0-7.095-3.178-7.104-7.089l-12.359-2.955l-4.947,14.06
		c8.299,0.313,15.805,2.642,21.462,6.261c1.588-1.397,3.6-2.17,5.733-2.17c4.797,0,8.699,3.903,8.699,8.699
		C87.48,50.538,85.906,53.313,83.365,54.897z"/>
	<path fill="#638CB1" d="M75.996,27.985c2.411,0,4.372-1.961,4.372-4.373s-1.961-4.372-4.372-4.372s-4.372,1.961-4.372,4.372
		S73.585,27.985,75.996,27.985z"/>
</g>
</svg>
