<?xml version="1.0" encoding="utf-8"?>
<!DOCTYPE svg PUBLIC "-//W3C//DTD SVG 1.1//EN" "http://www.w3.org/Graphics/SVG/1.1/DTD/svg11.dtd">
<svg version="1.1" id="Layer_1" xmlns="http://www.w3.org/2000/svg" xmlns:xlink="http://www.w3.org/1999/xlink" x="0px" y="0px"
	 width="99.441px" height="99.44px" viewBox="0 0 99.441 99.44" enable-background="new 0 0 99.441 99.44" xml:space="preserve">
<g id="soundcloud-sign">
<linearGradient id="soundcloud_1" gradientUnits="userSpaceOnUse" x1="9.765625e-04" y1="49.7197" x2="99.4404" y2="49.7197">
	<stop  offset="0" style="stop-color:#EF3F23"/>
	<stop  offset="1" style="stop-color:#EF3B24"/>
</linearGradient>
<path fill="url(#soundcloud_1)" d="M88.702,0H10.741C4.81,0,0.001,4.808,0.001,10.738v77.964
	c0,5.93,4.809,10.738,10.74,10.738h77.961c5.932,0,10.738-4.809,10.738-10.738V10.738C99.44,4.808,94.634,0,88.702,0z M12.678,63.37
	c-0.025,0.176-0.15,0.297-0.305,0.297c-0.159,0-0.285-0.123-0.307-0.299l-0.559-4.172l0.559-4.244
	c0.021-0.176,0.147-0.299,0.307-0.299c0.154,0,0.281,0.121,0.305,0.297l0.663,4.246L12.678,63.37z M15.516,65.909
	c-0.025,0.182-0.156,0.309-0.316,0.309c-0.162,0-0.298-0.129-0.318-0.311l-0.752-6.711c0,0,0.752-6.861,0.752-6.863
	c0.021-0.178,0.156-0.309,0.318-0.309c0.16,0,0.291,0.127,0.316,0.309l0.854,6.863L15.516,65.909z M18.583,67.043
	c-0.023,0.217-0.184,0.375-0.383,0.375c-0.202,0-0.363-0.158-0.384-0.375l-0.713-7.848l0.713-8.143
	c0.021-0.217,0.182-0.375,0.384-0.375c0.199,0,0.359,0.158,0.384,0.375l0.81,8.143L18.583,67.043z M21.676,67.293
	c-0.021,0.25-0.214,0.439-0.447,0.439c-0.237,0-0.431-0.189-0.45-0.439l-0.673-8.096l0.673-8.365c0.02-0.252,0.213-0.441,0.45-0.441
	c0.233,0,0.426,0.189,0.447,0.439l0.766,8.367L21.676,67.293z M24.792,67.362c-0.021,0.287-0.24,0.504-0.513,0.504
	c-0.276,0-0.496-0.219-0.514-0.506L23.13,59.2l0.636-7.762c0.018-0.289,0.237-0.506,0.514-0.506c0.273,0,0.493,0.217,0.513,0.502
	l0.722,7.766L24.792,67.362z M27.934,67.364v-0.002c-0.018,0.32-0.271,0.572-0.578,0.572c-0.309,0-0.562-0.252-0.578-0.57
	l-0.598-8.162l0.598-12.627c0.016-0.32,0.27-0.573,0.578-0.573c0.307,0,0.561,0.253,0.578,0.573l0.677,12.627L27.934,67.364z
	 M31.1,67.311c-0.016,0.357-0.3,0.637-0.643,0.637c-0.348,0-0.629-0.279-0.645-0.635l-0.559-8.109c0,0,0.559-15.515,0.559-15.516
	c0.016-0.357,0.297-0.638,0.645-0.638c0.343,0,0.627,0.28,0.643,0.638l0.632,15.516L31.1,67.311z M34.291,67.229
	c-0.016,0.395-0.326,0.703-0.709,0.703c-0.386,0-0.696-0.309-0.71-0.701l-0.52-8.025c0,0,0.52-16.809,0.52-16.811
	c0.014-0.395,0.324-0.703,0.71-0.703c0.383,0,0.693,0.309,0.709,0.703l0.586,16.811L34.291,67.229z M37.505,67.18L37.505,67.18
	c-0.014,0.43-0.353,0.768-0.773,0.768c-0.422,0-0.763-0.338-0.774-0.766l-0.482-7.977l0.482-17.376
	c0.012-0.432,0.353-0.771,0.774-0.771c0.421,0,0.761,0.339,0.773,0.771l0.543,17.378L37.505,67.18z M40.745,67.11v-0.006
	c-0.011,0.469-0.381,0.836-0.838,0.836c-0.461,0-0.83-0.367-0.839-0.832l-0.445-7.9l0.443-16.934
	c0.011-0.467,0.38-0.834,0.841-0.834c0.457,0,0.827,0.365,0.838,0.834l0.499,16.934L40.745,67.11z M44.01,67.059v-0.006
	c-0.012,0.506-0.408,0.9-0.904,0.9c-0.497,0-0.895-0.395-0.904-0.895l-0.405-7.85l0.405-16.317c0.01-0.505,0.407-0.9,0.904-0.9
	c0.496,0,0.893,0.396,0.904,0.899l0.453,16.318L44.01,67.059z M47.299,67.004c-0.01,0.533-0.443,0.967-0.97,0.967
	c-0.525,0-0.962-0.434-0.97-0.961c0,0-0.365-7.793-0.365-7.805l0.365-19.411c0.008-0.533,0.444-0.967,0.97-0.967
	c0.526,0,0.961,0.434,0.97,0.967l0.41,19.417L47.299,67.004z M50.574,66.899v-0.008c-0.009,0.568-0.472,1.031-1.035,1.031
	s-1.027-0.463-1.035-1.025l-0.425-7.684l0.424-21.176c0.009-0.569,0.473-1.033,1.036-1.033s1.026,0.464,1.035,1.031l0.46,21.178
	L50.574,66.899z M78.532,67.991c-0.167,0-26.032-0.012-26.056-0.016c-0.562-0.055-1.008-0.535-1.016-1.109V37.03
	c0.006-0.549,0.194-0.831,0.904-1.105c1.826-0.706,3.893-1.124,6.014-1.124c8.666,0,15.77,6.646,16.519,15.117
	c1.119-0.469,2.347-0.729,3.635-0.729c5.192,0,9.4,4.208,9.4,9.401C87.933,63.782,83.725,67.991,78.532,67.991z"/>
</g>
</svg>
