<?xml version="1.0" encoding="utf-8"?>
<!DOCTYPE svg PUBLIC "-//W3C//DTD SVG 1.1//EN" "http://www.w3.org/Graphics/SVG/1.1/DTD/svg11.dtd">
<svg version="1.1" id="Layer_1" xmlns="http://www.w3.org/2000/svg" xmlns:xlink="http://www.w3.org/1999/xlink" x="0px" y="0px"
	 width="99.441px" height="99.44px" viewBox="0 0 99.441 99.44" enable-background="new 0 0 99.441 99.44" xml:space="preserve">
<g id="spotify">
  <path fill="#BCBCBC" d="M97.929,49.764c0-27.043-21.922-48.965-48.963-48.965C21.922,0.799,0,22.721,0,49.764
    c0,27.042,21.922,48.963,48.965,48.963C76.007,98.727,97.929,76.806,97.929,49.764z M24.639,53.347
    c-1.983,0.607-4.07-0.516-4.672-2.493c-0.603-1.975,0.516-4.065,2.488-4.656c17.431-5.297,39.096-2.723,53.901,6.371
    c1.756,1.091,2.314,3.385,1.24,5.142c-1.092,1.762-3.396,2.312-5.15,1.238C59.556,51.009,39.886,48.723,24.639,53.347z
     M71.729,70.781c-0.871,1.401-2.719,1.845-4.123,0.991c-11.268-6.888-25.443-8.438-42.146-4.622
    c-1.607,0.359-3.223-0.641-3.583-2.256c-0.37-1.608,0.637-3.206,2.252-3.575c18.266-4.184,33.949-2.378,46.6,5.355
    C72.144,67.526,72.579,69.361,71.729,70.781z M19.75,29.771c16.95-5.15,45.132-4.148,62.923,6.413
    c2.131,1.271,2.834,4.017,1.564,6.158c-1.252,2.135-4.008,2.83-6.141,1.567c-15.467-9.184-40.982-10.029-55.735-5.543
    c-2.382,0.714-4.883-0.625-5.601-2.993C16.041,33.001,17.375,30.494,19.75,29.771z"/>
</g>
</svg>
