<?xml version="1.0" encoding="utf-8"?>
<!DOCTYPE svg PUBLIC "-//W3C//DTD SVG 1.1//EN" "http://www.w3.org/Graphics/SVG/1.1/DTD/svg11.dtd">
<svg version="1.1" id="Layer_1" xmlns="http://www.w3.org/2000/svg" xmlns:xlink="http://www.w3.org/1999/xlink" x="0px" y="0px"
	 width="99.441px" height="99.44px" viewBox="0 0 99.441 99.44" enable-background="new 0 0 99.441 99.44" xml:space="preserve">
  <g id="spotify-sign">
    <path fill="#75C044" d="M88.701,0H10.74C4.809,0,0,4.809,0,10.739v77.962c0,5.93,4.809,10.738,10.74,10.738h77.961
      c5.932,0,10.739-4.809,10.739-10.738V10.739C99.44,4.809,94.633,0,88.701,0z M49.653,82.944c-17.305,0-31.332-14.027-31.332-31.332
      S32.349,20.28,49.653,20.28c17.304,0,31.331,14.027,31.331,31.332S66.957,82.944,49.653,82.944z"/>
    <path fill="#75C044" d="M67.181,53.407c-9.474-5.82-23.337-7.467-34.49-4.078c-1.262,0.379-1.978,1.715-1.592,2.98
      s1.72,1.984,2.988,1.596c9.757-2.961,22.343-1.496,30.591,3.586c1.123,0.686,2.597,0.334,3.295-0.795
      C68.66,55.575,68.304,54.104,67.181,53.407z"/>
    <path fill="#75C044" d="M71.221,42.922c-11.383-6.758-29.416-7.398-40.262-4.102c-1.52,0.461-2.373,2.064-1.913,3.582
      s2.06,2.373,3.585,1.916c9.439-2.871,25.767-2.33,35.662,3.547c1.365,0.809,3.129,0.363,3.931-1.002
      C73.037,45.493,72.586,43.737,71.221,42.922z"/>
    <path fill="#75C044" d="M63.579,62.432c-8.095-4.947-18.13-6.102-29.818-3.426c-1.032,0.234-1.677,1.258-1.44,2.287
      c0.231,1.033,1.266,1.674,2.293,1.443c10.688-2.441,19.758-1.449,26.969,2.957c0.896,0.547,2.08,0.264,2.637-0.633
      C64.762,64.153,64.484,62.979,63.579,62.432z"/>
  </g>
</svg>
