<?xml version="1.0" encoding="utf-8"?>
<!-- Generator: Adobe Illustrator 15.1.0, SVG Export Plug-In . SVG Version: 6.00 Build 0)  -->
<!DOCTYPE svg PUBLIC "-//W3C//DTD SVG 1.1//EN" "http://www.w3.org/Graphics/SVG/1.1/DTD/svg11.dtd">
<svg version="1.1" id="Layer_1" xmlns="http://www.w3.org/2000/svg" xmlns:xlink="http://www.w3.org/1999/xlink" x="0px" y="0px"
	 width="99.441px" height="99.44px" viewBox="0 0 99.441 99.44" enable-background="new 0 0 99.441 99.44" xml:space="preserve">
<g>
	<path fill="#75C044" d="M88.702,0H10.741C4.809,0,0,4.809,0,10.74v77.962c0,5.93,4.809,10.738,10.74,10.738h77.961
		c5.932,0,10.738-4.809,10.738-10.738V10.74C99.44,4.809,94.634,0,88.702,0z M49.654,82.944c-17.305,0-31.332-14.027-31.332-31.332
		c0-17.304,14.027-31.331,31.332-31.331c17.304,0,31.332,14.027,31.332,31.331C80.985,68.917,66.958,82.944,49.654,82.944z"/>
	<path fill="#75C044" d="M67.181,53.408c-9.473-5.82-23.336-7.468-34.49-4.078c-1.262,0.378-1.978,1.715-1.592,2.98
		s1.72,1.983,2.988,1.596c9.757-2.961,22.343-1.497,30.591,3.585c1.123,0.686,2.596,0.334,3.295-0.794
		C68.661,55.575,68.304,54.105,67.181,53.408z"/>
	<path fill="#75C044" d="M71.222,42.923c-11.383-6.759-29.417-7.398-40.262-4.103c-1.52,0.461-2.373,2.065-1.913,3.583
		c0.46,1.517,2.06,2.373,3.585,1.915c9.439-2.87,25.766-2.33,35.663,3.547c1.365,0.809,3.129,0.363,3.93-1.002
		C73.038,45.494,72.587,43.737,71.222,42.923z"/>
	<path fill="#75C044" d="M63.579,62.432c-8.094-4.947-18.129-6.102-29.818-3.426c-1.032,0.235-1.677,1.259-1.44,2.288
		c0.231,1.033,1.266,1.674,2.293,1.443c10.688-2.441,19.758-1.45,26.969,2.956c0.896,0.547,2.08,0.264,2.637-0.633
		C64.763,64.153,64.485,62.98,63.579,62.432z"/>
</g>
</svg>
