<?xml version="1.0" encoding="utf-8"?>
<!-- Generator: Adobe Illustrator 17.0.0, SVG Export Plug-In . SVG Version: 6.00 Build 0)  -->
<!DOCTYPE svg PUBLIC "-//W3C//DTD SVG 1.1//EN" "http://www.w3.org/Graphics/SVG/1.1/DTD/svg11.dtd">
<svg version="1.1" id="stumbleupon" xmlns="http://www.w3.org/2000/svg" xmlns:xlink="http://www.w3.org/1999/xlink" x="0px"
	 y="0px" width="99.441px" height="99.44px" viewBox="0 0 99.441 99.44" enable-background="new 0 0 99.441 99.44"
	 xml:space="preserve">
<path id="icon" fill="#BABABB" d="M54.997,40.186l6.795,3.167l10.131-3.025v-7.029c-0.359-11.965-10.138-21.56-22.19-21.56
	c-12.009,0-21.762,9.525-22.189,21.429v32.117c0,2.907-2.357,5.264-5.264,5.264c-2.907,0-5.264-2.357-5.264-5.264V51.673H0
	c0,0,0,13.632,0,13.793c0,12.28,9.955,22.235,22.235,22.235c12.172,0,22.039-9.785,22.21-21.916l0.025-31.72
	c0-2.907,2.357-5.264,5.264-5.264c2.907,0,5.264,2.357,5.264,5.264V40.186z M82.451,51.673V65.92c0,2.907-2.357,5.264-5.264,5.264
	c-2.907,0-5.264-2.357-5.264-5.264V51.945L61.793,54.97l-6.795-3.167v13.86c0.106,12.188,10.021,22.038,22.235,22.038
	c12.28,0,22.235-9.955,22.235-22.235c0-0.16,0-13.793,0-13.793H82.451z"/>
</svg>
