<?xml version="1.0" encoding="utf-8"?>
<!-- Generator: Adobe Illustrator 17.0.0, SVG Export Plug-In . SVG Version: 6.00 Build 0)  -->
<!DOCTYPE svg PUBLIC "-//W3C//DTD SVG 1.1//EN" "http://www.w3.org/Graphics/SVG/1.1/DTD/svg11.dtd">
<svg version="1.1" id="stumbleupon" xmlns="http://www.w3.org/2000/svg" xmlns:xlink="http://www.w3.org/1999/xlink" x="0px"
	 y="0px" width="99.441px" height="99.44px" viewBox="0 0 99.441 99.44" enable-background="new 0 0 99.441 99.44"
	 xml:space="preserve">
<path fill="#EA4B24" d="M88.702,0H10.741C4.81,0,0.001,4.809,0.001,10.738v77.963c0,5.93,4.809,10.738,10.74,10.738h77.961
	c5.932,0,10.738-4.809,10.738-10.738V10.738C99.44,4.809,94.634,0,88.702,0z M49.721,30.478c-2.5,0-4.527,2.027-4.527,4.527
	l-0.021,27.281C45.025,72.72,36.539,81.136,26.07,81.136c-10.562,0-19.123-8.562-19.123-19.123c0-0.138,0-11.862,0-11.862h14.635
	v11.706c0,2.5,2.027,4.527,4.527,4.527c2.5,0,4.527-2.027,4.527-4.527V34.234c0.368-10.238,8.756-18.43,19.084-18.43
	c10.365,0,18.776,8.252,19.084,18.543v6.046l-8.713,2.601l-5.844-2.723v-5.265C54.248,32.505,52.221,30.478,49.721,30.478z
	 M92.494,62.012c0,10.562-8.562,19.123-19.123,19.123c-10.504,0-19.032-8.471-19.123-18.954v-11.92l5.844,2.723l8.713-2.601v12.019
	c0,2.5,2.027,4.527,4.527,4.527c2.5,0,4.527-2.027,4.527-4.527V50.15h14.635C92.494,50.15,92.494,61.874,92.494,62.012z"/>
</svg>
