<?xml version="1.0" encoding="utf-8"?>
<!-- Generator: Adobe Illustrator 15.1.0, SVG Export Plug-In . SVG Version: 6.00 Build 0)  -->
<!DOCTYPE svg PUBLIC "-//W3C//DTD SVG 1.1//EN" "http://www.w3.org/Graphics/SVG/1.1/DTD/svg11.dtd">
<svg version="1.1" id="Layer_1" xmlns="http://www.w3.org/2000/svg" xmlns:xlink="http://www.w3.org/1999/xlink" x="0px" y="0px"
	 width="99.441px" height="99.44px" viewBox="0 0 99.441 99.44" enable-background="new 0 0 99.441 99.44" xml:space="preserve">
<path fill="#45556B" d="M88.701,0H10.74C4.809,0,0,4.809,0,10.741V88.7c0,5.932,4.809,10.74,10.74,10.74h77.961
	c5.932,0,10.74-4.809,10.74-10.74V10.741C99.441,4.809,94.633,0,88.701,0z M66.295,76.163c-2.469,1.16-4.703,1.98-6.703,2.447
	s-4.164,0.701-6.488,0.701c-2.639,0-4.973-0.332-7.002-1c-2.027-0.666-3.756-1.617-5.189-2.85c-1.434-1.234-2.426-2.547-2.979-3.938
	c-0.555-1.389-0.832-3.404-0.832-6.043V45.228h-6.381v-8.172c2.268-0.737,4.213-1.793,5.828-3.17
	c1.619-1.374,2.916-3.027,3.895-4.958c0.979-1.927,1.652-4.381,2.021-7.361h8.211v14.597h13.703v9.064H50.676v14.808
	c0,3.346,0.178,5.494,0.533,6.447c0.354,0.949,1.016,1.707,1.979,2.275c1.277,0.766,2.736,1.15,4.383,1.15
	c2.922,0,5.83-0.951,8.725-2.854V76.163z"/>
</svg>
