<?xml version="1.0" encoding="utf-8"?>
<!DOCTYPE svg PUBLIC "-//W3C//DTD SVG 1.1//EN" "http://www.w3.org/Graphics/SVG/1.1/DTD/svg11.dtd">
<svg version="1.1" id="Layer_1" xmlns="http://www.w3.org/2000/svg" xmlns:xlink="http://www.w3.org/1999/xlink" x="0px" y="0px"
	 width="99.441px" height="99.44px" viewBox="0 0 99.441 99.44" enable-background="new 0 0 99.441 99.44" xml:space="preserve">
  <g id="tumblr">
    <path fill="#BCBCBC" d="M54.139,0.441v24.773h23.256v15.385H54.139V65.73c0,5.679,0.299,9.325,0.904,10.942
      c0.598,1.611,1.721,2.9,3.355,3.863c2.171,1.299,4.647,1.952,7.439,1.952c4.959,0,9.896-1.615,14.806-4.844v15.457
      c-4.188,1.972-7.979,3.36-11.375,4.153c-3.393,0.793-7.065,1.19-11.012,1.19c-4.477,0-8.439-0.564-11.881-1.695
      c-3.442-1.133-6.376-2.746-8.81-4.838c-2.433-2.095-4.117-4.323-5.056-6.684c-0.939-2.357-1.41-5.777-1.41-10.253V40.599h-10.83
      v-13.87c3.848-1.251,7.148-3.042,9.89-5.378c2.75-2.332,4.949-5.139,6.61-8.416c1.66-3.27,2.801-7.435,3.43-12.493H54.139z"/>
  </g>
</svg>
