<?xml version="1.0" encoding="utf-8"?>
<!DOCTYPE svg PUBLIC "-//W3C//DTD SVG 1.1//EN" "http://www.w3.org/Graphics/SVG/1.1/DTD/svg11.dtd">
<svg version="1.1" id="Layer_1" xmlns="http://www.w3.org/2000/svg" xmlns:xlink="http://www.w3.org/1999/xlink" x="0px" y="0px"
	 width="99.441px" height="99.44px" viewBox="0 0 99.441 99.44" enable-background="new 0 0 99.441 99.44" xml:space="preserve">
  <g id="twitter">
    <path fill="#BCBCBC" d="M98.986,18.657c-3.61,1.602-7.495,2.684-11.57,3.171c4.16-2.492,7.354-6.443,8.858-11.148
      c-3.894,2.31-8.204,3.986-12.795,4.89c-3.675-3.915-8.913-6.363-14.704-6.363c-11.131,0-20.153,9.022-20.153,20.15
      c0,1.576,0.179,3.115,0.522,4.591c-16.746-0.84-31.591-8.861-41.53-21.052c-1.733,2.976-2.728,6.437-2.728,10.129
      c0,6.991,3.555,13.157,8.962,16.772c-3.299-0.105-6.406-1.014-9.125-2.523c-0.002,0.086-0.002,0.17-0.002,0.254
      c0,9.762,6.946,17.908,16.164,19.759c-1.692,0.456-3.472,0.705-5.31,0.705c-1.297,0-2.56-0.127-3.792-0.361
      c2.566,8.003,10.008,13.83,18.823,13.992c-6.897,5.404-15.582,8.625-25.024,8.625c-1.625,0-3.228-0.097-4.805-0.28
      c8.917,5.716,19.508,9.051,30.886,9.051c37.059,0,57.33-30.701,57.33-57.327c0-0.874-0.023-1.744-0.062-2.608
      C92.872,26.245,96.286,22.695,98.986,18.657z"/>
  </g>
</svg>
