<?xml version="1.0" encoding="utf-8"?>
<!-- Generator: Adobe Illustrator 15.1.0, SVG Export Plug-In . SVG Version: 6.00 Build 0)  -->
<!DOCTYPE svg PUBLIC "-//W3C//DTD SVG 1.1//EN" "http://www.w3.org/Graphics/SVG/1.1/DTD/svg11.dtd">
<svg version="1.1" id="Layer_1" xmlns="http://www.w3.org/2000/svg" xmlns:xlink="http://www.w3.org/1999/xlink" x="0px" y="0px"
	 width="99.441px" height="99.44px" viewBox="0 0 99.441 99.44" enable-background="new 0 0 99.441 99.44" xml:space="preserve">
<path fill="#2CAAE1" d="M88.701,0H10.74C4.809,0,0,4.809,0,10.74V88.7c0,5.932,4.809,10.74,10.74,10.74h77.961
	c5.932,0,10.74-4.809,10.74-10.74V10.74C99.441,4.809,94.633,0,88.701,0z M80.047,36.081c0.027,0.625,0.043,1.255,0.043,1.887
	c0,19.263-14.664,41.476-41.477,41.476c-8.232,0-15.896-2.414-22.348-6.549c1.143,0.135,2.301,0.203,3.479,0.203
	c6.83,0,13.115-2.33,18.104-6.24c-6.377-0.117-11.762-4.332-13.617-10.123c0.891,0.17,1.805,0.262,2.744,0.262
	c1.328,0,2.617-0.18,3.84-0.512c-6.67-1.34-11.693-7.232-11.693-14.294c0-0.062,0-0.122,0-0.184
	c1.967,1.092,4.215,1.748,6.604,1.824c-3.912-2.615-6.484-7.076-6.484-12.135c0-2.671,0.719-5.176,1.973-7.328
	c7.189,8.82,17.932,14.623,30.047,15.23c-0.248-1.067-0.377-2.18-0.377-3.321c0-8.051,6.527-14.578,14.578-14.578
	c4.191,0,7.98,1.771,10.641,4.604c3.32-0.653,6.439-1.866,9.256-3.537c-1.088,3.403-3.4,6.262-6.408,8.065
	c2.947-0.353,5.758-1.136,8.371-2.295C85.365,31.458,82.896,34.026,80.047,36.081z"/>
</svg>
