<?xml version="1.0" encoding="utf-8"?>
<!DOCTYPE svg PUBLIC "-//W3C//DTD SVG 1.1//EN" "http://www.w3.org/Graphics/SVG/1.1/DTD/svg11.dtd">
<svg version="1.1" id="Layer_1" xmlns="http://www.w3.org/2000/svg" xmlns:xlink="http://www.w3.org/1999/xlink" x="0px" y="0px"
	 width="99.441px" height="99.44px" viewBox="0 0 99.441 99.44" enable-background="new 0 0 99.441 99.44" xml:space="preserve">
  <g id="vimeo">
    <path fill="#BCBCBC" d="M97.671,27.013c-0.436,9.516-7.08,22.546-19.929,39.081
      C64.457,83.369,53.214,92.008,44.021,92.008c-5.694,0-10.518-5.259-14.454-15.782c-2.63-9.643-5.259-19.288-7.888-28.93
      c-2.923-10.519-6.06-15.783-9.413-15.783c-0.731,0-3.289,1.54-7.669,4.604L0,30.192c4.822-4.238,9.579-8.477,14.261-12.721
      c6.431-5.56,11.26-8.484,14.478-8.78c7.605-0.729,12.287,4.469,14.043,15.603c1.897,12.009,3.212,19.479,3.949,22.405
      c2.194,9.963,4.605,14.94,7.24,14.94c2.045,0,5.117-3.232,9.215-9.693c4.092-6.467,6.283-11.385,6.578-14.763
      c0.584-5.58-1.609-8.375-6.578-8.375c-2.341,0-4.752,0.538-7.234,1.603c4.804-15.737,13.98-23.38,27.522-22.945
      C93.517,7.763,98.248,14.277,97.671,27.013z"/>
  </g>
</svg>
