<?xml version="1.0" encoding="utf-8"?>
<!-- Generator: Adobe Illustrator 15.1.0, SVG Export Plug-In . SVG Version: 6.00 Build 0)  -->
<!DOCTYPE svg PUBLIC "-//W3C//DTD SVG 1.1//EN" "http://www.w3.org/Graphics/SVG/1.1/DTD/svg11.dtd">
<svg version="1.1" id="Layer_1" xmlns="http://www.w3.org/2000/svg" xmlns:xlink="http://www.w3.org/1999/xlink" x="0px" y="0px"
	 width="99.441px" height="99.44px" viewBox="0 0 99.441 99.44" enable-background="new 0 0 99.441 99.44" xml:space="preserve">
<path fill="#1FB7EA" d="M88.701,0H10.74C4.809,0,0.001,4.81,0.001,10.739V88.7c0,5.932,4.808,10.74,10.739,10.74h77.961
	c5.932,0,10.74-4.809,10.74-10.74v-77.96C99.441,4.81,94.633,0,88.701,0z M82.641,34.937c-0.303,6.612-4.92,15.666-13.849,27.158
	C59.561,74.098,51.748,80.1,45.359,80.1c-3.957,0-7.309-3.654-10.044-10.965c-1.827-6.703-3.654-13.404-5.481-20.105
	c-2.031-7.309-4.211-10.967-6.541-10.967c-0.508,0-2.285,1.069-5.329,3.199l-3.194-4.117c3.351-2.945,6.656-5.891,9.91-8.84
	c4.469-3.863,7.824-5.896,10.061-6.101c5.285-0.507,8.538,3.105,9.759,10.842c1.318,8.345,2.232,13.536,2.744,15.569
	c1.524,6.923,3.2,10.38,5.031,10.38c1.421,0,3.556-2.244,6.403-6.736c2.843-4.492,4.366-7.91,4.571-10.257
	c0.405-3.877-1.118-5.819-4.571-5.819c-1.627,0-3.303,0.374-5.027,1.114c3.338-10.936,9.715-16.247,19.125-15.944
	C79.754,21.56,83.042,26.086,82.641,34.937z"/>
</svg>
