<?xml version="1.0" encoding="utf-8"?>
<!DOCTYPE svg PUBLIC "-//W3C//DTD SVG 1.1//EN" "http://www.w3.org/Graphics/SVG/1.1/DTD/svg11.dtd">
<svg version="1.1" id="Layer_1" xmlns="http://www.w3.org/2000/svg" xmlns:xlink="http://www.w3.org/1999/xlink" x="0px" y="0px"
	 width="99.441px" height="99.44px" viewBox="0 0 99.441 99.44" enable-background="new 0 0 99.441 99.44" xml:space="preserve">
  <g id="wordpress">
    <path fill="#BCBCBC" d="M9.755,49.754c0,15.827,9.2,29.504,22.538,35.984L13.217,33.481C11.001,38.454,9.755,43.956,9.755,49.754z
      "/>
    <path fill="#BCBCBC" d="M76.736,47.737c0-4.944-1.777-8.366-3.3-11.028c-2.023-3.295-3.926-6.083-3.926-9.376
      c0-3.677,2.786-7.099,6.715-7.099c0.179,0,0.345,0.021,0.516,0.032C69.63,13.748,60.148,9.769,49.742,9.769
      c-13.971,0-26.26,7.167-33.408,18.021c0.938,0.032,1.82,0.05,2.571,0.05c4.185,0,10.657-0.507,10.657-0.507
      c2.155-0.128,2.408,3.037,0.257,3.293c0,0-2.166,0.254-4.577,0.379l14.561,43.314l8.753-26.244l-6.229-17.07
      c-2.155-0.125-4.196-0.379-4.196-0.379c-2.155-0.126-1.9-3.421,0.254-3.293c0,0,6.601,0.507,10.533,0.507
      c4.18,0,10.654-0.507,10.654-0.507c2.154-0.128,2.411,3.037,0.257,3.293c0,0-2.169,0.254-4.574,0.379L69.705,73.99l3.987-13.327
      C75.418,55.131,76.736,51.158,76.736,47.737z"/>
    <path fill="#BCBCBC" d="M50.443,53.25L38.445,88.113c3.583,1.053,7.371,1.629,11.297,1.629c4.656,0,9.119-0.804,13.277-2.267
      c-0.107-0.172-0.204-0.354-0.286-0.552L50.443,53.25z"/>
    <path fill="#BCBCBC" d="M49.742,0.004c-27.433,0-49.75,22.317-49.75,49.75c0,27.434,22.318,49.751,49.75,49.751
      c27.432,0,49.75-22.317,49.75-49.751C99.492,22.321,77.174,0.004,49.742,0.004z M49.742,94.227
      c-24.525,0-44.473-19.951-44.473-44.473C5.269,25.23,25.217,5.28,49.742,5.28c24.521,0,44.47,19.95,44.47,44.474
      C94.212,74.276,74.264,94.227,49.742,94.227z"/>
    <path fill="#BCBCBC" d="M84.83,30.57c0.171,1.273,0.267,2.638,0.267,4.11c0,4.057-0.757,8.62-3.039,14.325L69.844,84.314
      c11.889-6.931,19.883-19.81,19.883-34.56C89.727,42.802,87.95,36.265,84.83,30.57z"/>
  </g>
</svg>
