<?xml version="1.0" encoding="utf-8"?>
<!-- Generator: Adobe Illustrator 15.1.0, SVG Export Plug-In . SVG Version: 6.00 Build 0)  -->
<!DOCTYPE svg PUBLIC "-//W3C//DTD SVG 1.1//EN" "http://www.w3.org/Graphics/SVG/1.1/DTD/svg11.dtd">
<svg version="1.1" id="Layer_1" xmlns="http://www.w3.org/2000/svg" xmlns:xlink="http://www.w3.org/1999/xlink" x="0px" y="0px"
	 width="99.441px" height="99.44px" viewBox="0 0 99.441 99.44" enable-background="new 0 0 99.441 99.44" xml:space="preserve">
<g>
	<path fill="#464342" d="M49.721,17.64c-17.689,0-32.08,14.391-32.08,32.08c0,17.689,14.391,32.08,32.08,32.08
		s32.078-14.391,32.078-32.08C81.799,32.03,67.41,17.64,49.721,17.64z M20.879,49.719c0-4.182,0.898-8.151,2.496-11.738
		l13.76,37.695C27.514,71.002,20.879,61.135,20.879,49.719z M49.721,78.563c-2.832,0-5.564-0.414-8.148-1.174l8.654-25.148
		l8.865,24.289c0.059,0.145,0.131,0.273,0.207,0.398C56.301,77.985,53.08,78.563,49.721,78.563z M53.697,36.195
		c1.734-0.09,3.299-0.273,3.299-0.273c1.555-0.185,1.369-2.468-0.184-2.376c0,0-4.67,0.366-7.686,0.366
		c-2.836,0-7.598-0.366-7.598-0.366c-1.555-0.092-1.738,2.284-0.184,2.376c0,0,1.473,0.184,3.025,0.273l4.494,12.313l-6.312,18.93
		L32.049,36.195c1.738-0.09,3.301-0.273,3.301-0.273c1.553-0.185,1.371-2.468-0.184-2.376c0,0-4.67,0.366-7.688,0.366
		c-0.541,0-1.178-0.013-1.855-0.036c5.156-7.829,14.021-12.999,24.098-12.999c7.508,0,14.346,2.871,19.477,7.572
		c-0.123-0.008-0.244-0.023-0.373-0.023c-2.834,0-4.844,2.469-4.844,5.12c0,2.376,1.371,4.387,2.832,6.764
		c1.098,1.921,2.379,4.389,2.379,7.955c0,2.469-0.949,5.334-2.193,9.324L64.119,67.2L53.697,36.195z M75.031,35.882
		c2.25,4.107,3.533,8.823,3.533,13.837c0,10.641-5.768,19.93-14.344,24.93l8.811-25.471c1.645-4.114,2.193-7.405,2.193-10.331
		C75.225,37.785,75.154,36.801,75.031,35.882z"/>
	<path fill="#464342" d="M88.701,0H10.74C4.809,0,0,4.808,0,10.739V88.7c0,5.934,4.809,10.74,10.74,10.74h77.961
		c5.932,0,10.74-4.807,10.74-10.74v-77.96C99.441,4.808,94.633,0,88.701,0z M49.721,85.606c-19.787,0-35.887-16.098-35.887-35.887
		c0-19.788,16.1-35.885,35.887-35.885s35.887,16.098,35.887,35.885C85.607,69.508,69.508,85.606,49.721,85.606z"/>
</g>
</svg>
