<?xml version="1.0" encoding="utf-8"?>
<!DOCTYPE svg PUBLIC "-//W3C//DTD SVG 1.1//EN" "http://www.w3.org/Graphics/SVG/1.1/DTD/svg11.dtd">
<svg version="1.1" id="Layer_1" xmlns="http://www.w3.org/2000/svg" xmlns:xlink="http://www.w3.org/1999/xlink" x="0px" y="0px"
	 width="99.441px" height="99.44px" viewBox="0 0 99.441 99.44" enable-background="new 0 0 99.441 99.44" xml:space="preserve">
  <g id="yahoo-sign">
    <path fill="#8B2C8E" d="M88.702,0H10.741C4.81,0,0.001,4.809,0.001,10.738v77.963c0,5.93,4.809,10.738,10.74,10.738h77.961
      c5.932,0,10.738-4.809,10.738-10.738V10.738C99.44,4.809,94.634,0,88.702,0z M61.584,63.843c-4.229,3.136-9.474,4.972-15.691,5.508
      h-7.953c-6.262-0.536-11.497-2.372-15.658-5.508c-5.097-3.781-7.646-8.715-7.646-14.801c0-6.002,2.55-10.854,7.646-14.636
      c5.017-3.863,11.592-5.753,19.65-5.753c7.977,0,14.554,1.891,19.652,5.753c5.015,3.782,7.564,8.634,7.564,14.636
      C69.148,55.128,66.599,60.062,61.584,63.843z M79.67,68.694l-7.397-0.906l0.823-6.494l7.397,0.903L79.67,68.694z M80.001,57.839
      l-5.51-0.739L74.41,27.747l12.662,1.561L80.001,57.839z"/>
    <path fill="#8B2C8E" d="M44.893,42.545l0.328,1.482l4.275,0.658c-0.082,0.903-2.301,2.959-6.494,6.167
      c-3.207-4.03-5.592-7.235-7.154-9.538l5.016-0.495l0.165-1.152c-2.222-0.163-5.016-0.163-8.386-0.082
      c-4.852-0.082-7.483-0.082-7.729,0.082v1.398l4.769,0.658c0.822,0.66,2.549,2.55,5.18,5.758c2.549,3.125,3.865,4.934,4.029,5.426
      l0.082,2.138v1.067c0,1.727-0.082,2.716-0.246,2.878c-0.246,0.246-0.987,0.412-2.22,0.493l-2.386,0.083l-0.248,1.48l7.402-0.082
      h8.304l0.082-1.562l-5.097-0.082l-0.33-3.124l0.082-1.233l0.164-2.056c0.247-0.741,1.729-2.221,4.606-4.522
      c2.713-2.221,4.274-3.373,4.85-3.535l3.864-0.823l0.986-1.398l-6.741-0.084H44.893z"/>
  </g>
</svg>
