<?xml version="1.0" encoding="utf-8"?>
<!DOCTYPE svg PUBLIC "-//W3C//DTD SVG 1.1//EN" "http://www.w3.org/Graphics/SVG/1.1/DTD/svg11.dtd">
<svg version="1.1" id="Layer_1" xmlns="http://www.w3.org/2000/svg" xmlns:xlink="http://www.w3.org/1999/xlink" x="0px" y="0px"
	 width="99.441px" height="99.44px" viewBox="0 0 99.441 99.44" enable-background="new 0 0 99.441 99.44" xml:space="preserve">
  <g id="yahoo">
    <polygon fill-rule="evenodd" clip-rule="evenodd" fill="#BCBCBC" points="89.213,76.574 79.079,75.333 80.207,66.435 90.34,67.673
      89.213,76.574 	"/>
    <polygon fill-rule="evenodd" clip-rule="evenodd" fill="#BCBCBC" points="99.353,22.622 82.008,20.483 82.118,60.692
      89.665,61.705 99.353,22.622 	"/>
    <path fill-rule="evenodd" clip-rule="evenodd" fill="#BCBCBC" d="M64.438,29.605c-6.984-5.292-15.995-7.881-26.921-7.881
      c-11.039,0-20.046,2.59-26.918,7.881C3.618,34.785,0.125,41.432,0.125,49.654c0,8.336,3.493,15.094,10.474,20.275
      c5.7,4.295,12.872,6.812,21.45,7.544h10.895c8.518-0.731,15.703-3.249,21.496-7.544c6.868-5.181,10.36-11.938,10.36-20.275
      C74.799,41.432,71.307,34.785,64.438,29.605z M59.255,42.784l-5.293,1.127c-0.788,0.222-2.928,1.8-6.644,4.842
      c-3.941,3.154-5.971,5.179-6.309,6.195l-0.225,2.817l-0.112,1.688l0.451,4.279l6.982,0.111l-0.113,2.142H36.618l-10.14,0.111
      l0.339-2.026l3.268-0.114c1.688-0.112,2.704-0.337,3.041-0.676c0.225-0.223,0.338-1.577,0.338-3.942v-1.462l-0.113-2.929
      c-0.225-0.674-2.027-3.152-5.519-7.433c-3.604-4.395-5.97-6.984-7.096-7.888l-6.533-0.901v-1.915
      c0.339-0.223,3.944-0.223,10.589-0.111c4.617-0.112,8.443-0.112,11.488,0.111l-0.227,1.578l-6.87,0.678
      c2.141,3.154,5.406,7.544,9.801,13.065c5.744-4.394,8.783-7.211,8.895-8.448l-5.856-0.901l-0.45-2.03h9.799l9.233,0.115
      L59.255,42.784z"/>
  </g>
</svg>
