<?xml version="1.0" encoding="utf-8"?>
<!-- Generator: Adobe Illustrator 15.1.0, SVG Export Plug-In . SVG Version: 6.00 Build 0)  -->
<!DOCTYPE svg PUBLIC "-//W3C//DTD SVG 1.1//EN" "http://www.w3.org/Graphics/SVG/1.1/DTD/svg11.dtd">
<svg version="1.1" id="Layer_1" xmlns="http://www.w3.org/2000/svg" xmlns:xlink="http://www.w3.org/1999/xlink" x="0px" y="0px"
	 width="99.441px" height="99.44px" viewBox="0 0 99.441 99.44" enable-background="new 0 0 99.441 99.44" xml:space="preserve">
<g display="none">
	<path display="inline" fill="#BCBCBC" d="M90.066,23.566c-2.957,1.312-6.135,2.197-9.471,2.596c3.404-2.04,6.02-5.274,7.25-9.125
		c-3.188,1.891-6.715,3.263-10.473,4.002c-3.008-3.204-7.295-5.208-12.037-5.208c-9.109,0-16.494,7.385-16.494,16.493
		c0,1.291,0.146,2.55,0.428,3.758C35.562,35.394,23.41,28.829,15.275,18.85c-1.418,2.436-2.232,5.269-2.232,8.291
		c0,5.723,2.91,10.77,7.336,13.729c-2.701-0.086-5.244-0.829-7.469-2.064c-0.002,0.07-0.002,0.139-0.002,0.208
		c0,7.99,5.686,14.656,13.23,16.172c-1.385,0.375-2.842,0.578-4.346,0.578c-1.062,0-2.096-0.104-3.104-0.297
		c2.1,6.553,8.191,11.322,15.406,11.453c-5.645,4.426-12.754,7.061-20.482,7.061c-1.33,0-2.643-0.078-3.934-0.229
		c7.299,4.678,15.969,7.408,25.281,7.408c30.334,0,46.926-25.131,46.926-46.924c0-0.715-0.018-1.427-0.049-2.135
		C85.061,29.777,87.855,26.872,90.066,23.566z"/>
</g>
<g display="none">
	<path display="inline" fill-rule="evenodd" clip-rule="evenodd" fill="#BCBCBC" d="M30.334,82.703V36.541H14.992v46.162H30.334
		L30.334,82.703z M22.664,30.242c5.35,0,8.68-3.548,8.68-7.978c-0.1-4.529-3.33-7.977-8.578-7.977c-5.25,0-8.68,3.447-8.68,7.977
		c0,4.43,3.328,7.978,8.479,7.978H22.664L22.664,30.242z"/>
	<path display="inline" fill-rule="evenodd" clip-rule="evenodd" fill="#BCBCBC" d="M38.826,82.703h15.342V56.923
		c0-1.379,0.1-2.76,0.506-3.744c1.107-2.756,3.633-5.613,7.871-5.613c5.553,0,7.773,4.236,7.773,10.441v24.695H85.66V56.232
		c0-14.177-7.57-20.773-17.664-20.773c-8.277,0-11.91,4.628-13.93,7.777h0.102v-6.695H38.826
		C39.027,40.871,38.826,82.703,38.826,82.703L38.826,82.703z"/>
</g>
<g display="none">
	<path display="inline" fill="#BCBCBC" d="M41.734,82.709V50.6h-8.49V39.039h8.49c0,0,0-4.736,0-9.873
		c0-7.761,5.014-14.885,16.57-14.885c4.68,0,8.139,0.449,8.139,0.449l-0.271,10.795c0,0-3.529-0.034-7.379-0.034
		c-4.168,0-4.834,1.921-4.834,5.107c0,2.52,0-5.371,0,8.44h12.543L65.957,50.6H53.959v32.109H41.734z"/>
</g>
<g>
	<g>
		<path fill="#BCBCBC" d="M56.42,58.055c-1.168,1.177-0.182,3.32-0.182,3.32l8.791,14.678c0,0,1.443,1.935,2.695,1.935
			c1.256,0,2.496-1.03,2.496-1.03l6.951-9.934c0,0,0.699-1.255,0.715-2.353c0.025-1.561-2.328-1.99-2.328-1.99l-16.453-5.283
			C59.105,57.398,57.492,56.97,56.42,58.055z"/>
		<path fill="#BCBCBC" d="M55.586,50.655c0.84,1.429,3.164,1.013,3.164,1.013l16.416-4.799c0,0,2.236-0.909,2.557-2.123
			c0.314-1.213-0.371-2.678-0.371-2.678l-7.844-9.24c0,0-0.68-1.169-2.09-1.286c-1.555-0.133-2.514,1.75-2.514,1.75L55.631,47.89
			C55.631,47.89,54.809,49.344,55.586,50.655z"/>
		<path fill="#BCBCBC" d="M47.828,44.965c1.934-0.477,2.24-3.282,2.24-3.282l-0.129-23.375c0,0-0.293-2.884-1.588-3.663
			c-2.033-1.233-2.635-0.591-3.217-0.504l-13.631,5.064c0,0-1.334,0.439-2.029,1.555c-0.992,1.579,1.01,3.89,1.01,3.89L44.65,43.958
			C44.65,43.958,46.049,45.405,47.828,44.965z"/>
		<path fill="#BCBCBC" d="M44.463,54.424c0.049-1.804-2.164-2.886-2.164-2.886l-14.65-7.402c0,0-2.17-0.895-3.225-0.271
			c-0.807,0.478-1.521,1.341-1.592,2.104l-0.955,11.746c0,0-0.143,2.034,0.383,2.961c0.748,1.313,3.207,0.398,3.207,0.398
			l17.102-3.779C43.234,56.847,44.4,56.808,44.463,54.424z"/>
		<path fill="#BCBCBC" d="M48.717,60.764c-1.469-0.755-3.225,0.805-3.225,0.805L34.039,74.177c0,0-1.428,1.929-1.066,3.112
			c0.342,1.108,0.91,1.661,1.711,2.05l11.502,3.631c0,0,1.395,0.291,2.451-0.018c1.498-0.435,1.221-2.781,1.221-2.781l0.26-17.068
			C50.117,63.103,50.061,61.458,48.717,60.764z"/>
	</g>
</g>
<g display="none">
	<path display="inline" fill="#BCBCBC" d="M44.747,67.358l-3.186-8.66c0,0-5.178,5.777-12.941,5.777
		c-6.867,0-11.744-5.975-11.744-15.531c0-12.244,6.17-16.625,12.244-16.625c8.756,0,11.545,5.675,13.936,12.94l3.188,9.954
		c3.182,9.656,9.154,17.42,26.375,17.42c12.344,0,20.705-3.781,20.705-13.736c0-8.062-4.58-12.242-13.139-14.233l-6.371-1.395
		c-4.381-0.996-5.674-2.786-5.674-5.773c0-3.384,2.688-5.374,7.066-5.374c4.779,0,7.367,1.792,7.766,6.071l9.955-1.196
		c-0.799-8.957-6.969-12.64-17.123-12.64c-8.959,0-17.719,3.383-17.719,14.235c0,6.768,3.287,11.046,11.545,13.041l6.77,1.59
		c5.08,1.197,6.77,3.287,6.77,6.172c0,3.684-3.584,5.176-10.354,5.176c-10.051,0-14.23-5.275-16.623-12.541l-3.283-9.953
		c-4.18-12.941-10.85-17.72-24.09-17.72c-14.633,0-22.396,9.256-22.396,24.983c0,15.135,7.764,23.293,21.699,23.293
		C39.37,72.633,44.747,67.358,44.747,67.358L44.747,67.358z"/>
</g>
<g display="none">
	<path display="inline" fill="#BCBCBC" d="M52.367,15.294v16.785h15.758v10.424H52.367v17.028c0,3.848,0.203,6.318,0.613,7.414
		c0.404,1.092,1.166,1.965,2.273,2.617c1.471,0.881,3.148,1.322,5.041,1.322c3.359,0,6.705-1.094,10.031-3.281v10.473
		c-2.838,1.336-5.406,2.277-7.707,2.814c-2.299,0.537-4.787,0.807-7.461,0.807c-3.033,0-5.719-0.383-8.051-1.148
		c-2.332-0.768-4.32-1.861-5.969-3.277c-1.648-1.42-2.789-2.93-3.426-4.529c-0.637-1.598-0.955-3.914-0.955-6.947V42.503H29.42
		v-9.397c2.607-0.848,4.844-2.062,6.701-3.645c1.863-1.58,3.354-3.481,4.479-5.702c1.125-2.216,1.898-5.037,2.324-8.465H52.367z"/>
</g>
<g display="none">
	<path display="inline" fill="#BCBCBC" d="M51.458,14.69c-18.451,0-27.756,13.229-27.756,24.26c0,6.679,2.529,12.623,7.955,14.835
		c0.889,0.363,1.684,0.012,1.941-0.973c0.182-0.68,0.604-2.4,0.793-3.115c0.262-0.975,0.16-1.316-0.559-2.166
		c-1.562-1.844-2.561-4.232-2.561-7.614c0-9.814,7.34-18.601,19.117-18.601c10.432,0,16.16,6.372,16.16,14.882
		c0,11.198-4.955,20.649-12.311,20.649c-4.064,0-7.107-3.359-6.131-7.48c1.168-4.92,3.43-10.229,3.43-13.782
		c0-3.178-1.707-5.829-5.24-5.829c-4.152,0-7.488,4.296-7.488,10.052c0,3.665,1.238,6.145,1.238,6.145s-4.25,18.008-4.994,21.16
		c-1.484,6.281-0.225,13.982-0.117,14.76c0.062,0.461,0.654,0.568,0.924,0.223c0.383-0.502,5.33-6.607,7.012-12.709
		c0.475-1.729,2.732-10.676,2.732-10.676c1.35,2.574,5.291,4.84,9.484,4.84c12.484,0,20.955-11.381,20.955-26.613
		C76.044,25.417,66.286,14.69,51.458,14.69z"/>
</g>
<g display="none">
	<circle display="inline" fill="#BCBCBC" cx="33.11" cy="48.496" r="13.604"/>
	<circle display="inline" fill="#BCBCBC" cx="66.634" cy="48.496" r="13.604"/>
</g>
<g display="none">
	<polygon display="inline" fill="#BCBCBC" points="9.563,21.145 29.435,21.145 50.333,62.421 71.136,21.145 90.183,21.145 
		61.146,75.845 40.263,75.845 	"/>
</g>
<g display="none">
	<g display="inline">
		<path fill="#BCBCBC" d="M21.562,48.495c0,11.205,6.514,20.89,15.957,25.477L24.014,36.974
			C22.445,40.494,21.562,44.39,21.562,48.495z"/>
		<path fill="#BCBCBC" d="M68.984,47.067c0-3.5-1.258-5.923-2.336-7.808c-1.434-2.333-2.779-4.307-2.779-6.639
			c0-2.603,1.973-5.025,4.754-5.025c0.127,0,0.244,0.015,0.365,0.022c-5.035-4.614-11.748-7.432-19.115-7.432
			c-9.891,0-18.592,5.074-23.652,12.759c0.664,0.022,1.289,0.035,1.82,0.035c2.963,0,7.545-0.359,7.545-0.359
			c1.525-0.09,1.705,2.15,0.182,2.332c0,0-1.533,0.18-3.24,0.269l10.309,30.666l6.197-18.58l-4.41-12.085
			c-1.525-0.089-2.971-0.269-2.971-0.269c-1.525-0.09-1.346-2.422,0.18-2.332c0,0,4.674,0.359,7.457,0.359
			c2.959,0,7.543-0.359,7.543-0.359c1.525-0.09,1.707,2.15,0.182,2.332c0,0-1.535,0.18-3.238,0.269l10.23,30.432l2.824-9.435
			C68.051,52.301,68.984,49.489,68.984,47.067z"/>
		<path fill="#BCBCBC" d="M50.369,50.97l-8.494,24.683c2.537,0.745,5.219,1.152,7.998,1.152c3.297,0,6.457-0.568,9.4-1.604
			c-0.076-0.122-0.145-0.25-0.203-0.391L50.369,50.97z"/>
		<path fill="#BCBCBC" d="M49.873,13.272c-19.422,0-35.223,15.8-35.223,35.222c0,19.423,15.801,35.224,35.223,35.224
			s35.223-15.801,35.223-35.224C85.096,29.072,69.295,13.272,49.873,13.272z M49.873,79.982c-17.363,0-31.486-14.125-31.486-31.487
			c0-17.363,14.123-31.487,31.486-31.487c17.361,0,31.484,14.124,31.484,31.487C81.357,65.857,67.234,79.982,49.873,79.982z"/>
		<path fill="#BCBCBC" d="M74.715,34.913c0.121,0.901,0.189,1.867,0.189,2.91c0,2.872-0.537,6.103-2.152,10.141l-8.646,24.999
			c8.416-4.907,14.076-14.025,14.076-24.469C78.182,43.572,76.924,38.944,74.715,34.913z"/>
	</g>
</g>
<g display="none">
	<path display="inline" fill-rule="evenodd" clip-rule="evenodd" fill="#BCBCBC" d="M83.035,42.822l-0.559-1.164l-0.939-0.737
		c-1.23-0.963-7.451,0.066-9.131-1.456c-1.186-1.096-1.363-3.064-1.723-5.727c-0.672-5.172-1.096-5.438-1.9-7.184
		c-2.932-6.222-10.877-10.899-16.336-11.547H37.654c-11.637,0-21.146,9.531-21.146,21.168v24.683
		c0,11.613,9.51,21.124,21.146,21.124h24.301c11.637,0,21.08-9.511,21.148-21.124l0.135-17.097L83.035,42.822z M37.922,32.304
		h11.727c2.238,0,4.051,1.813,4.051,4.029c0,2.215-1.812,4.051-4.051,4.051H37.922c-2.236,0-4.049-1.836-4.049-4.051
		C33.873,34.117,35.686,32.304,37.922,32.304z M61.754,64.573H37.922c-2.236,0-4.049-1.835-4.049-4.027
		c0-2.216,1.812-4.027,4.049-4.027h23.832c2.217,0,4.029,1.812,4.029,4.027C65.783,62.738,63.971,64.573,61.754,64.573z"/>
</g>
<g display="none">
	<path display="inline" fill-rule="evenodd" clip-rule="evenodd" fill="#BCBCBC" d="M75.929,43.281h-5.896
		c0.43,1.669,0.684,3.411,0.684,5.214c0,11.513-9.331,20.842-20.843,20.842s-20.844-9.329-20.844-20.842
		c0-1.803,0.255-3.545,0.686-5.214h-5.897v28.663c0,1.436,1.164,2.604,2.607,2.604h46.896c1.441,0,2.607-1.168,2.607-2.604V43.281z
		 M75.929,25.043c0-1.438-1.166-2.605-2.607-2.605h-7.814c-1.439,0-2.605,1.168-2.605,2.605v7.818c0,1.437,1.166,2.605,2.605,2.605
		h7.814c1.441,0,2.607-1.169,2.607-2.605V25.043z M49.873,35.467c-7.196,0-13.028,5.831-13.028,13.027
		c0,7.192,5.832,13.027,13.028,13.027c7.194,0,13.028-5.835,13.028-13.027C62.901,41.298,57.067,35.467,49.873,35.467
		 M75.929,82.367H23.817c-4.317,0-7.816-3.5-7.816-7.819V22.438c0-4.316,3.499-7.814,7.816-7.814h52.111
		c4.317,0,7.816,3.498,7.816,7.814v52.109C83.745,78.867,80.246,82.367,75.929,82.367"/>
</g>
<g display="none">
	<g display="inline">
		<path fill="#BCBCBC" d="M44.57,53.47c-1.877-1.328-5.467-4.561-5.467-6.461c0-2.225,0.637-3.322,3.986-5.941
			c3.438-2.685,5.867-6.346,5.867-10.734c0-5.226-2.328-10.191-6.697-11.887h6.588l4.648-3.389c0,0-15.578,0-20.77,0
			c-9.312,0-18.076,6.956-18.076,15.13c0,8.349,6.348,15.04,15.822,15.04c0.658,0,1.297-0.036,1.924-0.082
			c-0.617,1.179-1.055,2.492-1.055,3.868c0,2.321,1.25,4.198,2.826,5.732c-1.193,0-2.342,0.031-3.6,0.031
			c-11.533,0-20.408,7.344-20.408,14.961c0,7.501,9.73,12.193,21.264,12.193c13.146,0,20.41-7.46,20.41-14.964
			C51.834,60.954,50.061,57.351,44.57,53.47z M33.475,43.064c-5.352-0.161-10.434-5.987-11.359-13.012
			c-0.924-7.028,2.664-12.406,8.016-12.247c5.35,0.161,10.436,5.8,11.359,12.825C42.414,37.658,38.824,43.224,33.475,43.064z
			 M31.381,78.616c-7.973,0-13.73-5.047-13.73-11.108c0-5.941,7.143-10.886,15.115-10.801c1.861,0.02,3.592,0.319,5.168,0.829
			c4.326,3.01,7.432,4.709,8.307,8.141c0.164,0.694,0.256,1.41,0.256,2.14C46.496,73.877,42.586,78.616,31.381,78.616z"/>
		<polygon fill="#BCBCBC" points="89.586,31.58 76.029,31.58 76.029,45.137 73.066,45.137 73.066,31.58 59.086,31.58 59.086,28.191 
			73.066,28.191 73.066,15.059 76.029,15.059 76.029,28.191 89.586,28.191 		"/>
	</g>
</g>
<g display="none">
	<g display="inline">
		<path fill="#BCBCBC" d="M39.813,61.743l-3.051-9.413h26.219l-3.311,9.655c0,0-0.184,0.832-1.283,0.832H41.278
			C39.956,62.817,39.813,61.743,39.813,61.743 M66.972,45.848c-0.449,0-0.902-0.076-1.354-0.3l-2.26,5.797H36.388l-2.262-5.797
			c-0.449,0.224-0.904,0.3-1.35,0.3c-1.736,0-3.168-1.434-3.168-3.163c0-1.732,1.432-3.162,3.168-3.162
			c1.729,0,3.162,1.43,3.162,3.162c0,0.83-0.377,1.658-0.904,2.184c4.219,2.561,11.523,1.281,14.461-4.444
			c-1.584-0.147-2.785-1.505-2.785-3.089c0-1.732,1.43-3.16,3.164-3.16c1.729,0,3.164,1.428,3.164,3.16
			c0,1.584-1.205,2.941-2.787,3.089c2.936,5.726,10.24,7.005,14.465,4.444c-0.533-0.525-0.904-1.354-0.904-2.184
			c0-1.732,1.428-3.162,3.16-3.162s3.166,1.43,3.166,3.162C70.138,44.414,68.704,45.848,66.972,45.848"/>
		<path fill="#BCBCBC" d="M49.872,20.58c-15.393,0-27.914,12.525-27.914,27.917c0,15.392,12.521,27.914,27.914,27.914
			s27.914-12.522,27.914-27.914C77.786,33.105,65.265,20.58,49.872,20.58 M49.872,82.562c-18.785,0-34.064-15.283-34.064-34.064
			c0-18.787,15.279-34.069,34.064-34.069c18.783,0,34.066,15.282,34.066,34.069C83.938,67.279,68.655,82.562,49.872,82.562"/>
	</g>
</g>
<path display="none" fill="#BCBCBC" d="M83.629,41.526c-0.454-2.225-1.129-4.413-2.01-6.507c-0.863-2.052-1.931-4.033-3.176-5.887
	c-1.231-1.83-2.646-3.553-4.201-5.119c-1.556-1.565-3.27-2.988-5.094-4.226c-1.842-1.252-3.812-2.328-5.855-3.197
	c-2.085-0.886-4.265-1.567-6.481-2.022c-4.542-0.935-9.337-0.935-13.878,0c-2.217,0.455-4.396,1.137-6.48,2.022
	c-2.044,0.869-4.015,1.945-5.854,3.196c-1.823,1.236-3.537,2.659-5.095,4.226c-1.557,1.567-2.971,3.29-4.201,5.121
	c-1.244,1.852-2.312,3.831-3.176,5.885c-0.881,2.095-1.558,4.284-2.01,6.508c-0.463,2.28-0.699,4.624-0.699,6.967
	c0,2.344,0.236,4.688,0.699,6.969c0.452,2.221,1.129,4.412,2.01,6.51c0.865,2.053,1.934,4.035,3.176,5.883
	c1.229,1.83,2.642,3.553,4.201,5.121c1.559,1.566,3.272,2.988,5.094,4.227c1.845,1.252,3.814,2.326,5.855,3.195
	c2.081,0.887,4.262,1.566,6.479,2.021c2.271,0.469,4.605,0.705,6.94,0.705s4.67-0.236,6.938-0.705
	c2.218-0.455,4.398-1.135,6.481-2.021c2.041-0.869,4.011-1.943,5.855-3.195c1.824-1.24,3.537-2.662,5.095-4.227
	c1.558-1.568,2.971-3.291,4.2-5.119c1.243-1.854,2.312-3.834,3.176-5.885c0.881-2.098,1.556-4.285,2.009-6.51
	c0.464-2.279,0.7-4.623,0.7-6.969C84.328,46.15,84.092,43.806,83.629,41.526z M44.128,20.371c1.879-0.386,3.812-0.583,5.745-0.583
	s3.865,0.197,5.744,0.583c1.832,0.377,3.633,0.939,5.355,1.673c1.691,0.719,3.321,1.608,4.847,2.645
	c1.014,0.688,1.981,1.451,2.901,2.266c-1.012,1.361-5.391,6.621-14.968,10.211C49.309,29,44.473,22.335,43.178,20.591
	C43.494,20.514,43.81,20.437,44.128,20.371z M23.588,37.314c0.717-1.701,1.602-3.342,2.634-4.878c1.02-1.518,2.19-2.947,3.483-4.245
	c1.291-1.3,2.713-2.477,4.224-3.503c1.174-0.799,2.413-1.508,3.693-2.123c1.279,1.755,6.024,8.399,10.498,16.351
	c-12.337,3.275-23.228,3.547-26.143,3.556C22.351,40.711,22.89,38.976,23.588,37.314z M28.393,67.372
	c-0.78-0.898-1.512-1.838-2.171-2.82c-1.031-1.533-1.917-3.176-2.633-4.879c-0.731-1.736-1.291-3.551-1.666-5.393
	c-0.384-1.893-0.579-3.838-0.579-5.787c0-0.312,0.013-0.625,0.023-0.938c3.141,0.014,15.915-0.191,29.163-4.155
	c0.835,1.633,1.631,3.291,2.364,4.946c-0.386,0.109-0.769,0.225-1.148,0.348C37.846,53.184,30.012,64.766,28.393,67.372z
	 M60.973,74.944c-1.721,0.732-3.521,1.297-5.355,1.674c-3.754,0.773-7.734,0.773-11.489,0c-1.833-0.377-3.635-0.941-5.355-1.674
	c-1.688-0.717-3.319-1.607-4.844-2.645c-0.632-0.428-1.244-0.889-1.841-1.369c1.237-2.309,7.372-12.395,22.596-17.699
	c0.064-0.023,0.129-0.041,0.193-0.064c3.922,10.195,5.639,18.803,6.156,21.752C61.014,74.926,60.992,74.936,60.973,74.944z
	 M77.822,54.28c-0.374,1.842-0.936,3.656-1.665,5.393c-0.716,1.703-1.601,3.344-2.634,4.879c-1.019,1.516-2.19,2.945-3.482,4.246
	c-1.26,1.266-2.643,2.416-4.111,3.424c-0.424-2.393-2.008-10.535-5.6-20.402c8.445-1.352,15.872,0.592,17.725,1.141
	C77.986,53.403,77.911,53.842,77.822,54.28z M58.556,47.225c-0.204-0.499-0.412-1-0.627-1.504c-0.606-1.422-1.257-2.834-1.936-4.223
	c10.019-4.09,14.85-9.739,15.962-11.177c0.555,0.683,1.081,1.387,1.568,2.114c1.034,1.537,1.92,3.178,2.634,4.878
	c0.729,1.735,1.291,3.551,1.665,5.394c0.357,1.76,0.545,3.567,0.57,5.379C76.326,47.676,67.5,46.1,58.556,47.225z"/>
<path display="none" fill="#BCBCBC" d="M11.913,19.119v46.374h51.289l24.631,12.379V65.493V19.119H11.913z M42.954,45.688h-3.756
	l-9.174,12.902H19.146l12.551-16.761L20.11,25.682h10.619l8.469,12.375h3.756V45.688z M69.724,58.589l-9.17-12.902H54.3v12.902
	h-8.705V25.682H54.3v12.375h6.254l8.467-12.375h10.613l-11.58,16.146l12.547,16.761H69.724z"/>
<path display="none" fill="#BCBCBC" d="M84.783,48.496c0-19.281-15.63-34.911-34.91-34.911c-19.281,0-34.911,15.63-34.911,34.911
	s15.63,34.91,34.911,34.91C69.153,83.406,84.783,67.777,84.783,48.496z M32.529,51.05c-1.414,0.434-2.902-0.367-3.331-1.777
	c-0.43-1.408,0.368-2.898,1.774-3.319c12.428-3.777,27.875-1.941,38.431,4.542c1.252,0.777,1.649,2.414,0.883,3.666
	c-0.777,1.256-2.421,1.648-3.671,0.883C57.424,49.384,43.4,47.753,32.529,51.05z M66.104,63.48c-0.62,1-1.938,1.316-2.938,0.707
	c-8.034-4.91-18.142-6.016-30.05-3.295c-1.146,0.256-2.298-0.457-2.555-1.609c-0.264-1.146,0.454-2.285,1.605-2.549
	c13.023-2.982,24.205-1.695,33.225,3.818C66.398,61.16,66.709,62.468,66.104,63.48z M29.043,34.242
	c12.085-3.672,32.179-2.958,44.863,4.572c1.52,0.906,2.021,2.864,1.115,4.391c-0.893,1.521-2.857,2.018-4.378,1.117
	c-11.027-6.548-29.22-7.15-39.738-3.952c-1.698,0.509-3.481-0.445-3.993-2.134C26.398,36.544,27.35,34.756,29.043,34.242z"/>
<path display="none" fill="#BCBCBC" d="M60.375,80.773c-1.682,0.326-2.277-0.708-2.277-1.591c0-1.093,0.037-4.663,0.037-9.1
	c0-3.094-1.059-5.111-2.248-6.141c7.383-0.82,15.141-3.625,15.141-16.36c0-3.62-1.287-6.578-3.412-8.9
	c0.344-0.835,1.479-4.207-0.326-8.774c0,0-2.781-0.891-9.109,3.399c-2.65-0.734-5.488-1.104-8.307-1.116
	c-2.818,0.013-5.654,0.382-8.299,1.116c-6.336-4.29-9.121-3.399-9.121-3.399c-1.801,4.567-0.666,7.939-0.32,8.774
	c-2.123,2.322-3.418,5.28-3.418,8.9c0,12.706,7.742,15.549,15.107,16.388c-0.947,0.827-1.807,2.29-2.105,4.433
	c-1.893,0.848-6.691,2.313-9.648-2.756c0,0-1.754-3.183-5.084-3.417c0,0-3.234-0.042-0.227,2.016c0,0,2.174,1.02,3.682,4.852
	c0,0,1.947,5.919,11.172,3.912c0.014,2.771,0.045,5.384,0.045,6.174c0,0.875-0.607,1.901-2.266,1.595
	c-13.174-4.384-22.676-16.813-22.676-31.463c0-18.313,14.848-33.158,33.158-33.158c18.312,0,33.158,14.845,33.158,33.158
	C83.031,63.959,73.543,76.383,60.375,80.773z"/>
<path display="none" fill="#BCBCBC" d="M83.792,32.71c-0.303,6.612-4.92,15.667-13.849,27.157
	c-9.231,12.004-17.044,18.008-23.433,18.008c-3.957,0-7.309-3.654-10.044-10.967c-1.827-6.701-3.654-13.404-5.481-20.104
	c-2.031-7.31-4.211-10.968-6.541-10.968c-0.508,0-2.285,1.069-5.329,3.199l-3.194-4.117c3.351-2.945,6.656-5.891,9.91-8.84
	c4.469-3.863,7.824-5.896,10.061-6.101c5.285-0.507,8.538,3.105,9.759,10.842c1.318,8.345,2.232,13.536,2.744,15.569
	c1.524,6.923,3.2,10.382,5.031,10.382c1.421,0,3.556-2.246,6.403-6.736c2.843-4.493,4.366-7.911,4.571-10.259
	c0.405-3.877-1.118-5.819-4.571-5.819c-1.627,0-3.303,0.374-5.027,1.114c3.338-10.936,9.715-16.247,19.125-15.944
	C80.905,19.333,84.193,23.86,83.792,32.71z"/>
<g display="none">
	<g display="inline">
		<path opacity="0.3" fill-rule="evenodd" clip-rule="evenodd" fill="#BCBCBC" d="M44.115,15.684h-3.76l-2.537,9.754l-2.641-9.754
			h-3.912c0.783,2.304,1.6,4.616,2.383,6.92c1.193,3.465,1.937,6.075,2.273,7.856v10.059h3.72V30.46L44.115,15.684z M54.051,34.526
			v-6.479c0-1.978-0.337-3.424-1.041-4.359c-0.926-1.266-2.232-1.896-3.912-1.896c-1.671,0-2.975,0.631-3.902,1.896
			c-0.713,0.936-1.051,2.382-1.051,4.359v6.479c0,1.969,0.338,3.427,1.051,4.353c0.928,1.262,2.231,1.895,3.902,1.895
			c1.68,0,2.986-0.633,3.912-1.895C53.714,37.953,54.051,36.495,54.051,34.526z M50.697,35.16c0,1.711-0.52,2.568-1.6,2.568
			s-1.6-0.857-1.6-2.568v-7.785c0-1.712,0.52-2.567,1.6-2.567s1.6,0.855,1.6,2.567V35.16z M66.451,40.519V22.012h-3.354v14.145
			c-0.742,1.052-1.446,1.571-2.116,1.571c-0.45,0-0.714-0.268-0.788-0.785c-0.04-0.111-0.04-0.52-0.04-1.306V22.012h-3.343v14.635
			c0,1.306,0.113,2.19,0.299,2.751c0.333,0.937,1.079,1.375,2.158,1.375c1.223,0,2.494-0.741,3.83-2.273v2.02H66.451z"/>
		<path fill-rule="evenodd" clip-rule="evenodd" fill="#BCBCBC" d="M44.123,15.283h-3.76l-2.535,9.751l-2.641-9.751h-3.912
			c0.783,2.301,1.6,4.615,2.385,6.919c1.191,3.463,1.936,6.073,2.271,7.856v10.057h3.719V30.058L44.123,15.283z M54.062,34.125
			v-6.482c0-1.978-0.339-3.424-1.04-4.359c-0.93-1.264-2.232-1.896-3.913-1.896c-1.67,0-2.977,0.633-3.903,1.896
			c-0.713,0.936-1.051,2.382-1.051,4.359v6.482c0,1.966,0.338,3.424,1.051,4.353c0.927,1.261,2.233,1.894,3.903,1.894
			c1.681,0,2.983-0.633,3.913-1.894C53.723,37.548,54.062,36.09,54.062,34.125z M50.707,34.755c0,1.712-0.518,2.568-1.599,2.568
			c-1.082,0-1.601-0.856-1.601-2.568V26.97c0-1.712,0.519-2.564,1.601-2.564c1.081,0,1.599,0.853,1.599,2.564V34.755z
			 M66.463,40.115V21.61h-3.355v14.144c-0.742,1.051-1.447,1.57-2.117,1.57c-0.449,0-0.712-0.266-0.786-0.785
			c-0.04-0.108-0.04-0.518-0.04-1.306V21.61H56.82v14.633c0,1.306,0.113,2.192,0.297,2.751c0.336,0.938,1.08,1.377,2.16,1.377
			c1.223,0,2.496-0.743,3.83-2.275v2.02H66.463z"/>
	</g>
	<g display="inline">
		<path fill-rule="evenodd" clip-rule="evenodd" fill="#BCBCBC" d="M68.262,58.903c-1.108,0-1.663,0.848-1.663,2.541v1.693h3.317
			v-1.693C69.916,59.75,69.36,58.903,68.262,58.903z"/>
		<path fill-rule="evenodd" clip-rule="evenodd" fill="#BCBCBC" d="M55.949,58.903c-0.545,0-1.099,0.261-1.653,0.807v11.162
			c0.555,0.555,1.108,0.815,1.653,0.815c0.957,0,1.443-0.815,1.443-2.47v-7.814C57.393,59.75,56.906,58.903,55.949,58.903z"/>
		<path fill-rule="evenodd" clip-rule="evenodd" fill="#BCBCBC" d="M76.374,49.593c-0.671-2.918-3.06-5.071-5.934-5.392
			c-6.81-0.763-13.7-0.766-20.56-0.763c-6.861-0.003-13.753,0-20.561,0.763c-2.875,0.32-5.264,2.474-5.934,5.392
			c-0.957,4.16-0.967,8.697-0.967,12.98c0,4.28,0,8.82,0.956,12.979c0.671,2.92,3.058,5.073,5.933,5.395
			c6.808,0.76,13.699,0.765,20.561,0.76c6.859,0.005,13.75,0,20.561-0.76c2.873-0.321,5.264-2.475,5.934-5.395
			c0.957-4.158,0.963-8.698,0.963-12.979C77.326,58.291,77.33,53.753,76.374,49.593z M38.08,53.335h-3.975v21.117h-3.69V53.335
			h-3.903v-3.461H38.08V53.335z M48.105,74.453h-3.32v-1.998c-1.318,1.513-2.571,2.25-3.791,2.25c-1.069,0-1.807-0.435-2.139-1.363
			c-0.182-0.555-0.291-1.428-0.291-2.722V56.14h3.316v13.481c0,0.776,0,1.184,0.03,1.289c0.08,0.516,0.333,0.776,0.776,0.776
			c0.666,0,1.361-0.513,2.098-1.552V56.14h3.32V74.453z M60.711,68.957c0,1.693-0.113,2.913-0.334,3.689
			c-0.444,1.363-1.331,2.059-2.654,2.059c-1.179,0-2.318-0.656-3.427-2.028v1.776h-3.318V49.875h3.318v8.028
			c1.071-1.319,2.208-1.987,3.427-1.987c1.323,0,2.21,0.695,2.654,2.068c0.221,0.736,0.334,1.947,0.334,3.68V68.957z M73.233,65.901
			h-6.635v3.245c0,1.696,0.555,2.541,1.693,2.541c0.817,0,1.294-0.443,1.483-1.33c0.029-0.181,0.071-0.917,0.071-2.248h3.387v0.485
			c0,1.067-0.04,1.804-0.07,2.137c-0.112,0.734-0.373,1.4-0.774,1.989c-0.92,1.328-2.281,1.984-4.014,1.984
			c-1.736,0-3.057-0.626-4.016-1.876c-0.705-0.915-1.066-2.361-1.066-4.307v-6.415c0-1.956,0.32-3.387,1.025-4.312
			c0.958-1.255,2.28-1.879,3.974-1.879c1.665,0,2.985,0.624,3.915,1.879c0.693,0.926,1.026,2.356,1.026,4.312V65.901z"/>
	</g>
</g>
</svg>
