<?xml version="1.0" encoding="utf-8"?>
<!-- Generator: Adobe Illustrator 15.1.0, SVG Export Plug-In . SVG Version: 6.00 Build 0)  -->
<!DOCTYPE svg PUBLIC "-//W3C//DTD SVG 1.1//EN" "http://www.w3.org/Graphics/SVG/1.1/DTD/svg11.dtd">
<svg version="1.1" id="Layer_1" xmlns="http://www.w3.org/2000/svg" xmlns:xlink="http://www.w3.org/1999/xlink" x="0px" y="0px"
	 width="99.441px" height="99.44px" viewBox="0 0 99.441 99.44" enable-background="new 0 0 99.441 99.44" xml:space="preserve">
<path fill="#CA3C27" d="M88.703,0H10.74C4.809,0,0,4.809,0,10.74V88.7c0,5.932,4.809,10.74,10.74,10.74h77.963
	c5.93,0,10.738-4.809,10.738-10.74V10.74C99.441,4.809,94.633,0,88.703,0z M30.605,25.937c0.637-1.022,1.859-1.426,1.859-1.426
	l12.496-4.643c0.533-0.079,1.086-0.669,2.949,0.462c1.186,0.715,1.455,3.358,1.455,3.358l0.119,21.428c0,0-0.281,2.572-2.055,3.009
	c-1.631,0.402-2.914-0.923-2.914-0.923l-12.984-17.7C31.531,29.502,29.695,27.384,30.605,25.937z M23.992,62.528
	c-0.482-0.85-0.352-2.715-0.352-2.715l0.875-10.768c0.064-0.699,0.721-1.491,1.459-1.928c0.967-0.571,2.957,0.249,2.957,0.249
	l13.43,6.785c0,0,2.029,0.992,1.984,2.645c-0.059,2.186-1.127,2.221-1.736,2.633l-15.68,3.465
	C26.93,62.893,24.678,63.731,23.992,62.528z M48.17,82.948c-0.969,0.283-2.246,0.016-2.246,0.016l-10.543-3.328
	c-0.734-0.355-1.256-0.863-1.568-1.879c-0.332-1.084,0.977-2.854,0.977-2.854l10.5-11.557c0,0,1.609-1.43,2.955-0.738
	c1.232,0.637,1.285,2.145,1.285,2.145l-0.238,15.646C49.291,80.399,49.545,82.549,48.17,82.948z M54.582,50.805l8.502-13.38
	c0,0,0.879-1.727,2.303-1.604c1.293,0.107,1.918,1.179,1.918,1.179l7.189,8.471c0,0,0.627,1.343,0.34,2.455
	c-0.293,1.113-2.344,1.945-2.344,1.945l-15.049,4.398c0,0-2.129,0.383-2.9-0.928C53.828,52.139,54.582,50.805,54.582,50.805z
	 M74.328,68.346l-6.371,9.105c0,0-1.137,0.945-2.289,0.945c-1.146,0-2.469-1.773-2.469-1.773l-8.059-13.455
	c0,0-0.906-1.965,0.164-3.045c0.984-0.994,2.463-0.602,2.463-0.602l15.082,4.844c0,0,2.158,0.393,2.135,1.824
	C74.971,67.196,74.328,68.346,74.328,68.346z"/>
</svg>
