<?xml version="1.0" encoding="utf-8"?>
<!DOCTYPE svg PUBLIC "-//W3C//DTD SVG 1.1//EN" "http://www.w3.org/Graphics/SVG/1.1/DTD/svg11.dtd">
<svg version="1.1" id="Layer_1" xmlns="http://www.w3.org/2000/svg" xmlns:xlink="http://www.w3.org/1999/xlink" x="0px" y="0px"
	 width="99.441px" height="99.44px" viewBox="0 0 99.441 99.44" enable-background="new 0 0 99.441 99.44" xml:space="preserve">
  <g id="yelp">
    <g>
      <path fill="#BCBCBC" d="M59.079,63.383c-1.67,1.684-0.26,4.746-0.26,4.746l12.564,20.98c0,0,2.064,2.764,3.854,2.764
        c1.793,0,3.566-1.471,3.566-1.471l9.936-14.199c0,0,1-1.795,1.021-3.363c0.037-2.23-3.328-2.846-3.328-2.846l-23.516-7.549
        C62.917,62.446,60.61,61.833,59.079,63.383z"/>
      <path fill="#BCBCBC" d="M57.888,52.807c1.199,2.041,4.521,1.447,4.521,1.447l23.463-6.859c0,0,3.197-1.299,3.654-3.034
        c0.449-1.733-0.529-3.827-0.529-3.827L77.786,27.327c0,0-0.973-1.671-2.988-1.838c-2.223-0.19-3.594,2.501-3.594,2.501
        L57.95,48.855C57.95,48.855,56.774,50.934,57.888,52.807z"/>
      <path fill="#BCBCBC" d="M46.798,44.673c2.764-0.681,3.203-4.69,3.203-4.69l-0.185-33.41c0,0-0.418-4.122-2.27-5.236
        c-2.906-1.763-3.766-0.844-4.598-0.72L23.466,7.855c0,0-1.907,0.628-2.9,2.222c-1.418,2.257,1.443,5.56,1.443,5.56l20.248,27.598
        C42.256,43.235,44.254,45.303,46.798,44.673z"/>
      <path fill="#BCBCBC" d="M41.988,58.194c0.069-2.576-3.093-4.125-3.093-4.125l-20.94-10.578c0,0-3.101-1.279-4.608-0.388
        c-1.153,0.682-2.175,1.916-2.275,3.008L9.706,62.899c0,0-0.204,2.906,0.547,4.23c1.069,1.879,4.584,0.57,4.584,0.57l24.443-5.402
        C40.232,61.659,41.899,61.602,41.988,58.194z"/>
      <path fill="#BCBCBC" d="M48.069,67.256c-2.1-1.08-4.609,1.15-4.609,1.15l-16.37,18.02c0,0-2.041,2.758-1.524,4.449
        c0.488,1.584,1.3,2.375,2.445,2.93l16.439,5.189c0,0,1.994,0.416,3.503-0.023c2.142-0.621,1.745-3.977,1.745-3.977L50.071,70.6
        C50.071,70.6,49.989,68.249,48.069,67.256z"/>
    </g>
  </g>
</svg>
