<?xml version="1.0" encoding="utf-8"?>
<!DOCTYPE svg PUBLIC "-//W3C//DTD SVG 1.1//EN" "http://www.w3.org/Graphics/SVG/1.1/DTD/svg11.dtd">
<svg version="1.1" id="Layer_1" xmlns="http://www.w3.org/2000/svg" xmlns:xlink="http://www.w3.org/1999/xlink" x="0px" y="0px"
	 width="99.441px" height="99.44px" viewBox="0 0 99.441 99.44" enable-background="new 0 0 99.441 99.44" xml:space="preserve">
  <g id="youtube">
    <path fill-rule="evenodd" clip-rule="evenodd" fill="#BCBCBC" d="M29.109,22.859v14.962h5.534V22.859l6.654-21.983h-5.594
      l-3.771,14.507L28.002,0.876h-5.82c1.165,3.423,2.38,6.867,3.548,10.294C27.503,16.323,28.61,20.206,29.109,22.859z"/>
    <path fill-rule="evenodd" clip-rule="evenodd" fill="#BCBCBC" d="M48.714,38.203c2.501,0,4.438-0.942,5.822-2.817
      c1.044-1.382,1.548-3.551,1.548-6.476v-9.645c0-2.942-0.504-5.095-1.548-6.486c-1.384-1.88-3.321-2.822-5.822-2.822
      c-2.484,0-4.428,0.942-5.807,2.822c-1.061,1.392-1.563,3.544-1.563,6.486v9.645c0,2.924,0.502,5.093,1.563,6.476
      C44.286,37.26,46.229,38.203,48.714,38.203z M46.333,18.265c0-2.547,0.771-3.815,2.38-3.815s2.378,1.268,2.378,3.815v11.583
      c0,2.547-0.769,3.822-2.378,3.822s-2.38-1.275-2.38-3.822V18.265z"/>
    <path fill-rule="evenodd" clip-rule="evenodd" fill="#BCBCBC" d="M63.844,38.203c1.819,0,3.714-1.106,5.698-3.386v3.005h4.992
      V10.29h-4.992v21.043c-1.104,1.563-2.152,2.337-3.15,2.337c-0.668,0-1.059-0.396-1.169-1.169c-0.06-0.162-0.06-0.77-0.06-1.942
      V10.29h-4.975v21.771c0,1.942,0.168,3.262,0.441,4.093C61.129,37.55,62.237,38.203,63.844,38.203z"/>
    <path fill-rule="evenodd" clip-rule="evenodd" fill="#BCBCBC" d="M77.211,65.775c-1.649,0-2.474,1.261-2.474,3.78v2.52h4.935v-2.52
      C79.672,67.036,78.846,65.775,77.211,65.775z"/>
    <path fill-rule="evenodd" clip-rule="evenodd" fill="#BCBCBC" d="M58.892,65.775c-0.81,0-1.635,0.387-2.459,1.2v16.606
      c0.824,0.826,1.649,1.214,2.459,1.214c1.426,0,2.147-1.214,2.147-3.675V69.495C61.039,67.036,60.317,65.775,58.892,65.775z"/>
    <path fill-rule="evenodd" clip-rule="evenodd" fill="#BCBCBC" d="M89.28,51.924c-0.998-4.342-4.552-7.545-8.827-8.022
      c-10.133-1.134-20.384-1.139-30.589-1.134c-10.208-0.005-20.462,0-30.59,1.134c-4.277,0.477-7.832,3.68-8.829,8.022
      c-1.423,6.189-1.438,12.94-1.438,19.312c0,6.368,0,13.123,1.422,19.311c0.999,4.344,4.549,7.549,8.827,8.026
      c10.129,1.13,20.382,1.137,30.59,1.13c10.206,0.007,20.458,0,30.59-1.13c4.275-0.478,7.832-3.683,8.829-8.026
      c1.424-6.188,1.432-12.942,1.432-19.311C90.697,64.865,90.703,58.114,89.28,51.924z M32.306,57.492h-5.913V88.91h-5.491V57.492
      h-5.808v-5.149h17.211V57.492z M47.223,88.91h-4.941v-2.973c-1.961,2.251-3.825,3.348-5.64,3.348c-1.59,0-2.688-0.646-3.182-2.028
      c-0.27-0.824-0.433-2.124-0.433-4.049V61.664h4.933v20.058c0,1.156,0,1.762,0.045,1.919c0.12,0.768,0.496,1.155,1.155,1.155
      c0.991,0,2.026-0.764,3.121-2.31V61.664h4.941V88.91z M65.978,80.734c0,2.519-0.169,4.334-0.497,5.488
      c-0.662,2.028-1.981,3.062-3.949,3.062c-1.754,0-3.449-0.977-5.099-3.018v2.643h-4.938V52.342h4.938v11.944
      c1.594-1.963,3.284-2.957,5.099-2.957c1.968,0,3.287,1.035,3.949,3.079c0.328,1.094,0.497,2.896,0.497,5.474V80.734z
       M84.607,76.186h-9.87v4.829c0,2.523,0.824,3.78,2.519,3.78c1.217,0,1.925-0.66,2.208-1.979c0.044-0.268,0.105-1.363,0.105-3.345
      h5.038v0.723c0,1.588-0.06,2.684-0.104,3.18c-0.168,1.093-0.555,2.082-1.151,2.96c-1.369,1.975-3.395,2.951-5.972,2.951
      c-2.584,0-4.548-0.932-5.975-2.791c-1.049-1.361-1.587-3.513-1.587-6.406v-9.546c0-2.91,0.476-5.039,1.525-6.417
      c1.426-1.866,3.394-2.795,5.912-2.795c2.478,0,4.442,0.929,5.825,2.795c1.031,1.378,1.526,3.507,1.526,6.417V76.186z"/>
  </g>
</svg>
