<?xml version="1.0" encoding="utf-8"?>
<!-- Generator: Adobe Illustrator 15.1.0, SVG Export Plug-In . SVG Version: 6.00 Build 0)  -->
<!DOCTYPE svg PUBLIC "-//W3C//DTD SVG 1.1//EN" "http://www.w3.org/Graphics/SVG/1.1/DTD/svg11.dtd">
<svg version="1.1" id="Layer_1" xmlns="http://www.w3.org/2000/svg" xmlns:xlink="http://www.w3.org/1999/xlink" x="0px" y="0px"
	 width="99.441px" height="99.44px" viewBox="0 0 99.441 99.44" enable-background="new 0 0 99.441 99.44" xml:space="preserve">
<g>
	<path fill="#EB2629" d="M44.634,71.362c-0.736,1.039-1.432,1.551-2.098,1.551c-0.443,0-0.696-0.26-0.776-0.775
		c-0.03-0.105-0.03-0.514-0.03-1.289V57.366h-3.316v14.48c0,1.293,0.109,2.166,0.291,2.721c0.332,0.93,1.069,1.363,2.139,1.363
		c1.22,0,2.473-0.736,3.791-2.25v1.998h3.32V57.366h-3.32V71.362z"/>
	<polygon fill="#EB2629" points="26.36,54.561 30.264,54.561 30.264,75.678 33.954,75.678 33.954,54.561 37.929,54.561 37.929,51.1 
		26.36,51.1 	"/>
	<path fill="#EB2629" d="M57.571,57.141c-1.219,0-2.355,0.668-3.427,1.988V51.1h-3.318v24.578h3.318v-1.775
		c1.108,1.371,2.248,2.027,3.427,2.027c1.323,0,2.21-0.695,2.654-2.059c0.221-0.775,0.334-1.996,0.334-3.689v-7.293
		c0-1.732-0.113-2.943-0.334-3.68C59.781,57.836,58.895,57.141,57.571,57.141z M57.241,70.444c0,1.654-0.486,2.469-1.443,2.469
		c-0.545,0-1.099-0.26-1.653-0.814V60.936c0.555-0.547,1.108-0.807,1.653-0.807c0.957,0,1.443,0.848,1.443,2.5V70.444z"/>
	<path fill="#EB2629" d="M88.702,0H10.741C4.81,0,0.001,4.809,0.001,10.739v77.963c0,5.93,4.809,10.738,10.74,10.738h77.961
		c5.932,0,10.739-4.809,10.739-10.738V10.739C99.441,4.809,94.634,0,88.702,0z M56.659,23.238h0.01v-0.402h3.344v13.623
		c0,0.788,0,1.197,0.04,1.306c0.074,0.52,0.337,0.785,0.786,0.785c0.667,0,1.369-0.517,2.107-1.558V23.238h0.01v-0.402h3.355V41.34
		H66.3v0.404h-3.354v-2.02c-1.336,1.532-2.607,2.273-3.83,2.273c-1.079,0-1.825-0.438-2.158-1.375
		c-0.186-0.561-0.299-1.445-0.299-2.751V23.238z M43.993,29.272c0-0.076,0.009-0.137,0.01-0.211v-0.193
		c0-1.978,0.338-3.424,1.051-4.359c0.927-1.264,2.233-1.896,3.903-1.896c1.681,0,2.983,0.633,3.913,1.896
		c0.701,0.936,1.04,2.382,1.04,4.359v6.482c0,0.083-0.01,0.151-0.011,0.232v0.169c0,1.969-0.337,3.427-1.041,4.353
		c-0.926,1.262-2.232,1.895-3.912,1.895c-1.671,0-2.975-0.633-3.902-1.895c-0.713-0.926-1.051-2.384-1.051-4.353V29.272z
		 M31.124,16.508h3.912l2.641,9.751l2.535-9.751h3.76l-0.121,0.401h0.113l-4.465,14.748v9.683H39.49v0.404h-3.72V31.686
		c-0.337-1.781-1.08-4.392-2.273-7.856c-0.783-2.304-1.6-4.616-2.383-6.92h0.148C31.217,16.776,31.169,16.642,31.124,16.508z
		 M76.212,76.778c-0.67,2.92-3.061,5.074-5.934,5.395c-6.811,0.76-13.701,0.766-20.561,0.76c-6.861,0.006-13.753,0-20.561-0.76
		c-2.875-0.32-5.262-2.475-5.933-5.395c-0.956-4.158-0.956-8.697-0.956-12.979c0-4.283,0.01-8.82,0.967-12.98
		c0.67-2.918,3.059-5.071,5.934-5.392c6.808-0.763,13.699-0.766,20.561-0.763c6.859-0.003,13.75,0,20.56,0.763
		c2.874,0.32,5.263,2.474,5.934,5.392c0.956,4.16,0.952,8.697,0.952,12.98C77.175,68.081,77.169,72.62,76.212,76.778z"/>
	<path fill="#EB2629" d="M68.141,57.141c-1.693,0-3.016,0.625-3.974,1.879c-0.705,0.926-1.025,2.357-1.025,4.312v6.416
		c0,1.945,0.361,3.391,1.066,4.307c0.959,1.25,2.279,1.875,4.016,1.875c1.732,0,3.094-0.656,4.014-1.984
		c0.401-0.588,0.662-1.254,0.774-1.988c0.03-0.334,0.07-1.07,0.07-2.137v-0.486h-3.387c0,1.332-0.042,2.068-0.071,2.248
		c-0.189,0.887-0.666,1.33-1.483,1.33c-1.139,0-1.693-0.844-1.693-2.541v-3.244h6.635v-3.795c0-1.955-0.333-3.387-1.026-4.312
		C71.126,57.766,69.806,57.141,68.141,57.141z M69.765,64.364h-3.317V62.67c0-1.693,0.555-2.541,1.663-2.541
		c1.099,0,1.654,0.848,1.654,2.541V64.364z"/>
	<path fill="#EB2629" d="M48.957,38.549c1.026,0,1.539-0.783,1.589-2.327V28.6c0-1.712-0.52-2.567-1.6-2.567
		c-1.026,0-1.54,0.782-1.59,2.327v7.622C47.356,37.693,47.875,38.549,48.957,38.549z"/>
</g>
</svg>
